0
SECTION
2
HEADER
9
$ACADVER
1
AC1006
0
ENDSEC
0
SECTION
2
TABLES
0
TABLE
2
LAYER
70
1
0
LAYER
70
0
62
1
6
CONTINUOUS
2
L0D0_0
0
ENDTAB
0
ENDSEC
0
SECTION
2
BLOCKS
0
ENDSEC
0
SECTION
2
ENTITIES
0
POLYLINE
8
L0D0_0
70
1
40
0
41
0
66
1
0
VERTEX
8
L0D0_0
10
54.671
20
-33.815
0
VERTEX
8
L0D0_0
10
54.455
20
-33.544
0
VERTEX
8
L0D0_0
10
54.411
20
-33.489
0
VERTEX
8
L0D0_0
10
54.317
20
-33.385
0
VERTEX
8
L0D0_0
10
54.217
20
-33.288
0
VERTEX
8
L0D0_0
10
54.111
20
-33.197
0
VERTEX
8
L0D0_0
10
53.999
20
-33.112
0
VERTEX
8
L0D0_0
10
53.883
20
-33.035
0
VERTEX
8
L0D0_0
10
53.762
20
-32.966
0
VERTEX
8
L0D0_0
10
53.636
20
-32.904
0
VERTEX
8
L0D0_0
10
53.507
20
-32.85
0
VERTEX
8
L0D0_0
10
53.375
20
-32.804
0
VERTEX
8
L0D0_0
10
53.307
20
-32.786
0
VERTEX
8
L0D0_0
10
49.648
20
-31.773
0
VERTEX
8
L0D0_0
10
49.648
20
-29.976
0
VERTEX
8
L0D0_0
10
48.648
20
-29.612
0
VERTEX
8
L0D0_0
10
48.648
20
-28.888
0
VERTEX
8
L0D0_0
10
49.648
20
-28.524
0
VERTEX
8
L0D0_0
10
49.648
20
-26.727
0
VERTEX
8
L0D0_0
10
53.307
20
-25.714
0
VERTEX
8
L0D0_0
10
53.375
20
-25.696
0
VERTEX
8
L0D0_0
10
53.507
20
-25.65
0
VERTEX
8
L0D0_0
10
53.636
20
-25.596
0
VERTEX
8
L0D0_0
10
53.762
20
-25.534
0
VERTEX
8
L0D0_0
10
53.883
20
-25.465
0
VERTEX
8
L0D0_0
10
53.999
20
-25.388
0
VERTEX
8
L0D0_0
10
54.111
20
-25.303
0
VERTEX
8
L0D0_0
10
54.217
20
-25.212
0
VERTEX
8
L0D0_0
10
54.317
20
-25.115
0
VERTEX
8
L0D0_0
10
54.411
20
-25.011
0
VERTEX
8
L0D0_0
10
54.455
20
-24.956
0
VERTEX
8
L0D0_0
10
54.671
20
-24.685
0
VERTEX
8
L0D0_0
10
54.814
20
-24.87
0
VERTEX
8
L0D0_0
10
55.076
20
-25.258
0
VERTEX
8
L0D0_0
10
55.313
20
-25.661
0
VERTEX
8
L0D0_0
10
55.525
20
-26.078
0
VERTEX
8
L0D0_0
10
55.71
20
-26.508
0
VERTEX
8
L0D0_0
10
55.867
20
-26.948
0
VERTEX
8
L0D0_0
10
55.997
20
-27.398
0
VERTEX
8
L0D0_0
10
56.099
20
-27.854
0
VERTEX
8
L0D0_0
10
56.172
20
-28.317
0
VERTEX
8
L0D0_0
10
56.216
20
-28.782
0
VERTEX
8
L0D0_0
10
56.23
20
-29.25
0
VERTEX
8
L0D0_0
10
56.216
20
-29.718
0
VERTEX
8
L0D0_0
10
56.172
20
-30.183
0
VERTEX
8
L0D0_0
10
56.099
20
-30.646
0
VERTEX
8
L0D0_0
10
55.997
20
-31.102
0
VERTEX
8
L0D0_0
10
55.867
20
-31.552
0
VERTEX
8
L0D0_0
10
55.71
20
-31.992
0
VERTEX
8
L0D0_0
10
55.525
20
-32.422
0
VERTEX
8
L0D0_0
10
55.313
20
-32.839
0
VERTEX
8
L0D0_0
10
55.076
20
-33.242
0
VERTEX
8
L0D0_0
10
54.814
20
-33.63
0
SEQEND
0
POLYLINE
8
L0D0_0
70
1
40
0
41
0
66
1
0
VERTEX
8
L0D0_0
10
35.171
20
-33.815
0
VERTEX
8
L0D0_0
10
34.955
20
-33.544
0
VERTEX
8
L0D0_0
10
34.911
20
-33.489
0
VERTEX
8
L0D0_0
10
34.817
20
-33.385
0
VERTEX
8
L0D0_0
10
34.717
20
-33.288
0
VERTEX
8
L0D0_0
10
34.611
20
-33.197
0
VERTEX
8
L0D0_0
10
34.499
20
-33.112
0
VERTEX
8
L0D0_0
10
34.383
20
-33.035
0
VERTEX
8
L0D0_0
10
34.262
20
-32.966
0
VERTEX
8
L0D0_0
10
34.136
20
-32.904
0
VERTEX
8
L0D0_0
10
34.007
20
-32.85
0
VERTEX
8
L0D0_0
10
33.875
20
-32.804
0
VERTEX
8
L0D0_0
10
33.807
20
-32.786
0
VERTEX
8
L0D0_0
10
30.148
20
-31.773
0
VERTEX
8
L0D0_0
10
30.148
20
-29.976
0
VERTEX
8
L0D0_0
10
29.148
20
-29.612
0
VERTEX
8
L0D0_0
10
29.148
20
-28.888
0
VERTEX
8
L0D0_0
10
30.148
20
-28.524
0
VERTEX
8
L0D0_0
10
30.148
20
-26.727
0
VERTEX
8
L0D0_0
10
33.807
20
-25.714
0
VERTEX
8
L0D0_0
10
33.875
20
-25.696
0
VERTEX
8
L0D0_0
10
34.007
20
-25.65
0
VERTEX
8
L0D0_0
10
34.136
20
-25.596
0
VERTEX
8
L0D0_0
10
34.262
20
-25.534
0
VERTEX
8
L0D0_0
10
34.383
20
-25.465
0
VERTEX
8
L0D0_0
10
34.499
20
-25.388
0
VERTEX
8
L0D0_0
10
34.611
20
-25.303
0
VERTEX
8
L0D0_0
10
34.717
20
-25.212
0
VERTEX
8
L0D0_0
10
34.817
20
-25.115
0
VERTEX
8
L0D0_0
10
34.911
20
-25.011
0
VERTEX
8
L0D0_0
10
34.955
20
-24.956
0
VERTEX
8
L0D0_0
10
35.171
20
-24.685
0
VERTEX
8
L0D0_0
10
35.314
20
-24.87
0
VERTEX
8
L0D0_0
10
35.576
20
-25.258
0
VERTEX
8
L0D0_0
10
35.813
20
-25.661
0
VERTEX
8
L0D0_0
10
36.025
20
-26.078
0
VERTEX
8
L0D0_0
10
36.21
20
-26.508
0
VERTEX
8
L0D0_0
10
36.367
20
-26.948
0
VERTEX
8
L0D0_0
10
36.497
20
-27.398
0
VERTEX
8
L0D0_0
10
36.599
20
-27.854
0
VERTEX
8
L0D0_0
10
36.672
20
-28.317
0
VERTEX
8
L0D0_0
10
36.716
20
-28.782
0
VERTEX
8
L0D0_0
10
36.73
20
-29.25
0
VERTEX
8
L0D0_0
10
36.716
20
-29.718
0
VERTEX
8
L0D0_0
10
36.672
20
-30.183
0
VERTEX
8
L0D0_0
10
36.599
20
-30.646
0
VERTEX
8
L0D0_0
10
36.497
20
-31.102
0
VERTEX
8
L0D0_0
10
36.367
20
-31.552
0
VERTEX
8
L0D0_0
10
36.21
20
-31.992
0
VERTEX
8
L0D0_0
10
36.025
20
-32.422
0
VERTEX
8
L0D0_0
10
35.813
20
-32.839
0
VERTEX
8
L0D0_0
10
35.576
20
-33.242
0
VERTEX
8
L0D0_0
10
35.314
20
-33.63
0
SEQEND
0
POLYLINE
8
L0D0_0
70
1
40
0
41
0
66
1
0
VERTEX
8
L0D0_0
10
15.671
20
-33.815
0
VERTEX
8
L0D0_0
10
15.455
20
-33.544
0
VERTEX
8
L0D0_0
10
15.411
20
-33.489
0
VERTEX
8
L0D0_0
10
15.317
20
-33.385
0
VERTEX
8
L0D0_0
10
15.217
20
-33.288
0
VERTEX
8
L0D0_0
10
15.111
20
-33.197
0
VERTEX
8
L0D0_0
10
14.999
20
-33.112
0
VERTEX
8
L0D0_0
10
14.883
20
-33.035
0
VERTEX
8
L0D0_0
10
14.762
20
-32.966
0
VERTEX
8
L0D0_0
10
14.636
20
-32.904
0
VERTEX
8
L0D0_0
10
14.507
20
-32.85
0
VERTEX
8
L0D0_0
10
14.375
20
-32.804
0
VERTEX
8
L0D0_0
10
14.307
20
-32.786
0
VERTEX
8
L0D0_0
10
10.648
20
-31.773
0
VERTEX
8
L0D0_0
10
10.648
20
-29.976
0
VERTEX
8
L0D0_0
10
9.648
20
-29.612
0
VERTEX
8
L0D0_0
10
9.648
20
-28.888
0
VERTEX
8
L0D0_0
10
10.648
20
-28.524
0
VERTEX
8
L0D0_0
10
10.648
20
-26.727
0
VERTEX
8
L0D0_0
10
14.307
20
-25.714
0
VERTEX
8
L0D0_0
10
14.375
20
-25.696
0
VERTEX
8
L0D0_0
10
14.507
20
-25.65
0
VERTEX
8
L0D0_0
10
14.636
20
-25.596
0
VERTEX
8
L0D0_0
10
14.762
20
-25.534
0
VERTEX
8
L0D0_0
10
14.883
20
-25.465
0
VERTEX
8
L0D0_0
10
14.999
20
-25.388
0
VERTEX
8
L0D0_0
10
15.111
20
-25.303
0
VERTEX
8
L0D0_0
10
15.217
20
-25.212
0
VERTEX
8
L0D0_0
10
15.317
20
-25.115
0
VERTEX
8
L0D0_0
10
15.411
20
-25.011
0
VERTEX
8
L0D0_0
10
15.455
20
-24.956
0
VERTEX
8
L0D0_0
10
15.671
20
-24.685
0
VERTEX
8
L0D0_0
10
15.814
20
-24.87
0
VERTEX
8
L0D0_0
10
16.076
20
-25.258
0
VERTEX
8
L0D0_0
10
16.313
20
-25.661
0
VERTEX
8
L0D0_0
10
16.525
20
-26.078
0
VERTEX
8
L0D0_0
10
16.71
20
-26.508
0
VERTEX
8
L0D0_0
10
16.867
20
-26.948
0
VERTEX
8
L0D0_0
10
16.997
20
-27.398
0
VERTEX
8
L0D0_0
10
17.099
20
-27.854
0
VERTEX
8
L0D0_0
10
17.172
20
-28.317
0
VERTEX
8
L0D0_0
10
17.216
20
-28.782
0
VERTEX
8
L0D0_0
10
17.23
20
-29.25
0
VERTEX
8
L0D0_0
10
17.216
20
-29.718
0
VERTEX
8
L0D0_0
10
17.172
20
-30.183
0
VERTEX
8
L0D0_0
10
17.099
20
-30.646
0
VERTEX
8
L0D0_0
10
16.997
20
-31.102
0
VERTEX
8
L0D0_0
10
16.867
20
-31.552
0
VERTEX
8
L0D0_0
10
16.71
20
-31.992
0
VERTEX
8
L0D0_0
10
16.525
20
-32.422
0
VERTEX
8
L0D0_0
10
16.313
20
-32.839
0
VERTEX
8
L0D0_0
10
16.076
20
-33.242
0
VERTEX
8
L0D0_0
10
15.814
20
-33.63
0
SEQEND
0
POLYLINE
8
L0D0_0
70
1
40
0
41
0
66
1
0
VERTEX
8
L0D0_0
10
-3.829
20
-33.815
0
VERTEX
8
L0D0_0
10
-4.045
20
-33.544
0
VERTEX
8
L0D0_0
10
-4.089
20
-33.489
0
VERTEX
8
L0D0_0
10
-4.183
20
-33.385
0
VERTEX
8
L0D0_0
10
-4.283
20
-33.288
0
VERTEX
8
L0D0_0
10
-4.389
20
-33.197
0
VERTEX
8
L0D0_0
10
-4.501
20
-33.112
0
VERTEX
8
L0D0_0
10
-4.617
20
-33.035
0
VERTEX
8
L0D0_0
10
-4.738
20
-32.966
0
VERTEX
8
L0D0_0
10
-4.864
20
-32.904
0
VERTEX
8
L0D0_0
10
-4.993
20
-32.85
0
VERTEX
8
L0D0_0
10
-5.125
20
-32.804
0
VERTEX
8
L0D0_0
10
-5.193
20
-32.786
0
VERTEX
8
L0D0_0
10
-8.852
20
-31.773
0
VERTEX
8
L0D0_0
10
-8.852
20
-29.976
0
VERTEX
8
L0D0_0
10
-9.852
20
-29.612
0
VERTEX
8
L0D0_0
10
-9.852
20
-28.888
0
VERTEX
8
L0D0_0
10
-8.852
20
-28.524
0
VERTEX
8
L0D0_0
10
-8.852
20
-26.727
0
VERTEX
8
L0D0_0
10
-5.193
20
-25.714
0
VERTEX
8
L0D0_0
10
-5.125
20
-25.696
0
VERTEX
8
L0D0_0
10
-4.993
20
-25.65
0
VERTEX
8
L0D0_0
10
-4.864
20
-25.596
0
VERTEX
8
L0D0_0
10
-4.738
20
-25.534
0
VERTEX
8
L0D0_0
10
-4.617
20
-25.465
0
VERTEX
8
L0D0_0
10
-4.501
20
-25.388
0
VERTEX
8
L0D0_0
10
-4.389
20
-25.303
0
VERTEX
8
L0D0_0
10
-4.283
20
-25.212
0
VERTEX
8
L0D0_0
10
-4.183
20
-25.115
0
VERTEX
8
L0D0_0
10
-4.089
20
-25.011
0
VERTEX
8
L0D0_0
10
-4.045
20
-24.956
0
VERTEX
8
L0D0_0
10
-3.829
20
-24.685
0
VERTEX
8
L0D0_0
10
-3.686
20
-24.87
0
VERTEX
8
L0D0_0
10
-3.424
20
-25.258
0
VERTEX
8
L0D0_0
10
-3.187
20
-25.661
0
VERTEX
8
L0D0_0
10
-2.975
20
-26.078
0
VERTEX
8
L0D0_0
10
-2.79
20
-26.508
0
VERTEX
8
L0D0_0
10
-2.633
20
-26.948
0
VERTEX
8
L0D0_0
10
-2.503
20
-27.398
0
VERTEX
8
L0D0_0
10
-2.401
20
-27.854
0
VERTEX
8
L0D0_0
10
-2.328
20
-28.317
0
VERTEX
8
L0D0_0
10
-2.284
20
-28.782
0
VERTEX
8
L0D0_0
10
-2.27
20
-29.25
0
VERTEX
8
L0D0_0
10
-2.284
20
-29.718
0
VERTEX
8
L0D0_0
10
-2.328
20
-30.183
0
VERTEX
8
L0D0_0
10
-2.401
20
-30.646
0
VERTEX
8
L0D0_0
10
-2.503
20
-31.102
0
VERTEX
8
L0D0_0
10
-2.633
20
-31.552
0
VERTEX
8
L0D0_0
10
-2.79
20
-31.992
0
VERTEX
8
L0D0_0
10
-2.975
20
-32.422
0
VERTEX
8
L0D0_0
10
-3.187
20
-32.839
0
VERTEX
8
L0D0_0
10
-3.424
20
-33.242
0
VERTEX
8
L0D0_0
10
-3.686
20
-33.63
0
SEQEND
0
POLYLINE
8
L0D0_0
70
1
40
0
41
0
66
1
0
VERTEX
8
L0D0_0
10
-23.329
20
-33.815
0
VERTEX
8
L0D0_0
10
-23.545
20
-33.544
0
VERTEX
8
L0D0_0
10
-23.589
20
-33.489
0
VERTEX
8
L0D0_0
10
-23.683
20
-33.385
0
VERTEX
8
L0D0_0
10
-23.783
20
-33.288
0
VERTEX
8
L0D0_0
10
-23.889
20
-33.197
0
VERTEX
8
L0D0_0
10
-24.001
20
-33.112
0
VERTEX
8
L0D0_0
10
-24.117
20
-33.035
0
VERTEX
8
L0D0_0
10
-24.238
20
-32.966
0
VERTEX
8
L0D0_0
10
-24.364
20
-32.904
0
VERTEX
8
L0D0_0
10
-24.493
20
-32.85
0
VERTEX
8
L0D0_0
10
-24.625
20
-32.804
0
VERTEX
8
L0D0_0
10
-24.693
20
-32.786
0
VERTEX
8
L0D0_0
10
-28.352
20
-31.773
0
VERTEX
8
L0D0_0
10
-28.352
20
-29.976
0
VERTEX
8
L0D0_0
10
-29.352
20
-29.612
0
VERTEX
8
L0D0_0
10
-29.352
20
-28.888
0
VERTEX
8
L0D0_0
10
-28.352
20
-28.524
0
VERTEX
8
L0D0_0
10
-28.352
20
-26.727
0
VERTEX
8
L0D0_0
10
-24.693
20
-25.714
0
VERTEX
8
L0D0_0
10
-24.625
20
-25.696
0
VERTEX
8
L0D0_0
10
-24.493
20
-25.65
0
VERTEX
8
L0D0_0
10
-24.364
20
-25.596
0
VERTEX
8
L0D0_0
10
-24.238
20
-25.534
0
VERTEX
8
L0D0_0
10
-24.117
20
-25.465
0
VERTEX
8
L0D0_0
10
-24.001
20
-25.388
0
VERTEX
8
L0D0_0
10
-23.889
20
-25.303
0
VERTEX
8
L0D0_0
10
-23.783
20
-25.212
0
VERTEX
8
L0D0_0
10
-23.683
20
-25.115
0
VERTEX
8
L0D0_0
10
-23.589
20
-25.011
0
VERTEX
8
L0D0_0
10
-23.545
20
-24.956
0
VERTEX
8
L0D0_0
10
-23.329
20
-24.685
0
VERTEX
8
L0D0_0
10
-23.186
20
-24.87
0
VERTEX
8
L0D0_0
10
-22.924
20
-25.258
0
VERTEX
8
L0D0_0
10
-22.687
20
-25.661
0
VERTEX
8
L0D0_0
10
-22.475
20
-26.078
0
VERTEX
8
L0D0_0
10
-22.29
20
-26.508
0
VERTEX
8
L0D0_0
10
-22.133
20
-26.948
0
VERTEX
8
L0D0_0
10
-22.003
20
-27.398
0
VERTEX
8
L0D0_0
10
-21.901
20
-27.854
0
VERTEX
8
L0D0_0
10
-21.828
20
-28.317
0
VERTEX
8
L0D0_0
10
-21.784
20
-28.782
0
VERTEX
8
L0D0_0
10
-21.77
20
-29.25
0
VERTEX
8
L0D0_0
10
-21.784
20
-29.718
0
VERTEX
8
L0D0_0
10
-21.828
20
-30.183
0
VERTEX
8
L0D0_0
10
-21.901
20
-30.646
0
VERTEX
8
L0D0_0
10
-22.003
20
-31.102
0
VERTEX
8
L0D0_0
10
-22.133
20
-31.552
0
VERTEX
8
L0D0_0
10
-22.29
20
-31.992
0
VERTEX
8
L0D0_0
10
-22.475
20
-32.422
0
VERTEX
8
L0D0_0
10
-22.687
20
-32.839
0
VERTEX
8
L0D0_0
10
-22.924
20
-33.242
0
VERTEX
8
L0D0_0
10
-23.186
20
-33.63
0
SEQEND
0
POLYLINE
8
L0D0_0
70
1
40
0
41
0
66
1
0
VERTEX
8
L0D0_0
10
-42.829
20
-33.815
0
VERTEX
8
L0D0_0
10
-43.045
20
-33.544
0
VERTEX
8
L0D0_0
10
-43.089
20
-33.489
0
VERTEX
8
L0D0_0
10
-43.183
20
-33.385
0
VERTEX
8
L0D0_0
10
-43.283
20
-33.288
0
VERTEX
8
L0D0_0
10
-43.389
20
-33.197
0
VERTEX
8
L0D0_0
10
-43.501
20
-33.112
0
VERTEX
8
L0D0_0
10
-43.617
20
-33.035
0
VERTEX
8
L0D0_0
10
-43.738
20
-32.966
0
VERTEX
8
L0D0_0
10
-43.864
20
-32.904
0
VERTEX
8
L0D0_0
10
-43.993
20
-32.85
0
VERTEX
8
L0D0_0
10
-44.125
20
-32.804
0
VERTEX
8
L0D0_0
10
-44.193
20
-32.786
0
VERTEX
8
L0D0_0
10
-47.852
20
-31.773
0
VERTEX
8
L0D0_0
10
-47.852
20
-29.976
0
VERTEX
8
L0D0_0
10
-48.852
20
-29.612
0
VERTEX
8
L0D0_0
10
-48.852
20
-28.888
0
VERTEX
8
L0D0_0
10
-47.852
20
-28.524
0
VERTEX
8
L0D0_0
10
-47.852
20
-26.727
0
VERTEX
8
L0D0_0
10
-44.193
20
-25.714
0
VERTEX
8
L0D0_0
10
-44.125
20
-25.696
0
VERTEX
8
L0D0_0
10
-43.993
20
-25.65
0
VERTEX
8
L0D0_0
10
-43.864
20
-25.596
0
VERTEX
8
L0D0_0
10
-43.738
20
-25.534
0
VERTEX
8
L0D0_0
10
-43.617
20
-25.465
0
VERTEX
8
L0D0_0
10
-43.501
20
-25.388
0
VERTEX
8
L0D0_0
10
-43.389
20
-25.303
0
VERTEX
8
L0D0_0
10
-43.283
20
-25.212
0
VERTEX
8
L0D0_0
10
-43.183
20
-25.115
0
VERTEX
8
L0D0_0
10
-43.089
20
-25.011
0
VERTEX
8
L0D0_0
10
-43.045
20
-24.956
0
VERTEX
8
L0D0_0
10
-42.829
20
-24.685
0
VERTEX
8
L0D0_0
10
-42.686
20
-24.87
0
VERTEX
8
L0D0_0
10
-42.424
20
-25.258
0
VERTEX
8
L0D0_0
10
-42.187
20
-25.661
0
VERTEX
8
L0D0_0
10
-41.975
20
-26.078
0
VERTEX
8
L0D0_0
10
-41.79
20
-26.508
0
VERTEX
8
L0D0_0
10
-41.633
20
-26.948
0
VERTEX
8
L0D0_0
10
-41.503
20
-27.398
0
VERTEX
8
L0D0_0
10
-41.401
20
-27.854
0
VERTEX
8
L0D0_0
10
-41.328
20
-28.317
0
VERTEX
8
L0D0_0
10
-41.284
20
-28.782
0
VERTEX
8
L0D0_0
10
-41.27
20
-29.25
0
VERTEX
8
L0D0_0
10
-41.284
20
-29.718
0
VERTEX
8
L0D0_0
10
-41.328
20
-30.183
0
VERTEX
8
L0D0_0
10
-41.401
20
-30.646
0
VERTEX
8
L0D0_0
10
-41.503
20
-31.102
0
VERTEX
8
L0D0_0
10
-41.633
20
-31.552
0
VERTEX
8
L0D0_0
10
-41.79
20
-31.992
0
VERTEX
8
L0D0_0
10
-41.975
20
-32.422
0
VERTEX
8
L0D0_0
10
-42.187
20
-32.839
0
VERTEX
8
L0D0_0
10
-42.424
20
-33.242
0
VERTEX
8
L0D0_0
10
-42.686
20
-33.63
0
SEQEND
0
POLYLINE
8
L0D0_0
70
1
40
0
41
0
66
1
0
VERTEX
8
L0D0_0
10
54.671
20
-14.315
0
VERTEX
8
L0D0_0
10
54.455
20
-14.044
0
VERTEX
8
L0D0_0
10
54.411
20
-13.989
0
VERTEX
8
L0D0_0
10
54.317
20
-13.885
0
VERTEX
8
L0D0_0
10
54.217
20
-13.788
0
VERTEX
8
L0D0_0
10
54.111
20
-13.697
0
VERTEX
8
L0D0_0
10
53.999
20
-13.612
0
VERTEX
8
L0D0_0
10
53.883
20
-13.535
0
VERTEX
8
L0D0_0
10
53.762
20
-13.466
0
VERTEX
8
L0D0_0
10
53.636
20
-13.404
0
VERTEX
8
L0D0_0
10
53.507
20
-13.35
0
VERTEX
8
L0D0_0
10
53.375
20
-13.304
0
VERTEX
8
L0D0_0
10
53.307
20
-13.286
0
VERTEX
8
L0D0_0
10
49.648
20
-12.273
0
VERTEX
8
L0D0_0
10
49.648
20
-10.476
0
VERTEX
8
L0D0_0
10
48.648
20
-10.112
0
VERTEX
8
L0D0_0
10
48.648
20
-9.388
0
VERTEX
8
L0D0_0
10
49.648
20
-9.024
0
VERTEX
8
L0D0_0
10
49.648
20
-7.227
0
VERTEX
8
L0D0_0
10
53.307
20
-6.214
0
VERTEX
8
L0D0_0
10
53.375
20
-6.196
0
VERTEX
8
L0D0_0
10
53.507
20
-6.15
0
VERTEX
8
L0D0_0
10
53.636
20
-6.096
0
VERTEX
8
L0D0_0
10
53.762
20
-6.034
0
VERTEX
8
L0D0_0
10
53.883
20
-5.965
0
VERTEX
8
L0D0_0
10
53.999
20
-5.888
0
VERTEX
8
L0D0_0
10
54.111
20
-5.803
0
VERTEX
8
L0D0_0
10
54.217
20
-5.712
0
VERTEX
8
L0D0_0
10
54.317
20
-5.615
0
VERTEX
8
L0D0_0
10
54.411
20
-5.511
0
VERTEX
8
L0D0_0
10
54.455
20
-5.456
0
VERTEX
8
L0D0_0
10
54.671
20
-5.185
0
VERTEX
8
L0D0_0
10
54.814
20
-5.37
0
VERTEX
8
L0D0_0
10
55.076
20
-5.758
0
VERTEX
8
L0D0_0
10
55.313
20
-6.161
0
VERTEX
8
L0D0_0
10
55.525
20
-6.578
0
VERTEX
8
L0D0_0
10
55.71
20
-7.008
0
VERTEX
8
L0D0_0
10
55.867
20
-7.448
0
VERTEX
8
L0D0_0
10
55.997
20
-7.898
0
VERTEX
8
L0D0_0
10
56.099
20
-8.354
0
VERTEX
8
L0D0_0
10
56.172
20
-8.817
0
VERTEX
8
L0D0_0
10
56.216
20
-9.282
0
VERTEX
8
L0D0_0
10
56.23
20
-9.75
0
VERTEX
8
L0D0_0
10
56.216
20
-10.218
0
VERTEX
8
L0D0_0
10
56.172
20
-10.683
0
VERTEX
8
L0D0_0
10
56.099
20
-11.146
0
VERTEX
8
L0D0_0
10
55.997
20
-11.602
0
VERTEX
8
L0D0_0
10
55.867
20
-12.052
0
VERTEX
8
L0D0_0
10
55.71
20
-12.492
0
VERTEX
8
L0D0_0
10
55.525
20
-12.922
0
VERTEX
8
L0D0_0
10
55.313
20
-13.339
0
VERTEX
8
L0D0_0
10
55.076
20
-13.742
0
VERTEX
8
L0D0_0
10
54.814
20
-14.13
0
SEQEND
0
POLYLINE
8
L0D0_0
70
1
40
0
41
0
66
1
0
VERTEX
8
L0D0_0
10
35.171
20
-14.315
0
VERTEX
8
L0D0_0
10
34.955
20
-14.044
0
VERTEX
8
L0D0_0
10
34.911
20
-13.989
0
VERTEX
8
L0D0_0
10
34.817
20
-13.885
0
VERTEX
8
L0D0_0
10
34.717
20
-13.788
0
VERTEX
8
L0D0_0
10
34.611
20
-13.697
0
VERTEX
8
L0D0_0
10
34.499
20
-13.612
0
VERTEX
8
L0D0_0
10
34.383
20
-13.535
0
VERTEX
8
L0D0_0
10
34.262
20
-13.466
0
VERTEX
8
L0D0_0
10
34.136
20
-13.404
0
VERTEX
8
L0D0_0
10
34.007
20
-13.35
0
VERTEX
8
L0D0_0
10
33.875
20
-13.304
0
VERTEX
8
L0D0_0
10
33.807
20
-13.286
0
VERTEX
8
L0D0_0
10
30.148
20
-12.273
0
VERTEX
8
L0D0_0
10
30.148
20
-10.476
0
VERTEX
8
L0D0_0
10
29.148
20
-10.112
0
VERTEX
8
L0D0_0
10
29.148
20
-9.388
0
VERTEX
8
L0D0_0
10
30.148
20
-9.024
0
VERTEX
8
L0D0_0
10
30.148
20
-7.227
0
VERTEX
8
L0D0_0
10
33.807
20
-6.214
0
VERTEX
8
L0D0_0
10
33.875
20
-6.196
0
VERTEX
8
L0D0_0
10
34.007
20
-6.15
0
VERTEX
8
L0D0_0
10
34.136
20
-6.096
0
VERTEX
8
L0D0_0
10
34.262
20
-6.034
0
VERTEX
8
L0D0_0
10
34.383
20
-5.965
0
VERTEX
8
L0D0_0
10
34.499
20
-5.888
0
VERTEX
8
L0D0_0
10
34.611
20
-5.803
0
VERTEX
8
L0D0_0
10
34.717
20
-5.712
0
VERTEX
8
L0D0_0
10
34.817
20
-5.615
0
VERTEX
8
L0D0_0
10
34.911
20
-5.511
0
VERTEX
8
L0D0_0
10
34.955
20
-5.456
0
VERTEX
8
L0D0_0
10
35.171
20
-5.185
0
VERTEX
8
L0D0_0
10
35.314
20
-5.37
0
VERTEX
8
L0D0_0
10
35.576
20
-5.758
0
VERTEX
8
L0D0_0
10
35.813
20
-6.161
0
VERTEX
8
L0D0_0
10
36.025
20
-6.578
0
VERTEX
8
L0D0_0
10
36.21
20
-7.008
0
VERTEX
8
L0D0_0
10
36.367
20
-7.448
0
VERTEX
8
L0D0_0
10
36.497
20
-7.898
0
VERTEX
8
L0D0_0
10
36.599
20
-8.354
0
VERTEX
8
L0D0_0
10
36.672
20
-8.817
0
VERTEX
8
L0D0_0
10
36.716
20
-9.282
0
VERTEX
8
L0D0_0
10
36.73
20
-9.75
0
VERTEX
8
L0D0_0
10
36.716
20
-10.218
0
VERTEX
8
L0D0_0
10
36.672
20
-10.683
0
VERTEX
8
L0D0_0
10
36.599
20
-11.146
0
VERTEX
8
L0D0_0
10
36.497
20
-11.602
0
VERTEX
8
L0D0_0
10
36.367
20
-12.052
0
VERTEX
8
L0D0_0
10
36.21
20
-12.492
0
VERTEX
8
L0D0_0
10
36.025
20
-12.922
0
VERTEX
8
L0D0_0
10
35.813
20
-13.339
0
VERTEX
8
L0D0_0
10
35.576
20
-13.742
0
VERTEX
8
L0D0_0
10
35.314
20
-14.13
0
SEQEND
0
POLYLINE
8
L0D0_0
70
1
40
0
41
0
66
1
0
VERTEX
8
L0D0_0
10
15.671
20
-14.315
0
VERTEX
8
L0D0_0
10
15.455
20
-14.044
0
VERTEX
8
L0D0_0
10
15.411
20
-13.989
0
VERTEX
8
L0D0_0
10
15.317
20
-13.885
0
VERTEX
8
L0D0_0
10
15.217
20
-13.788
0
VERTEX
8
L0D0_0
10
15.111
20
-13.697
0
VERTEX
8
L0D0_0
10
14.999
20
-13.612
0
VERTEX
8
L0D0_0
10
14.883
20
-13.535
0
VERTEX
8
L0D0_0
10
14.762
20
-13.466
0
VERTEX
8
L0D0_0
10
14.636
20
-13.404
0
VERTEX
8
L0D0_0
10
14.507
20
-13.35
0
VERTEX
8
L0D0_0
10
14.375
20
-13.304
0
VERTEX
8
L0D0_0
10
14.307
20
-13.286
0
VERTEX
8
L0D0_0
10
10.648
20
-12.273
0
VERTEX
8
L0D0_0
10
10.648
20
-10.476
0
VERTEX
8
L0D0_0
10
9.648
20
-10.112
0
VERTEX
8
L0D0_0
10
9.648
20
-9.388
0
VERTEX
8
L0D0_0
10
10.648
20
-9.024
0
VERTEX
8
L0D0_0
10
10.648
20
-7.227
0
VERTEX
8
L0D0_0
10
14.307
20
-6.214
0
VERTEX
8
L0D0_0
10
14.375
20
-6.196
0
VERTEX
8
L0D0_0
10
14.507
20
-6.15
0
VERTEX
8
L0D0_0
10
14.636
20
-6.096
0
VERTEX
8
L0D0_0
10
14.762
20
-6.034
0
VERTEX
8
L0D0_0
10
14.883
20
-5.965
0
VERTEX
8
L0D0_0
10
14.999
20
-5.888
0
VERTEX
8
L0D0_0
10
15.111
20
-5.803
0
VERTEX
8
L0D0_0
10
15.217
20
-5.712
0
VERTEX
8
L0D0_0
10
15.317
20
-5.615
0
VERTEX
8
L0D0_0
10
15.411
20
-5.511
0
VERTEX
8
L0D0_0
10
15.455
20
-5.456
0
VERTEX
8
L0D0_0
10
15.671
20
-5.185
0
VERTEX
8
L0D0_0
10
15.814
20
-5.37
0
VERTEX
8
L0D0_0
10
16.076
20
-5.758
0
VERTEX
8
L0D0_0
10
16.313
20
-6.161
0
VERTEX
8
L0D0_0
10
16.525
20
-6.578
0
VERTEX
8
L0D0_0
10
16.71
20
-7.008
0
VERTEX
8
L0D0_0
10
16.867
20
-7.448
0
VERTEX
8
L0D0_0
10
16.997
20
-7.898
0
VERTEX
8
L0D0_0
10
17.099
20
-8.354
0
VERTEX
8
L0D0_0
10
17.172
20
-8.817
0
VERTEX
8
L0D0_0
10
17.216
20
-9.282
0
VERTEX
8
L0D0_0
10
17.23
20
-9.75
0
VERTEX
8
L0D0_0
10
17.216
20
-10.218
0
VERTEX
8
L0D0_0
10
17.172
20
-10.683
0
VERTEX
8
L0D0_0
10
17.099
20
-11.146
0
VERTEX
8
L0D0_0
10
16.997
20
-11.602
0
VERTEX
8
L0D0_0
10
16.867
20
-12.052
0
VERTEX
8
L0D0_0
10
16.71
20
-12.492
0
VERTEX
8
L0D0_0
10
16.525
20
-12.922
0
VERTEX
8
L0D0_0
10
16.313
20
-13.339
0
VERTEX
8
L0D0_0
10
16.076
20
-13.742
0
VERTEX
8
L0D0_0
10
15.814
20
-14.13
0
SEQEND
0
POLYLINE
8
L0D0_0
70
1
40
0
41
0
66
1
0
VERTEX
8
L0D0_0
10
-3.829
20
-14.315
0
VERTEX
8
L0D0_0
10
-4.045
20
-14.044
0
VERTEX
8
L0D0_0
10
-4.089
20
-13.989
0
VERTEX
8
L0D0_0
10
-4.183
20
-13.885
0
VERTEX
8
L0D0_0
10
-4.283
20
-13.788
0
VERTEX
8
L0D0_0
10
-4.389
20
-13.697
0
VERTEX
8
L0D0_0
10
-4.501
20
-13.612
0
VERTEX
8
L0D0_0
10
-4.617
20
-13.535
0
VERTEX
8
L0D0_0
10
-4.738
20
-13.466
0
VERTEX
8
L0D0_0
10
-4.864
20
-13.404
0
VERTEX
8
L0D0_0
10
-4.993
20
-13.35
0
VERTEX
8
L0D0_0
10
-5.125
20
-13.304
0
VERTEX
8
L0D0_0
10
-5.193
20
-13.286
0
VERTEX
8
L0D0_0
10
-8.852
20
-12.273
0
VERTEX
8
L0D0_0
10
-8.852
20
-10.476
0
VERTEX
8
L0D0_0
10
-9.852
20
-10.112
0
VERTEX
8
L0D0_0
10
-9.852
20
-9.388
0
VERTEX
8
L0D0_0
10
-8.852
20
-9.024
0
VERTEX
8
L0D0_0
10
-8.852
20
-7.227
0
VERTEX
8
L0D0_0
10
-5.193
20
-6.214
0
VERTEX
8
L0D0_0
10
-5.125
20
-6.196
0
VERTEX
8
L0D0_0
10
-4.993
20
-6.15
0
VERTEX
8
L0D0_0
10
-4.864
20
-6.096
0
VERTEX
8
L0D0_0
10
-4.738
20
-6.034
0
VERTEX
8
L0D0_0
10
-4.617
20
-5.965
0
VERTEX
8
L0D0_0
10
-4.501
20
-5.888
0
VERTEX
8
L0D0_0
10
-4.389
20
-5.803
0
VERTEX
8
L0D0_0
10
-4.283
20
-5.712
0
VERTEX
8
L0D0_0
10
-4.183
20
-5.615
0
VERTEX
8
L0D0_0
10
-4.089
20
-5.511
0
VERTEX
8
L0D0_0
10
-4.045
20
-5.456
0
VERTEX
8
L0D0_0
10
-3.829
20
-5.185
0
VERTEX
8
L0D0_0
10
-3.686
20
-5.37
0
VERTEX
8
L0D0_0
10
-3.424
20
-5.758
0
VERTEX
8
L0D0_0
10
-3.187
20
-6.161
0
VERTEX
8
L0D0_0
10
-2.975
20
-6.578
0
VERTEX
8
L0D0_0
10
-2.79
20
-7.008
0
VERTEX
8
L0D0_0
10
-2.633
20
-7.448
0
VERTEX
8
L0D0_0
10
-2.503
20
-7.898
0
VERTEX
8
L0D0_0
10
-2.401
20
-8.354
0
VERTEX
8
L0D0_0
10
-2.328
20
-8.817
0
VERTEX
8
L0D0_0
10
-2.284
20
-9.282
0
VERTEX
8
L0D0_0
10
-2.27
20
-9.75
0
VERTEX
8
L0D0_0
10
-2.284
20
-10.218
0
VERTEX
8
L0D0_0
10
-2.328
20
-10.683
0
VERTEX
8
L0D0_0
10
-2.401
20
-11.146
0
VERTEX
8
L0D0_0
10
-2.503
20
-11.602
0
VERTEX
8
L0D0_0
10
-2.633
20
-12.052
0
VERTEX
8
L0D0_0
10
-2.79
20
-12.492
0
VERTEX
8
L0D0_0
10
-2.975
20
-12.922
0
VERTEX
8
L0D0_0
10
-3.187
20
-13.339
0
VERTEX
8
L0D0_0
10
-3.424
20
-13.742
0
VERTEX
8
L0D0_0
10
-3.686
20
-14.13
0
SEQEND
0
POLYLINE
8
L0D0_0
70
1
40
0
41
0
66
1
0
VERTEX
8
L0D0_0
10
-23.329
20
-14.315
0
VERTEX
8
L0D0_0
10
-23.545
20
-14.044
0
VERTEX
8
L0D0_0
10
-23.589
20
-13.989
0
VERTEX
8
L0D0_0
10
-23.683
20
-13.885
0
VERTEX
8
L0D0_0
10
-23.783
20
-13.788
0
VERTEX
8
L0D0_0
10
-23.889
20
-13.697
0
VERTEX
8
L0D0_0
10
-24.001
20
-13.612
0
VERTEX
8
L0D0_0
10
-24.117
20
-13.535
0
VERTEX
8
L0D0_0
10
-24.238
20
-13.466
0
VERTEX
8
L0D0_0
10
-24.364
20
-13.404
0
VERTEX
8
L0D0_0
10
-24.493
20
-13.35
0
VERTEX
8
L0D0_0
10
-24.625
20
-13.304
0
VERTEX
8
L0D0_0
10
-24.693
20
-13.286
0
VERTEX
8
L0D0_0
10
-28.352
20
-12.273
0
VERTEX
8
L0D0_0
10
-28.352
20
-10.476
0
VERTEX
8
L0D0_0
10
-29.352
20
-10.112
0
VERTEX
8
L0D0_0
10
-29.352
20
-9.388
0
VERTEX
8
L0D0_0
10
-28.352
20
-9.024
0
VERTEX
8
L0D0_0
10
-28.352
20
-7.227
0
VERTEX
8
L0D0_0
10
-24.693
20
-6.214
0
VERTEX
8
L0D0_0
10
-24.625
20
-6.196
0
VERTEX
8
L0D0_0
10
-24.493
20
-6.15
0
VERTEX
8
L0D0_0
10
-24.364
20
-6.096
0
VERTEX
8
L0D0_0
10
-24.238
20
-6.034
0
VERTEX
8
L0D0_0
10
-24.117
20
-5.965
0
VERTEX
8
L0D0_0
10
-24.001
20
-5.888
0
VERTEX
8
L0D0_0
10
-23.889
20
-5.803
0
VERTEX
8
L0D0_0
10
-23.783
20
-5.712
0
VERTEX
8
L0D0_0
10
-23.683
20
-5.615
0
VERTEX
8
L0D0_0
10
-23.589
20
-5.511
0
VERTEX
8
L0D0_0
10
-23.545
20
-5.456
0
VERTEX
8
L0D0_0
10
-23.329
20
-5.185
0
VERTEX
8
L0D0_0
10
-23.186
20
-5.37
0
VERTEX
8
L0D0_0
10
-22.924
20
-5.758
0
VERTEX
8
L0D0_0
10
-22.687
20
-6.161
0
VERTEX
8
L0D0_0
10
-22.475
20
-6.578
0
VERTEX
8
L0D0_0
10
-22.29
20
-7.008
0
VERTEX
8
L0D0_0
10
-22.133
20
-7.448
0
VERTEX
8
L0D0_0
10
-22.003
20
-7.898
0
VERTEX
8
L0D0_0
10
-21.901
20
-8.354
0
VERTEX
8
L0D0_0
10
-21.828
20
-8.817
0
VERTEX
8
L0D0_0
10
-21.784
20
-9.282
0
VERTEX
8
L0D0_0
10
-21.77
20
-9.75
0
VERTEX
8
L0D0_0
10
-21.784
20
-10.218
0
VERTEX
8
L0D0_0
10
-21.828
20
-10.683
0
VERTEX
8
L0D0_0
10
-21.901
20
-11.146
0
VERTEX
8
L0D0_0
10
-22.003
20
-11.602
0
VERTEX
8
L0D0_0
10
-22.133
20
-12.052
0
VERTEX
8
L0D0_0
10
-22.29
20
-12.492
0
VERTEX
8
L0D0_0
10
-22.475
20
-12.922
0
VERTEX
8
L0D0_0
10
-22.687
20
-13.339
0
VERTEX
8
L0D0_0
10
-22.924
20
-13.742
0
VERTEX
8
L0D0_0
10
-23.186
20
-14.13
0
SEQEND
0
POLYLINE
8
L0D0_0
70
1
40
0
41
0
66
1
0
VERTEX
8
L0D0_0
10
-42.829
20
-14.315
0
VERTEX
8
L0D0_0
10
-43.045
20
-14.044
0
VERTEX
8
L0D0_0
10
-43.089
20
-13.989
0
VERTEX
8
L0D0_0
10
-43.183
20
-13.885
0
VERTEX
8
L0D0_0
10
-43.283
20
-13.788
0
VERTEX
8
L0D0_0
10
-43.389
20
-13.697
0
VERTEX
8
L0D0_0
10
-43.501
20
-13.612
0
VERTEX
8
L0D0_0
10
-43.617
20
-13.535
0
VERTEX
8
L0D0_0
10
-43.738
20
-13.466
0
VERTEX
8
L0D0_0
10
-43.864
20
-13.404
0
VERTEX
8
L0D0_0
10
-43.993
20
-13.35
0
VERTEX
8
L0D0_0
10
-44.125
20
-13.304
0
VERTEX
8
L0D0_0
10
-44.193
20
-13.286
0
VERTEX
8
L0D0_0
10
-47.852
20
-12.273
0
VERTEX
8
L0D0_0
10
-47.852
20
-10.476
0
VERTEX
8
L0D0_0
10
-48.852
20
-10.112
0
VERTEX
8
L0D0_0
10
-48.852
20
-9.388
0
VERTEX
8
L0D0_0
10
-47.852
20
-9.024
0
VERTEX
8
L0D0_0
10
-47.852
20
-7.227
0
VERTEX
8
L0D0_0
10
-44.193
20
-6.214
0
VERTEX
8
L0D0_0
10
-44.125
20
-6.196
0
VERTEX
8
L0D0_0
10
-43.993
20
-6.15
0
VERTEX
8
L0D0_0
10
-43.864
20
-6.096
0
VERTEX
8
L0D0_0
10
-43.738
20
-6.034
0
VERTEX
8
L0D0_0
10
-43.617
20
-5.965
0
VERTEX
8
L0D0_0
10
-43.501
20
-5.888
0
VERTEX
8
L0D0_0
10
-43.389
20
-5.803
0
VERTEX
8
L0D0_0
10
-43.283
20
-5.712
0
VERTEX
8
L0D0_0
10
-43.183
20
-5.615
0
VERTEX
8
L0D0_0
10
-43.089
20
-5.511
0
VERTEX
8
L0D0_0
10
-43.045
20
-5.456
0
VERTEX
8
L0D0_0
10
-42.829
20
-5.185
0
VERTEX
8
L0D0_0
10
-42.686
20
-5.37
0
VERTEX
8
L0D0_0
10
-42.424
20
-5.758
0
VERTEX
8
L0D0_0
10
-42.187
20
-6.161
0
VERTEX
8
L0D0_0
10
-41.975
20
-6.578
0
VERTEX
8
L0D0_0
10
-41.79
20
-7.008
0
VERTEX
8
L0D0_0
10
-41.633
20
-7.448
0
VERTEX
8
L0D0_0
10
-41.503
20
-7.898
0
VERTEX
8
L0D0_0
10
-41.401
20
-8.354
0
VERTEX
8
L0D0_0
10
-41.328
20
-8.817
0
VERTEX
8
L0D0_0
10
-41.284
20
-9.282
0
VERTEX
8
L0D0_0
10
-41.27
20
-9.75
0
VERTEX
8
L0D0_0
10
-41.284
20
-10.218
0
VERTEX
8
L0D0_0
10
-41.328
20
-10.683
0
VERTEX
8
L0D0_0
10
-41.401
20
-11.146
0
VERTEX
8
L0D0_0
10
-41.503
20
-11.602
0
VERTEX
8
L0D0_0
10
-41.633
20
-12.052
0
VERTEX
8
L0D0_0
10
-41.79
20
-12.492
0
VERTEX
8
L0D0_0
10
-41.975
20
-12.922
0
VERTEX
8
L0D0_0
10
-42.187
20
-13.339
0
VERTEX
8
L0D0_0
10
-42.424
20
-13.742
0
VERTEX
8
L0D0_0
10
-42.686
20
-14.13
0
SEQEND
0
POLYLINE
8
L0D0_0
70
1
40
0
41
0
66
1
0
VERTEX
8
L0D0_0
10
54.671
20
5.185
0
VERTEX
8
L0D0_0
10
54.455
20
5.456
0
VERTEX
8
L0D0_0
10
54.411
20
5.511
0
VERTEX
8
L0D0_0
10
54.317
20
5.615
0
VERTEX
8
L0D0_0
10
54.217
20
5.712
0
VERTEX
8
L0D0_0
10
54.111
20
5.803
0
VERTEX
8
L0D0_0
10
53.999
20
5.888
0
VERTEX
8
L0D0_0
10
53.883
20
5.965
0
VERTEX
8
L0D0_0
10
53.762
20
6.034
0
VERTEX
8
L0D0_0
10
53.636
20
6.096
0
VERTEX
8
L0D0_0
10
53.507
20
6.15
0
VERTEX
8
L0D0_0
10
53.375
20
6.196
0
VERTEX
8
L0D0_0
10
53.307
20
6.214
0
VERTEX
8
L0D0_0
10
49.648
20
7.227
0
VERTEX
8
L0D0_0
10
49.648
20
9.024
0
VERTEX
8
L0D0_0
10
48.648
20
9.388
0
VERTEX
8
L0D0_0
10
48.648
20
10.112
0
VERTEX
8
L0D0_0
10
49.648
20
10.476
0
VERTEX
8
L0D0_0
10
49.648
20
12.273
0
VERTEX
8
L0D0_0
10
53.307
20
13.286
0
VERTEX
8
L0D0_0
10
53.375
20
13.304
0
VERTEX
8
L0D0_0
10
53.507
20
13.35
0
VERTEX
8
L0D0_0
10
53.636
20
13.404
0
VERTEX
8
L0D0_0
10
53.762
20
13.466
0
VERTEX
8
L0D0_0
10
53.883
20
13.535
0
VERTEX
8
L0D0_0
10
53.999
20
13.612
0
VERTEX
8
L0D0_0
10
54.111
20
13.697
0
VERTEX
8
L0D0_0
10
54.217
20
13.788
0
VERTEX
8
L0D0_0
10
54.317
20
13.885
0
VERTEX
8
L0D0_0
10
54.411
20
13.989
0
VERTEX
8
L0D0_0
10
54.455
20
14.044
0
VERTEX
8
L0D0_0
10
54.671
20
14.315
0
VERTEX
8
L0D0_0
10
54.814
20
14.13
0
VERTEX
8
L0D0_0
10
55.076
20
13.742
0
VERTEX
8
L0D0_0
10
55.313
20
13.339
0
VERTEX
8
L0D0_0
10
55.525
20
12.922
0
VERTEX
8
L0D0_0
10
55.71
20
12.492
0
VERTEX
8
L0D0_0
10
55.867
20
12.052
0
VERTEX
8
L0D0_0
10
55.997
20
11.602
0
VERTEX
8
L0D0_0
10
56.099
20
11.146
0
VERTEX
8
L0D0_0
10
56.172
20
10.683
0
VERTEX
8
L0D0_0
10
56.216
20
10.218
0
VERTEX
8
L0D0_0
10
56.23
20
9.75
0
VERTEX
8
L0D0_0
10
56.216
20
9.282
0
VERTEX
8
L0D0_0
10
56.172
20
8.817
0
VERTEX
8
L0D0_0
10
56.099
20
8.354
0
VERTEX
8
L0D0_0
10
55.997
20
7.898
0
VERTEX
8
L0D0_0
10
55.867
20
7.448
0
VERTEX
8
L0D0_0
10
55.71
20
7.008
0
VERTEX
8
L0D0_0
10
55.525
20
6.578
0
VERTEX
8
L0D0_0
10
55.313
20
6.161
0
VERTEX
8
L0D0_0
10
55.076
20
5.758
0
VERTEX
8
L0D0_0
10
54.814
20
5.37
0
SEQEND
0
POLYLINE
8
L0D0_0
70
1
40
0
41
0
66
1
0
VERTEX
8
L0D0_0
10
35.171
20
5.185
0
VERTEX
8
L0D0_0
10
34.955
20
5.456
0
VERTEX
8
L0D0_0
10
34.911
20
5.511
0
VERTEX
8
L0D0_0
10
34.817
20
5.615
0
VERTEX
8
L0D0_0
10
34.717
20
5.712
0
VERTEX
8
L0D0_0
10
34.611
20
5.803
0
VERTEX
8
L0D0_0
10
34.499
20
5.888
0
VERTEX
8
L0D0_0
10
34.383
20
5.965
0
VERTEX
8
L0D0_0
10
34.262
20
6.034
0
VERTEX
8
L0D0_0
10
34.136
20
6.096
0
VERTEX
8
L0D0_0
10
34.007
20
6.15
0
VERTEX
8
L0D0_0
10
33.875
20
6.196
0
VERTEX
8
L0D0_0
10
33.807
20
6.214
0
VERTEX
8
L0D0_0
10
30.148
20
7.227
0
VERTEX
8
L0D0_0
10
30.148
20
9.024
0
VERTEX
8
L0D0_0
10
29.148
20
9.388
0
VERTEX
8
L0D0_0
10
29.148
20
10.112
0
VERTEX
8
L0D0_0
10
30.148
20
10.476
0
VERTEX
8
L0D0_0
10
30.148
20
12.273
0
VERTEX
8
L0D0_0
10
33.807
20
13.286
0
VERTEX
8
L0D0_0
10
33.875
20
13.304
0
VERTEX
8
L0D0_0
10
34.007
20
13.35
0
VERTEX
8
L0D0_0
10
34.136
20
13.404
0
VERTEX
8
L0D0_0
10
34.262
20
13.466
0
VERTEX
8
L0D0_0
10
34.383
20
13.535
0
VERTEX
8
L0D0_0
10
34.499
20
13.612
0
VERTEX
8
L0D0_0
10
34.611
20
13.697
0
VERTEX
8
L0D0_0
10
34.717
20
13.788
0
VERTEX
8
L0D0_0
10
34.817
20
13.885
0
VERTEX
8
L0D0_0
10
34.911
20
13.989
0
VERTEX
8
L0D0_0
10
34.955
20
14.044
0
VERTEX
8
L0D0_0
10
35.171
20
14.315
0
VERTEX
8
L0D0_0
10
35.314
20
14.13
0
VERTEX
8
L0D0_0
10
35.576
20
13.742
0
VERTEX
8
L0D0_0
10
35.813
20
13.339
0
VERTEX
8
L0D0_0
10
36.025
20
12.922
0
VERTEX
8
L0D0_0
10
36.21
20
12.492
0
VERTEX
8
L0D0_0
10
36.367
20
12.052
0
VERTEX
8
L0D0_0
10
36.497
20
11.602
0
VERTEX
8
L0D0_0
10
36.599
20
11.146
0
VERTEX
8
L0D0_0
10
36.672
20
10.683
0
VERTEX
8
L0D0_0
10
36.716
20
10.218
0
VERTEX
8
L0D0_0
10
36.73
20
9.75
0
VERTEX
8
L0D0_0
10
36.716
20
9.282
0
VERTEX
8
L0D0_0
10
36.672
20
8.817
0
VERTEX
8
L0D0_0
10
36.599
20
8.354
0
VERTEX
8
L0D0_0
10
36.497
20
7.898
0
VERTEX
8
L0D0_0
10
36.367
20
7.448
0
VERTEX
8
L0D0_0
10
36.21
20
7.008
0
VERTEX
8
L0D0_0
10
36.025
20
6.578
0
VERTEX
8
L0D0_0
10
35.813
20
6.161
0
VERTEX
8
L0D0_0
10
35.576
20
5.758
0
VERTEX
8
L0D0_0
10
35.314
20
5.37
0
SEQEND
0
POLYLINE
8
L0D0_0
70
1
40
0
41
0
66
1
0
VERTEX
8
L0D0_0
10
15.671
20
5.185
0
VERTEX
8
L0D0_0
10
15.455
20
5.456
0
VERTEX
8
L0D0_0
10
15.411
20
5.511
0
VERTEX
8
L0D0_0
10
15.317
20
5.615
0
VERTEX
8
L0D0_0
10
15.217
20
5.712
0
VERTEX
8
L0D0_0
10
15.111
20
5.803
0
VERTEX
8
L0D0_0
10
14.999
20
5.888
0
VERTEX
8
L0D0_0
10
14.883
20
5.965
0
VERTEX
8
L0D0_0
10
14.762
20
6.034
0
VERTEX
8
L0D0_0
10
14.636
20
6.096
0
VERTEX
8
L0D0_0
10
14.507
20
6.15
0
VERTEX
8
L0D0_0
10
14.375
20
6.196
0
VERTEX
8
L0D0_0
10
14.307
20
6.214
0
VERTEX
8
L0D0_0
10
10.648
20
7.227
0
VERTEX
8
L0D0_0
10
10.648
20
9.024
0
VERTEX
8
L0D0_0
10
9.648
20
9.388
0
VERTEX
8
L0D0_0
10
9.648
20
10.112
0
VERTEX
8
L0D0_0
10
10.648
20
10.476
0
VERTEX
8
L0D0_0
10
10.648
20
12.273
0
VERTEX
8
L0D0_0
10
14.307
20
13.286
0
VERTEX
8
L0D0_0
10
14.375
20
13.304
0
VERTEX
8
L0D0_0
10
14.507
20
13.35
0
VERTEX
8
L0D0_0
10
14.636
20
13.404
0
VERTEX
8
L0D0_0
10
14.762
20
13.466
0
VERTEX
8
L0D0_0
10
14.883
20
13.535
0
VERTEX
8
L0D0_0
10
14.999
20
13.612
0
VERTEX
8
L0D0_0
10
15.111
20
13.697
0
VERTEX
8
L0D0_0
10
15.217
20
13.788
0
VERTEX
8
L0D0_0
10
15.317
20
13.885
0
VERTEX
8
L0D0_0
10
15.411
20
13.989
0
VERTEX
8
L0D0_0
10
15.455
20
14.044
0
VERTEX
8
L0D0_0
10
15.671
20
14.315
0
VERTEX
8
L0D0_0
10
15.814
20
14.13
0
VERTEX
8
L0D0_0
10
16.076
20
13.742
0
VERTEX
8
L0D0_0
10
16.313
20
13.339
0
VERTEX
8
L0D0_0
10
16.525
20
12.922
0
VERTEX
8
L0D0_0
10
16.71
20
12.492
0
VERTEX
8
L0D0_0
10
16.867
20
12.052
0
VERTEX
8
L0D0_0
10
16.997
20
11.602
0
VERTEX
8
L0D0_0
10
17.099
20
11.146
0
VERTEX
8
L0D0_0
10
17.172
20
10.683
0
VERTEX
8
L0D0_0
10
17.216
20
10.218
0
VERTEX
8
L0D0_0
10
17.23
20
9.75
0
VERTEX
8
L0D0_0
10
17.216
20
9.282
0
VERTEX
8
L0D0_0
10
17.172
20
8.817
0
VERTEX
8
L0D0_0
10
17.099
20
8.354
0
VERTEX
8
L0D0_0
10
16.997
20
7.898
0
VERTEX
8
L0D0_0
10
16.867
20
7.448
0
VERTEX
8
L0D0_0
10
16.71
20
7.008
0
VERTEX
8
L0D0_0
10
16.525
20
6.578
0
VERTEX
8
L0D0_0
10
16.313
20
6.161
0
VERTEX
8
L0D0_0
10
16.076
20
5.758
0
VERTEX
8
L0D0_0
10
15.814
20
5.37
0
SEQEND
0
POLYLINE
8
L0D0_0
70
1
40
0
41
0
66
1
0
VERTEX
8
L0D0_0
10
-3.829
20
5.185
0
VERTEX
8
L0D0_0
10
-4.045
20
5.456
0
VERTEX
8
L0D0_0
10
-4.089
20
5.511
0
VERTEX
8
L0D0_0
10
-4.183
20
5.615
0
VERTEX
8
L0D0_0
10
-4.283
20
5.712
0
VERTEX
8
L0D0_0
10
-4.389
20
5.803
0
VERTEX
8
L0D0_0
10
-4.501
20
5.888
0
VERTEX
8
L0D0_0
10
-4.617
20
5.965
0
VERTEX
8
L0D0_0
10
-4.738
20
6.034
0
VERTEX
8
L0D0_0
10
-4.864
20
6.096
0
VERTEX
8
L0D0_0
10
-4.993
20
6.15
0
VERTEX
8
L0D0_0
10
-5.125
20
6.196
0
VERTEX
8
L0D0_0
10
-5.193
20
6.214
0
VERTEX
8
L0D0_0
10
-8.852
20
7.227
0
VERTEX
8
L0D0_0
10
-8.852
20
9.024
0
VERTEX
8
L0D0_0
10
-9.852
20
9.388
0
VERTEX
8
L0D0_0
10
-9.852
20
10.112
0
VERTEX
8
L0D0_0
10
-8.852
20
10.476
0
VERTEX
8
L0D0_0
10
-8.852
20
12.273
0
VERTEX
8
L0D0_0
10
-5.193
20
13.286
0
VERTEX
8
L0D0_0
10
-5.125
20
13.304
0
VERTEX
8
L0D0_0
10
-4.993
20
13.35
0
VERTEX
8
L0D0_0
10
-4.864
20
13.404
0
VERTEX
8
L0D0_0
10
-4.738
20
13.466
0
VERTEX
8
L0D0_0
10
-4.617
20
13.535
0
VERTEX
8
L0D0_0
10
-4.501
20
13.612
0
VERTEX
8
L0D0_0
10
-4.389
20
13.697
0
VERTEX
8
L0D0_0
10
-4.283
20
13.788
0
VERTEX
8
L0D0_0
10
-4.183
20
13.885
0
VERTEX
8
L0D0_0
10
-4.089
20
13.989
0
VERTEX
8
L0D0_0
10
-4.045
20
14.044
0
VERTEX
8
L0D0_0
10
-3.829
20
14.315
0
VERTEX
8
L0D0_0
10
-3.686
20
14.13
0
VERTEX
8
L0D0_0
10
-3.424
20
13.742
0
VERTEX
8
L0D0_0
10
-3.187
20
13.339
0
VERTEX
8
L0D0_0
10
-2.975
20
12.922
0
VERTEX
8
L0D0_0
10
-2.79
20
12.492
0
VERTEX
8
L0D0_0
10
-2.633
20
12.052
0
VERTEX
8
L0D0_0
10
-2.503
20
11.602
0
VERTEX
8
L0D0_0
10
-2.401
20
11.146
0
VERTEX
8
L0D0_0
10
-2.328
20
10.683
0
VERTEX
8
L0D0_0
10
-2.284
20
10.218
0
VERTEX
8
L0D0_0
10
-2.27
20
9.75
0
VERTEX
8
L0D0_0
10
-2.284
20
9.282
0
VERTEX
8
L0D0_0
10
-2.328
20
8.817
0
VERTEX
8
L0D0_0
10
-2.401
20
8.354
0
VERTEX
8
L0D0_0
10
-2.503
20
7.898
0
VERTEX
8
L0D0_0
10
-2.633
20
7.448
0
VERTEX
8
L0D0_0
10
-2.79
20
7.008
0
VERTEX
8
L0D0_0
10
-2.975
20
6.578
0
VERTEX
8
L0D0_0
10
-3.187
20
6.161
0
VERTEX
8
L0D0_0
10
-3.424
20
5.758
0
VERTEX
8
L0D0_0
10
-3.686
20
5.37
0
SEQEND
0
POLYLINE
8
L0D0_0
70
1
40
0
41
0
66
1
0
VERTEX
8
L0D0_0
10
-23.329
20
5.185
0
VERTEX
8
L0D0_0
10
-23.545
20
5.456
0
VERTEX
8
L0D0_0
10
-23.589
20
5.511
0
VERTEX
8
L0D0_0
10
-23.683
20
5.615
0
VERTEX
8
L0D0_0
10
-23.783
20
5.712
0
VERTEX
8
L0D0_0
10
-23.889
20
5.803
0
VERTEX
8
L0D0_0
10
-24.001
20
5.888
0
VERTEX
8
L0D0_0
10
-24.117
20
5.965
0
VERTEX
8
L0D0_0
10
-24.238
20
6.034
0
VERTEX
8
L0D0_0
10
-24.364
20
6.096
0
VERTEX
8
L0D0_0
10
-24.493
20
6.15
0
VERTEX
8
L0D0_0
10
-24.625
20
6.196
0
VERTEX
8
L0D0_0
10
-24.693
20
6.214
0
VERTEX
8
L0D0_0
10
-28.352
20
7.227
0
VERTEX
8
L0D0_0
10
-28.352
20
9.024
0
VERTEX
8
L0D0_0
10
-29.352
20
9.388
0
VERTEX
8
L0D0_0
10
-29.352
20
10.112
0
VERTEX
8
L0D0_0
10
-28.352
20
10.476
0
VERTEX
8
L0D0_0
10
-28.352
20
12.273
0
VERTEX
8
L0D0_0
10
-24.693
20
13.286
0
VERTEX
8
L0D0_0
10
-24.625
20
13.304
0
VERTEX
8
L0D0_0
10
-24.493
20
13.35
0
VERTEX
8
L0D0_0
10
-24.364
20
13.404
0
VERTEX
8
L0D0_0
10
-24.238
20
13.466
0
VERTEX
8
L0D0_0
10
-24.117
20
13.535
0
VERTEX
8
L0D0_0
10
-24.001
20
13.612
0
VERTEX
8
L0D0_0
10
-23.889
20
13.697
0
VERTEX
8
L0D0_0
10
-23.783
20
13.788
0
VERTEX
8
L0D0_0
10
-23.683
20
13.885
0
VERTEX
8
L0D0_0
10
-23.589
20
13.989
0
VERTEX
8
L0D0_0
10
-23.545
20
14.044
0
VERTEX
8
L0D0_0
10
-23.329
20
14.315
0
VERTEX
8
L0D0_0
10
-23.186
20
14.13
0
VERTEX
8
L0D0_0
10
-22.924
20
13.742
0
VERTEX
8
L0D0_0
10
-22.687
20
13.339
0
VERTEX
8
L0D0_0
10
-22.475
20
12.922
0
VERTEX
8
L0D0_0
10
-22.29
20
12.492
0
VERTEX
8
L0D0_0
10
-22.133
20
12.052
0
VERTEX
8
L0D0_0
10
-22.003
20
11.602
0
VERTEX
8
L0D0_0
10
-21.901
20
11.146
0
VERTEX
8
L0D0_0
10
-21.828
20
10.683
0
VERTEX
8
L0D0_0
10
-21.784
20
10.218
0
VERTEX
8
L0D0_0
10
-21.77
20
9.75
0
VERTEX
8
L0D0_0
10
-21.784
20
9.282
0
VERTEX
8
L0D0_0
10
-21.828
20
8.817
0
VERTEX
8
L0D0_0
10
-21.901
20
8.354
0
VERTEX
8
L0D0_0
10
-22.003
20
7.898
0
VERTEX
8
L0D0_0
10
-22.133
20
7.448
0
VERTEX
8
L0D0_0
10
-22.29
20
7.008
0
VERTEX
8
L0D0_0
10
-22.475
20
6.578
0
VERTEX
8
L0D0_0
10
-22.687
20
6.161
0
VERTEX
8
L0D0_0
10
-22.924
20
5.758
0
VERTEX
8
L0D0_0
10
-23.186
20
5.37
0
SEQEND
0
POLYLINE
8
L0D0_0
70
1
40
0
41
0
66
1
0
VERTEX
8
L0D0_0
10
-42.829
20
5.185
0
VERTEX
8
L0D0_0
10
-43.045
20
5.456
0
VERTEX
8
L0D0_0
10
-43.089
20
5.511
0
VERTEX
8
L0D0_0
10
-43.183
20
5.615
0
VERTEX
8
L0D0_0
10
-43.283
20
5.712
0
VERTEX
8
L0D0_0
10
-43.389
20
5.803
0
VERTEX
8
L0D0_0
10
-43.501
20
5.888
0
VERTEX
8
L0D0_0
10
-43.617
20
5.965
0
VERTEX
8
L0D0_0
10
-43.738
20
6.034
0
VERTEX
8
L0D0_0
10
-43.864
20
6.096
0
VERTEX
8
L0D0_0
10
-43.993
20
6.15
0
VERTEX
8
L0D0_0
10
-44.125
20
6.196
0
VERTEX
8
L0D0_0
10
-44.193
20
6.214
0
VERTEX
8
L0D0_0
10
-47.852
20
7.227
0
VERTEX
8
L0D0_0
10
-47.852
20
9.024
0
VERTEX
8
L0D0_0
10
-48.852
20
9.388
0
VERTEX
8
L0D0_0
10
-48.852
20
10.112
0
VERTEX
8
L0D0_0
10
-47.852
20
10.476
0
VERTEX
8
L0D0_0
10
-47.852
20
12.273
0
VERTEX
8
L0D0_0
10
-44.193
20
13.286
0
VERTEX
8
L0D0_0
10
-44.125
20
13.304
0
VERTEX
8
L0D0_0
10
-43.993
20
13.35
0
VERTEX
8
L0D0_0
10
-43.864
20
13.404
0
VERTEX
8
L0D0_0
10
-43.738
20
13.466
0
VERTEX
8
L0D0_0
10
-43.617
20
13.535
0
VERTEX
8
L0D0_0
10
-43.501
20
13.612
0
VERTEX
8
L0D0_0
10
-43.389
20
13.697
0
VERTEX
8
L0D0_0
10
-43.283
20
13.788
0
VERTEX
8
L0D0_0
10
-43.183
20
13.885
0
VERTEX
8
L0D0_0
10
-43.089
20
13.989
0
VERTEX
8
L0D0_0
10
-43.045
20
14.044
0
VERTEX
8
L0D0_0
10
-42.829
20
14.315
0
VERTEX
8
L0D0_0
10
-42.686
20
14.13
0
VERTEX
8
L0D0_0
10
-42.424
20
13.742
0
VERTEX
8
L0D0_0
10
-42.187
20
13.339
0
VERTEX
8
L0D0_0
10
-41.975
20
12.922
0
VERTEX
8
L0D0_0
10
-41.79
20
12.492
0
VERTEX
8
L0D0_0
10
-41.633
20
12.052
0
VERTEX
8
L0D0_0
10
-41.503
20
11.602
0
VERTEX
8
L0D0_0
10
-41.401
20
11.146
0
VERTEX
8
L0D0_0
10
-41.328
20
10.683
0
VERTEX
8
L0D0_0
10
-41.284
20
10.218
0
VERTEX
8
L0D0_0
10
-41.27
20
9.75
0
VERTEX
8
L0D0_0
10
-41.284
20
9.282
0
VERTEX
8
L0D0_0
10
-41.328
20
8.817
0
VERTEX
8
L0D0_0
10
-41.401
20
8.354
0
VERTEX
8
L0D0_0
10
-41.503
20
7.898
0
VERTEX
8
L0D0_0
10
-41.633
20
7.448
0
VERTEX
8
L0D0_0
10
-41.79
20
7.008
0
VERTEX
8
L0D0_0
10
-41.975
20
6.578
0
VERTEX
8
L0D0_0
10
-42.187
20
6.161
0
VERTEX
8
L0D0_0
10
-42.424
20
5.758
0
VERTEX
8
L0D0_0
10
-42.686
20
5.37
0
SEQEND
0
POLYLINE
8
L0D0_0
70
1
40
0
41
0
66
1
0
VERTEX
8
L0D0_0
10
54.671
20
24.685
0
VERTEX
8
L0D0_0
10
54.455
20
24.956
0
VERTEX
8
L0D0_0
10
54.411
20
25.011
0
VERTEX
8
L0D0_0
10
54.317
20
25.115
0
VERTEX
8
L0D0_0
10
54.217
20
25.212
0
VERTEX
8
L0D0_0
10
54.111
20
25.303
0
VERTEX
8
L0D0_0
10
53.999
20
25.388
0
VERTEX
8
L0D0_0
10
53.883
20
25.465
0
VERTEX
8
L0D0_0
10
53.762
20
25.534
0
VERTEX
8
L0D0_0
10
53.636
20
25.596
0
VERTEX
8
L0D0_0
10
53.507
20
25.65
0
VERTEX
8
L0D0_0
10
53.375
20
25.696
0
VERTEX
8
L0D0_0
10
53.307
20
25.714
0
VERTEX
8
L0D0_0
10
49.648
20
26.727
0
VERTEX
8
L0D0_0
10
49.648
20
28.524
0
VERTEX
8
L0D0_0
10
48.648
20
28.888
0
VERTEX
8
L0D0_0
10
48.648
20
29.612
0
VERTEX
8
L0D0_0
10
49.648
20
29.976
0
VERTEX
8
L0D0_0
10
49.648
20
31.773
0
VERTEX
8
L0D0_0
10
53.307
20
32.786
0
VERTEX
8
L0D0_0
10
53.375
20
32.804
0
VERTEX
8
L0D0_0
10
53.507
20
32.85
0
VERTEX
8
L0D0_0
10
53.636
20
32.904
0
VERTEX
8
L0D0_0
10
53.762
20
32.966
0
VERTEX
8
L0D0_0
10
53.883
20
33.035
0
VERTEX
8
L0D0_0
10
53.999
20
33.112
0
VERTEX
8
L0D0_0
10
54.111
20
33.197
0
VERTEX
8
L0D0_0
10
54.217
20
33.288
0
VERTEX
8
L0D0_0
10
54.317
20
33.385
0
VERTEX
8
L0D0_0
10
54.411
20
33.489
0
VERTEX
8
L0D0_0
10
54.455
20
33.544
0
VERTEX
8
L0D0_0
10
54.671
20
33.815
0
VERTEX
8
L0D0_0
10
54.814
20
33.63
0
VERTEX
8
L0D0_0
10
55.076
20
33.242
0
VERTEX
8
L0D0_0
10
55.313
20
32.839
0
VERTEX
8
L0D0_0
10
55.525
20
32.422
0
VERTEX
8
L0D0_0
10
55.71
20
31.992
0
VERTEX
8
L0D0_0
10
55.867
20
31.552
0
VERTEX
8
L0D0_0
10
55.997
20
31.102
0
VERTEX
8
L0D0_0
10
56.099
20
30.646
0
VERTEX
8
L0D0_0
10
56.172
20
30.183
0
VERTEX
8
L0D0_0
10
56.216
20
29.718
0
VERTEX
8
L0D0_0
10
56.23
20
29.25
0
VERTEX
8
L0D0_0
10
56.216
20
28.782
0
VERTEX
8
L0D0_0
10
56.172
20
28.317
0
VERTEX
8
L0D0_0
10
56.099
20
27.854
0
VERTEX
8
L0D0_0
10
55.997
20
27.398
0
VERTEX
8
L0D0_0
10
55.867
20
26.948
0
VERTEX
8
L0D0_0
10
55.71
20
26.508
0
VERTEX
8
L0D0_0
10
55.525
20
26.078
0
VERTEX
8
L0D0_0
10
55.313
20
25.661
0
VERTEX
8
L0D0_0
10
55.076
20
25.258
0
VERTEX
8
L0D0_0
10
54.814
20
24.87
0
SEQEND
0
POLYLINE
8
L0D0_0
70
1
40
0
41
0
66
1
0
VERTEX
8
L0D0_0
10
35.171
20
24.685
0
VERTEX
8
L0D0_0
10
34.955
20
24.956
0
VERTEX
8
L0D0_0
10
34.911
20
25.011
0
VERTEX
8
L0D0_0
10
34.817
20
25.115
0
VERTEX
8
L0D0_0
10
34.717
20
25.212
0
VERTEX
8
L0D0_0
10
34.611
20
25.303
0
VERTEX
8
L0D0_0
10
34.499
20
25.388
0
VERTEX
8
L0D0_0
10
34.383
20
25.465
0
VERTEX
8
L0D0_0
10
34.262
20
25.534
0
VERTEX
8
L0D0_0
10
34.136
20
25.596
0
VERTEX
8
L0D0_0
10
34.007
20
25.65
0
VERTEX
8
L0D0_0
10
33.875
20
25.696
0
VERTEX
8
L0D0_0
10
33.807
20
25.714
0
VERTEX
8
L0D0_0
10
30.148
20
26.727
0
VERTEX
8
L0D0_0
10
30.148
20
28.524
0
VERTEX
8
L0D0_0
10
29.148
20
28.888
0
VERTEX
8
L0D0_0
10
29.148
20
29.612
0
VERTEX
8
L0D0_0
10
30.148
20
29.976
0
VERTEX
8
L0D0_0
10
30.148
20
31.773
0
VERTEX
8
L0D0_0
10
33.807
20
32.786
0
VERTEX
8
L0D0_0
10
33.875
20
32.804
0
VERTEX
8
L0D0_0
10
34.007
20
32.85
0
VERTEX
8
L0D0_0
10
34.136
20
32.904
0
VERTEX
8
L0D0_0
10
34.262
20
32.966
0
VERTEX
8
L0D0_0
10
34.383
20
33.035
0
VERTEX
8
L0D0_0
10
34.499
20
33.112
0
VERTEX
8
L0D0_0
10
34.611
20
33.197
0
VERTEX
8
L0D0_0
10
34.717
20
33.288
0
VERTEX
8
L0D0_0
10
34.817
20
33.385
0
VERTEX
8
L0D0_0
10
34.911
20
33.489
0
VERTEX
8
L0D0_0
10
34.955
20
33.544
0
VERTEX
8
L0D0_0
10
35.171
20
33.815
0
VERTEX
8
L0D0_0
10
35.314
20
33.63
0
VERTEX
8
L0D0_0
10
35.576
20
33.242
0
VERTEX
8
L0D0_0
10
35.813
20
32.839
0
VERTEX
8
L0D0_0
10
36.025
20
32.422
0
VERTEX
8
L0D0_0
10
36.21
20
31.992
0
VERTEX
8
L0D0_0
10
36.367
20
31.552
0
VERTEX
8
L0D0_0
10
36.497
20
31.102
0
VERTEX
8
L0D0_0
10
36.599
20
30.646
0
VERTEX
8
L0D0_0
10
36.672
20
30.183
0
VERTEX
8
L0D0_0
10
36.716
20
29.718
0
VERTEX
8
L0D0_0
10
36.73
20
29.25
0
VERTEX
8
L0D0_0
10
36.716
20
28.782
0
VERTEX
8
L0D0_0
10
36.672
20
28.317
0
VERTEX
8
L0D0_0
10
36.599
20
27.854
0
VERTEX
8
L0D0_0
10
36.497
20
27.398
0
VERTEX
8
L0D0_0
10
36.367
20
26.948
0
VERTEX
8
L0D0_0
10
36.21
20
26.508
0
VERTEX
8
L0D0_0
10
36.025
20
26.078
0
VERTEX
8
L0D0_0
10
35.813
20
25.661
0
VERTEX
8
L0D0_0
10
35.576
20
25.258
0
VERTEX
8
L0D0_0
10
35.314
20
24.87
0
SEQEND
0
POLYLINE
8
L0D0_0
70
1
40
0
41
0
66
1
0
VERTEX
8
L0D0_0
10
15.671
20
24.685
0
VERTEX
8
L0D0_0
10
15.455
20
24.956
0
VERTEX
8
L0D0_0
10
15.411
20
25.011
0
VERTEX
8
L0D0_0
10
15.317
20
25.115
0
VERTEX
8
L0D0_0
10
15.217
20
25.212
0
VERTEX
8
L0D0_0
10
15.111
20
25.303
0
VERTEX
8
L0D0_0
10
14.999
20
25.388
0
VERTEX
8
L0D0_0
10
14.883
20
25.465
0
VERTEX
8
L0D0_0
10
14.762
20
25.534
0
VERTEX
8
L0D0_0
10
14.636
20
25.596
0
VERTEX
8
L0D0_0
10
14.507
20
25.65
0
VERTEX
8
L0D0_0
10
14.375
20
25.696
0
VERTEX
8
L0D0_0
10
14.307
20
25.714
0
VERTEX
8
L0D0_0
10
10.648
20
26.727
0
VERTEX
8
L0D0_0
10
10.648
20
28.524
0
VERTEX
8
L0D0_0
10
9.648
20
28.888
0
VERTEX
8
L0D0_0
10
9.648
20
29.612
0
VERTEX
8
L0D0_0
10
10.648
20
29.976
0
VERTEX
8
L0D0_0
10
10.648
20
31.773
0
VERTEX
8
L0D0_0
10
14.307
20
32.786
0
VERTEX
8
L0D0_0
10
14.375
20
32.804
0
VERTEX
8
L0D0_0
10
14.507
20
32.85
0
VERTEX
8
L0D0_0
10
14.636
20
32.904
0
VERTEX
8
L0D0_0
10
14.762
20
32.966
0
VERTEX
8
L0D0_0
10
14.883
20
33.035
0
VERTEX
8
L0D0_0
10
14.999
20
33.112
0
VERTEX
8
L0D0_0
10
15.111
20
33.197
0
VERTEX
8
L0D0_0
10
15.217
20
33.288
0
VERTEX
8
L0D0_0
10
15.317
20
33.385
0
VERTEX
8
L0D0_0
10
15.411
20
33.489
0
VERTEX
8
L0D0_0
10
15.455
20
33.544
0
VERTEX
8
L0D0_0
10
15.671
20
33.815
0
VERTEX
8
L0D0_0
10
15.814
20
33.63
0
VERTEX
8
L0D0_0
10
16.076
20
33.242
0
VERTEX
8
L0D0_0
10
16.313
20
32.839
0
VERTEX
8
L0D0_0
10
16.525
20
32.422
0
VERTEX
8
L0D0_0
10
16.71
20
31.992
0
VERTEX
8
L0D0_0
10
16.867
20
31.552
0
VERTEX
8
L0D0_0
10
16.997
20
31.102
0
VERTEX
8
L0D0_0
10
17.099
20
30.646
0
VERTEX
8
L0D0_0
10
17.172
20
30.183
0
VERTEX
8
L0D0_0
10
17.216
20
29.718
0
VERTEX
8
L0D0_0
10
17.23
20
29.25
0
VERTEX
8
L0D0_0
10
17.216
20
28.782
0
VERTEX
8
L0D0_0
10
17.172
20
28.317
0
VERTEX
8
L0D0_0
10
17.099
20
27.854
0
VERTEX
8
L0D0_0
10
16.997
20
27.398
0
VERTEX
8
L0D0_0
10
16.867
20
26.948
0
VERTEX
8
L0D0_0
10
16.71
20
26.508
0
VERTEX
8
L0D0_0
10
16.525
20
26.078
0
VERTEX
8
L0D0_0
10
16.313
20
25.661
0
VERTEX
8
L0D0_0
10
16.076
20
25.258
0
VERTEX
8
L0D0_0
10
15.814
20
24.87
0
SEQEND
0
POLYLINE
8
L0D0_0
70
1
40
0
41
0
66
1
0
VERTEX
8
L0D0_0
10
-3.829
20
24.685
0
VERTEX
8
L0D0_0
10
-4.045
20
24.956
0
VERTEX
8
L0D0_0
10
-4.089
20
25.011
0
VERTEX
8
L0D0_0
10
-4.183
20
25.115
0
VERTEX
8
L0D0_0
10
-4.283
20
25.212
0
VERTEX
8
L0D0_0
10
-4.389
20
25.303
0
VERTEX
8
L0D0_0
10
-4.501
20
25.388
0
VERTEX
8
L0D0_0
10
-4.617
20
25.465
0
VERTEX
8
L0D0_0
10
-4.738
20
25.534
0
VERTEX
8
L0D0_0
10
-4.864
20
25.596
0
VERTEX
8
L0D0_0
10
-4.993
20
25.65
0
VERTEX
8
L0D0_0
10
-5.125
20
25.696
0
VERTEX
8
L0D0_0
10
-5.193
20
25.714
0
VERTEX
8
L0D0_0
10
-8.852
20
26.727
0
VERTEX
8
L0D0_0
10
-8.852
20
28.524
0
VERTEX
8
L0D0_0
10
-9.852
20
28.888
0
VERTEX
8
L0D0_0
10
-9.852
20
29.612
0
VERTEX
8
L0D0_0
10
-8.852
20
29.976
0
VERTEX
8
L0D0_0
10
-8.852
20
31.773
0
VERTEX
8
L0D0_0
10
-5.193
20
32.786
0
VERTEX
8
L0D0_0
10
-5.125
20
32.804
0
VERTEX
8
L0D0_0
10
-4.993
20
32.85
0
VERTEX
8
L0D0_0
10
-4.864
20
32.904
0
VERTEX
8
L0D0_0
10
-4.738
20
32.966
0
VERTEX
8
L0D0_0
10
-4.617
20
33.035
0
VERTEX
8
L0D0_0
10
-4.501
20
33.112
0
VERTEX
8
L0D0_0
10
-4.389
20
33.197
0
VERTEX
8
L0D0_0
10
-4.283
20
33.288
0
VERTEX
8
L0D0_0
10
-4.183
20
33.385
0
VERTEX
8
L0D0_0
10
-4.089
20
33.489
0
VERTEX
8
L0D0_0
10
-4.045
20
33.544
0
VERTEX
8
L0D0_0
10
-3.829
20
33.815
0
VERTEX
8
L0D0_0
10
-3.686
20
33.63
0
VERTEX
8
L0D0_0
10
-3.424
20
33.242
0
VERTEX
8
L0D0_0
10
-3.187
20
32.839
0
VERTEX
8
L0D0_0
10
-2.975
20
32.422
0
VERTEX
8
L0D0_0
10
-2.79
20
31.992
0
VERTEX
8
L0D0_0
10
-2.633
20
31.552
0
VERTEX
8
L0D0_0
10
-2.503
20
31.102
0
VERTEX
8
L0D0_0
10
-2.401
20
30.646
0
VERTEX
8
L0D0_0
10
-2.328
20
30.183
0
VERTEX
8
L0D0_0
10
-2.284
20
29.718
0
VERTEX
8
L0D0_0
10
-2.27
20
29.25
0
VERTEX
8
L0D0_0
10
-2.284
20
28.782
0
VERTEX
8
L0D0_0
10
-2.328
20
28.317
0
VERTEX
8
L0D0_0
10
-2.401
20
27.854
0
VERTEX
8
L0D0_0
10
-2.503
20
27.398
0
VERTEX
8
L0D0_0
10
-2.633
20
26.948
0
VERTEX
8
L0D0_0
10
-2.79
20
26.508
0
VERTEX
8
L0D0_0
10
-2.975
20
26.078
0
VERTEX
8
L0D0_0
10
-3.187
20
25.661
0
VERTEX
8
L0D0_0
10
-3.424
20
25.258
0
VERTEX
8
L0D0_0
10
-3.686
20
24.87
0
SEQEND
0
POLYLINE
8
L0D0_0
70
1
40
0
41
0
66
1
0
VERTEX
8
L0D0_0
10
-23.329
20
24.685
0
VERTEX
8
L0D0_0
10
-23.545
20
24.956
0
VERTEX
8
L0D0_0
10
-23.589
20
25.011
0
VERTEX
8
L0D0_0
10
-23.683
20
25.115
0
VERTEX
8
L0D0_0
10
-23.783
20
25.212
0
VERTEX
8
L0D0_0
10
-23.889
20
25.303
0
VERTEX
8
L0D0_0
10
-24.001
20
25.388
0
VERTEX
8
L0D0_0
10
-24.117
20
25.465
0
VERTEX
8
L0D0_0
10
-24.238
20
25.534
0
VERTEX
8
L0D0_0
10
-24.364
20
25.596
0
VERTEX
8
L0D0_0
10
-24.493
20
25.65
0
VERTEX
8
L0D0_0
10
-24.625
20
25.696
0
VERTEX
8
L0D0_0
10
-24.693
20
25.714
0
VERTEX
8
L0D0_0
10
-28.352
20
26.727
0
VERTEX
8
L0D0_0
10
-28.352
20
28.524
0
VERTEX
8
L0D0_0
10
-29.352
20
28.888
0
VERTEX
8
L0D0_0
10
-29.352
20
29.612
0
VERTEX
8
L0D0_0
10
-28.352
20
29.976
0
VERTEX
8
L0D0_0
10
-28.352
20
31.773
0
VERTEX
8
L0D0_0
10
-24.693
20
32.786
0
VERTEX
8
L0D0_0
10
-24.625
20
32.804
0
VERTEX
8
L0D0_0
10
-24.493
20
32.85
0
VERTEX
8
L0D0_0
10
-24.364
20
32.904
0
VERTEX
8
L0D0_0
10
-24.238
20
32.966
0
VERTEX
8
L0D0_0
10
-24.117
20
33.035
0
VERTEX
8
L0D0_0
10
-24.001
20
33.112
0
VERTEX
8
L0D0_0
10
-23.889
20
33.197
0
VERTEX
8
L0D0_0
10
-23.783
20
33.288
0
VERTEX
8
L0D0_0
10
-23.683
20
33.385
0
VERTEX
8
L0D0_0
10
-23.589
20
33.489
0
VERTEX
8
L0D0_0
10
-23.545
20
33.544
0
VERTEX
8
L0D0_0
10
-23.329
20
33.815
0
VERTEX
8
L0D0_0
10
-23.186
20
33.63
0
VERTEX
8
L0D0_0
10
-22.924
20
33.242
0
VERTEX
8
L0D0_0
10
-22.687
20
32.839
0
VERTEX
8
L0D0_0
10
-22.475
20
32.422
0
VERTEX
8
L0D0_0
10
-22.29
20
31.992
0
VERTEX
8
L0D0_0
10
-22.133
20
31.552
0
VERTEX
8
L0D0_0
10
-22.003
20
31.102
0
VERTEX
8
L0D0_0
10
-21.901
20
30.646
0
VERTEX
8
L0D0_0
10
-21.828
20
30.183
0
VERTEX
8
L0D0_0
10
-21.784
20
29.718
0
VERTEX
8
L0D0_0
10
-21.77
20
29.25
0
VERTEX
8
L0D0_0
10
-21.784
20
28.782
0
VERTEX
8
L0D0_0
10
-21.828
20
28.317
0
VERTEX
8
L0D0_0
10
-21.901
20
27.854
0
VERTEX
8
L0D0_0
10
-22.003
20
27.398
0
VERTEX
8
L0D0_0
10
-22.133
20
26.948
0
VERTEX
8
L0D0_0
10
-22.29
20
26.508
0
VERTEX
8
L0D0_0
10
-22.475
20
26.078
0
VERTEX
8
L0D0_0
10
-22.687
20
25.661
0
VERTEX
8
L0D0_0
10
-22.924
20
25.258
0
VERTEX
8
L0D0_0
10
-23.186
20
24.87
0
SEQEND
0
POLYLINE
8
L0D0_0
70
1
40
0
41
0
66
1
0
VERTEX
8
L0D0_0
10
43.053
20
-34.092
0
VERTEX
8
L0D0_0
10
42.905
20
-33.917
0
VERTEX
8
L0D0_0
10
42.63
20
-33.551
0
VERTEX
8
L0D0_0
10
42.378
20
-33.168
0
VERTEX
8
L0D0_0
10
42.15
20
-32.771
0
VERTEX
8
L0D0_0
10
41.947
20
-32.36
0
VERTEX
8
L0D0_0
10
41.769
20
-31.938
0
VERTEX
8
L0D0_0
10
41.618
20
-31.505
0
VERTEX
8
L0D0_0
10
41.493
20
-31.064
0
VERTEX
8
L0D0_0
10
41.396
20
-30.617
0
VERTEX
8
L0D0_0
10
41.326
20
-30.164
0
VERTEX
8
L0D0_0
10
41.284
20
-29.708
0
VERTEX
8
L0D0_0
10
41.27
20
-29.25
0
VERTEX
8
L0D0_0
10
41.284
20
-28.792
0
VERTEX
8
L0D0_0
10
41.326
20
-28.336
0
VERTEX
8
L0D0_0
10
41.396
20
-27.883
0
VERTEX
8
L0D0_0
10
41.493
20
-27.436
0
VERTEX
8
L0D0_0
10
41.618
20
-26.995
0
VERTEX
8
L0D0_0
10
41.769
20
-26.562
0
VERTEX
8
L0D0_0
10
41.947
20
-26.14
0
VERTEX
8
L0D0_0
10
42.15
20
-25.729
0
VERTEX
8
L0D0_0
10
42.378
20
-25.332
0
VERTEX
8
L0D0_0
10
42.63
20
-24.949
0
VERTEX
8
L0D0_0
10
42.905
20
-24.583
0
VERTEX
8
L0D0_0
10
43.053
20
-24.408
0
VERTEX
8
L0D0_0
10
43.924
20
-25.76
0
VERTEX
8
L0D0_0
10
43.952
20
-25.805
0
VERTEX
8
L0D0_0
10
44.015
20
-25.89
0
VERTEX
8
L0D0_0
10
44.084
20
-25.97
0
VERTEX
8
L0D0_0
10
44.157
20
-26.045
0
VERTEX
8
L0D0_0
10
44.236
20
-26.116
0
VERTEX
8
L0D0_0
10
44.319
20
-26.181
0
VERTEX
8
L0D0_0
10
44.406
20
-26.241
0
VERTEX
8
L0D0_0
10
44.497
20
-26.294
0
VERTEX
8
L0D0_0
10
44.591
20
-26.341
0
VERTEX
8
L0D0_0
10
44.689
20
-26.382
0
VERTEX
8
L0D0_0
10
44.789
20
-26.417
0
VERTEX
8
L0D0_0
10
44.89
20
-26.444
0
VERTEX
8
L0D0_0
10
44.942
20
-26.455
0
VERTEX
8
L0D0_0
10
46.519
20
-26.77
0
VERTEX
8
L0D0_0
10
46.519
20
-28.524
0
VERTEX
8
L0D0_0
10
47.519
20
-28.888
0
VERTEX
8
L0D0_0
10
47.519
20
-29.612
0
VERTEX
8
L0D0_0
10
46.519
20
-29.976
0
VERTEX
8
L0D0_0
10
46.519
20
-31.73
0
VERTEX
8
L0D0_0
10
44.942
20
-32.045
0
VERTEX
8
L0D0_0
10
44.89
20
-32.056
0
VERTEX
8
L0D0_0
10
44.789
20
-32.083
0
VERTEX
8
L0D0_0
10
44.689
20
-32.118
0
VERTEX
8
L0D0_0
10
44.591
20
-32.159
0
VERTEX
8
L0D0_0
10
44.497
20
-32.206
0
VERTEX
8
L0D0_0
10
44.406
20
-32.259
0
VERTEX
8
L0D0_0
10
44.319
20
-32.319
0
VERTEX
8
L0D0_0
10
44.236
20
-32.384
0
VERTEX
8
L0D0_0
10
44.157
20
-32.455
0
VERTEX
8
L0D0_0
10
44.084
20
-32.53
0
VERTEX
8
L0D0_0
10
44.015
20
-32.61
0
VERTEX
8
L0D0_0
10
43.952
20
-32.695
0
VERTEX
8
L0D0_0
10
43.924
20
-32.74
0
SEQEND
0
POLYLINE
8
L0D0_0
70
1
40
0
41
0
66
1
0
VERTEX
8
L0D0_0
10
23.553
20
-34.092
0
VERTEX
8
L0D0_0
10
23.405
20
-33.917
0
VERTEX
8
L0D0_0
10
23.13
20
-33.551
0
VERTEX
8
L0D0_0
10
22.878
20
-33.168
0
VERTEX
8
L0D0_0
10
22.65
20
-32.771
0
VERTEX
8
L0D0_0
10
22.447
20
-32.36
0
VERTEX
8
L0D0_0
10
22.269
20
-31.938
0
VERTEX
8
L0D0_0
10
22.118
20
-31.505
0
VERTEX
8
L0D0_0
10
21.993
20
-31.064
0
VERTEX
8
L0D0_0
10
21.896
20
-30.617
0
VERTEX
8
L0D0_0
10
21.826
20
-30.164
0
VERTEX
8
L0D0_0
10
21.784
20
-29.708
0
VERTEX
8
L0D0_0
10
21.77
20
-29.25
0
VERTEX
8
L0D0_0
10
21.784
20
-28.792
0
VERTEX
8
L0D0_0
10
21.826
20
-28.336
0
VERTEX
8
L0D0_0
10
21.896
20
-27.883
0
VERTEX
8
L0D0_0
10
21.993
20
-27.436
0
VERTEX
8
L0D0_0
10
22.118
20
-26.995
0
VERTEX
8
L0D0_0
10
22.269
20
-26.562
0
VERTEX
8
L0D0_0
10
22.447
20
-26.14
0
VERTEX
8
L0D0_0
10
22.65
20
-25.729
0
VERTEX
8
L0D0_0
10
22.878
20
-25.332
0
VERTEX
8
L0D0_0
10
23.13
20
-24.949
0
VERTEX
8
L0D0_0
10
23.405
20
-24.583
0
VERTEX
8
L0D0_0
10
23.553
20
-24.408
0
VERTEX
8
L0D0_0
10
24.424
20
-25.76
0
VERTEX
8
L0D0_0
10
24.452
20
-25.805
0
VERTEX
8
L0D0_0
10
24.515
20
-25.89
0
VERTEX
8
L0D0_0
10
24.584
20
-25.97
0
VERTEX
8
L0D0_0
10
24.657
20
-26.045
0
VERTEX
8
L0D0_0
10
24.736
20
-26.116
0
VERTEX
8
L0D0_0
10
24.819
20
-26.181
0
VERTEX
8
L0D0_0
10
24.906
20
-26.241
0
VERTEX
8
L0D0_0
10
24.997
20
-26.294
0
VERTEX
8
L0D0_0
10
25.091
20
-26.341
0
VERTEX
8
L0D0_0
10
25.189
20
-26.382
0
VERTEX
8
L0D0_0
10
25.289
20
-26.417
0
VERTEX
8
L0D0_0
10
25.39
20
-26.444
0
VERTEX
8
L0D0_0
10
25.442
20
-26.455
0
VERTEX
8
L0D0_0
10
27.019
20
-26.77
0
VERTEX
8
L0D0_0
10
27.019
20
-28.524
0
VERTEX
8
L0D0_0
10
28.019
20
-28.888
0
VERTEX
8
L0D0_0
10
28.019
20
-29.612
0
VERTEX
8
L0D0_0
10
27.019
20
-29.976
0
VERTEX
8
L0D0_0
10
27.019
20
-31.73
0
VERTEX
8
L0D0_0
10
25.442
20
-32.045
0
VERTEX
8
L0D0_0
10
25.39
20
-32.056
0
VERTEX
8
L0D0_0
10
25.289
20
-32.083
0
VERTEX
8
L0D0_0
10
25.189
20
-32.118
0
VERTEX
8
L0D0_0
10
25.091
20
-32.159
0
VERTEX
8
L0D0_0
10
24.997
20
-32.206
0
VERTEX
8
L0D0_0
10
24.906
20
-32.259
0
VERTEX
8
L0D0_0
10
24.819
20
-32.319
0
VERTEX
8
L0D0_0
10
24.736
20
-32.384
0
VERTEX
8
L0D0_0
10
24.657
20
-32.455
0
VERTEX
8
L0D0_0
10
24.584
20
-32.53
0
VERTEX
8
L0D0_0
10
24.515
20
-32.61
0
VERTEX
8
L0D0_0
10
24.452
20
-32.695
0
VERTEX
8
L0D0_0
10
24.424
20
-32.74
0
SEQEND
0
POLYLINE
8
L0D0_0
70
1
40
0
41
0
66
1
0
VERTEX
8
L0D0_0
10
4.053
20
-34.092
0
VERTEX
8
L0D0_0
10
3.905
20
-33.917
0
VERTEX
8
L0D0_0
10
3.63
20
-33.551
0
VERTEX
8
L0D0_0
10
3.378
20
-33.168
0
VERTEX
8
L0D0_0
10
3.15
20
-32.771
0
VERTEX
8
L0D0_0
10
2.947
20
-32.36
0
VERTEX
8
L0D0_0
10
2.769
20
-31.938
0
VERTEX
8
L0D0_0
10
2.618
20
-31.505
0
VERTEX
8
L0D0_0
10
2.493
20
-31.064
0
VERTEX
8
L0D0_0
10
2.396
20
-30.617
0
VERTEX
8
L0D0_0
10
2.326
20
-30.164
0
VERTEX
8
L0D0_0
10
2.284
20
-29.708
0
VERTEX
8
L0D0_0
10
2.27
20
-29.25
0
VERTEX
8
L0D0_0
10
2.284
20
-28.792
0
VERTEX
8
L0D0_0
10
2.326
20
-28.336
0
VERTEX
8
L0D0_0
10
2.396
20
-27.883
0
VERTEX
8
L0D0_0
10
2.493
20
-27.436
0
VERTEX
8
L0D0_0
10
2.618
20
-26.995
0
VERTEX
8
L0D0_0
10
2.769
20
-26.562
0
VERTEX
8
L0D0_0
10
2.947
20
-26.14
0
VERTEX
8
L0D0_0
10
3.15
20
-25.729
0
VERTEX
8
L0D0_0
10
3.378
20
-25.332
0
VERTEX
8
L0D0_0
10
3.63
20
-24.949
0
VERTEX
8
L0D0_0
10
3.905
20
-24.583
0
VERTEX
8
L0D0_0
10
4.053
20
-24.408
0
VERTEX
8
L0D0_0
10
4.924
20
-25.76
0
VERTEX
8
L0D0_0
10
4.952
20
-25.805
0
VERTEX
8
L0D0_0
10
5.015
20
-25.89
0
VERTEX
8
L0D0_0
10
5.084
20
-25.97
0
VERTEX
8
L0D0_0
10
5.157
20
-26.045
0
VERTEX
8
L0D0_0
10
5.236
20
-26.116
0
VERTEX
8
L0D0_0
10
5.319
20
-26.181
0
VERTEX
8
L0D0_0
10
5.406
20
-26.241
0
VERTEX
8
L0D0_0
10
5.497
20
-26.294
0
VERTEX
8
L0D0_0
10
5.591
20
-26.341
0
VERTEX
8
L0D0_0
10
5.689
20
-26.382
0
VERTEX
8
L0D0_0
10
5.789
20
-26.417
0
VERTEX
8
L0D0_0
10
5.89
20
-26.444
0
VERTEX
8
L0D0_0
10
5.942
20
-26.455
0
VERTEX
8
L0D0_0
10
7.519
20
-26.77
0
VERTEX
8
L0D0_0
10
7.519
20
-28.524
0
VERTEX
8
L0D0_0
10
8.519
20
-28.888
0
VERTEX
8
L0D0_0
10
8.519
20
-29.612
0
VERTEX
8
L0D0_0
10
7.519
20
-29.976
0
VERTEX
8
L0D0_0
10
7.519
20
-31.73
0
VERTEX
8
L0D0_0
10
5.942
20
-32.045
0
VERTEX
8
L0D0_0
10
5.89
20
-32.056
0
VERTEX
8
L0D0_0
10
5.789
20
-32.083
0
VERTEX
8
L0D0_0
10
5.689
20
-32.118
0
VERTEX
8
L0D0_0
10
5.591
20
-32.159
0
VERTEX
8
L0D0_0
10
5.497
20
-32.206
0
VERTEX
8
L0D0_0
10
5.406
20
-32.259
0
VERTEX
8
L0D0_0
10
5.319
20
-32.319
0
VERTEX
8
L0D0_0
10
5.236
20
-32.384
0
VERTEX
8
L0D0_0
10
5.157
20
-32.455
0
VERTEX
8
L0D0_0
10
5.084
20
-32.53
0
VERTEX
8
L0D0_0
10
5.015
20
-32.61
0
VERTEX
8
L0D0_0
10
4.952
20
-32.695
0
VERTEX
8
L0D0_0
10
4.924
20
-32.74
0
SEQEND
0
POLYLINE
8
L0D0_0
70
1
40
0
41
0
66
1
0
VERTEX
8
L0D0_0
10
-15.447
20
-34.092
0
VERTEX
8
L0D0_0
10
-15.595
20
-33.917
0
VERTEX
8
L0D0_0
10
-15.87
20
-33.551
0
VERTEX
8
L0D0_0
10
-16.122
20
-33.168
0
VERTEX
8
L0D0_0
10
-16.35
20
-32.771
0
VERTEX
8
L0D0_0
10
-16.553
20
-32.36
0
VERTEX
8
L0D0_0
10
-16.731
20
-31.938
0
VERTEX
8
L0D0_0
10
-16.882
20
-31.505
0
VERTEX
8
L0D0_0
10
-17.007
20
-31.064
0
VERTEX
8
L0D0_0
10
-17.104
20
-30.617
0
VERTEX
8
L0D0_0
10
-17.174
20
-30.164
0
VERTEX
8
L0D0_0
10
-17.216
20
-29.708
0
VERTEX
8
L0D0_0
10
-17.23
20
-29.25
0
VERTEX
8
L0D0_0
10
-17.216
20
-28.792
0
VERTEX
8
L0D0_0
10
-17.174
20
-28.336
0
VERTEX
8
L0D0_0
10
-17.104
20
-27.883
0
VERTEX
8
L0D0_0
10
-17.007
20
-27.436
0
VERTEX
8
L0D0_0
10
-16.882
20
-26.995
0
VERTEX
8
L0D0_0
10
-16.731
20
-26.562
0
VERTEX
8
L0D0_0
10
-16.553
20
-26.14
0
VERTEX
8
L0D0_0
10
-16.35
20
-25.729
0
VERTEX
8
L0D0_0
10
-16.122
20
-25.332
0
VERTEX
8
L0D0_0
10
-15.87
20
-24.949
0
VERTEX
8
L0D0_0
10
-15.595
20
-24.583
0
VERTEX
8
L0D0_0
10
-15.447
20
-24.408
0
VERTEX
8
L0D0_0
10
-14.576
20
-25.76
0
VERTEX
8
L0D0_0
10
-14.548
20
-25.805
0
VERTEX
8
L0D0_0
10
-14.485
20
-25.89
0
VERTEX
8
L0D0_0
10
-14.416
20
-25.97
0
VERTEX
8
L0D0_0
10
-14.343
20
-26.045
0
VERTEX
8
L0D0_0
10
-14.264
20
-26.116
0
VERTEX
8
L0D0_0
10
-14.181
20
-26.181
0
VERTEX
8
L0D0_0
10
-14.094
20
-26.241
0
VERTEX
8
L0D0_0
10
-14.003
20
-26.294
0
VERTEX
8
L0D0_0
10
-13.909
20
-26.341
0
VERTEX
8
L0D0_0
10
-13.811
20
-26.382
0
VERTEX
8
L0D0_0
10
-13.711
20
-26.417
0
VERTEX
8
L0D0_0
10
-13.61
20
-26.444
0
VERTEX
8
L0D0_0
10
-13.558
20
-26.455
0
VERTEX
8
L0D0_0
10
-11.981
20
-26.77
0
VERTEX
8
L0D0_0
10
-11.981
20
-28.524
0
VERTEX
8
L0D0_0
10
-10.981
20
-28.888
0
VERTEX
8
L0D0_0
10
-10.981
20
-29.612
0
VERTEX
8
L0D0_0
10
-11.981
20
-29.976
0
VERTEX
8
L0D0_0
10
-11.981
20
-31.73
0
VERTEX
8
L0D0_0
10
-13.558
20
-32.045
0
VERTEX
8
L0D0_0
10
-13.61
20
-32.056
0
VERTEX
8
L0D0_0
10
-13.711
20
-32.083
0
VERTEX
8
L0D0_0
10
-13.811
20
-32.118
0
VERTEX
8
L0D0_0
10
-13.909
20
-32.159
0
VERTEX
8
L0D0_0
10
-14.003
20
-32.206
0
VERTEX
8
L0D0_0
10
-14.094
20
-32.259
0
VERTEX
8
L0D0_0
10
-14.181
20
-32.319
0
VERTEX
8
L0D0_0
10
-14.264
20
-32.384
0
VERTEX
8
L0D0_0
10
-14.343
20
-32.455
0
VERTEX
8
L0D0_0
10
-14.416
20
-32.53
0
VERTEX
8
L0D0_0
10
-14.485
20
-32.61
0
VERTEX
8
L0D0_0
10
-14.548
20
-32.695
0
VERTEX
8
L0D0_0
10
-14.576
20
-32.74
0
SEQEND
0
POLYLINE
8
L0D0_0
70
1
40
0
41
0
66
1
0
VERTEX
8
L0D0_0
10
-34.947
20
-34.092
0
VERTEX
8
L0D0_0
10
-35.095
20
-33.917
0
VERTEX
8
L0D0_0
10
-35.37
20
-33.551
0
VERTEX
8
L0D0_0
10
-35.622
20
-33.168
0
VERTEX
8
L0D0_0
10
-35.85
20
-32.771
0
VERTEX
8
L0D0_0
10
-36.053
20
-32.36
0
VERTEX
8
L0D0_0
10
-36.231
20
-31.938
0
VERTEX
8
L0D0_0
10
-36.382
20
-31.505
0
VERTEX
8
L0D0_0
10
-36.507
20
-31.064
0
VERTEX
8
L0D0_0
10
-36.604
20
-30.617
0
VERTEX
8
L0D0_0
10
-36.674
20
-30.164
0
VERTEX
8
L0D0_0
10
-36.716
20
-29.708
0
VERTEX
8
L0D0_0
10
-36.73
20
-29.25
0
VERTEX
8
L0D0_0
10
-36.716
20
-28.792
0
VERTEX
8
L0D0_0
10
-36.674
20
-28.336
0
VERTEX
8
L0D0_0
10
-36.604
20
-27.883
0
VERTEX
8
L0D0_0
10
-36.507
20
-27.436
0
VERTEX
8
L0D0_0
10
-36.382
20
-26.995
0
VERTEX
8
L0D0_0
10
-36.231
20
-26.562
0
VERTEX
8
L0D0_0
10
-36.053
20
-26.14
0
VERTEX
8
L0D0_0
10
-35.85
20
-25.729
0
VERTEX
8
L0D0_0
10
-35.622
20
-25.332
0
VERTEX
8
L0D0_0
10
-35.37
20
-24.949
0
VERTEX
8
L0D0_0
10
-35.095
20
-24.583
0
VERTEX
8
L0D0_0
10
-34.947
20
-24.408
0
VERTEX
8
L0D0_0
10
-34.076
20
-25.76
0
VERTEX
8
L0D0_0
10
-34.048
20
-25.805
0
VERTEX
8
L0D0_0
10
-33.985
20
-25.89
0
VERTEX
8
L0D0_0
10
-33.916
20
-25.97
0
VERTEX
8
L0D0_0
10
-33.843
20
-26.045
0
VERTEX
8
L0D0_0
10
-33.764
20
-26.116
0
VERTEX
8
L0D0_0
10
-33.681
20
-26.181
0
VERTEX
8
L0D0_0
10
-33.594
20
-26.241
0
VERTEX
8
L0D0_0
10
-33.503
20
-26.294
0
VERTEX
8
L0D0_0
10
-33.409
20
-26.341
0
VERTEX
8
L0D0_0
10
-33.311
20
-26.382
0
VERTEX
8
L0D0_0
10
-33.211
20
-26.417
0
VERTEX
8
L0D0_0
10
-33.11
20
-26.444
0
VERTEX
8
L0D0_0
10
-33.058
20
-26.455
0
VERTEX
8
L0D0_0
10
-31.481
20
-26.77
0
VERTEX
8
L0D0_0
10
-31.481
20
-28.524
0
VERTEX
8
L0D0_0
10
-30.481
20
-28.888
0
VERTEX
8
L0D0_0
10
-30.481
20
-29.612
0
VERTEX
8
L0D0_0
10
-31.481
20
-29.976
0
VERTEX
8
L0D0_0
10
-31.481
20
-31.73
0
VERTEX
8
L0D0_0
10
-33.058
20
-32.045
0
VERTEX
8
L0D0_0
10
-33.11
20
-32.056
0
VERTEX
8
L0D0_0
10
-33.211
20
-32.083
0
VERTEX
8
L0D0_0
10
-33.311
20
-32.118
0
VERTEX
8
L0D0_0
10
-33.409
20
-32.159
0
VERTEX
8
L0D0_0
10
-33.503
20
-32.206
0
VERTEX
8
L0D0_0
10
-33.594
20
-32.259
0
VERTEX
8
L0D0_0
10
-33.681
20
-32.319
0
VERTEX
8
L0D0_0
10
-33.764
20
-32.384
0
VERTEX
8
L0D0_0
10
-33.843
20
-32.455
0
VERTEX
8
L0D0_0
10
-33.916
20
-32.53
0
VERTEX
8
L0D0_0
10
-33.985
20
-32.61
0
VERTEX
8
L0D0_0
10
-34.048
20
-32.695
0
VERTEX
8
L0D0_0
10
-34.076
20
-32.74
0
SEQEND
0
POLYLINE
8
L0D0_0
70
1
40
0
41
0
66
1
0
VERTEX
8
L0D0_0
10
-54.447
20
-34.092
0
VERTEX
8
L0D0_0
10
-54.595
20
-33.917
0
VERTEX
8
L0D0_0
10
-54.87
20
-33.551
0
VERTEX
8
L0D0_0
10
-55.122
20
-33.168
0
VERTEX
8
L0D0_0
10
-55.35
20
-32.771
0
VERTEX
8
L0D0_0
10
-55.553
20
-32.36
0
VERTEX
8
L0D0_0
10
-55.731
20
-31.938
0
VERTEX
8
L0D0_0
10
-55.882
20
-31.505
0
VERTEX
8
L0D0_0
10
-56.007
20
-31.064
0
VERTEX
8
L0D0_0
10
-56.104
20
-30.617
0
VERTEX
8
L0D0_0
10
-56.174
20
-30.164
0
VERTEX
8
L0D0_0
10
-56.216
20
-29.708
0
VERTEX
8
L0D0_0
10
-56.23
20
-29.25
0
VERTEX
8
L0D0_0
10
-56.216
20
-28.792
0
VERTEX
8
L0D0_0
10
-56.174
20
-28.336
0
VERTEX
8
L0D0_0
10
-56.104
20
-27.883
0
VERTEX
8
L0D0_0
10
-56.007
20
-27.436
0
VERTEX
8
L0D0_0
10
-55.882
20
-26.995
0
VERTEX
8
L0D0_0
10
-55.731
20
-26.562
0
VERTEX
8
L0D0_0
10
-55.553
20
-26.14
0
VERTEX
8
L0D0_0
10
-55.35
20
-25.729
0
VERTEX
8
L0D0_0
10
-55.122
20
-25.332
0
VERTEX
8
L0D0_0
10
-54.87
20
-24.949
0
VERTEX
8
L0D0_0
10
-54.595
20
-24.583
0
VERTEX
8
L0D0_0
10
-54.447
20
-24.408
0
VERTEX
8
L0D0_0
10
-53.576
20
-25.76
0
VERTEX
8
L0D0_0
10
-53.548
20
-25.805
0
VERTEX
8
L0D0_0
10
-53.485
20
-25.89
0
VERTEX
8
L0D0_0
10
-53.416
20
-25.97
0
VERTEX
8
L0D0_0
10
-53.343
20
-26.045
0
VERTEX
8
L0D0_0
10
-53.264
20
-26.116
0
VERTEX
8
L0D0_0
10
-53.181
20
-26.181
0
VERTEX
8
L0D0_0
10
-53.094
20
-26.241
0
VERTEX
8
L0D0_0
10
-53.003
20
-26.294
0
VERTEX
8
L0D0_0
10
-52.909
20
-26.341
0
VERTEX
8
L0D0_0
10
-52.811
20
-26.382
0
VERTEX
8
L0D0_0
10
-52.711
20
-26.417
0
VERTEX
8
L0D0_0
10
-52.61
20
-26.444
0
VERTEX
8
L0D0_0
10
-52.558
20
-26.455
0
VERTEX
8
L0D0_0
10
-50.981
20
-26.77
0
VERTEX
8
L0D0_0
10
-50.981
20
-28.524
0
VERTEX
8
L0D0_0
10
-49.981
20
-28.888
0
VERTEX
8
L0D0_0
10
-49.981
20
-29.612
0
VERTEX
8
L0D0_0
10
-50.981
20
-29.976
0
VERTEX
8
L0D0_0
10
-50.981
20
-31.73
0
VERTEX
8
L0D0_0
10
-52.558
20
-32.045
0
VERTEX
8
L0D0_0
10
-52.61
20
-32.056
0
VERTEX
8
L0D0_0
10
-52.711
20
-32.083
0
VERTEX
8
L0D0_0
10
-52.811
20
-32.118
0
VERTEX
8
L0D0_0
10
-52.909
20
-32.159
0
VERTEX
8
L0D0_0
10
-53.003
20
-32.206
0
VERTEX
8
L0D0_0
10
-53.094
20
-32.259
0
VERTEX
8
L0D0_0
10
-53.181
20
-32.319
0
VERTEX
8
L0D0_0
10
-53.264
20
-32.384
0
VERTEX
8
L0D0_0
10
-53.343
20
-32.455
0
VERTEX
8
L0D0_0
10
-53.416
20
-32.53
0
VERTEX
8
L0D0_0
10
-53.485
20
-32.61
0
VERTEX
8
L0D0_0
10
-53.548
20
-32.695
0
VERTEX
8
L0D0_0
10
-53.576
20
-32.74
0
SEQEND
0
POLYLINE
8
L0D0_0
70
1
40
0
41
0
66
1
0
VERTEX
8
L0D0_0
10
43.053
20
-14.592
0
VERTEX
8
L0D0_0
10
42.905
20
-14.417
0
VERTEX
8
L0D0_0
10
42.63
20
-14.051
0
VERTEX
8
L0D0_0
10
42.378
20
-13.668
0
VERTEX
8
L0D0_0
10
42.15
20
-13.271
0
VERTEX
8
L0D0_0
10
41.947
20
-12.86
0
VERTEX
8
L0D0_0
10
41.769
20
-12.438
0
VERTEX
8
L0D0_0
10
41.618
20
-12.005
0
VERTEX
8
L0D0_0
10
41.493
20
-11.564
0
VERTEX
8
L0D0_0
10
41.396
20
-11.117
0
VERTEX
8
L0D0_0
10
41.326
20
-10.664
0
VERTEX
8
L0D0_0
10
41.284
20
-10.208
0
VERTEX
8
L0D0_0
10
41.27
20
-9.75
0
VERTEX
8
L0D0_0
10
41.284
20
-9.292
0
VERTEX
8
L0D0_0
10
41.326
20
-8.836
0
VERTEX
8
L0D0_0
10
41.396
20
-8.383
0
VERTEX
8
L0D0_0
10
41.493
20
-7.936
0
VERTEX
8
L0D0_0
10
41.618
20
-7.495
0
VERTEX
8
L0D0_0
10
41.769
20
-7.062
0
VERTEX
8
L0D0_0
10
41.947
20
-6.64
0
VERTEX
8
L0D0_0
10
42.15
20
-6.229
0
VERTEX
8
L0D0_0
10
42.378
20
-5.832
0
VERTEX
8
L0D0_0
10
42.63
20
-5.449
0
VERTEX
8
L0D0_0
10
42.905
20
-5.083
0
VERTEX
8
L0D0_0
10
43.053
20
-4.908
0
VERTEX
8
L0D0_0
10
43.924
20
-6.26
0
VERTEX
8
L0D0_0
10
43.952
20
-6.305
0
VERTEX
8
L0D0_0
10
44.015
20
-6.39
0
VERTEX
8
L0D0_0
10
44.084
20
-6.47
0
VERTEX
8
L0D0_0
10
44.157
20
-6.545
0
VERTEX
8
L0D0_0
10
44.236
20
-6.616
0
VERTEX
8
L0D0_0
10
44.319
20
-6.681
0
VERTEX
8
L0D0_0
10
44.406
20
-6.741
0
VERTEX
8
L0D0_0
10
44.497
20
-6.794
0
VERTEX
8
L0D0_0
10
44.591
20
-6.841
0
VERTEX
8
L0D0_0
10
44.689
20
-6.882
0
VERTEX
8
L0D0_0
10
44.789
20
-6.917
0
VERTEX
8
L0D0_0
10
44.89
20
-6.944
0
VERTEX
8
L0D0_0
10
44.942
20
-6.955
0
VERTEX
8
L0D0_0
10
46.519
20
-7.27
0
VERTEX
8
L0D0_0
10
46.519
20
-9.024
0
VERTEX
8
L0D0_0
10
47.519
20
-9.388
0
VERTEX
8
L0D0_0
10
47.519
20
-10.112
0
VERTEX
8
L0D0_0
10
46.519
20
-10.476
0
VERTEX
8
L0D0_0
10
46.519
20
-12.23
0
VERTEX
8
L0D0_0
10
44.942
20
-12.545
0
VERTEX
8
L0D0_0
10
44.89
20
-12.556
0
VERTEX
8
L0D0_0
10
44.789
20
-12.583
0
VERTEX
8
L0D0_0
10
44.689
20
-12.618
0
VERTEX
8
L0D0_0
10
44.591
20
-12.659
0
VERTEX
8
L0D0_0
10
44.497
20
-12.706
0
VERTEX
8
L0D0_0
10
44.406
20
-12.759
0
VERTEX
8
L0D0_0
10
44.319
20
-12.819
0
VERTEX
8
L0D0_0
10
44.236
20
-12.884
0
VERTEX
8
L0D0_0
10
44.157
20
-12.955
0
VERTEX
8
L0D0_0
10
44.084
20
-13.03
0
VERTEX
8
L0D0_0
10
44.015
20
-13.11
0
VERTEX
8
L0D0_0
10
43.952
20
-13.195
0
VERTEX
8
L0D0_0
10
43.924
20
-13.24
0
SEQEND
0
POLYLINE
8
L0D0_0
70
1
40
0
41
0
66
1
0
VERTEX
8
L0D0_0
10
23.553
20
-14.592
0
VERTEX
8
L0D0_0
10
23.405
20
-14.417
0
VERTEX
8
L0D0_0
10
23.13
20
-14.051
0
VERTEX
8
L0D0_0
10
22.878
20
-13.668
0
VERTEX
8
L0D0_0
10
22.65
20
-13.271
0
VERTEX
8
L0D0_0
10
22.447
20
-12.86
0
VERTEX
8
L0D0_0
10
22.269
20
-12.438
0
VERTEX
8
L0D0_0
10
22.118
20
-12.005
0
VERTEX
8
L0D0_0
10
21.993
20
-11.564
0
VERTEX
8
L0D0_0
10
21.896
20
-11.117
0
VERTEX
8
L0D0_0
10
21.826
20
-10.664
0
VERTEX
8
L0D0_0
10
21.784
20
-10.208
0
VERTEX
8
L0D0_0
10
21.77
20
-9.75
0
VERTEX
8
L0D0_0
10
21.784
20
-9.292
0
VERTEX
8
L0D0_0
10
21.826
20
-8.836
0
VERTEX
8
L0D0_0
10
21.896
20
-8.383
0
VERTEX
8
L0D0_0
10
21.993
20
-7.936
0
VERTEX
8
L0D0_0
10
22.118
20
-7.495
0
VERTEX
8
L0D0_0
10
22.269
20
-7.062
0
VERTEX
8
L0D0_0
10
22.447
20
-6.64
0
VERTEX
8
L0D0_0
10
22.65
20
-6.229
0
VERTEX
8
L0D0_0
10
22.878
20
-5.832
0
VERTEX
8
L0D0_0
10
23.13
20
-5.449
0
VERTEX
8
L0D0_0
10
23.405
20
-5.083
0
VERTEX
8
L0D0_0
10
23.553
20
-4.908
0
VERTEX
8
L0D0_0
10
24.424
20
-6.26
0
VERTEX
8
L0D0_0
10
24.452
20
-6.305
0
VERTEX
8
L0D0_0
10
24.515
20
-6.39
0
VERTEX
8
L0D0_0
10
24.584
20
-6.47
0
VERTEX
8
L0D0_0
10
24.657
20
-6.545
0
VERTEX
8
L0D0_0
10
24.736
20
-6.616
0
VERTEX
8
L0D0_0
10
24.819
20
-6.681
0
VERTEX
8
L0D0_0
10
24.906
20
-6.741
0
VERTEX
8
L0D0_0
10
24.997
20
-6.794
0
VERTEX
8
L0D0_0
10
25.091
20
-6.841
0
VERTEX
8
L0D0_0
10
25.189
20
-6.882
0
VERTEX
8
L0D0_0
10
25.289
20
-6.917
0
VERTEX
8
L0D0_0
10
25.39
20
-6.944
0
VERTEX
8
L0D0_0
10
25.442
20
-6.955
0
VERTEX
8
L0D0_0
10
27.019
20
-7.27
0
VERTEX
8
L0D0_0
10
27.019
20
-9.024
0
VERTEX
8
L0D0_0
10
28.019
20
-9.388
0
VERTEX
8
L0D0_0
10
28.019
20
-10.112
0
VERTEX
8
L0D0_0
10
27.019
20
-10.476
0
VERTEX
8
L0D0_0
10
27.019
20
-12.23
0
VERTEX
8
L0D0_0
10
25.442
20
-12.545
0
VERTEX
8
L0D0_0
10
25.39
20
-12.556
0
VERTEX
8
L0D0_0
10
25.289
20
-12.583
0
VERTEX
8
L0D0_0
10
25.189
20
-12.618
0
VERTEX
8
L0D0_0
10
25.091
20
-12.659
0
VERTEX
8
L0D0_0
10
24.997
20
-12.706
0
VERTEX
8
L0D0_0
10
24.906
20
-12.759
0
VERTEX
8
L0D0_0
10
24.819
20
-12.819
0
VERTEX
8
L0D0_0
10
24.736
20
-12.884
0
VERTEX
8
L0D0_0
10
24.657
20
-12.955
0
VERTEX
8
L0D0_0
10
24.584
20
-13.03
0
VERTEX
8
L0D0_0
10
24.515
20
-13.11
0
VERTEX
8
L0D0_0
10
24.452
20
-13.195
0
VERTEX
8
L0D0_0
10
24.424
20
-13.24
0
SEQEND
0
POLYLINE
8
L0D0_0
70
1
40
0
41
0
66
1
0
VERTEX
8
L0D0_0
10
4.053
20
-14.592
0
VERTEX
8
L0D0_0
10
3.905
20
-14.417
0
VERTEX
8
L0D0_0
10
3.63
20
-14.051
0
VERTEX
8
L0D0_0
10
3.378
20
-13.668
0
VERTEX
8
L0D0_0
10
3.15
20
-13.271
0
VERTEX
8
L0D0_0
10
2.947
20
-12.86
0
VERTEX
8
L0D0_0
10
2.769
20
-12.438
0
VERTEX
8
L0D0_0
10
2.618
20
-12.005
0
VERTEX
8
L0D0_0
10
2.493
20
-11.564
0
VERTEX
8
L0D0_0
10
2.396
20
-11.117
0
VERTEX
8
L0D0_0
10
2.326
20
-10.664
0
VERTEX
8
L0D0_0
10
2.284
20
-10.208
0
VERTEX
8
L0D0_0
10
2.27
20
-9.75
0
VERTEX
8
L0D0_0
10
2.284
20
-9.292
0
VERTEX
8
L0D0_0
10
2.326
20
-8.836
0
VERTEX
8
L0D0_0
10
2.396
20
-8.383
0
VERTEX
8
L0D0_0
10
2.493
20
-7.936
0
VERTEX
8
L0D0_0
10
2.618
20
-7.495
0
VERTEX
8
L0D0_0
10
2.769
20
-7.062
0
VERTEX
8
L0D0_0
10
2.947
20
-6.64
0
VERTEX
8
L0D0_0
10
3.15
20
-6.229
0
VERTEX
8
L0D0_0
10
3.378
20
-5.832
0
VERTEX
8
L0D0_0
10
3.63
20
-5.449
0
VERTEX
8
L0D0_0
10
3.905
20
-5.083
0
VERTEX
8
L0D0_0
10
4.053
20
-4.908
0
VERTEX
8
L0D0_0
10
4.924
20
-6.26
0
VERTEX
8
L0D0_0
10
4.952
20
-6.305
0
VERTEX
8
L0D0_0
10
5.015
20
-6.39
0
VERTEX
8
L0D0_0
10
5.084
20
-6.47
0
VERTEX
8
L0D0_0
10
5.157
20
-6.545
0
VERTEX
8
L0D0_0
10
5.236
20
-6.616
0
VERTEX
8
L0D0_0
10
5.319
20
-6.681
0
VERTEX
8
L0D0_0
10
5.406
20
-6.741
0
VERTEX
8
L0D0_0
10
5.497
20
-6.794
0
VERTEX
8
L0D0_0
10
5.591
20
-6.841
0
VERTEX
8
L0D0_0
10
5.689
20
-6.882
0
VERTEX
8
L0D0_0
10
5.789
20
-6.917
0
VERTEX
8
L0D0_0
10
5.89
20
-6.944
0
VERTEX
8
L0D0_0
10
5.942
20
-6.955
0
VERTEX
8
L0D0_0
10
7.519
20
-7.27
0
VERTEX
8
L0D0_0
10
7.519
20
-9.024
0
VERTEX
8
L0D0_0
10
8.519
20
-9.388
0
VERTEX
8
L0D0_0
10
8.519
20
-10.112
0
VERTEX
8
L0D0_0
10
7.519
20
-10.476
0
VERTEX
8
L0D0_0
10
7.519
20
-12.23
0
VERTEX
8
L0D0_0
10
5.942
20
-12.545
0
VERTEX
8
L0D0_0
10
5.89
20
-12.556
0
VERTEX
8
L0D0_0
10
5.789
20
-12.583
0
VERTEX
8
L0D0_0
10
5.689
20
-12.618
0
VERTEX
8
L0D0_0
10
5.591
20
-12.659
0
VERTEX
8
L0D0_0
10
5.497
20
-12.706
0
VERTEX
8
L0D0_0
10
5.406
20
-12.759
0
VERTEX
8
L0D0_0
10
5.319
20
-12.819
0
VERTEX
8
L0D0_0
10
5.236
20
-12.884
0
VERTEX
8
L0D0_0
10
5.157
20
-12.955
0
VERTEX
8
L0D0_0
10
5.084
20
-13.03
0
VERTEX
8
L0D0_0
10
5.015
20
-13.11
0
VERTEX
8
L0D0_0
10
4.952
20
-13.195
0
VERTEX
8
L0D0_0
10
4.924
20
-13.24
0
SEQEND
0
POLYLINE
8
L0D0_0
70
1
40
0
41
0
66
1
0
VERTEX
8
L0D0_0
10
-15.447
20
-14.592
0
VERTEX
8
L0D0_0
10
-15.595
20
-14.417
0
VERTEX
8
L0D0_0
10
-15.87
20
-14.051
0
VERTEX
8
L0D0_0
10
-16.122
20
-13.668
0
VERTEX
8
L0D0_0
10
-16.35
20
-13.271
0
VERTEX
8
L0D0_0
10
-16.553
20
-12.86
0
VERTEX
8
L0D0_0
10
-16.731
20
-12.438
0
VERTEX
8
L0D0_0
10
-16.882
20
-12.005
0
VERTEX
8
L0D0_0
10
-17.007
20
-11.564
0
VERTEX
8
L0D0_0
10
-17.104
20
-11.117
0
VERTEX
8
L0D0_0
10
-17.174
20
-10.664
0
VERTEX
8
L0D0_0
10
-17.216
20
-10.208
0
VERTEX
8
L0D0_0
10
-17.23
20
-9.75
0
VERTEX
8
L0D0_0
10
-17.216
20
-9.292
0
VERTEX
8
L0D0_0
10
-17.174
20
-8.836
0
VERTEX
8
L0D0_0
10
-17.104
20
-8.383
0
VERTEX
8
L0D0_0
10
-17.007
20
-7.936
0
VERTEX
8
L0D0_0
10
-16.882
20
-7.495
0
VERTEX
8
L0D0_0
10
-16.731
20
-7.062
0
VERTEX
8
L0D0_0
10
-16.553
20
-6.64
0
VERTEX
8
L0D0_0
10
-16.35
20
-6.229
0
VERTEX
8
L0D0_0
10
-16.122
20
-5.832
0
VERTEX
8
L0D0_0
10
-15.87
20
-5.449
0
VERTEX
8
L0D0_0
10
-15.595
20
-5.083
0
VERTEX
8
L0D0_0
10
-15.447
20
-4.908
0
VERTEX
8
L0D0_0
10
-14.576
20
-6.26
0
VERTEX
8
L0D0_0
10
-14.548
20
-6.305
0
VERTEX
8
L0D0_0
10
-14.485
20
-6.39
0
VERTEX
8
L0D0_0
10
-14.416
20
-6.47
0
VERTEX
8
L0D0_0
10
-14.343
20
-6.545
0
VERTEX
8
L0D0_0
10
-14.264
20
-6.616
0
VERTEX
8
L0D0_0
10
-14.181
20
-6.681
0
VERTEX
8
L0D0_0
10
-14.094
20
-6.741
0
VERTEX
8
L0D0_0
10
-14.003
20
-6.794
0
VERTEX
8
L0D0_0
10
-13.909
20
-6.841
0
VERTEX
8
L0D0_0
10
-13.811
20
-6.882
0
VERTEX
8
L0D0_0
10
-13.711
20
-6.917
0
VERTEX
8
L0D0_0
10
-13.61
20
-6.944
0
VERTEX
8
L0D0_0
10
-13.558
20
-6.955
0
VERTEX
8
L0D0_0
10
-11.981
20
-7.27
0
VERTEX
8
L0D0_0
10
-11.981
20
-9.024
0
VERTEX
8
L0D0_0
10
-10.981
20
-9.388
0
VERTEX
8
L0D0_0
10
-10.981
20
-10.112
0
VERTEX
8
L0D0_0
10
-11.981
20
-10.476
0
VERTEX
8
L0D0_0
10
-11.981
20
-12.23
0
VERTEX
8
L0D0_0
10
-13.558
20
-12.545
0
VERTEX
8
L0D0_0
10
-13.61
20
-12.556
0
VERTEX
8
L0D0_0
10
-13.711
20
-12.583
0
VERTEX
8
L0D0_0
10
-13.811
20
-12.618
0
VERTEX
8
L0D0_0
10
-13.909
20
-12.659
0
VERTEX
8
L0D0_0
10
-14.003
20
-12.706
0
VERTEX
8
L0D0_0
10
-14.094
20
-12.759
0
VERTEX
8
L0D0_0
10
-14.181
20
-12.819
0
VERTEX
8
L0D0_0
10
-14.264
20
-12.884
0
VERTEX
8
L0D0_0
10
-14.343
20
-12.955
0
VERTEX
8
L0D0_0
10
-14.416
20
-13.03
0
VERTEX
8
L0D0_0
10
-14.485
20
-13.11
0
VERTEX
8
L0D0_0
10
-14.548
20
-13.195
0
VERTEX
8
L0D0_0
10
-14.576
20
-13.24
0
SEQEND
0
POLYLINE
8
L0D0_0
70
1
40
0
41
0
66
1
0
VERTEX
8
L0D0_0
10
-34.947
20
-14.592
0
VERTEX
8
L0D0_0
10
-35.095
20
-14.417
0
VERTEX
8
L0D0_0
10
-35.37
20
-14.051
0
VERTEX
8
L0D0_0
10
-35.622
20
-13.668
0
VERTEX
8
L0D0_0
10
-35.85
20
-13.271
0
VERTEX
8
L0D0_0
10
-36.053
20
-12.86
0
VERTEX
8
L0D0_0
10
-36.231
20
-12.438
0
VERTEX
8
L0D0_0
10
-36.382
20
-12.005
0
VERTEX
8
L0D0_0
10
-36.507
20
-11.564
0
VERTEX
8
L0D0_0
10
-36.604
20
-11.117
0
VERTEX
8
L0D0_0
10
-36.674
20
-10.664
0
VERTEX
8
L0D0_0
10
-36.716
20
-10.208
0
VERTEX
8
L0D0_0
10
-36.73
20
-9.75
0
VERTEX
8
L0D0_0
10
-36.716
20
-9.292
0
VERTEX
8
L0D0_0
10
-36.674
20
-8.836
0
VERTEX
8
L0D0_0
10
-36.604
20
-8.383
0
VERTEX
8
L0D0_0
10
-36.507
20
-7.936
0
VERTEX
8
L0D0_0
10
-36.382
20
-7.495
0
VERTEX
8
L0D0_0
10
-36.231
20
-7.062
0
VERTEX
8
L0D0_0
10
-36.053
20
-6.64
0
VERTEX
8
L0D0_0
10
-35.85
20
-6.229
0
VERTEX
8
L0D0_0
10
-35.622
20
-5.832
0
VERTEX
8
L0D0_0
10
-35.37
20
-5.449
0
VERTEX
8
L0D0_0
10
-35.095
20
-5.083
0
VERTEX
8
L0D0_0
10
-34.947
20
-4.908
0
VERTEX
8
L0D0_0
10
-34.076
20
-6.26
0
VERTEX
8
L0D0_0
10
-34.048
20
-6.305
0
VERTEX
8
L0D0_0
10
-33.985
20
-6.39
0
VERTEX
8
L0D0_0
10
-33.916
20
-6.47
0
VERTEX
8
L0D0_0
10
-33.843
20
-6.545
0
VERTEX
8
L0D0_0
10
-33.764
20
-6.616
0
VERTEX
8
L0D0_0
10
-33.681
20
-6.681
0
VERTEX
8
L0D0_0
10
-33.594
20
-6.741
0
VERTEX
8
L0D0_0
10
-33.503
20
-6.794
0
VERTEX
8
L0D0_0
10
-33.409
20
-6.841
0
VERTEX
8
L0D0_0
10
-33.311
20
-6.882
0
VERTEX
8
L0D0_0
10
-33.211
20
-6.917
0
VERTEX
8
L0D0_0
10
-33.11
20
-6.944
0
VERTEX
8
L0D0_0
10
-33.058
20
-6.955
0
VERTEX
8
L0D0_0
10
-31.481
20
-7.27
0
VERTEX
8
L0D0_0
10
-31.481
20
-9.024
0
VERTEX
8
L0D0_0
10
-30.481
20
-9.388
0
VERTEX
8
L0D0_0
10
-30.481
20
-10.112
0
VERTEX
8
L0D0_0
10
-31.481
20
-10.476
0
VERTEX
8
L0D0_0
10
-31.481
20
-12.23
0
VERTEX
8
L0D0_0
10
-33.058
20
-12.545
0
VERTEX
8
L0D0_0
10
-33.11
20
-12.556
0
VERTEX
8
L0D0_0
10
-33.211
20
-12.583
0
VERTEX
8
L0D0_0
10
-33.311
20
-12.618
0
VERTEX
8
L0D0_0
10
-33.409
20
-12.659
0
VERTEX
8
L0D0_0
10
-33.503
20
-12.706
0
VERTEX
8
L0D0_0
10
-33.594
20
-12.759
0
VERTEX
8
L0D0_0
10
-33.681
20
-12.819
0
VERTEX
8
L0D0_0
10
-33.764
20
-12.884
0
VERTEX
8
L0D0_0
10
-33.843
20
-12.955
0
VERTEX
8
L0D0_0
10
-33.916
20
-13.03
0
VERTEX
8
L0D0_0
10
-33.985
20
-13.11
0
VERTEX
8
L0D0_0
10
-34.048
20
-13.195
0
VERTEX
8
L0D0_0
10
-34.076
20
-13.24
0
SEQEND
0
POLYLINE
8
L0D0_0
70
1
40
0
41
0
66
1
0
VERTEX
8
L0D0_0
10
-54.447
20
-14.592
0
VERTEX
8
L0D0_0
10
-54.595
20
-14.417
0
VERTEX
8
L0D0_0
10
-54.87
20
-14.051
0
VERTEX
8
L0D0_0
10
-55.122
20
-13.668
0
VERTEX
8
L0D0_0
10
-55.35
20
-13.271
0
VERTEX
8
L0D0_0
10
-55.553
20
-12.86
0
VERTEX
8
L0D0_0
10
-55.731
20
-12.438
0
VERTEX
8
L0D0_0
10
-55.882
20
-12.005
0
VERTEX
8
L0D0_0
10
-56.007
20
-11.564
0
VERTEX
8
L0D0_0
10
-56.104
20
-11.117
0
VERTEX
8
L0D0_0
10
-56.174
20
-10.664
0
VERTEX
8
L0D0_0
10
-56.216
20
-10.208
0
VERTEX
8
L0D0_0
10
-56.23
20
-9.75
0
VERTEX
8
L0D0_0
10
-56.216
20
-9.292
0
VERTEX
8
L0D0_0
10
-56.174
20
-8.836
0
VERTEX
8
L0D0_0
10
-56.104
20
-8.383
0
VERTEX
8
L0D0_0
10
-56.007
20
-7.936
0
VERTEX
8
L0D0_0
10
-55.882
20
-7.495
0
VERTEX
8
L0D0_0
10
-55.731
20
-7.062
0
VERTEX
8
L0D0_0
10
-55.553
20
-6.64
0
VERTEX
8
L0D0_0
10
-55.35
20
-6.229
0
VERTEX
8
L0D0_0
10
-55.122
20
-5.832
0
VERTEX
8
L0D0_0
10
-54.87
20
-5.449
0
VERTEX
8
L0D0_0
10
-54.595
20
-5.083
0
VERTEX
8
L0D0_0
10
-54.447
20
-4.908
0
VERTEX
8
L0D0_0
10
-53.576
20
-6.26
0
VERTEX
8
L0D0_0
10
-53.548
20
-6.305
0
VERTEX
8
L0D0_0
10
-53.485
20
-6.39
0
VERTEX
8
L0D0_0
10
-53.416
20
-6.47
0
VERTEX
8
L0D0_0
10
-53.343
20
-6.545
0
VERTEX
8
L0D0_0
10
-53.264
20
-6.616
0
VERTEX
8
L0D0_0
10
-53.181
20
-6.681
0
VERTEX
8
L0D0_0
10
-53.094
20
-6.741
0
VERTEX
8
L0D0_0
10
-53.003
20
-6.794
0
VERTEX
8
L0D0_0
10
-52.909
20
-6.841
0
VERTEX
8
L0D0_0
10
-52.811
20
-6.882
0
VERTEX
8
L0D0_0
10
-52.711
20
-6.917
0
VERTEX
8
L0D0_0
10
-52.61
20
-6.944
0
VERTEX
8
L0D0_0
10
-52.558
20
-6.955
0
VERTEX
8
L0D0_0
10
-50.981
20
-7.27
0
VERTEX
8
L0D0_0
10
-50.981
20
-9.024
0
VERTEX
8
L0D0_0
10
-49.981
20
-9.388
0
VERTEX
8
L0D0_0
10
-49.981
20
-10.112
0
VERTEX
8
L0D0_0
10
-50.981
20
-10.476
0
VERTEX
8
L0D0_0
10
-50.981
20
-12.23
0
VERTEX
8
L0D0_0
10
-52.558
20
-12.545
0
VERTEX
8
L0D0_0
10
-52.61
20
-12.556
0
VERTEX
8
L0D0_0
10
-52.711
20
-12.583
0
VERTEX
8
L0D0_0
10
-52.811
20
-12.618
0
VERTEX
8
L0D0_0
10
-52.909
20
-12.659
0
VERTEX
8
L0D0_0
10
-53.003
20
-12.706
0
VERTEX
8
L0D0_0
10
-53.094
20
-12.759
0
VERTEX
8
L0D0_0
10
-53.181
20
-12.819
0
VERTEX
8
L0D0_0
10
-53.264
20
-12.884
0
VERTEX
8
L0D0_0
10
-53.343
20
-12.955
0
VERTEX
8
L0D0_0
10
-53.416
20
-13.03
0
VERTEX
8
L0D0_0
10
-53.485
20
-13.11
0
VERTEX
8
L0D0_0
10
-53.548
20
-13.195
0
VERTEX
8
L0D0_0
10
-53.576
20
-13.24
0
SEQEND
0
POLYLINE
8
L0D0_0
70
1
40
0
41
0
66
1
0
VERTEX
8
L0D0_0
10
43.053
20
4.908
0
VERTEX
8
L0D0_0
10
42.905
20
5.083
0
VERTEX
8
L0D0_0
10
42.63
20
5.449
0
VERTEX
8
L0D0_0
10
42.378
20
5.832
0
VERTEX
8
L0D0_0
10
42.15
20
6.229
0
VERTEX
8
L0D0_0
10
41.947
20
6.64
0
VERTEX
8
L0D0_0
10
41.769
20
7.062
0
VERTEX
8
L0D0_0
10
41.618
20
7.495
0
VERTEX
8
L0D0_0
10
41.493
20
7.936
0
VERTEX
8
L0D0_0
10
41.396
20
8.383
0
VERTEX
8
L0D0_0
10
41.326
20
8.836
0
VERTEX
8
L0D0_0
10
41.284
20
9.292
0
VERTEX
8
L0D0_0
10
41.27
20
9.75
0
VERTEX
8
L0D0_0
10
41.284
20
10.208
0
VERTEX
8
L0D0_0
10
41.326
20
10.664
0
VERTEX
8
L0D0_0
10
41.396
20
11.117
0
VERTEX
8
L0D0_0
10
41.493
20
11.564
0
VERTEX
8
L0D0_0
10
41.618
20
12.005
0
VERTEX
8
L0D0_0
10
41.769
20
12.438
0
VERTEX
8
L0D0_0
10
41.947
20
12.86
0
VERTEX
8
L0D0_0
10
42.15
20
13.271
0
VERTEX
8
L0D0_0
10
42.378
20
13.668
0
VERTEX
8
L0D0_0
10
42.63
20
14.051
0
VERTEX
8
L0D0_0
10
42.905
20
14.417
0
VERTEX
8
L0D0_0
10
43.053
20
14.592
0
VERTEX
8
L0D0_0
10
43.924
20
13.24
0
VERTEX
8
L0D0_0
10
43.952
20
13.195
0
VERTEX
8
L0D0_0
10
44.015
20
13.11
0
VERTEX
8
L0D0_0
10
44.084
20
13.03
0
VERTEX
8
L0D0_0
10
44.157
20
12.955
0
VERTEX
8
L0D0_0
10
44.236
20
12.884
0
VERTEX
8
L0D0_0
10
44.319
20
12.819
0
VERTEX
8
L0D0_0
10
44.406
20
12.759
0
VERTEX
8
L0D0_0
10
44.497
20
12.706
0
VERTEX
8
L0D0_0
10
44.591
20
12.659
0
VERTEX
8
L0D0_0
10
44.689
20
12.618
0
VERTEX
8
L0D0_0
10
44.789
20
12.583
0
VERTEX
8
L0D0_0
10
44.89
20
12.556
0
VERTEX
8
L0D0_0
10
44.942
20
12.545
0
VERTEX
8
L0D0_0
10
46.519
20
12.23
0
VERTEX
8
L0D0_0
10
46.519
20
10.476
0
VERTEX
8
L0D0_0
10
47.519
20
10.112
0
VERTEX
8
L0D0_0
10
47.519
20
9.388
0
VERTEX
8
L0D0_0
10
46.519
20
9.024
0
VERTEX
8
L0D0_0
10
46.519
20
7.27
0
VERTEX
8
L0D0_0
10
44.942
20
6.955
0
VERTEX
8
L0D0_0
10
44.89
20
6.944
0
VERTEX
8
L0D0_0
10
44.789
20
6.917
0
VERTEX
8
L0D0_0
10
44.689
20
6.882
0
VERTEX
8
L0D0_0
10
44.591
20
6.841
0
VERTEX
8
L0D0_0
10
44.497
20
6.794
0
VERTEX
8
L0D0_0
10
44.406
20
6.741
0
VERTEX
8
L0D0_0
10
44.319
20
6.681
0
VERTEX
8
L0D0_0
10
44.236
20
6.616
0
VERTEX
8
L0D0_0
10
44.157
20
6.545
0
VERTEX
8
L0D0_0
10
44.084
20
6.47
0
VERTEX
8
L0D0_0
10
44.015
20
6.39
0
VERTEX
8
L0D0_0
10
43.952
20
6.305
0
VERTEX
8
L0D0_0
10
43.924
20
6.26
0
SEQEND
0
POLYLINE
8
L0D0_0
70
1
40
0
41
0
66
1
0
VERTEX
8
L0D0_0
10
23.553
20
4.908
0
VERTEX
8
L0D0_0
10
23.405
20
5.083
0
VERTEX
8
L0D0_0
10
23.13
20
5.449
0
VERTEX
8
L0D0_0
10
22.878
20
5.832
0
VERTEX
8
L0D0_0
10
22.65
20
6.229
0
VERTEX
8
L0D0_0
10
22.447
20
6.64
0
VERTEX
8
L0D0_0
10
22.269
20
7.062
0
VERTEX
8
L0D0_0
10
22.118
20
7.495
0
VERTEX
8
L0D0_0
10
21.993
20
7.936
0
VERTEX
8
L0D0_0
10
21.896
20
8.383
0
VERTEX
8
L0D0_0
10
21.826
20
8.836
0
VERTEX
8
L0D0_0
10
21.784
20
9.292
0
VERTEX
8
L0D0_0
10
21.77
20
9.75
0
VERTEX
8
L0D0_0
10
21.784
20
10.208
0
VERTEX
8
L0D0_0
10
21.826
20
10.664
0
VERTEX
8
L0D0_0
10
21.896
20
11.117
0
VERTEX
8
L0D0_0
10
21.993
20
11.564
0
VERTEX
8
L0D0_0
10
22.118
20
12.005
0
VERTEX
8
L0D0_0
10
22.269
20
12.438
0
VERTEX
8
L0D0_0
10
22.447
20
12.86
0
VERTEX
8
L0D0_0
10
22.65
20
13.271
0
VERTEX
8
L0D0_0
10
22.878
20
13.668
0
VERTEX
8
L0D0_0
10
23.13
20
14.051
0
VERTEX
8
L0D0_0
10
23.405
20
14.417
0
VERTEX
8
L0D0_0
10
23.553
20
14.592
0
VERTEX
8
L0D0_0
10
24.424
20
13.24
0
VERTEX
8
L0D0_0
10
24.452
20
13.195
0
VERTEX
8
L0D0_0
10
24.515
20
13.11
0
VERTEX
8
L0D0_0
10
24.584
20
13.03
0
VERTEX
8
L0D0_0
10
24.657
20
12.955
0
VERTEX
8
L0D0_0
10
24.736
20
12.884
0
VERTEX
8
L0D0_0
10
24.819
20
12.819
0
VERTEX
8
L0D0_0
10
24.906
20
12.759
0
VERTEX
8
L0D0_0
10
24.997
20
12.706
0
VERTEX
8
L0D0_0
10
25.091
20
12.659
0
VERTEX
8
L0D0_0
10
25.189
20
12.618
0
VERTEX
8
L0D0_0
10
25.289
20
12.583
0
VERTEX
8
L0D0_0
10
25.39
20
12.556
0
VERTEX
8
L0D0_0
10
25.442
20
12.545
0
VERTEX
8
L0D0_0
10
27.019
20
12.23
0
VERTEX
8
L0D0_0
10
27.019
20
10.476
0
VERTEX
8
L0D0_0
10
28.019
20
10.112
0
VERTEX
8
L0D0_0
10
28.019
20
9.388
0
VERTEX
8
L0D0_0
10
27.019
20
9.024
0
VERTEX
8
L0D0_0
10
27.019
20
7.27
0
VERTEX
8
L0D0_0
10
25.442
20
6.955
0
VERTEX
8
L0D0_0
10
25.39
20
6.944
0
VERTEX
8
L0D0_0
10
25.289
20
6.917
0
VERTEX
8
L0D0_0
10
25.189
20
6.882
0
VERTEX
8
L0D0_0
10
25.091
20
6.841
0
VERTEX
8
L0D0_0
10
24.997
20
6.794
0
VERTEX
8
L0D0_0
10
24.906
20
6.741
0
VERTEX
8
L0D0_0
10
24.819
20
6.681
0
VERTEX
8
L0D0_0
10
24.736
20
6.616
0
VERTEX
8
L0D0_0
10
24.657
20
6.545
0
VERTEX
8
L0D0_0
10
24.584
20
6.47
0
VERTEX
8
L0D0_0
10
24.515
20
6.39
0
VERTEX
8
L0D0_0
10
24.452
20
6.305
0
VERTEX
8
L0D0_0
10
24.424
20
6.26
0
SEQEND
0
POLYLINE
8
L0D0_0
70
1
40
0
41
0
66
1
0
VERTEX
8
L0D0_0
10
4.053
20
4.908
0
VERTEX
8
L0D0_0
10
3.905
20
5.083
0
VERTEX
8
L0D0_0
10
3.63
20
5.449
0
VERTEX
8
L0D0_0
10
3.378
20
5.832
0
VERTEX
8
L0D0_0
10
3.15
20
6.229
0
VERTEX
8
L0D0_0
10
2.947
20
6.64
0
VERTEX
8
L0D0_0
10
2.769
20
7.062
0
VERTEX
8
L0D0_0
10
2.618
20
7.495
0
VERTEX
8
L0D0_0
10
2.493
20
7.936
0
VERTEX
8
L0D0_0
10
2.396
20
8.383
0
VERTEX
8
L0D0_0
10
2.326
20
8.836
0
VERTEX
8
L0D0_0
10
2.284
20
9.292
0
VERTEX
8
L0D0_0
10
2.27
20
9.75
0
VERTEX
8
L0D0_0
10
2.284
20
10.208
0
VERTEX
8
L0D0_0
10
2.326
20
10.664
0
VERTEX
8
L0D0_0
10
2.396
20
11.117
0
VERTEX
8
L0D0_0
10
2.493
20
11.564
0
VERTEX
8
L0D0_0
10
2.618
20
12.005
0
VERTEX
8
L0D0_0
10
2.769
20
12.438
0
VERTEX
8
L0D0_0
10
2.947
20
12.86
0
VERTEX
8
L0D0_0
10
3.15
20
13.271
0
VERTEX
8
L0D0_0
10
3.378
20
13.668
0
VERTEX
8
L0D0_0
10
3.63
20
14.051
0
VERTEX
8
L0D0_0
10
3.905
20
14.417
0
VERTEX
8
L0D0_0
10
4.053
20
14.592
0
VERTEX
8
L0D0_0
10
4.924
20
13.24
0
VERTEX
8
L0D0_0
10
4.952
20
13.195
0
VERTEX
8
L0D0_0
10
5.015
20
13.11
0
VERTEX
8
L0D0_0
10
5.084
20
13.03
0
VERTEX
8
L0D0_0
10
5.157
20
12.955
0
VERTEX
8
L0D0_0
10
5.236
20
12.884
0
VERTEX
8
L0D0_0
10
5.319
20
12.819
0
VERTEX
8
L0D0_0
10
5.406
20
12.759
0
VERTEX
8
L0D0_0
10
5.497
20
12.706
0
VERTEX
8
L0D0_0
10
5.591
20
12.659
0
VERTEX
8
L0D0_0
10
5.689
20
12.618
0
VERTEX
8
L0D0_0
10
5.789
20
12.583
0
VERTEX
8
L0D0_0
10
5.89
20
12.556
0
VERTEX
8
L0D0_0
10
5.942
20
12.545
0
VERTEX
8
L0D0_0
10
7.519
20
12.23
0
VERTEX
8
L0D0_0
10
7.519
20
10.476
0
VERTEX
8
L0D0_0
10
8.519
20
10.112
0
VERTEX
8
L0D0_0
10
8.519
20
9.388
0
VERTEX
8
L0D0_0
10
7.519
20
9.024
0
VERTEX
8
L0D0_0
10
7.519
20
7.27
0
VERTEX
8
L0D0_0
10
5.942
20
6.955
0
VERTEX
8
L0D0_0
10
5.89
20
6.944
0
VERTEX
8
L0D0_0
10
5.789
20
6.917
0
VERTEX
8
L0D0_0
10
5.689
20
6.882
0
VERTEX
8
L0D0_0
10
5.591
20
6.841
0
VERTEX
8
L0D0_0
10
5.497
20
6.794
0
VERTEX
8
L0D0_0
10
5.406
20
6.741
0
VERTEX
8
L0D0_0
10
5.319
20
6.681
0
VERTEX
8
L0D0_0
10
5.236
20
6.616
0
VERTEX
8
L0D0_0
10
5.157
20
6.545
0
VERTEX
8
L0D0_0
10
5.084
20
6.47
0
VERTEX
8
L0D0_0
10
5.015
20
6.39
0
VERTEX
8
L0D0_0
10
4.952
20
6.305
0
VERTEX
8
L0D0_0
10
4.924
20
6.26
0
SEQEND
0
POLYLINE
8
L0D0_0
70
1
40
0
41
0
66
1
0
VERTEX
8
L0D0_0
10
-15.447
20
4.908
0
VERTEX
8
L0D0_0
10
-15.595
20
5.083
0
VERTEX
8
L0D0_0
10
-15.87
20
5.449
0
VERTEX
8
L0D0_0
10
-16.122
20
5.832
0
VERTEX
8
L0D0_0
10
-16.35
20
6.229
0
VERTEX
8
L0D0_0
10
-16.553
20
6.64
0
VERTEX
8
L0D0_0
10
-16.731
20
7.062
0
VERTEX
8
L0D0_0
10
-16.882
20
7.495
0
VERTEX
8
L0D0_0
10
-17.007
20
7.936
0
VERTEX
8
L0D0_0
10
-17.104
20
8.383
0
VERTEX
8
L0D0_0
10
-17.174
20
8.836
0
VERTEX
8
L0D0_0
10
-17.216
20
9.292
0
VERTEX
8
L0D0_0
10
-17.23
20
9.75
0
VERTEX
8
L0D0_0
10
-17.216
20
10.208
0
VERTEX
8
L0D0_0
10
-17.174
20
10.664
0
VERTEX
8
L0D0_0
10
-17.104
20
11.117
0
VERTEX
8
L0D0_0
10
-17.007
20
11.564
0
VERTEX
8
L0D0_0
10
-16.882
20
12.005
0
VERTEX
8
L0D0_0
10
-16.731
20
12.438
0
VERTEX
8
L0D0_0
10
-16.553
20
12.86
0
VERTEX
8
L0D0_0
10
-16.35
20
13.271
0
VERTEX
8
L0D0_0
10
-16.122
20
13.668
0
VERTEX
8
L0D0_0
10
-15.87
20
14.051
0
VERTEX
8
L0D0_0
10
-15.595
20
14.417
0
VERTEX
8
L0D0_0
10
-15.447
20
14.592
0
VERTEX
8
L0D0_0
10
-14.576
20
13.24
0
VERTEX
8
L0D0_0
10
-14.548
20
13.195
0
VERTEX
8
L0D0_0
10
-14.485
20
13.11
0
VERTEX
8
L0D0_0
10
-14.416
20
13.03
0
VERTEX
8
L0D0_0
10
-14.343
20
12.955
0
VERTEX
8
L0D0_0
10
-14.264
20
12.884
0
VERTEX
8
L0D0_0
10
-14.181
20
12.819
0
VERTEX
8
L0D0_0
10
-14.094
20
12.759
0
VERTEX
8
L0D0_0
10
-14.003
20
12.706
0
VERTEX
8
L0D0_0
10
-13.909
20
12.659
0
VERTEX
8
L0D0_0
10
-13.811
20
12.618
0
VERTEX
8
L0D0_0
10
-13.711
20
12.583
0
VERTEX
8
L0D0_0
10
-13.61
20
12.556
0
VERTEX
8
L0D0_0
10
-13.558
20
12.545
0
VERTEX
8
L0D0_0
10
-11.981
20
12.23
0
VERTEX
8
L0D0_0
10
-11.981
20
10.476
0
VERTEX
8
L0D0_0
10
-10.981
20
10.112
0
VERTEX
8
L0D0_0
10
-10.981
20
9.388
0
VERTEX
8
L0D0_0
10
-11.981
20
9.024
0
VERTEX
8
L0D0_0
10
-11.981
20
7.27
0
VERTEX
8
L0D0_0
10
-13.558
20
6.955
0
VERTEX
8
L0D0_0
10
-13.61
20
6.944
0
VERTEX
8
L0D0_0
10
-13.711
20
6.917
0
VERTEX
8
L0D0_0
10
-13.811
20
6.882
0
VERTEX
8
L0D0_0
10
-13.909
20
6.841
0
VERTEX
8
L0D0_0
10
-14.003
20
6.794
0
VERTEX
8
L0D0_0
10
-14.094
20
6.741
0
VERTEX
8
L0D0_0
10
-14.181
20
6.681
0
VERTEX
8
L0D0_0
10
-14.264
20
6.616
0
VERTEX
8
L0D0_0
10
-14.343
20
6.545
0
VERTEX
8
L0D0_0
10
-14.416
20
6.47
0
VERTEX
8
L0D0_0
10
-14.485
20
6.39
0
VERTEX
8
L0D0_0
10
-14.548
20
6.305
0
VERTEX
8
L0D0_0
10
-14.576
20
6.26
0
SEQEND
0
POLYLINE
8
L0D0_0
70
1
40
0
41
0
66
1
0
VERTEX
8
L0D0_0
10
-34.947
20
4.908
0
VERTEX
8
L0D0_0
10
-35.095
20
5.083
0
VERTEX
8
L0D0_0
10
-35.37
20
5.449
0
VERTEX
8
L0D0_0
10
-35.622
20
5.832
0
VERTEX
8
L0D0_0
10
-35.85
20
6.229
0
VERTEX
8
L0D0_0
10
-36.053
20
6.64
0
VERTEX
8
L0D0_0
10
-36.231
20
7.062
0
VERTEX
8
L0D0_0
10
-36.382
20
7.495
0
VERTEX
8
L0D0_0
10
-36.507
20
7.936
0
VERTEX
8
L0D0_0
10
-36.604
20
8.383
0
VERTEX
8
L0D0_0
10
-36.674
20
8.836
0
VERTEX
8
L0D0_0
10
-36.716
20
9.292
0
VERTEX
8
L0D0_0
10
-36.73
20
9.75
0
VERTEX
8
L0D0_0
10
-36.716
20
10.208
0
VERTEX
8
L0D0_0
10
-36.674
20
10.664
0
VERTEX
8
L0D0_0
10
-36.604
20
11.117
0
VERTEX
8
L0D0_0
10
-36.507
20
11.564
0
VERTEX
8
L0D0_0
10
-36.382
20
12.005
0
VERTEX
8
L0D0_0
10
-36.231
20
12.438
0
VERTEX
8
L0D0_0
10
-36.053
20
12.86
0
VERTEX
8
L0D0_0
10
-35.85
20
13.271
0
VERTEX
8
L0D0_0
10
-35.622
20
13.668
0
VERTEX
8
L0D0_0
10
-35.37
20
14.051
0
VERTEX
8
L0D0_0
10
-35.095
20
14.417
0
VERTEX
8
L0D0_0
10
-34.947
20
14.592
0
VERTEX
8
L0D0_0
10
-34.076
20
13.24
0
VERTEX
8
L0D0_0
10
-34.048
20
13.195
0
VERTEX
8
L0D0_0
10
-33.985
20
13.11
0
VERTEX
8
L0D0_0
10
-33.916
20
13.03
0
VERTEX
8
L0D0_0
10
-33.843
20
12.955
0
VERTEX
8
L0D0_0
10
-33.764
20
12.884
0
VERTEX
8
L0D0_0
10
-33.681
20
12.819
0
VERTEX
8
L0D0_0
10
-33.594
20
12.759
0
VERTEX
8
L0D0_0
10
-33.503
20
12.706
0
VERTEX
8
L0D0_0
10
-33.409
20
12.659
0
VERTEX
8
L0D0_0
10
-33.311
20
12.618
0
VERTEX
8
L0D0_0
10
-33.211
20
12.583
0
VERTEX
8
L0D0_0
10
-33.11
20
12.556
0
VERTEX
8
L0D0_0
10
-33.058
20
12.545
0
VERTEX
8
L0D0_0
10
-31.481
20
12.23
0
VERTEX
8
L0D0_0
10
-31.481
20
10.476
0
VERTEX
8
L0D0_0
10
-30.481
20
10.112
0
VERTEX
8
L0D0_0
10
-30.481
20
9.388
0
VERTEX
8
L0D0_0
10
-31.481
20
9.024
0
VERTEX
8
L0D0_0
10
-31.481
20
7.27
0
VERTEX
8
L0D0_0
10
-33.058
20
6.955
0
VERTEX
8
L0D0_0
10
-33.11
20
6.944
0
VERTEX
8
L0D0_0
10
-33.211
20
6.917
0
VERTEX
8
L0D0_0
10
-33.311
20
6.882
0
VERTEX
8
L0D0_0
10
-33.409
20
6.841
0
VERTEX
8
L0D0_0
10
-33.503
20
6.794
0
VERTEX
8
L0D0_0
10
-33.594
20
6.741
0
VERTEX
8
L0D0_0
10
-33.681
20
6.681
0
VERTEX
8
L0D0_0
10
-33.764
20
6.616
0
VERTEX
8
L0D0_0
10
-33.843
20
6.545
0
VERTEX
8
L0D0_0
10
-33.916
20
6.47
0
VERTEX
8
L0D0_0
10
-33.985
20
6.39
0
VERTEX
8
L0D0_0
10
-34.048
20
6.305
0
VERTEX
8
L0D0_0
10
-34.076
20
6.26
0
SEQEND
0
POLYLINE
8
L0D0_0
70
1
40
0
41
0
66
1
0
VERTEX
8
L0D0_0
10
-54.447
20
4.908
0
VERTEX
8
L0D0_0
10
-54.595
20
5.083
0
VERTEX
8
L0D0_0
10
-54.87
20
5.449
0
VERTEX
8
L0D0_0
10
-55.122
20
5.832
0
VERTEX
8
L0D0_0
10
-55.35
20
6.229
0
VERTEX
8
L0D0_0
10
-55.553
20
6.64
0
VERTEX
8
L0D0_0
10
-55.731
20
7.062
0
VERTEX
8
L0D0_0
10
-55.882
20
7.495
0
VERTEX
8
L0D0_0
10
-56.007
20
7.936
0
VERTEX
8
L0D0_0
10
-56.104
20
8.383
0
VERTEX
8
L0D0_0
10
-56.174
20
8.836
0
VERTEX
8
L0D0_0
10
-56.216
20
9.292
0
VERTEX
8
L0D0_0
10
-56.23
20
9.75
0
VERTEX
8
L0D0_0
10
-56.216
20
10.208
0
VERTEX
8
L0D0_0
10
-56.174
20
10.664
0
VERTEX
8
L0D0_0
10
-56.104
20
11.117
0
VERTEX
8
L0D0_0
10
-56.007
20
11.564
0
VERTEX
8
L0D0_0
10
-55.882
20
12.005
0
VERTEX
8
L0D0_0
10
-55.731
20
12.438
0
VERTEX
8
L0D0_0
10
-55.553
20
12.86
0
VERTEX
8
L0D0_0
10
-55.35
20
13.271
0
VERTEX
8
L0D0_0
10
-55.122
20
13.668
0
VERTEX
8
L0D0_0
10
-54.87
20
14.051
0
VERTEX
8
L0D0_0
10
-54.595
20
14.417
0
VERTEX
8
L0D0_0
10
-54.447
20
14.592
0
VERTEX
8
L0D0_0
10
-53.576
20
13.24
0
VERTEX
8
L0D0_0
10
-53.548
20
13.195
0
VERTEX
8
L0D0_0
10
-53.485
20
13.11
0
VERTEX
8
L0D0_0
10
-53.416
20
13.03
0
VERTEX
8
L0D0_0
10
-53.343
20
12.955
0
VERTEX
8
L0D0_0
10
-53.264
20
12.884
0
VERTEX
8
L0D0_0
10
-53.181
20
12.819
0
VERTEX
8
L0D0_0
10
-53.094
20
12.759
0
VERTEX
8
L0D0_0
10
-53.003
20
12.706
0
VERTEX
8
L0D0_0
10
-52.909
20
12.659
0
VERTEX
8
L0D0_0
10
-52.811
20
12.618
0
VERTEX
8
L0D0_0
10
-52.711
20
12.583
0
VERTEX
8
L0D0_0
10
-52.61
20
12.556
0
VERTEX
8
L0D0_0
10
-52.558
20
12.545
0
VERTEX
8
L0D0_0
10
-50.981
20
12.23
0
VERTEX
8
L0D0_0
10
-50.981
20
10.476
0
VERTEX
8
L0D0_0
10
-49.981
20
10.112
0
VERTEX
8
L0D0_0
10
-49.981
20
9.388
0
VERTEX
8
L0D0_0
10
-50.981
20
9.024
0
VERTEX
8
L0D0_0
10
-50.981
20
7.27
0
VERTEX
8
L0D0_0
10
-52.558
20
6.955
0
VERTEX
8
L0D0_0
10
-52.61
20
6.944
0
VERTEX
8
L0D0_0
10
-52.711
20
6.917
0
VERTEX
8
L0D0_0
10
-52.811
20
6.882
0
VERTEX
8
L0D0_0
10
-52.909
20
6.841
0
VERTEX
8
L0D0_0
10
-53.003
20
6.794
0
VERTEX
8
L0D0_0
10
-53.094
20
6.741
0
VERTEX
8
L0D0_0
10
-53.181
20
6.681
0
VERTEX
8
L0D0_0
10
-53.264
20
6.616
0
VERTEX
8
L0D0_0
10
-53.343
20
6.545
0
VERTEX
8
L0D0_0
10
-53.416
20
6.47
0
VERTEX
8
L0D0_0
10
-53.485
20
6.39
0
VERTEX
8
L0D0_0
10
-53.548
20
6.305
0
VERTEX
8
L0D0_0
10
-53.576
20
6.26
0
SEQEND
0
POLYLINE
8
L0D0_0
70
1
40
0
41
0
66
1
0
VERTEX
8
L0D0_0
10
43.053
20
24.408
0
VERTEX
8
L0D0_0
10
42.905
20
24.583
0
VERTEX
8
L0D0_0
10
42.63
20
24.949
0
VERTEX
8
L0D0_0
10
42.378
20
25.332
0
VERTEX
8
L0D0_0
10
42.15
20
25.729
0
VERTEX
8
L0D0_0
10
41.947
20
26.14
0
VERTEX
8
L0D0_0
10
41.769
20
26.562
0
VERTEX
8
L0D0_0
10
41.618
20
26.995
0
VERTEX
8
L0D0_0
10
41.493
20
27.436
0
VERTEX
8
L0D0_0
10
41.396
20
27.883
0
VERTEX
8
L0D0_0
10
41.326
20
28.336
0
VERTEX
8
L0D0_0
10
41.284
20
28.792
0
VERTEX
8
L0D0_0
10
41.27
20
29.25
0
VERTEX
8
L0D0_0
10
41.284
20
29.708
0
VERTEX
8
L0D0_0
10
41.326
20
30.164
0
VERTEX
8
L0D0_0
10
41.396
20
30.617
0
VERTEX
8
L0D0_0
10
41.493
20
31.064
0
VERTEX
8
L0D0_0
10
41.618
20
31.505
0
VERTEX
8
L0D0_0
10
41.769
20
31.938
0
VERTEX
8
L0D0_0
10
41.947
20
32.36
0
VERTEX
8
L0D0_0
10
42.15
20
32.771
0
VERTEX
8
L0D0_0
10
42.378
20
33.168
0
VERTEX
8
L0D0_0
10
42.63
20
33.551
0
VERTEX
8
L0D0_0
10
42.905
20
33.917
0
VERTEX
8
L0D0_0
10
43.053
20
34.092
0
VERTEX
8
L0D0_0
10
43.924
20
32.74
0
VERTEX
8
L0D0_0
10
43.952
20
32.695
0
VERTEX
8
L0D0_0
10
44.015
20
32.61
0
VERTEX
8
L0D0_0
10
44.084
20
32.53
0
VERTEX
8
L0D0_0
10
44.157
20
32.455
0
VERTEX
8
L0D0_0
10
44.236
20
32.384
0
VERTEX
8
L0D0_0
10
44.319
20
32.319
0
VERTEX
8
L0D0_0
10
44.406
20
32.259
0
VERTEX
8
L0D0_0
10
44.497
20
32.206
0
VERTEX
8
L0D0_0
10
44.591
20
32.159
0
VERTEX
8
L0D0_0
10
44.689
20
32.118
0
VERTEX
8
L0D0_0
10
44.789
20
32.083
0
VERTEX
8
L0D0_0
10
44.89
20
32.056
0
VERTEX
8
L0D0_0
10
44.942
20
32.045
0
VERTEX
8
L0D0_0
10
46.519
20
31.73
0
VERTEX
8
L0D0_0
10
46.519
20
29.976
0
VERTEX
8
L0D0_0
10
47.519
20
29.612
0
VERTEX
8
L0D0_0
10
47.519
20
28.888
0
VERTEX
8
L0D0_0
10
46.519
20
28.524
0
VERTEX
8
L0D0_0
10
46.519
20
26.77
0
VERTEX
8
L0D0_0
10
44.942
20
26.455
0
VERTEX
8
L0D0_0
10
44.89
20
26.444
0
VERTEX
8
L0D0_0
10
44.789
20
26.417
0
VERTEX
8
L0D0_0
10
44.689
20
26.382
0
VERTEX
8
L0D0_0
10
44.591
20
26.341
0
VERTEX
8
L0D0_0
10
44.497
20
26.294
0
VERTEX
8
L0D0_0
10
44.406
20
26.241
0
VERTEX
8
L0D0_0
10
44.319
20
26.181
0
VERTEX
8
L0D0_0
10
44.236
20
26.116
0
VERTEX
8
L0D0_0
10
44.157
20
26.045
0
VERTEX
8
L0D0_0
10
44.084
20
25.97
0
VERTEX
8
L0D0_0
10
44.015
20
25.89
0
VERTEX
8
L0D0_0
10
43.952
20
25.805
0
VERTEX
8
L0D0_0
10
43.924
20
25.76
0
SEQEND
0
POLYLINE
8
L0D0_0
70
1
40
0
41
0
66
1
0
VERTEX
8
L0D0_0
10
23.553
20
24.408
0
VERTEX
8
L0D0_0
10
23.405
20
24.583
0
VERTEX
8
L0D0_0
10
23.13
20
24.949
0
VERTEX
8
L0D0_0
10
22.878
20
25.332
0
VERTEX
8
L0D0_0
10
22.65
20
25.729
0
VERTEX
8
L0D0_0
10
22.447
20
26.14
0
VERTEX
8
L0D0_0
10
22.269
20
26.562
0
VERTEX
8
L0D0_0
10
22.118
20
26.995
0
VERTEX
8
L0D0_0
10
21.993
20
27.436
0
VERTEX
8
L0D0_0
10
21.896
20
27.883
0
VERTEX
8
L0D0_0
10
21.826
20
28.336
0
VERTEX
8
L0D0_0
10
21.784
20
28.792
0
VERTEX
8
L0D0_0
10
21.77
20
29.25
0
VERTEX
8
L0D0_0
10
21.784
20
29.708
0
VERTEX
8
L0D0_0
10
21.826
20
30.164
0
VERTEX
8
L0D0_0
10
21.896
20
30.617
0
VERTEX
8
L0D0_0
10
21.993
20
31.064
0
VERTEX
8
L0D0_0
10
22.118
20
31.505
0
VERTEX
8
L0D0_0
10
22.269
20
31.938
0
VERTEX
8
L0D0_0
10
22.447
20
32.36
0
VERTEX
8
L0D0_0
10
22.65
20
32.771
0
VERTEX
8
L0D0_0
10
22.878
20
33.168
0
VERTEX
8
L0D0_0
10
23.13
20
33.551
0
VERTEX
8
L0D0_0
10
23.405
20
33.917
0
VERTEX
8
L0D0_0
10
23.553
20
34.092
0
VERTEX
8
L0D0_0
10
24.424
20
32.74
0
VERTEX
8
L0D0_0
10
24.452
20
32.695
0
VERTEX
8
L0D0_0
10
24.515
20
32.61
0
VERTEX
8
L0D0_0
10
24.584
20
32.53
0
VERTEX
8
L0D0_0
10
24.657
20
32.455
0
VERTEX
8
L0D0_0
10
24.736
20
32.384
0
VERTEX
8
L0D0_0
10
24.819
20
32.319
0
VERTEX
8
L0D0_0
10
24.906
20
32.259
0
VERTEX
8
L0D0_0
10
24.997
20
32.206
0
VERTEX
8
L0D0_0
10
25.091
20
32.159
0
VERTEX
8
L0D0_0
10
25.189
20
32.118
0
VERTEX
8
L0D0_0
10
25.289
20
32.083
0
VERTEX
8
L0D0_0
10
25.39
20
32.056
0
VERTEX
8
L0D0_0
10
25.442
20
32.045
0
VERTEX
8
L0D0_0
10
27.019
20
31.73
0
VERTEX
8
L0D0_0
10
27.019
20
29.976
0
VERTEX
8
L0D0_0
10
28.019
20
29.612
0
VERTEX
8
L0D0_0
10
28.019
20
28.888
0
VERTEX
8
L0D0_0
10
27.019
20
28.524
0
VERTEX
8
L0D0_0
10
27.019
20
26.77
0
VERTEX
8
L0D0_0
10
25.442
20
26.455
0
VERTEX
8
L0D0_0
10
25.39
20
26.444
0
VERTEX
8
L0D0_0
10
25.289
20
26.417
0
VERTEX
8
L0D0_0
10
25.189
20
26.382
0
VERTEX
8
L0D0_0
10
25.091
20
26.341
0
VERTEX
8
L0D0_0
10
24.997
20
26.294
0
VERTEX
8
L0D0_0
10
24.906
20
26.241
0
VERTEX
8
L0D0_0
10
24.819
20
26.181
0
VERTEX
8
L0D0_0
10
24.736
20
26.116
0
VERTEX
8
L0D0_0
10
24.657
20
26.045
0
VERTEX
8
L0D0_0
10
24.584
20
25.97
0
VERTEX
8
L0D0_0
10
24.515
20
25.89
0
VERTEX
8
L0D0_0
10
24.452
20
25.805
0
VERTEX
8
L0D0_0
10
24.424
20
25.76
0
SEQEND
0
POLYLINE
8
L0D0_0
70
1
40
0
41
0
66
1
0
VERTEX
8
L0D0_0
10
4.053
20
24.408
0
VERTEX
8
L0D0_0
10
3.905
20
24.583
0
VERTEX
8
L0D0_0
10
3.63
20
24.949
0
VERTEX
8
L0D0_0
10
3.378
20
25.332
0
VERTEX
8
L0D0_0
10
3.15
20
25.729
0
VERTEX
8
L0D0_0
10
2.947
20
26.14
0
VERTEX
8
L0D0_0
10
2.769
20
26.562
0
VERTEX
8
L0D0_0
10
2.618
20
26.995
0
VERTEX
8
L0D0_0
10
2.493
20
27.436
0
VERTEX
8
L0D0_0
10
2.396
20
27.883
0
VERTEX
8
L0D0_0
10
2.326
20
28.336
0
VERTEX
8
L0D0_0
10
2.284
20
28.792
0
VERTEX
8
L0D0_0
10
2.27
20
29.25
0
VERTEX
8
L0D0_0
10
2.284
20
29.708
0
VERTEX
8
L0D0_0
10
2.326
20
30.164
0
VERTEX
8
L0D0_0
10
2.396
20
30.617
0
VERTEX
8
L0D0_0
10
2.493
20
31.064
0
VERTEX
8
L0D0_0
10
2.618
20
31.505
0
VERTEX
8
L0D0_0
10
2.769
20
31.938
0
VERTEX
8
L0D0_0
10
2.947
20
32.36
0
VERTEX
8
L0D0_0
10
3.15
20
32.771
0
VERTEX
8
L0D0_0
10
3.378
20
33.168
0
VERTEX
8
L0D0_0
10
3.63
20
33.551
0
VERTEX
8
L0D0_0
10
3.905
20
33.917
0
VERTEX
8
L0D0_0
10
4.053
20
34.092
0
VERTEX
8
L0D0_0
10
4.924
20
32.74
0
VERTEX
8
L0D0_0
10
4.952
20
32.695
0
VERTEX
8
L0D0_0
10
5.015
20
32.61
0
VERTEX
8
L0D0_0
10
5.084
20
32.53
0
VERTEX
8
L0D0_0
10
5.157
20
32.455
0
VERTEX
8
L0D0_0
10
5.236
20
32.384
0
VERTEX
8
L0D0_0
10
5.319
20
32.319
0
VERTEX
8
L0D0_0
10
5.406
20
32.259
0
VERTEX
8
L0D0_0
10
5.497
20
32.206
0
VERTEX
8
L0D0_0
10
5.591
20
32.159
0
VERTEX
8
L0D0_0
10
5.689
20
32.118
0
VERTEX
8
L0D0_0
10
5.789
20
32.083
0
VERTEX
8
L0D0_0
10
5.89
20
32.056
0
VERTEX
8
L0D0_0
10
5.942
20
32.045
0
VERTEX
8
L0D0_0
10
7.519
20
31.73
0
VERTEX
8
L0D0_0
10
7.519
20
29.976
0
VERTEX
8
L0D0_0
10
8.519
20
29.612
0
VERTEX
8
L0D0_0
10
8.519
20
28.888
0
VERTEX
8
L0D0_0
10
7.519
20
28.524
0
VERTEX
8
L0D0_0
10
7.519
20
26.77
0
VERTEX
8
L0D0_0
10
5.942
20
26.455
0
VERTEX
8
L0D0_0
10
5.89
20
26.444
0
VERTEX
8
L0D0_0
10
5.789
20
26.417
0
VERTEX
8
L0D0_0
10
5.689
20
26.382
0
VERTEX
8
L0D0_0
10
5.591
20
26.341
0
VERTEX
8
L0D0_0
10
5.497
20
26.294
0
VERTEX
8
L0D0_0
10
5.406
20
26.241
0
VERTEX
8
L0D0_0
10
5.319
20
26.181
0
VERTEX
8
L0D0_0
10
5.236
20
26.116
0
VERTEX
8
L0D0_0
10
5.157
20
26.045
0
VERTEX
8
L0D0_0
10
5.084
20
25.97
0
VERTEX
8
L0D0_0
10
5.015
20
25.89
0
VERTEX
8
L0D0_0
10
4.952
20
25.805
0
VERTEX
8
L0D0_0
10
4.924
20
25.76
0
SEQEND
0
POLYLINE
8
L0D0_0
70
1
40
0
41
0
66
1
0
VERTEX
8
L0D0_0
10
-15.447
20
24.408
0
VERTEX
8
L0D0_0
10
-15.595
20
24.583
0
VERTEX
8
L0D0_0
10
-15.87
20
24.949
0
VERTEX
8
L0D0_0
10
-16.122
20
25.332
0
VERTEX
8
L0D0_0
10
-16.35
20
25.729
0
VERTEX
8
L0D0_0
10
-16.553
20
26.14
0
VERTEX
8
L0D0_0
10
-16.731
20
26.562
0
VERTEX
8
L0D0_0
10
-16.882
20
26.995
0
VERTEX
8
L0D0_0
10
-17.007
20
27.436
0
VERTEX
8
L0D0_0
10
-17.104
20
27.883
0
VERTEX
8
L0D0_0
10
-17.174
20
28.336
0
VERTEX
8
L0D0_0
10
-17.216
20
28.792
0
VERTEX
8
L0D0_0
10
-17.23
20
29.25
0
VERTEX
8
L0D0_0
10
-17.216
20
29.708
0
VERTEX
8
L0D0_0
10
-17.174
20
30.164
0
VERTEX
8
L0D0_0
10
-17.104
20
30.617
0
VERTEX
8
L0D0_0
10
-17.007
20
31.064
0
VERTEX
8
L0D0_0
10
-16.882
20
31.505
0
VERTEX
8
L0D0_0
10
-16.731
20
31.938
0
VERTEX
8
L0D0_0
10
-16.553
20
32.36
0
VERTEX
8
L0D0_0
10
-16.35
20
32.771
0
VERTEX
8
L0D0_0
10
-16.122
20
33.168
0
VERTEX
8
L0D0_0
10
-15.87
20
33.551
0
VERTEX
8
L0D0_0
10
-15.595
20
33.917
0
VERTEX
8
L0D0_0
10
-15.447
20
34.092
0
VERTEX
8
L0D0_0
10
-14.576
20
32.74
0
VERTEX
8
L0D0_0
10
-14.548
20
32.695
0
VERTEX
8
L0D0_0
10
-14.485
20
32.61
0
VERTEX
8
L0D0_0
10
-14.416
20
32.53
0
VERTEX
8
L0D0_0
10
-14.343
20
32.455
0
VERTEX
8
L0D0_0
10
-14.264
20
32.384
0
VERTEX
8
L0D0_0
10
-14.181
20
32.319
0
VERTEX
8
L0D0_0
10
-14.094
20
32.259
0
VERTEX
8
L0D0_0
10
-14.003
20
32.206
0
VERTEX
8
L0D0_0
10
-13.909
20
32.159
0
VERTEX
8
L0D0_0
10
-13.811
20
32.118
0
VERTEX
8
L0D0_0
10
-13.711
20
32.083
0
VERTEX
8
L0D0_0
10
-13.61
20
32.056
0
VERTEX
8
L0D0_0
10
-13.558
20
32.045
0
VERTEX
8
L0D0_0
10
-11.981
20
31.73
0
VERTEX
8
L0D0_0
10
-11.981
20
29.976
0
VERTEX
8
L0D0_0
10
-10.981
20
29.612
0
VERTEX
8
L0D0_0
10
-10.981
20
28.888
0
VERTEX
8
L0D0_0
10
-11.981
20
28.524
0
VERTEX
8
L0D0_0
10
-11.981
20
26.77
0
VERTEX
8
L0D0_0
10
-13.558
20
26.455
0
VERTEX
8
L0D0_0
10
-13.61
20
26.444
0
VERTEX
8
L0D0_0
10
-13.711
20
26.417
0
VERTEX
8
L0D0_0
10
-13.811
20
26.382
0
VERTEX
8
L0D0_0
10
-13.909
20
26.341
0
VERTEX
8
L0D0_0
10
-14.003
20
26.294
0
VERTEX
8
L0D0_0
10
-14.094
20
26.241
0
VERTEX
8
L0D0_0
10
-14.181
20
26.181
0
VERTEX
8
L0D0_0
10
-14.264
20
26.116
0
VERTEX
8
L0D0_0
10
-14.343
20
26.045
0
VERTEX
8
L0D0_0
10
-14.416
20
25.97
0
VERTEX
8
L0D0_0
10
-14.485
20
25.89
0
VERTEX
8
L0D0_0
10
-14.548
20
25.805
0
VERTEX
8
L0D0_0
10
-14.576
20
25.76
0
SEQEND
0
POLYLINE
8
L0D0_0
70
1
40
0
41
0
66
1
0
VERTEX
8
L0D0_0
10
-34.947
20
24.408
0
VERTEX
8
L0D0_0
10
-35.095
20
24.583
0
VERTEX
8
L0D0_0
10
-35.37
20
24.949
0
VERTEX
8
L0D0_0
10
-35.622
20
25.332
0
VERTEX
8
L0D0_0
10
-35.85
20
25.729
0
VERTEX
8
L0D0_0
10
-36.053
20
26.14
0
VERTEX
8
L0D0_0
10
-36.231
20
26.562
0
VERTEX
8
L0D0_0
10
-36.382
20
26.995
0
VERTEX
8
L0D0_0
10
-36.507
20
27.436
0
VERTEX
8
L0D0_0
10
-36.604
20
27.883
0
VERTEX
8
L0D0_0
10
-36.674
20
28.336
0
VERTEX
8
L0D0_0
10
-36.716
20
28.792
0
VERTEX
8
L0D0_0
10
-36.73
20
29.25
0
VERTEX
8
L0D0_0
10
-36.716
20
29.708
0
VERTEX
8
L0D0_0
10
-36.674
20
30.164
0
VERTEX
8
L0D0_0
10
-36.604
20
30.617
0
VERTEX
8
L0D0_0
10
-36.507
20
31.064
0
VERTEX
8
L0D0_0
10
-36.382
20
31.505
0
VERTEX
8
L0D0_0
10
-36.231
20
31.938
0
VERTEX
8
L0D0_0
10
-36.053
20
32.36
0
VERTEX
8
L0D0_0
10
-35.85
20
32.771
0
VERTEX
8
L0D0_0
10
-35.622
20
33.168
0
VERTEX
8
L0D0_0
10
-35.37
20
33.551
0
VERTEX
8
L0D0_0
10
-35.095
20
33.917
0
VERTEX
8
L0D0_0
10
-34.947
20
34.092
0
VERTEX
8
L0D0_0
10
-34.076
20
32.74
0
VERTEX
8
L0D0_0
10
-34.048
20
32.695
0
VERTEX
8
L0D0_0
10
-33.985
20
32.61
0
VERTEX
8
L0D0_0
10
-33.916
20
32.53
0
VERTEX
8
L0D0_0
10
-33.843
20
32.455
0
VERTEX
8
L0D0_0
10
-33.764
20
32.384
0
VERTEX
8
L0D0_0
10
-33.681
20
32.319
0
VERTEX
8
L0D0_0
10
-33.594
20
32.259
0
VERTEX
8
L0D0_0
10
-33.503
20
32.206
0
VERTEX
8
L0D0_0
10
-33.409
20
32.159
0
VERTEX
8
L0D0_0
10
-33.311
20
32.118
0
VERTEX
8
L0D0_0
10
-33.211
20
32.083
0
VERTEX
8
L0D0_0
10
-33.11
20
32.056
0
VERTEX
8
L0D0_0
10
-33.058
20
32.045
0
VERTEX
8
L0D0_0
10
-31.481
20
31.73
0
VERTEX
8
L0D0_0
10
-31.481
20
29.976
0
VERTEX
8
L0D0_0
10
-30.481
20
29.612
0
VERTEX
8
L0D0_0
10
-30.481
20
28.888
0
VERTEX
8
L0D0_0
10
-31.481
20
28.524
0
VERTEX
8
L0D0_0
10
-31.481
20
26.77
0
VERTEX
8
L0D0_0
10
-33.058
20
26.455
0
VERTEX
8
L0D0_0
10
-33.11
20
26.444
0
VERTEX
8
L0D0_0
10
-33.211
20
26.417
0
VERTEX
8
L0D0_0
10
-33.311
20
26.382
0
VERTEX
8
L0D0_0
10
-33.409
20
26.341
0
VERTEX
8
L0D0_0
10
-33.503
20
26.294
0
VERTEX
8
L0D0_0
10
-33.594
20
26.241
0
VERTEX
8
L0D0_0
10
-33.681
20
26.181
0
VERTEX
8
L0D0_0
10
-33.764
20
26.116
0
VERTEX
8
L0D0_0
10
-33.843
20
26.045
0
VERTEX
8
L0D0_0
10
-33.916
20
25.97
0
VERTEX
8
L0D0_0
10
-33.985
20
25.89
0
VERTEX
8
L0D0_0
10
-34.048
20
25.805
0
VERTEX
8
L0D0_0
10
-34.076
20
25.76
0
SEQEND
0
POLYLINE
8
L0D0_0
70
1
40
0
41
0
66
1
0
VERTEX
8
L0D0_0
10
-54.447
20
24.408
0
VERTEX
8
L0D0_0
10
-54.595
20
24.583
0
VERTEX
8
L0D0_0
10
-54.87
20
24.949
0
VERTEX
8
L0D0_0
10
-55.122
20
25.332
0
VERTEX
8
L0D0_0
10
-55.35
20
25.729
0
VERTEX
8
L0D0_0
10
-55.553
20
26.14
0
VERTEX
8
L0D0_0
10
-55.731
20
26.562
0
VERTEX
8
L0D0_0
10
-55.882
20
26.995
0
VERTEX
8
L0D0_0
10
-56.007
20
27.436
0
VERTEX
8
L0D0_0
10
-56.104
20
27.883
0
VERTEX
8
L0D0_0
10
-56.174
20
28.336
0
VERTEX
8
L0D0_0
10
-56.216
20
28.792
0
VERTEX
8
L0D0_0
10
-56.23
20
29.25
0
VERTEX
8
L0D0_0
10
-56.216
20
29.708
0
VERTEX
8
L0D0_0
10
-56.174
20
30.164
0
VERTEX
8
L0D0_0
10
-56.104
20
30.617
0
VERTEX
8
L0D0_0
10
-56.007
20
31.064
0
VERTEX
8
L0D0_0
10
-55.882
20
31.505
0
VERTEX
8
L0D0_0
10
-55.731
20
31.938
0
VERTEX
8
L0D0_0
10
-55.553
20
32.36
0
VERTEX
8
L0D0_0
10
-55.35
20
32.771
0
VERTEX
8
L0D0_0
10
-55.122
20
33.168
0
VERTEX
8
L0D0_0
10
-54.87
20
33.551
0
VERTEX
8
L0D0_0
10
-54.595
20
33.917
0
VERTEX
8
L0D0_0
10
-54.447
20
34.092
0
VERTEX
8
L0D0_0
10
-53.576
20
32.74
0
VERTEX
8
L0D0_0
10
-53.548
20
32.695
0
VERTEX
8
L0D0_0
10
-53.485
20
32.61
0
VERTEX
8
L0D0_0
10
-53.416
20
32.53
0
VERTEX
8
L0D0_0
10
-53.343
20
32.455
0
VERTEX
8
L0D0_0
10
-53.264
20
32.384
0
VERTEX
8
L0D0_0
10
-53.181
20
32.319
0
VERTEX
8
L0D0_0
10
-53.094
20
32.259
0
VERTEX
8
L0D0_0
10
-53.003
20
32.206
0
VERTEX
8
L0D0_0
10
-52.909
20
32.159
0
VERTEX
8
L0D0_0
10
-52.811
20
32.118
0
VERTEX
8
L0D0_0
10
-52.711
20
32.083
0
VERTEX
8
L0D0_0
10
-52.61
20
32.056
0
VERTEX
8
L0D0_0
10
-52.558
20
32.045
0
VERTEX
8
L0D0_0
10
-50.981
20
31.73
0
VERTEX
8
L0D0_0
10
-50.981
20
29.976
0
VERTEX
8
L0D0_0
10
-49.981
20
29.612
0
VERTEX
8
L0D0_0
10
-49.981
20
28.888
0
VERTEX
8
L0D0_0
10
-50.981
20
28.524
0
VERTEX
8
L0D0_0
10
-50.981
20
26.77
0
VERTEX
8
L0D0_0
10
-52.558
20
26.455
0
VERTEX
8
L0D0_0
10
-52.61
20
26.444
0
VERTEX
8
L0D0_0
10
-52.711
20
26.417
0
VERTEX
8
L0D0_0
10
-52.811
20
26.382
0
VERTEX
8
L0D0_0
10
-52.909
20
26.341
0
VERTEX
8
L0D0_0
10
-53.003
20
26.294
0
VERTEX
8
L0D0_0
10
-53.094
20
26.241
0
VERTEX
8
L0D0_0
10
-53.181
20
26.181
0
VERTEX
8
L0D0_0
10
-53.264
20
26.116
0
VERTEX
8
L0D0_0
10
-53.343
20
26.045
0
VERTEX
8
L0D0_0
10
-53.416
20
25.97
0
VERTEX
8
L0D0_0
10
-53.485
20
25.89
0
VERTEX
8
L0D0_0
10
-53.548
20
25.805
0
VERTEX
8
L0D0_0
10
-53.576
20
25.76
0
SEQEND
0
POLYLINE
8
L0D0_0
70
1
40
0
41
0
66
1
0
VERTEX
8
L0D0_0
10
-42.829
20
24.685
0
VERTEX
8
L0D0_0
10
-43.045
20
24.956
0
VERTEX
8
L0D0_0
10
-43.089
20
25.011
0
VERTEX
8
L0D0_0
10
-43.183
20
25.115
0
VERTEX
8
L0D0_0
10
-43.283
20
25.212
0
VERTEX
8
L0D0_0
10
-43.389
20
25.303
0
VERTEX
8
L0D0_0
10
-43.501
20
25.388
0
VERTEX
8
L0D0_0
10
-43.617
20
25.465
0
VERTEX
8
L0D0_0
10
-43.738
20
25.534
0
VERTEX
8
L0D0_0
10
-43.864
20
25.596
0
VERTEX
8
L0D0_0
10
-43.993
20
25.65
0
VERTEX
8
L0D0_0
10
-44.125
20
25.696
0
VERTEX
8
L0D0_0
10
-44.193
20
25.714
0
VERTEX
8
L0D0_0
10
-47.852
20
26.727
0
VERTEX
8
L0D0_0
10
-47.852
20
28.524
0
VERTEX
8
L0D0_0
10
-48.852
20
28.888
0
VERTEX
8
L0D0_0
10
-48.852
20
29.612
0
VERTEX
8
L0D0_0
10
-47.852
20
29.976
0
VERTEX
8
L0D0_0
10
-47.852
20
31.773
0
VERTEX
8
L0D0_0
10
-44.193
20
32.786
0
VERTEX
8
L0D0_0
10
-44.125
20
32.804
0
VERTEX
8
L0D0_0
10
-43.993
20
32.85
0
VERTEX
8
L0D0_0
10
-43.864
20
32.904
0
VERTEX
8
L0D0_0
10
-43.738
20
32.966
0
VERTEX
8
L0D0_0
10
-43.617
20
33.035
0
VERTEX
8
L0D0_0
10
-43.501
20
33.112
0
VERTEX
8
L0D0_0
10
-43.389
20
33.197
0
VERTEX
8
L0D0_0
10
-43.283
20
33.288
0
VERTEX
8
L0D0_0
10
-43.183
20
33.385
0
VERTEX
8
L0D0_0
10
-43.089
20
33.489
0
VERTEX
8
L0D0_0
10
-43.045
20
33.544
0
VERTEX
8
L0D0_0
10
-42.829
20
33.815
0
VERTEX
8
L0D0_0
10
-42.686
20
33.63
0
VERTEX
8
L0D0_0
10
-42.424
20
33.242
0
VERTEX
8
L0D0_0
10
-42.187
20
32.839
0
VERTEX
8
L0D0_0
10
-41.975
20
32.422
0
VERTEX
8
L0D0_0
10
-41.79
20
31.992
0
VERTEX
8
L0D0_0
10
-41.633
20
31.552
0
VERTEX
8
L0D0_0
10
-41.503
20
31.102
0
VERTEX
8
L0D0_0
10
-41.401
20
30.646
0
VERTEX
8
L0D0_0
10
-41.328
20
30.183
0
VERTEX
8
L0D0_0
10
-41.284
20
29.718
0
VERTEX
8
L0D0_0
10
-41.27
20
29.25
0
VERTEX
8
L0D0_0
10
-41.284
20
28.782
0
VERTEX
8
L0D0_0
10
-41.328
20
28.317
0
VERTEX
8
L0D0_0
10
-41.401
20
27.854
0
VERTEX
8
L0D0_0
10
-41.503
20
27.398
0
VERTEX
8
L0D0_0
10
-41.633
20
26.948
0
VERTEX
8
L0D0_0
10
-41.79
20
26.508
0
VERTEX
8
L0D0_0
10
-41.975
20
26.078
0
VERTEX
8
L0D0_0
10
-42.187
20
25.661
0
VERTEX
8
L0D0_0
10
-42.424
20
25.258
0
VERTEX
8
L0D0_0
10
-42.686
20
24.87
0
SEQEND
0
POLYLINE
8
L0D0_0
70
1
40
0
41
0
66
1
0
VERTEX
8
L0D0_0
10
-60.939
20
-41.555
0
VERTEX
8
L0D0_0
10
-61.058
20
-41.547
0
VERTEX
8
L0D0_0
10
-61.176
20
-41.531
0
VERTEX
8
L0D0_0
10
-61.292
20
-41.508
0
VERTEX
8
L0D0_0
10
-61.407
20
-41.477
0
VERTEX
8
L0D0_0
10
-61.52
20
-41.439
0
VERTEX
8
L0D0_0
10
-61.629
20
-41.394
0
VERTEX
8
L0D0_0
10
-61.736
20
-41.341
0
VERTEX
8
L0D0_0
10
-61.839
20
-41.282
0
VERTEX
8
L0D0_0
10
-61.938
20
-41.216
0
VERTEX
8
L0D0_0
10
-62.032
20
-41.143
0
VERTEX
8
L0D0_0
10
-62.121
20
-41.065
0
VERTEX
8
L0D0_0
10
-62.205
20
-40.981
0
VERTEX
8
L0D0_0
10
-62.283
20
-40.892
0
VERTEX
8
L0D0_0
10
-62.356
20
-40.798
0
VERTEX
8
L0D0_0
10
-62.422
20
-40.699
0
VERTEX
8
L0D0_0
10
-62.481
20
-40.596
0
VERTEX
8
L0D0_0
10
-62.534
20
-40.489
0
VERTEX
8
L0D0_0
10
-62.579
20
-40.38
0
VERTEX
8
L0D0_0
10
-62.617
20
-40.267
0
VERTEX
8
L0D0_0
10
-62.648
20
-40.152
0
VERTEX
8
L0D0_0
10
-62.671
20
-40.036
0
VERTEX
8
L0D0_0
10
-62.687
20
-39.918
0
VERTEX
8
L0D0_0
10
-62.695
20
-39.799
0
VERTEX
8
L0D0_0
10
-62.695
20
39.799
0
VERTEX
8
L0D0_0
10
-62.687
20
39.918
0
VERTEX
8
L0D0_0
10
-62.671
20
40.036
0
VERTEX
8
L0D0_0
10
-62.648
20
40.152
0
VERTEX
8
L0D0_0
10
-62.617
20
40.267
0
VERTEX
8
L0D0_0
10
-62.579
20
40.38
0
VERTEX
8
L0D0_0
10
-62.534
20
40.489
0
VERTEX
8
L0D0_0
10
-62.481
20
40.596
0
VERTEX
8
L0D0_0
10
-62.422
20
40.699
0
VERTEX
8
L0D0_0
10
-62.356
20
40.798
0
VERTEX
8
L0D0_0
10
-62.283
20
40.892
0
VERTEX
8
L0D0_0
10
-62.205
20
40.981
0
VERTEX
8
L0D0_0
10
-62.121
20
41.065
0
VERTEX
8
L0D0_0
10
-62.032
20
41.143
0
VERTEX
8
L0D0_0
10
-61.938
20
41.216
0
VERTEX
8
L0D0_0
10
-61.839
20
41.282
0
VERTEX
8
L0D0_0
10
-61.736
20
41.341
0
VERTEX
8
L0D0_0
10
-61.629
20
41.394
0
VERTEX
8
L0D0_0
10
-61.52
20
41.439
0
VERTEX
8
L0D0_0
10
-61.407
20
41.477
0
VERTEX
8
L0D0_0
10
-61.292
20
41.508
0
VERTEX
8
L0D0_0
10
-61.176
20
41.531
0
VERTEX
8
L0D0_0
10
-61.058
20
41.547
0
VERTEX
8
L0D0_0
10
-60.939
20
41.555
0
VERTEX
8
L0D0_0
10
56.889
20
41.555
0
VERTEX
8
L0D0_0
10
62.695
20
35.749
0
VERTEX
8
L0D0_0
10
62.695
20
-35.749
0
VERTEX
8
L0D0_0
10
56.889
20
-41.555
0
SEQEND
0
CIRCLE
8
L0D0_0
10
48.12
20
-34.853
40
0.9355
0
CIRCLE
8
L0D0_0
10
28.62
20
-34.853
40
0.9355
0
CIRCLE
8
L0D0_0
10
9.12
20
-34.853
40
0.9355
0
CIRCLE
8
L0D0_0
10
-10.38
20
-34.853
40
0.9355
0
CIRCLE
8
L0D0_0
10
-29.88
20
-34.853
40
0.9355
0
CIRCLE
8
L0D0_0
10
-49.38
20
-34.853
40
0.9355
0
CIRCLE
8
L0D0_0
10
48.12
20
-15.353
40
0.9355
0
CIRCLE
8
L0D0_0
10
28.62
20
-15.353
40
0.9355
0
CIRCLE
8
L0D0_0
10
9.12
20
-15.353
40
0.9355
0
CIRCLE
8
L0D0_0
10
-10.38
20
-15.353
40
0.9355
0
CIRCLE
8
L0D0_0
10
-29.88
20
-15.353
40
0.9355
0
CIRCLE
8
L0D0_0
10
-49.38
20
-15.353
40
0.9355
0
CIRCLE
8
L0D0_0
10
48.12
20
4.147
40
0.9355
0
CIRCLE
8
L0D0_0
10
28.62
20
4.147
40
0.9355
0
CIRCLE
8
L0D0_0
10
9.12
20
4.147
40
0.9355
0
CIRCLE
8
L0D0_0
10
-10.38
20
4.147
40
0.9355
0
CIRCLE
8
L0D0_0
10
-29.88
20
4.147
40
0.9355
0
CIRCLE
8
L0D0_0
10
-49.38
20
4.147
40
0.9355
0
CIRCLE
8
L0D0_0
10
48.12
20
23.647
40
0.9355
0
CIRCLE
8
L0D0_0
10
28.62
20
23.647
40
0.9355
0
CIRCLE
8
L0D0_0
10
9.12
20
23.647
40
0.9355
0
CIRCLE
8
L0D0_0
10
-10.38
20
23.647
40
0.9355
0
CIRCLE
8
L0D0_0
10
-29.88
20
23.647
40
0.9355
0
CIRCLE
8
L0D0_0
10
48.12
20
-23.647
40
0.9355
0
CIRCLE
8
L0D0_0
10
28.62
20
-23.647
40
0.9355
0
CIRCLE
8
L0D0_0
10
9.12
20
-23.647
40
0.9355
0
CIRCLE
8
L0D0_0
10
-10.38
20
-23.647
40
0.9355
0
CIRCLE
8
L0D0_0
10
-29.88
20
-23.647
40
0.9355
0
CIRCLE
8
L0D0_0
10
-49.38
20
-23.647
40
0.9355
0
CIRCLE
8
L0D0_0
10
48.12
20
-4.147
40
0.9355
0
CIRCLE
8
L0D0_0
10
28.62
20
-4.147
40
0.9355
0
CIRCLE
8
L0D0_0
10
9.12
20
-4.147
40
0.9355
0
CIRCLE
8
L0D0_0
10
-10.38
20
-4.147
40
0.9355
0
CIRCLE
8
L0D0_0
10
-29.88
20
-4.147
40
0.9355
0
CIRCLE
8
L0D0_0
10
-49.38
20
-4.147
40
0.9355
0
CIRCLE
8
L0D0_0
10
48.12
20
15.353
40
0.9355
0
CIRCLE
8
L0D0_0
10
28.62
20
15.353
40
0.9355
0
CIRCLE
8
L0D0_0
10
9.12
20
15.353
40
0.9355
0
CIRCLE
8
L0D0_0
10
-10.38
20
15.353
40
0.9355
0
CIRCLE
8
L0D0_0
10
-29.88
20
15.353
40
0.9355
0
CIRCLE
8
L0D0_0
10
-49.38
20
15.353
40
0.9355
0
CIRCLE
8
L0D0_0
10
48.12
20
34.853
40
0.9355
0
CIRCLE
8
L0D0_0
10
28.62
20
34.853
40
0.9355
0
CIRCLE
8
L0D0_0
10
9.12
20
34.853
40
0.9355
0
CIRCLE
8
L0D0_0
10
-10.38
20
34.853
40
0.9355
0
CIRCLE
8
L0D0_0
10
-29.88
20
34.853
40
0.9355
0
CIRCLE
8
L0D0_0
10
39
20
19.5
40
4.065
0
CIRCLE
8
L0D0_0
10
-49.38
20
34.853
40
0.9355
0
CIRCLE
8
L0D0_0
10
-39.005
20
19.491
40
4.065
0
CIRCLE
8
L0D0_0
10
38.995
20
-19.509
40
4.065
0
CIRCLE
8
L0D0_0
10
-49.38
20
23.647
40
0.9355
0
CIRCLE
8
L0D0_0
10
-39.009
20
-19.481
40
4.065
0
ENDSEC
0
EOF
