0
SECTION
2
HEADER
9
$ACADVER
1
AC1006
0
ENDSEC
0
SECTION
2
TABLES
0
TABLE
2
LAYER
70
1
0
LAYER
70
0
62
1
6
CONTINUOUS
2
L0D0_0
0
ENDTAB
0
ENDSEC
0
SECTION
2
BLOCKS
0
ENDSEC
0
SECTION
2
ENTITIES
0
POLYLINE
8
L0D0_0
70
1
40
0
41
0
66
1
0
VERTEX
8
L0D0_0
10
-54.463
20
-34.172
0
VERTEX
8
L0D0_0
10
-54.616
20
-33.995
0
VERTEX
8
L0D0_0
10
-54.898
20
-33.624
0
VERTEX
8
L0D0_0
10
-55.156
20
-33.236
0
VERTEX
8
L0D0_0
10
-55.39
20
-32.832
0
VERTEX
8
L0D0_0
10
-55.599
20
-32.415
0
VERTEX
8
L0D0_0
10
-55.781
20
-31.986
0
VERTEX
8
L0D0_0
10
-55.937
20
-31.546
0
VERTEX
8
L0D0_0
10
-56.065
20
-31.097
0
VERTEX
8
L0D0_0
10
-56.165
20
-30.642
0
VERTEX
8
L0D0_0
10
-56.237
20
-30.181
0
VERTEX
8
L0D0_0
10
-56.28
20
-29.716
0
VERTEX
8
L0D0_0
10
-56.295
20
-29.25
0
VERTEX
8
L0D0_0
10
-56.28
20
-28.784
0
VERTEX
8
L0D0_0
10
-56.237
20
-28.319
0
VERTEX
8
L0D0_0
10
-56.165
20
-27.858
0
VERTEX
8
L0D0_0
10
-56.065
20
-27.403
0
VERTEX
8
L0D0_0
10
-55.937
20
-26.954
0
VERTEX
8
L0D0_0
10
-55.781
20
-26.514
0
VERTEX
8
L0D0_0
10
-55.599
20
-26.085
0
VERTEX
8
L0D0_0
10
-55.39
20
-25.668
0
VERTEX
8
L0D0_0
10
-55.156
20
-25.264
0
VERTEX
8
L0D0_0
10
-54.898
20
-24.876
0
VERTEX
8
L0D0_0
10
-54.616
20
-24.505
0
VERTEX
8
L0D0_0
10
-54.463
20
-24.328
0
VERTEX
8
L0D0_0
10
-53.551
20
-25.744
0
VERTEX
8
L0D0_0
10
-53.523
20
-25.788
0
VERTEX
8
L0D0_0
10
-53.462
20
-25.871
0
VERTEX
8
L0D0_0
10
-53.394
20
-25.95
0
VERTEX
8
L0D0_0
10
-53.322
20
-26.024
0
VERTEX
8
L0D0_0
10
-53.245
20
-26.093
0
VERTEX
8
L0D0_0
10
-53.164
20
-26.157
0
VERTEX
8
L0D0_0
10
-53.078
20
-26.216
0
VERTEX
8
L0D0_0
10
-52.989
20
-26.268
0
VERTEX
8
L0D0_0
10
-52.896
20
-26.314
0
VERTEX
8
L0D0_0
10
-52.801
20
-26.355
0
VERTEX
8
L0D0_0
10
-52.703
20
-26.388
0
VERTEX
8
L0D0_0
10
-52.603
20
-26.415
0
VERTEX
8
L0D0_0
10
-52.552
20
-26.425
0
VERTEX
8
L0D0_0
10
-50.986
20
-26.739
0
VERTEX
8
L0D0_0
10
-50.986
20
-31.761
0
VERTEX
8
L0D0_0
10
-52.552
20
-32.075
0
VERTEX
8
L0D0_0
10
-52.603
20
-32.085
0
VERTEX
8
L0D0_0
10
-52.703
20
-32.112
0
VERTEX
8
L0D0_0
10
-52.801
20
-32.145
0
VERTEX
8
L0D0_0
10
-52.896
20
-32.186
0
VERTEX
8
L0D0_0
10
-52.989
20
-32.232
0
VERTEX
8
L0D0_0
10
-53.078
20
-32.284
0
VERTEX
8
L0D0_0
10
-53.164
20
-32.343
0
VERTEX
8
L0D0_0
10
-53.245
20
-32.407
0
VERTEX
8
L0D0_0
10
-53.322
20
-32.476
0
VERTEX
8
L0D0_0
10
-53.394
20
-32.55
0
VERTEX
8
L0D0_0
10
-53.462
20
-32.629
0
VERTEX
8
L0D0_0
10
-53.523
20
-32.712
0
VERTEX
8
L0D0_0
10
-53.551
20
-32.756
0
SEQEND
0
POLYLINE
8
L0D0_0
70
1
40
0
41
0
66
1
0
VERTEX
8
L0D0_0
10
-34.963
20
-34.172
0
VERTEX
8
L0D0_0
10
-35.116
20
-33.995
0
VERTEX
8
L0D0_0
10
-35.398
20
-33.624
0
VERTEX
8
L0D0_0
10
-35.656
20
-33.236
0
VERTEX
8
L0D0_0
10
-35.89
20
-32.832
0
VERTEX
8
L0D0_0
10
-36.099
20
-32.415
0
VERTEX
8
L0D0_0
10
-36.281
20
-31.986
0
VERTEX
8
L0D0_0
10
-36.437
20
-31.546
0
VERTEX
8
L0D0_0
10
-36.565
20
-31.097
0
VERTEX
8
L0D0_0
10
-36.665
20
-30.642
0
VERTEX
8
L0D0_0
10
-36.737
20
-30.181
0
VERTEX
8
L0D0_0
10
-36.78
20
-29.716
0
VERTEX
8
L0D0_0
10
-36.795
20
-29.25
0
VERTEX
8
L0D0_0
10
-36.78
20
-28.784
0
VERTEX
8
L0D0_0
10
-36.737
20
-28.319
0
VERTEX
8
L0D0_0
10
-36.665
20
-27.858
0
VERTEX
8
L0D0_0
10
-36.565
20
-27.403
0
VERTEX
8
L0D0_0
10
-36.437
20
-26.954
0
VERTEX
8
L0D0_0
10
-36.281
20
-26.514
0
VERTEX
8
L0D0_0
10
-36.099
20
-26.085
0
VERTEX
8
L0D0_0
10
-35.89
20
-25.668
0
VERTEX
8
L0D0_0
10
-35.656
20
-25.264
0
VERTEX
8
L0D0_0
10
-35.398
20
-24.876
0
VERTEX
8
L0D0_0
10
-35.116
20
-24.505
0
VERTEX
8
L0D0_0
10
-34.963
20
-24.328
0
VERTEX
8
L0D0_0
10
-34.051
20
-25.744
0
VERTEX
8
L0D0_0
10
-34.023
20
-25.788
0
VERTEX
8
L0D0_0
10
-33.962
20
-25.871
0
VERTEX
8
L0D0_0
10
-33.894
20
-25.95
0
VERTEX
8
L0D0_0
10
-33.822
20
-26.024
0
VERTEX
8
L0D0_0
10
-33.745
20
-26.093
0
VERTEX
8
L0D0_0
10
-33.664
20
-26.157
0
VERTEX
8
L0D0_0
10
-33.578
20
-26.216
0
VERTEX
8
L0D0_0
10
-33.489
20
-26.268
0
VERTEX
8
L0D0_0
10
-33.396
20
-26.314
0
VERTEX
8
L0D0_0
10
-33.301
20
-26.355
0
VERTEX
8
L0D0_0
10
-33.203
20
-26.388
0
VERTEX
8
L0D0_0
10
-33.103
20
-26.415
0
VERTEX
8
L0D0_0
10
-33.052
20
-26.425
0
VERTEX
8
L0D0_0
10
-31.486
20
-26.739
0
VERTEX
8
L0D0_0
10
-31.486
20
-31.761
0
VERTEX
8
L0D0_0
10
-33.052
20
-32.075
0
VERTEX
8
L0D0_0
10
-33.103
20
-32.085
0
VERTEX
8
L0D0_0
10
-33.203
20
-32.112
0
VERTEX
8
L0D0_0
10
-33.301
20
-32.145
0
VERTEX
8
L0D0_0
10
-33.396
20
-32.186
0
VERTEX
8
L0D0_0
10
-33.489
20
-32.232
0
VERTEX
8
L0D0_0
10
-33.578
20
-32.284
0
VERTEX
8
L0D0_0
10
-33.664
20
-32.343
0
VERTEX
8
L0D0_0
10
-33.745
20
-32.407
0
VERTEX
8
L0D0_0
10
-33.822
20
-32.476
0
VERTEX
8
L0D0_0
10
-33.894
20
-32.55
0
VERTEX
8
L0D0_0
10
-33.962
20
-32.629
0
VERTEX
8
L0D0_0
10
-34.023
20
-32.712
0
VERTEX
8
L0D0_0
10
-34.051
20
-32.756
0
SEQEND
0
POLYLINE
8
L0D0_0
70
1
40
0
41
0
66
1
0
VERTEX
8
L0D0_0
10
-15.463
20
-34.172
0
VERTEX
8
L0D0_0
10
-15.616
20
-33.995
0
VERTEX
8
L0D0_0
10
-15.898
20
-33.624
0
VERTEX
8
L0D0_0
10
-16.156
20
-33.236
0
VERTEX
8
L0D0_0
10
-16.39
20
-32.832
0
VERTEX
8
L0D0_0
10
-16.599
20
-32.415
0
VERTEX
8
L0D0_0
10
-16.781
20
-31.986
0
VERTEX
8
L0D0_0
10
-16.937
20
-31.546
0
VERTEX
8
L0D0_0
10
-17.065
20
-31.097
0
VERTEX
8
L0D0_0
10
-17.165
20
-30.642
0
VERTEX
8
L0D0_0
10
-17.237
20
-30.181
0
VERTEX
8
L0D0_0
10
-17.28
20
-29.716
0
VERTEX
8
L0D0_0
10
-17.295
20
-29.25
0
VERTEX
8
L0D0_0
10
-17.28
20
-28.784
0
VERTEX
8
L0D0_0
10
-17.237
20
-28.319
0
VERTEX
8
L0D0_0
10
-17.165
20
-27.858
0
VERTEX
8
L0D0_0
10
-17.065
20
-27.403
0
VERTEX
8
L0D0_0
10
-16.937
20
-26.954
0
VERTEX
8
L0D0_0
10
-16.781
20
-26.514
0
VERTEX
8
L0D0_0
10
-16.599
20
-26.085
0
VERTEX
8
L0D0_0
10
-16.39
20
-25.668
0
VERTEX
8
L0D0_0
10
-16.156
20
-25.264
0
VERTEX
8
L0D0_0
10
-15.898
20
-24.876
0
VERTEX
8
L0D0_0
10
-15.616
20
-24.505
0
VERTEX
8
L0D0_0
10
-15.463
20
-24.328
0
VERTEX
8
L0D0_0
10
-14.551
20
-25.744
0
VERTEX
8
L0D0_0
10
-14.523
20
-25.788
0
VERTEX
8
L0D0_0
10
-14.462
20
-25.871
0
VERTEX
8
L0D0_0
10
-14.394
20
-25.95
0
VERTEX
8
L0D0_0
10
-14.322
20
-26.024
0
VERTEX
8
L0D0_0
10
-14.245
20
-26.093
0
VERTEX
8
L0D0_0
10
-14.164
20
-26.157
0
VERTEX
8
L0D0_0
10
-14.078
20
-26.216
0
VERTEX
8
L0D0_0
10
-13.989
20
-26.268
0
VERTEX
8
L0D0_0
10
-13.896
20
-26.314
0
VERTEX
8
L0D0_0
10
-13.801
20
-26.355
0
VERTEX
8
L0D0_0
10
-13.703
20
-26.388
0
VERTEX
8
L0D0_0
10
-13.603
20
-26.415
0
VERTEX
8
L0D0_0
10
-13.552
20
-26.425
0
VERTEX
8
L0D0_0
10
-11.986
20
-26.739
0
VERTEX
8
L0D0_0
10
-11.986
20
-31.761
0
VERTEX
8
L0D0_0
10
-13.552
20
-32.075
0
VERTEX
8
L0D0_0
10
-13.603
20
-32.085
0
VERTEX
8
L0D0_0
10
-13.703
20
-32.112
0
VERTEX
8
L0D0_0
10
-13.801
20
-32.145
0
VERTEX
8
L0D0_0
10
-13.896
20
-32.186
0
VERTEX
8
L0D0_0
10
-13.989
20
-32.232
0
VERTEX
8
L0D0_0
10
-14.078
20
-32.284
0
VERTEX
8
L0D0_0
10
-14.164
20
-32.343
0
VERTEX
8
L0D0_0
10
-14.245
20
-32.407
0
VERTEX
8
L0D0_0
10
-14.322
20
-32.476
0
VERTEX
8
L0D0_0
10
-14.394
20
-32.55
0
VERTEX
8
L0D0_0
10
-14.462
20
-32.629
0
VERTEX
8
L0D0_0
10
-14.523
20
-32.712
0
VERTEX
8
L0D0_0
10
-14.551
20
-32.756
0
SEQEND
0
POLYLINE
8
L0D0_0
70
1
40
0
41
0
66
1
0
VERTEX
8
L0D0_0
10
4.037
20
-34.172
0
VERTEX
8
L0D0_0
10
3.884
20
-33.995
0
VERTEX
8
L0D0_0
10
3.602
20
-33.624
0
VERTEX
8
L0D0_0
10
3.344
20
-33.236
0
VERTEX
8
L0D0_0
10
3.11
20
-32.832
0
VERTEX
8
L0D0_0
10
2.901
20
-32.415
0
VERTEX
8
L0D0_0
10
2.719
20
-31.986
0
VERTEX
8
L0D0_0
10
2.563
20
-31.546
0
VERTEX
8
L0D0_0
10
2.435
20
-31.097
0
VERTEX
8
L0D0_0
10
2.335
20
-30.642
0
VERTEX
8
L0D0_0
10
2.263
20
-30.181
0
VERTEX
8
L0D0_0
10
2.22
20
-29.716
0
VERTEX
8
L0D0_0
10
2.205
20
-29.25
0
VERTEX
8
L0D0_0
10
2.22
20
-28.784
0
VERTEX
8
L0D0_0
10
2.263
20
-28.319
0
VERTEX
8
L0D0_0
10
2.335
20
-27.858
0
VERTEX
8
L0D0_0
10
2.435
20
-27.403
0
VERTEX
8
L0D0_0
10
2.563
20
-26.954
0
VERTEX
8
L0D0_0
10
2.719
20
-26.514
0
VERTEX
8
L0D0_0
10
2.901
20
-26.085
0
VERTEX
8
L0D0_0
10
3.11
20
-25.668
0
VERTEX
8
L0D0_0
10
3.344
20
-25.264
0
VERTEX
8
L0D0_0
10
3.602
20
-24.876
0
VERTEX
8
L0D0_0
10
3.884
20
-24.505
0
VERTEX
8
L0D0_0
10
4.037
20
-24.328
0
VERTEX
8
L0D0_0
10
4.949
20
-25.744
0
VERTEX
8
L0D0_0
10
4.977
20
-25.788
0
VERTEX
8
L0D0_0
10
5.038
20
-25.871
0
VERTEX
8
L0D0_0
10
5.106
20
-25.95
0
VERTEX
8
L0D0_0
10
5.178
20
-26.024
0
VERTEX
8
L0D0_0
10
5.255
20
-26.093
0
VERTEX
8
L0D0_0
10
5.336
20
-26.157
0
VERTEX
8
L0D0_0
10
5.422
20
-26.216
0
VERTEX
8
L0D0_0
10
5.511
20
-26.268
0
VERTEX
8
L0D0_0
10
5.604
20
-26.314
0
VERTEX
8
L0D0_0
10
5.699
20
-26.355
0
VERTEX
8
L0D0_0
10
5.797
20
-26.388
0
VERTEX
8
L0D0_0
10
5.897
20
-26.415
0
VERTEX
8
L0D0_0
10
5.948
20
-26.425
0
VERTEX
8
L0D0_0
10
7.514
20
-26.739
0
VERTEX
8
L0D0_0
10
7.514
20
-31.761
0
VERTEX
8
L0D0_0
10
5.948
20
-32.075
0
VERTEX
8
L0D0_0
10
5.897
20
-32.085
0
VERTEX
8
L0D0_0
10
5.797
20
-32.112
0
VERTEX
8
L0D0_0
10
5.699
20
-32.145
0
VERTEX
8
L0D0_0
10
5.604
20
-32.186
0
VERTEX
8
L0D0_0
10
5.511
20
-32.232
0
VERTEX
8
L0D0_0
10
5.422
20
-32.284
0
VERTEX
8
L0D0_0
10
5.336
20
-32.343
0
VERTEX
8
L0D0_0
10
5.255
20
-32.407
0
VERTEX
8
L0D0_0
10
5.178
20
-32.476
0
VERTEX
8
L0D0_0
10
5.106
20
-32.55
0
VERTEX
8
L0D0_0
10
5.038
20
-32.629
0
VERTEX
8
L0D0_0
10
4.977
20
-32.712
0
VERTEX
8
L0D0_0
10
4.949
20
-32.756
0
SEQEND
0
POLYLINE
8
L0D0_0
70
1
40
0
41
0
66
1
0
VERTEX
8
L0D0_0
10
23.537
20
-34.172
0
VERTEX
8
L0D0_0
10
23.384
20
-33.995
0
VERTEX
8
L0D0_0
10
23.102
20
-33.624
0
VERTEX
8
L0D0_0
10
22.844
20
-33.236
0
VERTEX
8
L0D0_0
10
22.61
20
-32.832
0
VERTEX
8
L0D0_0
10
22.401
20
-32.415
0
VERTEX
8
L0D0_0
10
22.219
20
-31.986
0
VERTEX
8
L0D0_0
10
22.063
20
-31.546
0
VERTEX
8
L0D0_0
10
21.935
20
-31.097
0
VERTEX
8
L0D0_0
10
21.835
20
-30.642
0
VERTEX
8
L0D0_0
10
21.763
20
-30.181
0
VERTEX
8
L0D0_0
10
21.72
20
-29.716
0
VERTEX
8
L0D0_0
10
21.705
20
-29.25
0
VERTEX
8
L0D0_0
10
21.72
20
-28.784
0
VERTEX
8
L0D0_0
10
21.763
20
-28.319
0
VERTEX
8
L0D0_0
10
21.835
20
-27.858
0
VERTEX
8
L0D0_0
10
21.935
20
-27.403
0
VERTEX
8
L0D0_0
10
22.063
20
-26.954
0
VERTEX
8
L0D0_0
10
22.219
20
-26.514
0
VERTEX
8
L0D0_0
10
22.401
20
-26.085
0
VERTEX
8
L0D0_0
10
22.61
20
-25.668
0
VERTEX
8
L0D0_0
10
22.844
20
-25.264
0
VERTEX
8
L0D0_0
10
23.102
20
-24.876
0
VERTEX
8
L0D0_0
10
23.384
20
-24.505
0
VERTEX
8
L0D0_0
10
23.537
20
-24.328
0
VERTEX
8
L0D0_0
10
24.449
20
-25.744
0
VERTEX
8
L0D0_0
10
24.477
20
-25.788
0
VERTEX
8
L0D0_0
10
24.538
20
-25.871
0
VERTEX
8
L0D0_0
10
24.606
20
-25.95
0
VERTEX
8
L0D0_0
10
24.678
20
-26.024
0
VERTEX
8
L0D0_0
10
24.755
20
-26.093
0
VERTEX
8
L0D0_0
10
24.836
20
-26.157
0
VERTEX
8
L0D0_0
10
24.922
20
-26.216
0
VERTEX
8
L0D0_0
10
25.011
20
-26.268
0
VERTEX
8
L0D0_0
10
25.104
20
-26.314
0
VERTEX
8
L0D0_0
10
25.199
20
-26.355
0
VERTEX
8
L0D0_0
10
25.297
20
-26.388
0
VERTEX
8
L0D0_0
10
25.397
20
-26.415
0
VERTEX
8
L0D0_0
10
25.448
20
-26.425
0
VERTEX
8
L0D0_0
10
27.014
20
-26.739
0
VERTEX
8
L0D0_0
10
27.014
20
-31.761
0
VERTEX
8
L0D0_0
10
25.448
20
-32.075
0
VERTEX
8
L0D0_0
10
25.397
20
-32.085
0
VERTEX
8
L0D0_0
10
25.297
20
-32.112
0
VERTEX
8
L0D0_0
10
25.199
20
-32.145
0
VERTEX
8
L0D0_0
10
25.104
20
-32.186
0
VERTEX
8
L0D0_0
10
25.011
20
-32.232
0
VERTEX
8
L0D0_0
10
24.922
20
-32.284
0
VERTEX
8
L0D0_0
10
24.836
20
-32.343
0
VERTEX
8
L0D0_0
10
24.755
20
-32.407
0
VERTEX
8
L0D0_0
10
24.678
20
-32.476
0
VERTEX
8
L0D0_0
10
24.606
20
-32.55
0
VERTEX
8
L0D0_0
10
24.538
20
-32.629
0
VERTEX
8
L0D0_0
10
24.477
20
-32.712
0
VERTEX
8
L0D0_0
10
24.449
20
-32.756
0
SEQEND
0
POLYLINE
8
L0D0_0
70
1
40
0
41
0
66
1
0
VERTEX
8
L0D0_0
10
43.037
20
-34.172
0
VERTEX
8
L0D0_0
10
42.884
20
-33.995
0
VERTEX
8
L0D0_0
10
42.602
20
-33.624
0
VERTEX
8
L0D0_0
10
42.344
20
-33.236
0
VERTEX
8
L0D0_0
10
42.11
20
-32.832
0
VERTEX
8
L0D0_0
10
41.901
20
-32.415
0
VERTEX
8
L0D0_0
10
41.719
20
-31.986
0
VERTEX
8
L0D0_0
10
41.563
20
-31.546
0
VERTEX
8
L0D0_0
10
41.435
20
-31.097
0
VERTEX
8
L0D0_0
10
41.335
20
-30.642
0
VERTEX
8
L0D0_0
10
41.263
20
-30.181
0
VERTEX
8
L0D0_0
10
41.22
20
-29.716
0
VERTEX
8
L0D0_0
10
41.205
20
-29.25
0
VERTEX
8
L0D0_0
10
41.22
20
-28.784
0
VERTEX
8
L0D0_0
10
41.263
20
-28.319
0
VERTEX
8
L0D0_0
10
41.335
20
-27.858
0
VERTEX
8
L0D0_0
10
41.435
20
-27.403
0
VERTEX
8
L0D0_0
10
41.563
20
-26.954
0
VERTEX
8
L0D0_0
10
41.719
20
-26.514
0
VERTEX
8
L0D0_0
10
41.901
20
-26.085
0
VERTEX
8
L0D0_0
10
42.11
20
-25.668
0
VERTEX
8
L0D0_0
10
42.344
20
-25.264
0
VERTEX
8
L0D0_0
10
42.602
20
-24.876
0
VERTEX
8
L0D0_0
10
42.884
20
-24.505
0
VERTEX
8
L0D0_0
10
43.037
20
-24.328
0
VERTEX
8
L0D0_0
10
43.949
20
-25.744
0
VERTEX
8
L0D0_0
10
43.977
20
-25.788
0
VERTEX
8
L0D0_0
10
44.038
20
-25.871
0
VERTEX
8
L0D0_0
10
44.106
20
-25.95
0
VERTEX
8
L0D0_0
10
44.178
20
-26.024
0
VERTEX
8
L0D0_0
10
44.255
20
-26.093
0
VERTEX
8
L0D0_0
10
44.336
20
-26.157
0
VERTEX
8
L0D0_0
10
44.422
20
-26.216
0
VERTEX
8
L0D0_0
10
44.511
20
-26.268
0
VERTEX
8
L0D0_0
10
44.604
20
-26.314
0
VERTEX
8
L0D0_0
10
44.699
20
-26.355
0
VERTEX
8
L0D0_0
10
44.797
20
-26.388
0
VERTEX
8
L0D0_0
10
44.897
20
-26.415
0
VERTEX
8
L0D0_0
10
44.948
20
-26.425
0
VERTEX
8
L0D0_0
10
46.514
20
-26.739
0
VERTEX
8
L0D0_0
10
46.514
20
-31.761
0
VERTEX
8
L0D0_0
10
44.948
20
-32.075
0
VERTEX
8
L0D0_0
10
44.897
20
-32.085
0
VERTEX
8
L0D0_0
10
44.797
20
-32.112
0
VERTEX
8
L0D0_0
10
44.699
20
-32.145
0
VERTEX
8
L0D0_0
10
44.604
20
-32.186
0
VERTEX
8
L0D0_0
10
44.511
20
-32.232
0
VERTEX
8
L0D0_0
10
44.422
20
-32.284
0
VERTEX
8
L0D0_0
10
44.336
20
-32.343
0
VERTEX
8
L0D0_0
10
44.255
20
-32.407
0
VERTEX
8
L0D0_0
10
44.178
20
-32.476
0
VERTEX
8
L0D0_0
10
44.106
20
-32.55
0
VERTEX
8
L0D0_0
10
44.038
20
-32.629
0
VERTEX
8
L0D0_0
10
43.977
20
-32.712
0
VERTEX
8
L0D0_0
10
43.949
20
-32.756
0
SEQEND
0
POLYLINE
8
L0D0_0
70
1
40
0
41
0
66
1
0
VERTEX
8
L0D0_0
10
-54.463
20
-14.672
0
VERTEX
8
L0D0_0
10
-54.616
20
-14.495
0
VERTEX
8
L0D0_0
10
-54.898
20
-14.124
0
VERTEX
8
L0D0_0
10
-55.156
20
-13.736
0
VERTEX
8
L0D0_0
10
-55.39
20
-13.332
0
VERTEX
8
L0D0_0
10
-55.599
20
-12.915
0
VERTEX
8
L0D0_0
10
-55.781
20
-12.486
0
VERTEX
8
L0D0_0
10
-55.937
20
-12.046
0
VERTEX
8
L0D0_0
10
-56.065
20
-11.597
0
VERTEX
8
L0D0_0
10
-56.165
20
-11.142
0
VERTEX
8
L0D0_0
10
-56.237
20
-10.681
0
VERTEX
8
L0D0_0
10
-56.28
20
-10.216
0
VERTEX
8
L0D0_0
10
-56.295
20
-9.75
0
VERTEX
8
L0D0_0
10
-56.28
20
-9.284
0
VERTEX
8
L0D0_0
10
-56.237
20
-8.819
0
VERTEX
8
L0D0_0
10
-56.165
20
-8.358
0
VERTEX
8
L0D0_0
10
-56.065
20
-7.903
0
VERTEX
8
L0D0_0
10
-55.937
20
-7.454
0
VERTEX
8
L0D0_0
10
-55.781
20
-7.014
0
VERTEX
8
L0D0_0
10
-55.599
20
-6.585
0
VERTEX
8
L0D0_0
10
-55.39
20
-6.168
0
VERTEX
8
L0D0_0
10
-55.156
20
-5.764
0
VERTEX
8
L0D0_0
10
-54.898
20
-5.376
0
VERTEX
8
L0D0_0
10
-54.616
20
-5.005
0
VERTEX
8
L0D0_0
10
-54.463
20
-4.828
0
VERTEX
8
L0D0_0
10
-53.551
20
-6.244
0
VERTEX
8
L0D0_0
10
-53.523
20
-6.288
0
VERTEX
8
L0D0_0
10
-53.462
20
-6.371
0
VERTEX
8
L0D0_0
10
-53.394
20
-6.45
0
VERTEX
8
L0D0_0
10
-53.322
20
-6.524
0
VERTEX
8
L0D0_0
10
-53.245
20
-6.593
0
VERTEX
8
L0D0_0
10
-53.164
20
-6.657
0
VERTEX
8
L0D0_0
10
-53.078
20
-6.716
0
VERTEX
8
L0D0_0
10
-52.989
20
-6.768
0
VERTEX
8
L0D0_0
10
-52.896
20
-6.814
0
VERTEX
8
L0D0_0
10
-52.801
20
-6.855
0
VERTEX
8
L0D0_0
10
-52.703
20
-6.888
0
VERTEX
8
L0D0_0
10
-52.603
20
-6.915
0
VERTEX
8
L0D0_0
10
-52.552
20
-6.925
0
VERTEX
8
L0D0_0
10
-50.986
20
-7.239
0
VERTEX
8
L0D0_0
10
-50.986
20
-12.261
0
VERTEX
8
L0D0_0
10
-52.552
20
-12.575
0
VERTEX
8
L0D0_0
10
-52.603
20
-12.585
0
VERTEX
8
L0D0_0
10
-52.703
20
-12.612
0
VERTEX
8
L0D0_0
10
-52.801
20
-12.645
0
VERTEX
8
L0D0_0
10
-52.896
20
-12.686
0
VERTEX
8
L0D0_0
10
-52.989
20
-12.732
0
VERTEX
8
L0D0_0
10
-53.078
20
-12.784
0
VERTEX
8
L0D0_0
10
-53.164
20
-12.843
0
VERTEX
8
L0D0_0
10
-53.245
20
-12.907
0
VERTEX
8
L0D0_0
10
-53.322
20
-12.976
0
VERTEX
8
L0D0_0
10
-53.394
20
-13.05
0
VERTEX
8
L0D0_0
10
-53.462
20
-13.129
0
VERTEX
8
L0D0_0
10
-53.523
20
-13.212
0
VERTEX
8
L0D0_0
10
-53.551
20
-13.256
0
SEQEND
0
POLYLINE
8
L0D0_0
70
1
40
0
41
0
66
1
0
VERTEX
8
L0D0_0
10
-34.963
20
-14.672
0
VERTEX
8
L0D0_0
10
-35.116
20
-14.495
0
VERTEX
8
L0D0_0
10
-35.398
20
-14.124
0
VERTEX
8
L0D0_0
10
-35.656
20
-13.736
0
VERTEX
8
L0D0_0
10
-35.89
20
-13.332
0
VERTEX
8
L0D0_0
10
-36.099
20
-12.915
0
VERTEX
8
L0D0_0
10
-36.281
20
-12.486
0
VERTEX
8
L0D0_0
10
-36.437
20
-12.046
0
VERTEX
8
L0D0_0
10
-36.565
20
-11.597
0
VERTEX
8
L0D0_0
10
-36.665
20
-11.142
0
VERTEX
8
L0D0_0
10
-36.737
20
-10.681
0
VERTEX
8
L0D0_0
10
-36.78
20
-10.216
0
VERTEX
8
L0D0_0
10
-36.795
20
-9.75
0
VERTEX
8
L0D0_0
10
-36.78
20
-9.284
0
VERTEX
8
L0D0_0
10
-36.737
20
-8.819
0
VERTEX
8
L0D0_0
10
-36.665
20
-8.358
0
VERTEX
8
L0D0_0
10
-36.565
20
-7.903
0
VERTEX
8
L0D0_0
10
-36.437
20
-7.454
0
VERTEX
8
L0D0_0
10
-36.281
20
-7.014
0
VERTEX
8
L0D0_0
10
-36.099
20
-6.585
0
VERTEX
8
L0D0_0
10
-35.89
20
-6.168
0
VERTEX
8
L0D0_0
10
-35.656
20
-5.764
0
VERTEX
8
L0D0_0
10
-35.398
20
-5.376
0
VERTEX
8
L0D0_0
10
-35.116
20
-5.005
0
VERTEX
8
L0D0_0
10
-34.963
20
-4.828
0
VERTEX
8
L0D0_0
10
-34.051
20
-6.244
0
VERTEX
8
L0D0_0
10
-34.023
20
-6.288
0
VERTEX
8
L0D0_0
10
-33.962
20
-6.371
0
VERTEX
8
L0D0_0
10
-33.894
20
-6.45
0
VERTEX
8
L0D0_0
10
-33.822
20
-6.524
0
VERTEX
8
L0D0_0
10
-33.745
20
-6.593
0
VERTEX
8
L0D0_0
10
-33.664
20
-6.657
0
VERTEX
8
L0D0_0
10
-33.578
20
-6.716
0
VERTEX
8
L0D0_0
10
-33.489
20
-6.768
0
VERTEX
8
L0D0_0
10
-33.396
20
-6.814
0
VERTEX
8
L0D0_0
10
-33.301
20
-6.855
0
VERTEX
8
L0D0_0
10
-33.203
20
-6.888
0
VERTEX
8
L0D0_0
10
-33.103
20
-6.915
0
VERTEX
8
L0D0_0
10
-33.052
20
-6.925
0
VERTEX
8
L0D0_0
10
-31.486
20
-7.239
0
VERTEX
8
L0D0_0
10
-31.486
20
-12.261
0
VERTEX
8
L0D0_0
10
-33.052
20
-12.575
0
VERTEX
8
L0D0_0
10
-33.103
20
-12.585
0
VERTEX
8
L0D0_0
10
-33.203
20
-12.612
0
VERTEX
8
L0D0_0
10
-33.301
20
-12.645
0
VERTEX
8
L0D0_0
10
-33.396
20
-12.686
0
VERTEX
8
L0D0_0
10
-33.489
20
-12.732
0
VERTEX
8
L0D0_0
10
-33.578
20
-12.784
0
VERTEX
8
L0D0_0
10
-33.664
20
-12.843
0
VERTEX
8
L0D0_0
10
-33.745
20
-12.907
0
VERTEX
8
L0D0_0
10
-33.822
20
-12.976
0
VERTEX
8
L0D0_0
10
-33.894
20
-13.05
0
VERTEX
8
L0D0_0
10
-33.962
20
-13.129
0
VERTEX
8
L0D0_0
10
-34.023
20
-13.212
0
VERTEX
8
L0D0_0
10
-34.051
20
-13.256
0
SEQEND
0
POLYLINE
8
L0D0_0
70
1
40
0
41
0
66
1
0
VERTEX
8
L0D0_0
10
-15.463
20
-14.672
0
VERTEX
8
L0D0_0
10
-15.616
20
-14.495
0
VERTEX
8
L0D0_0
10
-15.898
20
-14.124
0
VERTEX
8
L0D0_0
10
-16.156
20
-13.736
0
VERTEX
8
L0D0_0
10
-16.39
20
-13.332
0
VERTEX
8
L0D0_0
10
-16.599
20
-12.915
0
VERTEX
8
L0D0_0
10
-16.781
20
-12.486
0
VERTEX
8
L0D0_0
10
-16.937
20
-12.046
0
VERTEX
8
L0D0_0
10
-17.065
20
-11.597
0
VERTEX
8
L0D0_0
10
-17.165
20
-11.142
0
VERTEX
8
L0D0_0
10
-17.237
20
-10.681
0
VERTEX
8
L0D0_0
10
-17.28
20
-10.216
0
VERTEX
8
L0D0_0
10
-17.295
20
-9.75
0
VERTEX
8
L0D0_0
10
-17.28
20
-9.284
0
VERTEX
8
L0D0_0
10
-17.237
20
-8.819
0
VERTEX
8
L0D0_0
10
-17.165
20
-8.358
0
VERTEX
8
L0D0_0
10
-17.065
20
-7.903
0
VERTEX
8
L0D0_0
10
-16.937
20
-7.454
0
VERTEX
8
L0D0_0
10
-16.781
20
-7.014
0
VERTEX
8
L0D0_0
10
-16.599
20
-6.585
0
VERTEX
8
L0D0_0
10
-16.39
20
-6.168
0
VERTEX
8
L0D0_0
10
-16.156
20
-5.764
0
VERTEX
8
L0D0_0
10
-15.898
20
-5.376
0
VERTEX
8
L0D0_0
10
-15.616
20
-5.005
0
VERTEX
8
L0D0_0
10
-15.463
20
-4.828
0
VERTEX
8
L0D0_0
10
-14.551
20
-6.244
0
VERTEX
8
L0D0_0
10
-14.523
20
-6.288
0
VERTEX
8
L0D0_0
10
-14.462
20
-6.371
0
VERTEX
8
L0D0_0
10
-14.394
20
-6.45
0
VERTEX
8
L0D0_0
10
-14.322
20
-6.524
0
VERTEX
8
L0D0_0
10
-14.245
20
-6.593
0
VERTEX
8
L0D0_0
10
-14.164
20
-6.657
0
VERTEX
8
L0D0_0
10
-14.078
20
-6.716
0
VERTEX
8
L0D0_0
10
-13.989
20
-6.768
0
VERTEX
8
L0D0_0
10
-13.896
20
-6.814
0
VERTEX
8
L0D0_0
10
-13.801
20
-6.855
0
VERTEX
8
L0D0_0
10
-13.703
20
-6.888
0
VERTEX
8
L0D0_0
10
-13.603
20
-6.915
0
VERTEX
8
L0D0_0
10
-13.552
20
-6.925
0
VERTEX
8
L0D0_0
10
-11.986
20
-7.239
0
VERTEX
8
L0D0_0
10
-11.986
20
-12.261
0
VERTEX
8
L0D0_0
10
-13.552
20
-12.575
0
VERTEX
8
L0D0_0
10
-13.603
20
-12.585
0
VERTEX
8
L0D0_0
10
-13.703
20
-12.612
0
VERTEX
8
L0D0_0
10
-13.801
20
-12.645
0
VERTEX
8
L0D0_0
10
-13.896
20
-12.686
0
VERTEX
8
L0D0_0
10
-13.989
20
-12.732
0
VERTEX
8
L0D0_0
10
-14.078
20
-12.784
0
VERTEX
8
L0D0_0
10
-14.164
20
-12.843
0
VERTEX
8
L0D0_0
10
-14.245
20
-12.907
0
VERTEX
8
L0D0_0
10
-14.322
20
-12.976
0
VERTEX
8
L0D0_0
10
-14.394
20
-13.05
0
VERTEX
8
L0D0_0
10
-14.462
20
-13.129
0
VERTEX
8
L0D0_0
10
-14.523
20
-13.212
0
VERTEX
8
L0D0_0
10
-14.551
20
-13.256
0
SEQEND
0
POLYLINE
8
L0D0_0
70
1
40
0
41
0
66
1
0
VERTEX
8
L0D0_0
10
4.037
20
-14.672
0
VERTEX
8
L0D0_0
10
3.884
20
-14.495
0
VERTEX
8
L0D0_0
10
3.602
20
-14.124
0
VERTEX
8
L0D0_0
10
3.344
20
-13.736
0
VERTEX
8
L0D0_0
10
3.11
20
-13.332
0
VERTEX
8
L0D0_0
10
2.901
20
-12.915
0
VERTEX
8
L0D0_0
10
2.719
20
-12.486
0
VERTEX
8
L0D0_0
10
2.563
20
-12.046
0
VERTEX
8
L0D0_0
10
2.435
20
-11.597
0
VERTEX
8
L0D0_0
10
2.335
20
-11.142
0
VERTEX
8
L0D0_0
10
2.263
20
-10.681
0
VERTEX
8
L0D0_0
10
2.22
20
-10.216
0
VERTEX
8
L0D0_0
10
2.205
20
-9.75
0
VERTEX
8
L0D0_0
10
2.22
20
-9.284
0
VERTEX
8
L0D0_0
10
2.263
20
-8.819
0
VERTEX
8
L0D0_0
10
2.335
20
-8.358
0
VERTEX
8
L0D0_0
10
2.435
20
-7.903
0
VERTEX
8
L0D0_0
10
2.563
20
-7.454
0
VERTEX
8
L0D0_0
10
2.719
20
-7.014
0
VERTEX
8
L0D0_0
10
2.901
20
-6.585
0
VERTEX
8
L0D0_0
10
3.11
20
-6.168
0
VERTEX
8
L0D0_0
10
3.344
20
-5.764
0
VERTEX
8
L0D0_0
10
3.602
20
-5.376
0
VERTEX
8
L0D0_0
10
3.884
20
-5.005
0
VERTEX
8
L0D0_0
10
4.037
20
-4.828
0
VERTEX
8
L0D0_0
10
4.949
20
-6.244
0
VERTEX
8
L0D0_0
10
4.977
20
-6.288
0
VERTEX
8
L0D0_0
10
5.038
20
-6.371
0
VERTEX
8
L0D0_0
10
5.106
20
-6.45
0
VERTEX
8
L0D0_0
10
5.178
20
-6.524
0
VERTEX
8
L0D0_0
10
5.255
20
-6.593
0
VERTEX
8
L0D0_0
10
5.336
20
-6.657
0
VERTEX
8
L0D0_0
10
5.422
20
-6.716
0
VERTEX
8
L0D0_0
10
5.511
20
-6.768
0
VERTEX
8
L0D0_0
10
5.604
20
-6.814
0
VERTEX
8
L0D0_0
10
5.699
20
-6.855
0
VERTEX
8
L0D0_0
10
5.797
20
-6.888
0
VERTEX
8
L0D0_0
10
5.897
20
-6.915
0
VERTEX
8
L0D0_0
10
5.948
20
-6.925
0
VERTEX
8
L0D0_0
10
7.514
20
-7.239
0
VERTEX
8
L0D0_0
10
7.514
20
-12.261
0
VERTEX
8
L0D0_0
10
5.948
20
-12.575
0
VERTEX
8
L0D0_0
10
5.897
20
-12.585
0
VERTEX
8
L0D0_0
10
5.797
20
-12.612
0
VERTEX
8
L0D0_0
10
5.699
20
-12.645
0
VERTEX
8
L0D0_0
10
5.604
20
-12.686
0
VERTEX
8
L0D0_0
10
5.511
20
-12.732
0
VERTEX
8
L0D0_0
10
5.422
20
-12.784
0
VERTEX
8
L0D0_0
10
5.336
20
-12.843
0
VERTEX
8
L0D0_0
10
5.255
20
-12.907
0
VERTEX
8
L0D0_0
10
5.178
20
-12.976
0
VERTEX
8
L0D0_0
10
5.106
20
-13.05
0
VERTEX
8
L0D0_0
10
5.038
20
-13.129
0
VERTEX
8
L0D0_0
10
4.977
20
-13.212
0
VERTEX
8
L0D0_0
10
4.949
20
-13.256
0
SEQEND
0
POLYLINE
8
L0D0_0
70
1
40
0
41
0
66
1
0
VERTEX
8
L0D0_0
10
23.537
20
-14.672
0
VERTEX
8
L0D0_0
10
23.384
20
-14.495
0
VERTEX
8
L0D0_0
10
23.102
20
-14.124
0
VERTEX
8
L0D0_0
10
22.844
20
-13.736
0
VERTEX
8
L0D0_0
10
22.61
20
-13.332
0
VERTEX
8
L0D0_0
10
22.401
20
-12.915
0
VERTEX
8
L0D0_0
10
22.219
20
-12.486
0
VERTEX
8
L0D0_0
10
22.063
20
-12.046
0
VERTEX
8
L0D0_0
10
21.935
20
-11.597
0
VERTEX
8
L0D0_0
10
21.835
20
-11.142
0
VERTEX
8
L0D0_0
10
21.763
20
-10.681
0
VERTEX
8
L0D0_0
10
21.72
20
-10.216
0
VERTEX
8
L0D0_0
10
21.705
20
-9.75
0
VERTEX
8
L0D0_0
10
21.72
20
-9.284
0
VERTEX
8
L0D0_0
10
21.763
20
-8.819
0
VERTEX
8
L0D0_0
10
21.835
20
-8.358
0
VERTEX
8
L0D0_0
10
21.935
20
-7.903
0
VERTEX
8
L0D0_0
10
22.063
20
-7.454
0
VERTEX
8
L0D0_0
10
22.219
20
-7.014
0
VERTEX
8
L0D0_0
10
22.401
20
-6.585
0
VERTEX
8
L0D0_0
10
22.61
20
-6.168
0
VERTEX
8
L0D0_0
10
22.844
20
-5.764
0
VERTEX
8
L0D0_0
10
23.102
20
-5.376
0
VERTEX
8
L0D0_0
10
23.384
20
-5.005
0
VERTEX
8
L0D0_0
10
23.537
20
-4.828
0
VERTEX
8
L0D0_0
10
24.449
20
-6.244
0
VERTEX
8
L0D0_0
10
24.477
20
-6.288
0
VERTEX
8
L0D0_0
10
24.538
20
-6.371
0
VERTEX
8
L0D0_0
10
24.606
20
-6.45
0
VERTEX
8
L0D0_0
10
24.678
20
-6.524
0
VERTEX
8
L0D0_0
10
24.755
20
-6.593
0
VERTEX
8
L0D0_0
10
24.836
20
-6.657
0
VERTEX
8
L0D0_0
10
24.922
20
-6.716
0
VERTEX
8
L0D0_0
10
25.011
20
-6.768
0
VERTEX
8
L0D0_0
10
25.104
20
-6.814
0
VERTEX
8
L0D0_0
10
25.199
20
-6.855
0
VERTEX
8
L0D0_0
10
25.297
20
-6.888
0
VERTEX
8
L0D0_0
10
25.397
20
-6.915
0
VERTEX
8
L0D0_0
10
25.448
20
-6.925
0
VERTEX
8
L0D0_0
10
27.014
20
-7.239
0
VERTEX
8
L0D0_0
10
27.014
20
-12.261
0
VERTEX
8
L0D0_0
10
25.448
20
-12.575
0
VERTEX
8
L0D0_0
10
25.397
20
-12.585
0
VERTEX
8
L0D0_0
10
25.297
20
-12.612
0
VERTEX
8
L0D0_0
10
25.199
20
-12.645
0
VERTEX
8
L0D0_0
10
25.104
20
-12.686
0
VERTEX
8
L0D0_0
10
25.011
20
-12.732
0
VERTEX
8
L0D0_0
10
24.922
20
-12.784
0
VERTEX
8
L0D0_0
10
24.836
20
-12.843
0
VERTEX
8
L0D0_0
10
24.755
20
-12.907
0
VERTEX
8
L0D0_0
10
24.678
20
-12.976
0
VERTEX
8
L0D0_0
10
24.606
20
-13.05
0
VERTEX
8
L0D0_0
10
24.538
20
-13.129
0
VERTEX
8
L0D0_0
10
24.477
20
-13.212
0
VERTEX
8
L0D0_0
10
24.449
20
-13.256
0
SEQEND
0
POLYLINE
8
L0D0_0
70
1
40
0
41
0
66
1
0
VERTEX
8
L0D0_0
10
43.037
20
-14.672
0
VERTEX
8
L0D0_0
10
42.884
20
-14.495
0
VERTEX
8
L0D0_0
10
42.602
20
-14.124
0
VERTEX
8
L0D0_0
10
42.344
20
-13.736
0
VERTEX
8
L0D0_0
10
42.11
20
-13.332
0
VERTEX
8
L0D0_0
10
41.901
20
-12.915
0
VERTEX
8
L0D0_0
10
41.719
20
-12.486
0
VERTEX
8
L0D0_0
10
41.563
20
-12.046
0
VERTEX
8
L0D0_0
10
41.435
20
-11.597
0
VERTEX
8
L0D0_0
10
41.335
20
-11.142
0
VERTEX
8
L0D0_0
10
41.263
20
-10.681
0
VERTEX
8
L0D0_0
10
41.22
20
-10.216
0
VERTEX
8
L0D0_0
10
41.205
20
-9.75
0
VERTEX
8
L0D0_0
10
41.22
20
-9.284
0
VERTEX
8
L0D0_0
10
41.263
20
-8.819
0
VERTEX
8
L0D0_0
10
41.335
20
-8.358
0
VERTEX
8
L0D0_0
10
41.435
20
-7.903
0
VERTEX
8
L0D0_0
10
41.563
20
-7.454
0
VERTEX
8
L0D0_0
10
41.719
20
-7.014
0
VERTEX
8
L0D0_0
10
41.901
20
-6.585
0
VERTEX
8
L0D0_0
10
42.11
20
-6.168
0
VERTEX
8
L0D0_0
10
42.344
20
-5.764
0
VERTEX
8
L0D0_0
10
42.602
20
-5.376
0
VERTEX
8
L0D0_0
10
42.884
20
-5.005
0
VERTEX
8
L0D0_0
10
43.037
20
-4.828
0
VERTEX
8
L0D0_0
10
43.949
20
-6.244
0
VERTEX
8
L0D0_0
10
43.977
20
-6.288
0
VERTEX
8
L0D0_0
10
44.038
20
-6.371
0
VERTEX
8
L0D0_0
10
44.106
20
-6.45
0
VERTEX
8
L0D0_0
10
44.178
20
-6.524
0
VERTEX
8
L0D0_0
10
44.255
20
-6.593
0
VERTEX
8
L0D0_0
10
44.336
20
-6.657
0
VERTEX
8
L0D0_0
10
44.422
20
-6.716
0
VERTEX
8
L0D0_0
10
44.511
20
-6.768
0
VERTEX
8
L0D0_0
10
44.604
20
-6.814
0
VERTEX
8
L0D0_0
10
44.699
20
-6.855
0
VERTEX
8
L0D0_0
10
44.797
20
-6.888
0
VERTEX
8
L0D0_0
10
44.897
20
-6.915
0
VERTEX
8
L0D0_0
10
44.948
20
-6.925
0
VERTEX
8
L0D0_0
10
46.514
20
-7.239
0
VERTEX
8
L0D0_0
10
46.514
20
-12.261
0
VERTEX
8
L0D0_0
10
44.948
20
-12.575
0
VERTEX
8
L0D0_0
10
44.897
20
-12.585
0
VERTEX
8
L0D0_0
10
44.797
20
-12.612
0
VERTEX
8
L0D0_0
10
44.699
20
-12.645
0
VERTEX
8
L0D0_0
10
44.604
20
-12.686
0
VERTEX
8
L0D0_0
10
44.511
20
-12.732
0
VERTEX
8
L0D0_0
10
44.422
20
-12.784
0
VERTEX
8
L0D0_0
10
44.336
20
-12.843
0
VERTEX
8
L0D0_0
10
44.255
20
-12.907
0
VERTEX
8
L0D0_0
10
44.178
20
-12.976
0
VERTEX
8
L0D0_0
10
44.106
20
-13.05
0
VERTEX
8
L0D0_0
10
44.038
20
-13.129
0
VERTEX
8
L0D0_0
10
43.977
20
-13.212
0
VERTEX
8
L0D0_0
10
43.949
20
-13.256
0
SEQEND
0
POLYLINE
8
L0D0_0
70
1
40
0
41
0
66
1
0
VERTEX
8
L0D0_0
10
-54.463
20
4.828
0
VERTEX
8
L0D0_0
10
-54.616
20
5.005
0
VERTEX
8
L0D0_0
10
-54.898
20
5.376
0
VERTEX
8
L0D0_0
10
-55.156
20
5.764
0
VERTEX
8
L0D0_0
10
-55.39
20
6.168
0
VERTEX
8
L0D0_0
10
-55.599
20
6.585
0
VERTEX
8
L0D0_0
10
-55.781
20
7.014
0
VERTEX
8
L0D0_0
10
-55.937
20
7.454
0
VERTEX
8
L0D0_0
10
-56.065
20
7.903
0
VERTEX
8
L0D0_0
10
-56.165
20
8.358
0
VERTEX
8
L0D0_0
10
-56.237
20
8.819
0
VERTEX
8
L0D0_0
10
-56.28
20
9.284
0
VERTEX
8
L0D0_0
10
-56.295
20
9.75
0
VERTEX
8
L0D0_0
10
-56.28
20
10.216
0
VERTEX
8
L0D0_0
10
-56.237
20
10.681
0
VERTEX
8
L0D0_0
10
-56.165
20
11.142
0
VERTEX
8
L0D0_0
10
-56.065
20
11.597
0
VERTEX
8
L0D0_0
10
-55.937
20
12.046
0
VERTEX
8
L0D0_0
10
-55.781
20
12.486
0
VERTEX
8
L0D0_0
10
-55.599
20
12.915
0
VERTEX
8
L0D0_0
10
-55.39
20
13.332
0
VERTEX
8
L0D0_0
10
-55.156
20
13.736
0
VERTEX
8
L0D0_0
10
-54.898
20
14.124
0
VERTEX
8
L0D0_0
10
-54.616
20
14.495
0
VERTEX
8
L0D0_0
10
-54.463
20
14.672
0
VERTEX
8
L0D0_0
10
-53.551
20
13.256
0
VERTEX
8
L0D0_0
10
-53.523
20
13.212
0
VERTEX
8
L0D0_0
10
-53.462
20
13.129
0
VERTEX
8
L0D0_0
10
-53.394
20
13.05
0
VERTEX
8
L0D0_0
10
-53.322
20
12.976
0
VERTEX
8
L0D0_0
10
-53.245
20
12.907
0
VERTEX
8
L0D0_0
10
-53.164
20
12.843
0
VERTEX
8
L0D0_0
10
-53.078
20
12.784
0
VERTEX
8
L0D0_0
10
-52.989
20
12.732
0
VERTEX
8
L0D0_0
10
-52.896
20
12.686
0
VERTEX
8
L0D0_0
10
-52.801
20
12.645
0
VERTEX
8
L0D0_0
10
-52.703
20
12.612
0
VERTEX
8
L0D0_0
10
-52.603
20
12.585
0
VERTEX
8
L0D0_0
10
-52.552
20
12.575
0
VERTEX
8
L0D0_0
10
-50.986
20
12.261
0
VERTEX
8
L0D0_0
10
-50.986
20
7.239
0
VERTEX
8
L0D0_0
10
-52.552
20
6.925
0
VERTEX
8
L0D0_0
10
-52.603
20
6.915
0
VERTEX
8
L0D0_0
10
-52.703
20
6.888
0
VERTEX
8
L0D0_0
10
-52.801
20
6.855
0
VERTEX
8
L0D0_0
10
-52.896
20
6.814
0
VERTEX
8
L0D0_0
10
-52.989
20
6.768
0
VERTEX
8
L0D0_0
10
-53.078
20
6.716
0
VERTEX
8
L0D0_0
10
-53.164
20
6.657
0
VERTEX
8
L0D0_0
10
-53.245
20
6.593
0
VERTEX
8
L0D0_0
10
-53.322
20
6.524
0
VERTEX
8
L0D0_0
10
-53.394
20
6.45
0
VERTEX
8
L0D0_0
10
-53.462
20
6.371
0
VERTEX
8
L0D0_0
10
-53.523
20
6.288
0
VERTEX
8
L0D0_0
10
-53.551
20
6.244
0
SEQEND
0
POLYLINE
8
L0D0_0
70
1
40
0
41
0
66
1
0
VERTEX
8
L0D0_0
10
-34.963
20
4.828
0
VERTEX
8
L0D0_0
10
-35.116
20
5.005
0
VERTEX
8
L0D0_0
10
-35.398
20
5.376
0
VERTEX
8
L0D0_0
10
-35.656
20
5.764
0
VERTEX
8
L0D0_0
10
-35.89
20
6.168
0
VERTEX
8
L0D0_0
10
-36.099
20
6.585
0
VERTEX
8
L0D0_0
10
-36.281
20
7.014
0
VERTEX
8
L0D0_0
10
-36.437
20
7.454
0
VERTEX
8
L0D0_0
10
-36.565
20
7.903
0
VERTEX
8
L0D0_0
10
-36.665
20
8.358
0
VERTEX
8
L0D0_0
10
-36.737
20
8.819
0
VERTEX
8
L0D0_0
10
-36.78
20
9.284
0
VERTEX
8
L0D0_0
10
-36.795
20
9.75
0
VERTEX
8
L0D0_0
10
-36.78
20
10.216
0
VERTEX
8
L0D0_0
10
-36.737
20
10.681
0
VERTEX
8
L0D0_0
10
-36.665
20
11.142
0
VERTEX
8
L0D0_0
10
-36.565
20
11.597
0
VERTEX
8
L0D0_0
10
-36.437
20
12.046
0
VERTEX
8
L0D0_0
10
-36.281
20
12.486
0
VERTEX
8
L0D0_0
10
-36.099
20
12.915
0
VERTEX
8
L0D0_0
10
-35.89
20
13.332
0
VERTEX
8
L0D0_0
10
-35.656
20
13.736
0
VERTEX
8
L0D0_0
10
-35.398
20
14.124
0
VERTEX
8
L0D0_0
10
-35.116
20
14.495
0
VERTEX
8
L0D0_0
10
-34.963
20
14.672
0
VERTEX
8
L0D0_0
10
-34.051
20
13.256
0
VERTEX
8
L0D0_0
10
-34.023
20
13.212
0
VERTEX
8
L0D0_0
10
-33.962
20
13.129
0
VERTEX
8
L0D0_0
10
-33.894
20
13.05
0
VERTEX
8
L0D0_0
10
-33.822
20
12.976
0
VERTEX
8
L0D0_0
10
-33.745
20
12.907
0
VERTEX
8
L0D0_0
10
-33.664
20
12.843
0
VERTEX
8
L0D0_0
10
-33.578
20
12.784
0
VERTEX
8
L0D0_0
10
-33.489
20
12.732
0
VERTEX
8
L0D0_0
10
-33.396
20
12.686
0
VERTEX
8
L0D0_0
10
-33.301
20
12.645
0
VERTEX
8
L0D0_0
10
-33.203
20
12.612
0
VERTEX
8
L0D0_0
10
-33.103
20
12.585
0
VERTEX
8
L0D0_0
10
-33.052
20
12.575
0
VERTEX
8
L0D0_0
10
-31.486
20
12.261
0
VERTEX
8
L0D0_0
10
-31.486
20
7.239
0
VERTEX
8
L0D0_0
10
-33.052
20
6.925
0
VERTEX
8
L0D0_0
10
-33.103
20
6.915
0
VERTEX
8
L0D0_0
10
-33.203
20
6.888
0
VERTEX
8
L0D0_0
10
-33.301
20
6.855
0
VERTEX
8
L0D0_0
10
-33.396
20
6.814
0
VERTEX
8
L0D0_0
10
-33.489
20
6.768
0
VERTEX
8
L0D0_0
10
-33.578
20
6.716
0
VERTEX
8
L0D0_0
10
-33.664
20
6.657
0
VERTEX
8
L0D0_0
10
-33.745
20
6.593
0
VERTEX
8
L0D0_0
10
-33.822
20
6.524
0
VERTEX
8
L0D0_0
10
-33.894
20
6.45
0
VERTEX
8
L0D0_0
10
-33.962
20
6.371
0
VERTEX
8
L0D0_0
10
-34.023
20
6.288
0
VERTEX
8
L0D0_0
10
-34.051
20
6.244
0
SEQEND
0
POLYLINE
8
L0D0_0
70
1
40
0
41
0
66
1
0
VERTEX
8
L0D0_0
10
-15.463
20
4.828
0
VERTEX
8
L0D0_0
10
-15.616
20
5.005
0
VERTEX
8
L0D0_0
10
-15.898
20
5.376
0
VERTEX
8
L0D0_0
10
-16.156
20
5.764
0
VERTEX
8
L0D0_0
10
-16.39
20
6.168
0
VERTEX
8
L0D0_0
10
-16.599
20
6.585
0
VERTEX
8
L0D0_0
10
-16.781
20
7.014
0
VERTEX
8
L0D0_0
10
-16.937
20
7.454
0
VERTEX
8
L0D0_0
10
-17.065
20
7.903
0
VERTEX
8
L0D0_0
10
-17.165
20
8.358
0
VERTEX
8
L0D0_0
10
-17.237
20
8.819
0
VERTEX
8
L0D0_0
10
-17.28
20
9.284
0
VERTEX
8
L0D0_0
10
-17.295
20
9.75
0
VERTEX
8
L0D0_0
10
-17.28
20
10.216
0
VERTEX
8
L0D0_0
10
-17.237
20
10.681
0
VERTEX
8
L0D0_0
10
-17.165
20
11.142
0
VERTEX
8
L0D0_0
10
-17.065
20
11.597
0
VERTEX
8
L0D0_0
10
-16.937
20
12.046
0
VERTEX
8
L0D0_0
10
-16.781
20
12.486
0
VERTEX
8
L0D0_0
10
-16.599
20
12.915
0
VERTEX
8
L0D0_0
10
-16.39
20
13.332
0
VERTEX
8
L0D0_0
10
-16.156
20
13.736
0
VERTEX
8
L0D0_0
10
-15.898
20
14.124
0
VERTEX
8
L0D0_0
10
-15.616
20
14.495
0
VERTEX
8
L0D0_0
10
-15.463
20
14.672
0
VERTEX
8
L0D0_0
10
-14.551
20
13.256
0
VERTEX
8
L0D0_0
10
-14.523
20
13.212
0
VERTEX
8
L0D0_0
10
-14.462
20
13.129
0
VERTEX
8
L0D0_0
10
-14.394
20
13.05
0
VERTEX
8
L0D0_0
10
-14.322
20
12.976
0
VERTEX
8
L0D0_0
10
-14.245
20
12.907
0
VERTEX
8
L0D0_0
10
-14.164
20
12.843
0
VERTEX
8
L0D0_0
10
-14.078
20
12.784
0
VERTEX
8
L0D0_0
10
-13.989
20
12.732
0
VERTEX
8
L0D0_0
10
-13.896
20
12.686
0
VERTEX
8
L0D0_0
10
-13.801
20
12.645
0
VERTEX
8
L0D0_0
10
-13.703
20
12.612
0
VERTEX
8
L0D0_0
10
-13.603
20
12.585
0
VERTEX
8
L0D0_0
10
-13.552
20
12.575
0
VERTEX
8
L0D0_0
10
-11.986
20
12.261
0
VERTEX
8
L0D0_0
10
-11.986
20
7.239
0
VERTEX
8
L0D0_0
10
-13.552
20
6.925
0
VERTEX
8
L0D0_0
10
-13.603
20
6.915
0
VERTEX
8
L0D0_0
10
-13.703
20
6.888
0
VERTEX
8
L0D0_0
10
-13.801
20
6.855
0
VERTEX
8
L0D0_0
10
-13.896
20
6.814
0
VERTEX
8
L0D0_0
10
-13.989
20
6.768
0
VERTEX
8
L0D0_0
10
-14.078
20
6.716
0
VERTEX
8
L0D0_0
10
-14.164
20
6.657
0
VERTEX
8
L0D0_0
10
-14.245
20
6.593
0
VERTEX
8
L0D0_0
10
-14.322
20
6.524
0
VERTEX
8
L0D0_0
10
-14.394
20
6.45
0
VERTEX
8
L0D0_0
10
-14.462
20
6.371
0
VERTEX
8
L0D0_0
10
-14.523
20
6.288
0
VERTEX
8
L0D0_0
10
-14.551
20
6.244
0
SEQEND
0
POLYLINE
8
L0D0_0
70
1
40
0
41
0
66
1
0
VERTEX
8
L0D0_0
10
4.037
20
4.828
0
VERTEX
8
L0D0_0
10
3.884
20
5.005
0
VERTEX
8
L0D0_0
10
3.602
20
5.376
0
VERTEX
8
L0D0_0
10
3.344
20
5.764
0
VERTEX
8
L0D0_0
10
3.11
20
6.168
0
VERTEX
8
L0D0_0
10
2.901
20
6.585
0
VERTEX
8
L0D0_0
10
2.719
20
7.014
0
VERTEX
8
L0D0_0
10
2.563
20
7.454
0
VERTEX
8
L0D0_0
10
2.435
20
7.903
0
VERTEX
8
L0D0_0
10
2.335
20
8.358
0
VERTEX
8
L0D0_0
10
2.263
20
8.819
0
VERTEX
8
L0D0_0
10
2.22
20
9.284
0
VERTEX
8
L0D0_0
10
2.205
20
9.75
0
VERTEX
8
L0D0_0
10
2.22
20
10.216
0
VERTEX
8
L0D0_0
10
2.263
20
10.681
0
VERTEX
8
L0D0_0
10
2.335
20
11.142
0
VERTEX
8
L0D0_0
10
2.435
20
11.597
0
VERTEX
8
L0D0_0
10
2.563
20
12.046
0
VERTEX
8
L0D0_0
10
2.719
20
12.486
0
VERTEX
8
L0D0_0
10
2.901
20
12.915
0
VERTEX
8
L0D0_0
10
3.11
20
13.332
0
VERTEX
8
L0D0_0
10
3.344
20
13.736
0
VERTEX
8
L0D0_0
10
3.602
20
14.124
0
VERTEX
8
L0D0_0
10
3.884
20
14.495
0
VERTEX
8
L0D0_0
10
4.037
20
14.672
0
VERTEX
8
L0D0_0
10
4.949
20
13.256
0
VERTEX
8
L0D0_0
10
4.977
20
13.212
0
VERTEX
8
L0D0_0
10
5.038
20
13.129
0
VERTEX
8
L0D0_0
10
5.106
20
13.05
0
VERTEX
8
L0D0_0
10
5.178
20
12.976
0
VERTEX
8
L0D0_0
10
5.255
20
12.907
0
VERTEX
8
L0D0_0
10
5.336
20
12.843
0
VERTEX
8
L0D0_0
10
5.422
20
12.784
0
VERTEX
8
L0D0_0
10
5.511
20
12.732
0
VERTEX
8
L0D0_0
10
5.604
20
12.686
0
VERTEX
8
L0D0_0
10
5.699
20
12.645
0
VERTEX
8
L0D0_0
10
5.797
20
12.612
0
VERTEX
8
L0D0_0
10
5.897
20
12.585
0
VERTEX
8
L0D0_0
10
5.948
20
12.575
0
VERTEX
8
L0D0_0
10
7.514
20
12.261
0
VERTEX
8
L0D0_0
10
7.514
20
7.239
0
VERTEX
8
L0D0_0
10
5.948
20
6.925
0
VERTEX
8
L0D0_0
10
5.897
20
6.915
0
VERTEX
8
L0D0_0
10
5.797
20
6.888
0
VERTEX
8
L0D0_0
10
5.699
20
6.855
0
VERTEX
8
L0D0_0
10
5.604
20
6.814
0
VERTEX
8
L0D0_0
10
5.511
20
6.768
0
VERTEX
8
L0D0_0
10
5.422
20
6.716
0
VERTEX
8
L0D0_0
10
5.336
20
6.657
0
VERTEX
8
L0D0_0
10
5.255
20
6.593
0
VERTEX
8
L0D0_0
10
5.178
20
6.524
0
VERTEX
8
L0D0_0
10
5.106
20
6.45
0
VERTEX
8
L0D0_0
10
5.038
20
6.371
0
VERTEX
8
L0D0_0
10
4.977
20
6.288
0
VERTEX
8
L0D0_0
10
4.949
20
6.244
0
SEQEND
0
POLYLINE
8
L0D0_0
70
1
40
0
41
0
66
1
0
VERTEX
8
L0D0_0
10
23.537
20
4.828
0
VERTEX
8
L0D0_0
10
23.384
20
5.005
0
VERTEX
8
L0D0_0
10
23.102
20
5.376
0
VERTEX
8
L0D0_0
10
22.844
20
5.764
0
VERTEX
8
L0D0_0
10
22.61
20
6.168
0
VERTEX
8
L0D0_0
10
22.401
20
6.585
0
VERTEX
8
L0D0_0
10
22.219
20
7.014
0
VERTEX
8
L0D0_0
10
22.063
20
7.454
0
VERTEX
8
L0D0_0
10
21.935
20
7.903
0
VERTEX
8
L0D0_0
10
21.835
20
8.358
0
VERTEX
8
L0D0_0
10
21.763
20
8.819
0
VERTEX
8
L0D0_0
10
21.72
20
9.284
0
VERTEX
8
L0D0_0
10
21.705
20
9.75
0
VERTEX
8
L0D0_0
10
21.72
20
10.216
0
VERTEX
8
L0D0_0
10
21.763
20
10.681
0
VERTEX
8
L0D0_0
10
21.835
20
11.142
0
VERTEX
8
L0D0_0
10
21.935
20
11.597
0
VERTEX
8
L0D0_0
10
22.063
20
12.046
0
VERTEX
8
L0D0_0
10
22.219
20
12.486
0
VERTEX
8
L0D0_0
10
22.401
20
12.915
0
VERTEX
8
L0D0_0
10
22.61
20
13.332
0
VERTEX
8
L0D0_0
10
22.844
20
13.736
0
VERTEX
8
L0D0_0
10
23.102
20
14.124
0
VERTEX
8
L0D0_0
10
23.384
20
14.495
0
VERTEX
8
L0D0_0
10
23.537
20
14.672
0
VERTEX
8
L0D0_0
10
24.449
20
13.256
0
VERTEX
8
L0D0_0
10
24.477
20
13.212
0
VERTEX
8
L0D0_0
10
24.538
20
13.129
0
VERTEX
8
L0D0_0
10
24.606
20
13.05
0
VERTEX
8
L0D0_0
10
24.678
20
12.976
0
VERTEX
8
L0D0_0
10
24.755
20
12.907
0
VERTEX
8
L0D0_0
10
24.836
20
12.843
0
VERTEX
8
L0D0_0
10
24.922
20
12.784
0
VERTEX
8
L0D0_0
10
25.011
20
12.732
0
VERTEX
8
L0D0_0
10
25.104
20
12.686
0
VERTEX
8
L0D0_0
10
25.199
20
12.645
0
VERTEX
8
L0D0_0
10
25.297
20
12.612
0
VERTEX
8
L0D0_0
10
25.397
20
12.585
0
VERTEX
8
L0D0_0
10
25.448
20
12.575
0
VERTEX
8
L0D0_0
10
27.014
20
12.261
0
VERTEX
8
L0D0_0
10
27.014
20
7.239
0
VERTEX
8
L0D0_0
10
25.448
20
6.925
0
VERTEX
8
L0D0_0
10
25.397
20
6.915
0
VERTEX
8
L0D0_0
10
25.297
20
6.888
0
VERTEX
8
L0D0_0
10
25.199
20
6.855
0
VERTEX
8
L0D0_0
10
25.104
20
6.814
0
VERTEX
8
L0D0_0
10
25.011
20
6.768
0
VERTEX
8
L0D0_0
10
24.922
20
6.716
0
VERTEX
8
L0D0_0
10
24.836
20
6.657
0
VERTEX
8
L0D0_0
10
24.755
20
6.593
0
VERTEX
8
L0D0_0
10
24.678
20
6.524
0
VERTEX
8
L0D0_0
10
24.606
20
6.45
0
VERTEX
8
L0D0_0
10
24.538
20
6.371
0
VERTEX
8
L0D0_0
10
24.477
20
6.288
0
VERTEX
8
L0D0_0
10
24.449
20
6.244
0
SEQEND
0
POLYLINE
8
L0D0_0
70
1
40
0
41
0
66
1
0
VERTEX
8
L0D0_0
10
43.037
20
4.828
0
VERTEX
8
L0D0_0
10
42.884
20
5.005
0
VERTEX
8
L0D0_0
10
42.602
20
5.376
0
VERTEX
8
L0D0_0
10
42.344
20
5.764
0
VERTEX
8
L0D0_0
10
42.11
20
6.168
0
VERTEX
8
L0D0_0
10
41.901
20
6.585
0
VERTEX
8
L0D0_0
10
41.719
20
7.014
0
VERTEX
8
L0D0_0
10
41.563
20
7.454
0
VERTEX
8
L0D0_0
10
41.435
20
7.903
0
VERTEX
8
L0D0_0
10
41.335
20
8.358
0
VERTEX
8
L0D0_0
10
41.263
20
8.819
0
VERTEX
8
L0D0_0
10
41.22
20
9.284
0
VERTEX
8
L0D0_0
10
41.205
20
9.75
0
VERTEX
8
L0D0_0
10
41.22
20
10.216
0
VERTEX
8
L0D0_0
10
41.263
20
10.681
0
VERTEX
8
L0D0_0
10
41.335
20
11.142
0
VERTEX
8
L0D0_0
10
41.435
20
11.597
0
VERTEX
8
L0D0_0
10
41.563
20
12.046
0
VERTEX
8
L0D0_0
10
41.719
20
12.486
0
VERTEX
8
L0D0_0
10
41.901
20
12.915
0
VERTEX
8
L0D0_0
10
42.11
20
13.332
0
VERTEX
8
L0D0_0
10
42.344
20
13.736
0
VERTEX
8
L0D0_0
10
42.602
20
14.124
0
VERTEX
8
L0D0_0
10
42.884
20
14.495
0
VERTEX
8
L0D0_0
10
43.037
20
14.672
0
VERTEX
8
L0D0_0
10
43.949
20
13.256
0
VERTEX
8
L0D0_0
10
43.977
20
13.212
0
VERTEX
8
L0D0_0
10
44.038
20
13.129
0
VERTEX
8
L0D0_0
10
44.106
20
13.05
0
VERTEX
8
L0D0_0
10
44.178
20
12.976
0
VERTEX
8
L0D0_0
10
44.255
20
12.907
0
VERTEX
8
L0D0_0
10
44.336
20
12.843
0
VERTEX
8
L0D0_0
10
44.422
20
12.784
0
VERTEX
8
L0D0_0
10
44.511
20
12.732
0
VERTEX
8
L0D0_0
10
44.604
20
12.686
0
VERTEX
8
L0D0_0
10
44.699
20
12.645
0
VERTEX
8
L0D0_0
10
44.797
20
12.612
0
VERTEX
8
L0D0_0
10
44.897
20
12.585
0
VERTEX
8
L0D0_0
10
44.948
20
12.575
0
VERTEX
8
L0D0_0
10
46.514
20
12.261
0
VERTEX
8
L0D0_0
10
46.514
20
7.239
0
VERTEX
8
L0D0_0
10
44.948
20
6.925
0
VERTEX
8
L0D0_0
10
44.897
20
6.915
0
VERTEX
8
L0D0_0
10
44.797
20
6.888
0
VERTEX
8
L0D0_0
10
44.699
20
6.855
0
VERTEX
8
L0D0_0
10
44.604
20
6.814
0
VERTEX
8
L0D0_0
10
44.511
20
6.768
0
VERTEX
8
L0D0_0
10
44.422
20
6.716
0
VERTEX
8
L0D0_0
10
44.336
20
6.657
0
VERTEX
8
L0D0_0
10
44.255
20
6.593
0
VERTEX
8
L0D0_0
10
44.178
20
6.524
0
VERTEX
8
L0D0_0
10
44.106
20
6.45
0
VERTEX
8
L0D0_0
10
44.038
20
6.371
0
VERTEX
8
L0D0_0
10
43.977
20
6.288
0
VERTEX
8
L0D0_0
10
43.949
20
6.244
0
SEQEND
0
POLYLINE
8
L0D0_0
70
1
40
0
41
0
66
1
0
VERTEX
8
L0D0_0
10
-54.463
20
24.328
0
VERTEX
8
L0D0_0
10
-54.616
20
24.505
0
VERTEX
8
L0D0_0
10
-54.898
20
24.876
0
VERTEX
8
L0D0_0
10
-55.156
20
25.264
0
VERTEX
8
L0D0_0
10
-55.39
20
25.668
0
VERTEX
8
L0D0_0
10
-55.599
20
26.085
0
VERTEX
8
L0D0_0
10
-55.781
20
26.514
0
VERTEX
8
L0D0_0
10
-55.937
20
26.954
0
VERTEX
8
L0D0_0
10
-56.065
20
27.403
0
VERTEX
8
L0D0_0
10
-56.165
20
27.858
0
VERTEX
8
L0D0_0
10
-56.237
20
28.319
0
VERTEX
8
L0D0_0
10
-56.28
20
28.784
0
VERTEX
8
L0D0_0
10
-56.295
20
29.25
0
VERTEX
8
L0D0_0
10
-56.28
20
29.716
0
VERTEX
8
L0D0_0
10
-56.237
20
30.181
0
VERTEX
8
L0D0_0
10
-56.165
20
30.642
0
VERTEX
8
L0D0_0
10
-56.065
20
31.097
0
VERTEX
8
L0D0_0
10
-55.937
20
31.546
0
VERTEX
8
L0D0_0
10
-55.781
20
31.986
0
VERTEX
8
L0D0_0
10
-55.599
20
32.415
0
VERTEX
8
L0D0_0
10
-55.39
20
32.832
0
VERTEX
8
L0D0_0
10
-55.156
20
33.236
0
VERTEX
8
L0D0_0
10
-54.898
20
33.624
0
VERTEX
8
L0D0_0
10
-54.616
20
33.995
0
VERTEX
8
L0D0_0
10
-54.463
20
34.172
0
VERTEX
8
L0D0_0
10
-53.551
20
32.756
0
VERTEX
8
L0D0_0
10
-53.523
20
32.712
0
VERTEX
8
L0D0_0
10
-53.462
20
32.629
0
VERTEX
8
L0D0_0
10
-53.394
20
32.55
0
VERTEX
8
L0D0_0
10
-53.322
20
32.476
0
VERTEX
8
L0D0_0
10
-53.245
20
32.407
0
VERTEX
8
L0D0_0
10
-53.164
20
32.343
0
VERTEX
8
L0D0_0
10
-53.078
20
32.284
0
VERTEX
8
L0D0_0
10
-52.989
20
32.232
0
VERTEX
8
L0D0_0
10
-52.896
20
32.186
0
VERTEX
8
L0D0_0
10
-52.801
20
32.145
0
VERTEX
8
L0D0_0
10
-52.703
20
32.112
0
VERTEX
8
L0D0_0
10
-52.603
20
32.085
0
VERTEX
8
L0D0_0
10
-52.552
20
32.075
0
VERTEX
8
L0D0_0
10
-50.986
20
31.761
0
VERTEX
8
L0D0_0
10
-50.986
20
26.739
0
VERTEX
8
L0D0_0
10
-52.552
20
26.425
0
VERTEX
8
L0D0_0
10
-52.603
20
26.415
0
VERTEX
8
L0D0_0
10
-52.703
20
26.388
0
VERTEX
8
L0D0_0
10
-52.801
20
26.355
0
VERTEX
8
L0D0_0
10
-52.896
20
26.314
0
VERTEX
8
L0D0_0
10
-52.989
20
26.268
0
VERTEX
8
L0D0_0
10
-53.078
20
26.216
0
VERTEX
8
L0D0_0
10
-53.164
20
26.157
0
VERTEX
8
L0D0_0
10
-53.245
20
26.093
0
VERTEX
8
L0D0_0
10
-53.322
20
26.024
0
VERTEX
8
L0D0_0
10
-53.394
20
25.95
0
VERTEX
8
L0D0_0
10
-53.462
20
25.871
0
VERTEX
8
L0D0_0
10
-53.523
20
25.788
0
VERTEX
8
L0D0_0
10
-53.551
20
25.744
0
SEQEND
0
POLYLINE
8
L0D0_0
70
1
40
0
41
0
66
1
0
VERTEX
8
L0D0_0
10
-34.963
20
24.328
0
VERTEX
8
L0D0_0
10
-35.116
20
24.505
0
VERTEX
8
L0D0_0
10
-35.398
20
24.876
0
VERTEX
8
L0D0_0
10
-35.656
20
25.264
0
VERTEX
8
L0D0_0
10
-35.89
20
25.668
0
VERTEX
8
L0D0_0
10
-36.099
20
26.085
0
VERTEX
8
L0D0_0
10
-36.281
20
26.514
0
VERTEX
8
L0D0_0
10
-36.437
20
26.954
0
VERTEX
8
L0D0_0
10
-36.565
20
27.403
0
VERTEX
8
L0D0_0
10
-36.665
20
27.858
0
VERTEX
8
L0D0_0
10
-36.737
20
28.319
0
VERTEX
8
L0D0_0
10
-36.78
20
28.784
0
VERTEX
8
L0D0_0
10
-36.795
20
29.25
0
VERTEX
8
L0D0_0
10
-36.78
20
29.716
0
VERTEX
8
L0D0_0
10
-36.737
20
30.181
0
VERTEX
8
L0D0_0
10
-36.665
20
30.642
0
VERTEX
8
L0D0_0
10
-36.565
20
31.097
0
VERTEX
8
L0D0_0
10
-36.437
20
31.546
0
VERTEX
8
L0D0_0
10
-36.281
20
31.986
0
VERTEX
8
L0D0_0
10
-36.099
20
32.415
0
VERTEX
8
L0D0_0
10
-35.89
20
32.832
0
VERTEX
8
L0D0_0
10
-35.656
20
33.236
0
VERTEX
8
L0D0_0
10
-35.398
20
33.624
0
VERTEX
8
L0D0_0
10
-35.116
20
33.995
0
VERTEX
8
L0D0_0
10
-34.963
20
34.172
0
VERTEX
8
L0D0_0
10
-34.051
20
32.756
0
VERTEX
8
L0D0_0
10
-34.023
20
32.712
0
VERTEX
8
L0D0_0
10
-33.962
20
32.629
0
VERTEX
8
L0D0_0
10
-33.894
20
32.55
0
VERTEX
8
L0D0_0
10
-33.822
20
32.476
0
VERTEX
8
L0D0_0
10
-33.745
20
32.407
0
VERTEX
8
L0D0_0
10
-33.664
20
32.343
0
VERTEX
8
L0D0_0
10
-33.578
20
32.284
0
VERTEX
8
L0D0_0
10
-33.489
20
32.232
0
VERTEX
8
L0D0_0
10
-33.396
20
32.186
0
VERTEX
8
L0D0_0
10
-33.301
20
32.145
0
VERTEX
8
L0D0_0
10
-33.203
20
32.112
0
VERTEX
8
L0D0_0
10
-33.103
20
32.085
0
VERTEX
8
L0D0_0
10
-33.052
20
32.075
0
VERTEX
8
L0D0_0
10
-31.486
20
31.761
0
VERTEX
8
L0D0_0
10
-31.486
20
26.739
0
VERTEX
8
L0D0_0
10
-33.052
20
26.425
0
VERTEX
8
L0D0_0
10
-33.103
20
26.415
0
VERTEX
8
L0D0_0
10
-33.203
20
26.388
0
VERTEX
8
L0D0_0
10
-33.301
20
26.355
0
VERTEX
8
L0D0_0
10
-33.396
20
26.314
0
VERTEX
8
L0D0_0
10
-33.489
20
26.268
0
VERTEX
8
L0D0_0
10
-33.578
20
26.216
0
VERTEX
8
L0D0_0
10
-33.664
20
26.157
0
VERTEX
8
L0D0_0
10
-33.745
20
26.093
0
VERTEX
8
L0D0_0
10
-33.822
20
26.024
0
VERTEX
8
L0D0_0
10
-33.894
20
25.95
0
VERTEX
8
L0D0_0
10
-33.962
20
25.871
0
VERTEX
8
L0D0_0
10
-34.023
20
25.788
0
VERTEX
8
L0D0_0
10
-34.051
20
25.744
0
SEQEND
0
POLYLINE
8
L0D0_0
70
1
40
0
41
0
66
1
0
VERTEX
8
L0D0_0
10
-15.463
20
24.328
0
VERTEX
8
L0D0_0
10
-15.616
20
24.505
0
VERTEX
8
L0D0_0
10
-15.898
20
24.876
0
VERTEX
8
L0D0_0
10
-16.156
20
25.264
0
VERTEX
8
L0D0_0
10
-16.39
20
25.668
0
VERTEX
8
L0D0_0
10
-16.599
20
26.085
0
VERTEX
8
L0D0_0
10
-16.781
20
26.514
0
VERTEX
8
L0D0_0
10
-16.937
20
26.954
0
VERTEX
8
L0D0_0
10
-17.065
20
27.403
0
VERTEX
8
L0D0_0
10
-17.165
20
27.858
0
VERTEX
8
L0D0_0
10
-17.237
20
28.319
0
VERTEX
8
L0D0_0
10
-17.28
20
28.784
0
VERTEX
8
L0D0_0
10
-17.295
20
29.25
0
VERTEX
8
L0D0_0
10
-17.28
20
29.716
0
VERTEX
8
L0D0_0
10
-17.237
20
30.181
0
VERTEX
8
L0D0_0
10
-17.165
20
30.642
0
VERTEX
8
L0D0_0
10
-17.065
20
31.097
0
VERTEX
8
L0D0_0
10
-16.937
20
31.546
0
VERTEX
8
L0D0_0
10
-16.781
20
31.986
0
VERTEX
8
L0D0_0
10
-16.599
20
32.415
0
VERTEX
8
L0D0_0
10
-16.39
20
32.832
0
VERTEX
8
L0D0_0
10
-16.156
20
33.236
0
VERTEX
8
L0D0_0
10
-15.898
20
33.624
0
VERTEX
8
L0D0_0
10
-15.616
20
33.995
0
VERTEX
8
L0D0_0
10
-15.463
20
34.172
0
VERTEX
8
L0D0_0
10
-14.551
20
32.756
0
VERTEX
8
L0D0_0
10
-14.523
20
32.712
0
VERTEX
8
L0D0_0
10
-14.462
20
32.629
0
VERTEX
8
L0D0_0
10
-14.394
20
32.55
0
VERTEX
8
L0D0_0
10
-14.322
20
32.476
0
VERTEX
8
L0D0_0
10
-14.245
20
32.407
0
VERTEX
8
L0D0_0
10
-14.164
20
32.343
0
VERTEX
8
L0D0_0
10
-14.078
20
32.284
0
VERTEX
8
L0D0_0
10
-13.989
20
32.232
0
VERTEX
8
L0D0_0
10
-13.896
20
32.186
0
VERTEX
8
L0D0_0
10
-13.801
20
32.145
0
VERTEX
8
L0D0_0
10
-13.703
20
32.112
0
VERTEX
8
L0D0_0
10
-13.603
20
32.085
0
VERTEX
8
L0D0_0
10
-13.552
20
32.075
0
VERTEX
8
L0D0_0
10
-11.986
20
31.761
0
VERTEX
8
L0D0_0
10
-11.986
20
26.739
0
VERTEX
8
L0D0_0
10
-13.552
20
26.425
0
VERTEX
8
L0D0_0
10
-13.603
20
26.415
0
VERTEX
8
L0D0_0
10
-13.703
20
26.388
0
VERTEX
8
L0D0_0
10
-13.801
20
26.355
0
VERTEX
8
L0D0_0
10
-13.896
20
26.314
0
VERTEX
8
L0D0_0
10
-13.989
20
26.268
0
VERTEX
8
L0D0_0
10
-14.078
20
26.216
0
VERTEX
8
L0D0_0
10
-14.164
20
26.157
0
VERTEX
8
L0D0_0
10
-14.245
20
26.093
0
VERTEX
8
L0D0_0
10
-14.322
20
26.024
0
VERTEX
8
L0D0_0
10
-14.394
20
25.95
0
VERTEX
8
L0D0_0
10
-14.462
20
25.871
0
VERTEX
8
L0D0_0
10
-14.523
20
25.788
0
VERTEX
8
L0D0_0
10
-14.551
20
25.744
0
SEQEND
0
POLYLINE
8
L0D0_0
70
1
40
0
41
0
66
1
0
VERTEX
8
L0D0_0
10
4.037
20
24.328
0
VERTEX
8
L0D0_0
10
3.884
20
24.505
0
VERTEX
8
L0D0_0
10
3.602
20
24.876
0
VERTEX
8
L0D0_0
10
3.344
20
25.264
0
VERTEX
8
L0D0_0
10
3.11
20
25.668
0
VERTEX
8
L0D0_0
10
2.901
20
26.085
0
VERTEX
8
L0D0_0
10
2.719
20
26.514
0
VERTEX
8
L0D0_0
10
2.563
20
26.954
0
VERTEX
8
L0D0_0
10
2.435
20
27.403
0
VERTEX
8
L0D0_0
10
2.335
20
27.858
0
VERTEX
8
L0D0_0
10
2.263
20
28.319
0
VERTEX
8
L0D0_0
10
2.22
20
28.784
0
VERTEX
8
L0D0_0
10
2.205
20
29.25
0
VERTEX
8
L0D0_0
10
2.22
20
29.716
0
VERTEX
8
L0D0_0
10
2.263
20
30.181
0
VERTEX
8
L0D0_0
10
2.335
20
30.642
0
VERTEX
8
L0D0_0
10
2.435
20
31.097
0
VERTEX
8
L0D0_0
10
2.563
20
31.546
0
VERTEX
8
L0D0_0
10
2.719
20
31.986
0
VERTEX
8
L0D0_0
10
2.901
20
32.415
0
VERTEX
8
L0D0_0
10
3.11
20
32.832
0
VERTEX
8
L0D0_0
10
3.344
20
33.236
0
VERTEX
8
L0D0_0
10
3.602
20
33.624
0
VERTEX
8
L0D0_0
10
3.884
20
33.995
0
VERTEX
8
L0D0_0
10
4.037
20
34.172
0
VERTEX
8
L0D0_0
10
4.949
20
32.756
0
VERTEX
8
L0D0_0
10
4.977
20
32.712
0
VERTEX
8
L0D0_0
10
5.038
20
32.629
0
VERTEX
8
L0D0_0
10
5.106
20
32.55
0
VERTEX
8
L0D0_0
10
5.178
20
32.476
0
VERTEX
8
L0D0_0
10
5.255
20
32.407
0
VERTEX
8
L0D0_0
10
5.336
20
32.343
0
VERTEX
8
L0D0_0
10
5.422
20
32.284
0
VERTEX
8
L0D0_0
10
5.511
20
32.232
0
VERTEX
8
L0D0_0
10
5.604
20
32.186
0
VERTEX
8
L0D0_0
10
5.699
20
32.145
0
VERTEX
8
L0D0_0
10
5.797
20
32.112
0
VERTEX
8
L0D0_0
10
5.897
20
32.085
0
VERTEX
8
L0D0_0
10
5.948
20
32.075
0
VERTEX
8
L0D0_0
10
7.514
20
31.761
0
VERTEX
8
L0D0_0
10
7.514
20
26.739
0
VERTEX
8
L0D0_0
10
5.948
20
26.425
0
VERTEX
8
L0D0_0
10
5.897
20
26.415
0
VERTEX
8
L0D0_0
10
5.797
20
26.388
0
VERTEX
8
L0D0_0
10
5.699
20
26.355
0
VERTEX
8
L0D0_0
10
5.604
20
26.314
0
VERTEX
8
L0D0_0
10
5.511
20
26.268
0
VERTEX
8
L0D0_0
10
5.422
20
26.216
0
VERTEX
8
L0D0_0
10
5.336
20
26.157
0
VERTEX
8
L0D0_0
10
5.255
20
26.093
0
VERTEX
8
L0D0_0
10
5.178
20
26.024
0
VERTEX
8
L0D0_0
10
5.106
20
25.95
0
VERTEX
8
L0D0_0
10
5.038
20
25.871
0
VERTEX
8
L0D0_0
10
4.977
20
25.788
0
VERTEX
8
L0D0_0
10
4.949
20
25.744
0
SEQEND
0
POLYLINE
8
L0D0_0
70
1
40
0
41
0
66
1
0
VERTEX
8
L0D0_0
10
23.537
20
24.328
0
VERTEX
8
L0D0_0
10
23.384
20
24.505
0
VERTEX
8
L0D0_0
10
23.102
20
24.876
0
VERTEX
8
L0D0_0
10
22.844
20
25.264
0
VERTEX
8
L0D0_0
10
22.61
20
25.668
0
VERTEX
8
L0D0_0
10
22.401
20
26.085
0
VERTEX
8
L0D0_0
10
22.219
20
26.514
0
VERTEX
8
L0D0_0
10
22.063
20
26.954
0
VERTEX
8
L0D0_0
10
21.935
20
27.403
0
VERTEX
8
L0D0_0
10
21.835
20
27.858
0
VERTEX
8
L0D0_0
10
21.763
20
28.319
0
VERTEX
8
L0D0_0
10
21.72
20
28.784
0
VERTEX
8
L0D0_0
10
21.705
20
29.25
0
VERTEX
8
L0D0_0
10
21.72
20
29.716
0
VERTEX
8
L0D0_0
10
21.763
20
30.181
0
VERTEX
8
L0D0_0
10
21.835
20
30.642
0
VERTEX
8
L0D0_0
10
21.935
20
31.097
0
VERTEX
8
L0D0_0
10
22.063
20
31.546
0
VERTEX
8
L0D0_0
10
22.219
20
31.986
0
VERTEX
8
L0D0_0
10
22.401
20
32.415
0
VERTEX
8
L0D0_0
10
22.61
20
32.832
0
VERTEX
8
L0D0_0
10
22.844
20
33.236
0
VERTEX
8
L0D0_0
10
23.102
20
33.624
0
VERTEX
8
L0D0_0
10
23.384
20
33.995
0
VERTEX
8
L0D0_0
10
23.537
20
34.172
0
VERTEX
8
L0D0_0
10
24.449
20
32.756
0
VERTEX
8
L0D0_0
10
24.477
20
32.712
0
VERTEX
8
L0D0_0
10
24.538
20
32.629
0
VERTEX
8
L0D0_0
10
24.606
20
32.55
0
VERTEX
8
L0D0_0
10
24.678
20
32.476
0
VERTEX
8
L0D0_0
10
24.755
20
32.407
0
VERTEX
8
L0D0_0
10
24.836
20
32.343
0
VERTEX
8
L0D0_0
10
24.922
20
32.284
0
VERTEX
8
L0D0_0
10
25.011
20
32.232
0
VERTEX
8
L0D0_0
10
25.104
20
32.186
0
VERTEX
8
L0D0_0
10
25.199
20
32.145
0
VERTEX
8
L0D0_0
10
25.297
20
32.112
0
VERTEX
8
L0D0_0
10
25.397
20
32.085
0
VERTEX
8
L0D0_0
10
25.448
20
32.075
0
VERTEX
8
L0D0_0
10
27.014
20
31.761
0
VERTEX
8
L0D0_0
10
27.014
20
26.739
0
VERTEX
8
L0D0_0
10
25.448
20
26.425
0
VERTEX
8
L0D0_0
10
25.397
20
26.415
0
VERTEX
8
L0D0_0
10
25.297
20
26.388
0
VERTEX
8
L0D0_0
10
25.199
20
26.355
0
VERTEX
8
L0D0_0
10
25.104
20
26.314
0
VERTEX
8
L0D0_0
10
25.011
20
26.268
0
VERTEX
8
L0D0_0
10
24.922
20
26.216
0
VERTEX
8
L0D0_0
10
24.836
20
26.157
0
VERTEX
8
L0D0_0
10
24.755
20
26.093
0
VERTEX
8
L0D0_0
10
24.678
20
26.024
0
VERTEX
8
L0D0_0
10
24.606
20
25.95
0
VERTEX
8
L0D0_0
10
24.538
20
25.871
0
VERTEX
8
L0D0_0
10
24.477
20
25.788
0
VERTEX
8
L0D0_0
10
24.449
20
25.744
0
SEQEND
0
POLYLINE
8
L0D0_0
70
1
40
0
41
0
66
1
0
VERTEX
8
L0D0_0
10
-42.806
20
-33.891
0
VERTEX
8
L0D0_0
10
-43.068
20
-33.562
0
VERTEX
8
L0D0_0
10
-43.111
20
-33.508
0
VERTEX
8
L0D0_0
10
-43.204
20
-33.406
0
VERTEX
8
L0D0_0
10
-43.303
20
-33.31
0
VERTEX
8
L0D0_0
10
-43.408
20
-33.22
0
VERTEX
8
L0D0_0
10
-43.518
20
-33.137
0
VERTEX
8
L0D0_0
10
-43.633
20
-33.061
0
VERTEX
8
L0D0_0
10
-43.752
20
-32.992
0
VERTEX
8
L0D0_0
10
-43.876
20
-32.931
0
VERTEX
8
L0D0_0
10
-44.004
20
-32.878
0
VERTEX
8
L0D0_0
10
-44.134
20
-32.833
0
VERTEX
8
L0D0_0
10
-44.2
20
-32.814
0
VERTEX
8
L0D0_0
10
-47.847
20
-31.805
0
VERTEX
8
L0D0_0
10
-47.847
20
-26.695
0
VERTEX
8
L0D0_0
10
-44.2
20
-25.686
0
VERTEX
8
L0D0_0
10
-44.134
20
-25.667
0
VERTEX
8
L0D0_0
10
-44.004
20
-25.622
0
VERTEX
8
L0D0_0
10
-43.876
20
-25.569
0
VERTEX
8
L0D0_0
10
-43.752
20
-25.508
0
VERTEX
8
L0D0_0
10
-43.633
20
-25.439
0
VERTEX
8
L0D0_0
10
-43.518
20
-25.363
0
VERTEX
8
L0D0_0
10
-43.408
20
-25.28
0
VERTEX
8
L0D0_0
10
-43.303
20
-25.19
0
VERTEX
8
L0D0_0
10
-43.204
20
-25.094
0
VERTEX
8
L0D0_0
10
-43.111
20
-24.992
0
VERTEX
8
L0D0_0
10
-43.068
20
-24.938
0
VERTEX
8
L0D0_0
10
-42.806
20
-24.609
0
VERTEX
8
L0D0_0
10
-42.666
20
-24.788
0
VERTEX
8
L0D0_0
10
-42.409
20
-25.162
0
VERTEX
8
L0D0_0
10
-42.174
20
-25.552
0
VERTEX
8
L0D0_0
10
-41.963
20
-25.955
0
VERTEX
8
L0D0_0
10
-41.777
20
-26.369
0
VERTEX
8
L0D0_0
10
-41.616
20
-26.795
0
VERTEX
8
L0D0_0
10
-41.481
20
-27.229
0
VERTEX
8
L0D0_0
10
-41.373
20
-27.67
0
VERTEX
8
L0D0_0
10
-41.291
20
-28.118
0
VERTEX
8
L0D0_0
10
-41.236
20
-28.569
0
VERTEX
8
L0D0_0
10
-41.209
20
-29.023
0
VERTEX
8
L0D0_0
10
-41.209
20
-29.477
0
VERTEX
8
L0D0_0
10
-41.236
20
-29.931
0
VERTEX
8
L0D0_0
10
-41.291
20
-30.382
0
VERTEX
8
L0D0_0
10
-41.373
20
-30.83
0
VERTEX
8
L0D0_0
10
-41.481
20
-31.271
0
VERTEX
8
L0D0_0
10
-41.616
20
-31.705
0
VERTEX
8
L0D0_0
10
-41.777
20
-32.131
0
VERTEX
8
L0D0_0
10
-41.963
20
-32.545
0
VERTEX
8
L0D0_0
10
-42.174
20
-32.948
0
VERTEX
8
L0D0_0
10
-42.409
20
-33.338
0
VERTEX
8
L0D0_0
10
-42.666
20
-33.712
0
SEQEND
0
POLYLINE
8
L0D0_0
70
1
40
0
41
0
66
1
0
VERTEX
8
L0D0_0
10
-23.306
20
-33.891
0
VERTEX
8
L0D0_0
10
-23.568
20
-33.562
0
VERTEX
8
L0D0_0
10
-23.611
20
-33.508
0
VERTEX
8
L0D0_0
10
-23.704
20
-33.406
0
VERTEX
8
L0D0_0
10
-23.803
20
-33.31
0
VERTEX
8
L0D0_0
10
-23.908
20
-33.22
0
VERTEX
8
L0D0_0
10
-24.018
20
-33.137
0
VERTEX
8
L0D0_0
10
-24.133
20
-33.061
0
VERTEX
8
L0D0_0
10
-24.252
20
-32.992
0
VERTEX
8
L0D0_0
10
-24.376
20
-32.931
0
VERTEX
8
L0D0_0
10
-24.504
20
-32.878
0
VERTEX
8
L0D0_0
10
-24.634
20
-32.833
0
VERTEX
8
L0D0_0
10
-24.7
20
-32.814
0
VERTEX
8
L0D0_0
10
-28.347
20
-31.805
0
VERTEX
8
L0D0_0
10
-28.347
20
-26.695
0
VERTEX
8
L0D0_0
10
-24.7
20
-25.686
0
VERTEX
8
L0D0_0
10
-24.634
20
-25.667
0
VERTEX
8
L0D0_0
10
-24.504
20
-25.622
0
VERTEX
8
L0D0_0
10
-24.376
20
-25.569
0
VERTEX
8
L0D0_0
10
-24.252
20
-25.508
0
VERTEX
8
L0D0_0
10
-24.133
20
-25.439
0
VERTEX
8
L0D0_0
10
-24.018
20
-25.363
0
VERTEX
8
L0D0_0
10
-23.908
20
-25.28
0
VERTEX
8
L0D0_0
10
-23.803
20
-25.19
0
VERTEX
8
L0D0_0
10
-23.704
20
-25.094
0
VERTEX
8
L0D0_0
10
-23.611
20
-24.992
0
VERTEX
8
L0D0_0
10
-23.568
20
-24.938
0
VERTEX
8
L0D0_0
10
-23.306
20
-24.609
0
VERTEX
8
L0D0_0
10
-23.166
20
-24.788
0
VERTEX
8
L0D0_0
10
-22.909
20
-25.162
0
VERTEX
8
L0D0_0
10
-22.674
20
-25.552
0
VERTEX
8
L0D0_0
10
-22.463
20
-25.955
0
VERTEX
8
L0D0_0
10
-22.277
20
-26.369
0
VERTEX
8
L0D0_0
10
-22.116
20
-26.795
0
VERTEX
8
L0D0_0
10
-21.981
20
-27.229
0
VERTEX
8
L0D0_0
10
-21.873
20
-27.67
0
VERTEX
8
L0D0_0
10
-21.791
20
-28.118
0
VERTEX
8
L0D0_0
10
-21.736
20
-28.569
0
VERTEX
8
L0D0_0
10
-21.709
20
-29.023
0
VERTEX
8
L0D0_0
10
-21.709
20
-29.477
0
VERTEX
8
L0D0_0
10
-21.736
20
-29.931
0
VERTEX
8
L0D0_0
10
-21.791
20
-30.382
0
VERTEX
8
L0D0_0
10
-21.873
20
-30.83
0
VERTEX
8
L0D0_0
10
-21.981
20
-31.271
0
VERTEX
8
L0D0_0
10
-22.116
20
-31.705
0
VERTEX
8
L0D0_0
10
-22.277
20
-32.131
0
VERTEX
8
L0D0_0
10
-22.463
20
-32.545
0
VERTEX
8
L0D0_0
10
-22.674
20
-32.948
0
VERTEX
8
L0D0_0
10
-22.909
20
-33.338
0
VERTEX
8
L0D0_0
10
-23.166
20
-33.712
0
SEQEND
0
POLYLINE
8
L0D0_0
70
1
40
0
41
0
66
1
0
VERTEX
8
L0D0_0
10
-3.806
20
-33.891
0
VERTEX
8
L0D0_0
10
-4.068
20
-33.562
0
VERTEX
8
L0D0_0
10
-4.111
20
-33.508
0
VERTEX
8
L0D0_0
10
-4.204
20
-33.406
0
VERTEX
8
L0D0_0
10
-4.303
20
-33.31
0
VERTEX
8
L0D0_0
10
-4.408
20
-33.22
0
VERTEX
8
L0D0_0
10
-4.518
20
-33.137
0
VERTEX
8
L0D0_0
10
-4.633
20
-33.061
0
VERTEX
8
L0D0_0
10
-4.752
20
-32.992
0
VERTEX
8
L0D0_0
10
-4.876
20
-32.931
0
VERTEX
8
L0D0_0
10
-5.004
20
-32.878
0
VERTEX
8
L0D0_0
10
-5.134
20
-32.833
0
VERTEX
8
L0D0_0
10
-5.2
20
-32.814
0
VERTEX
8
L0D0_0
10
-8.847
20
-31.805
0
VERTEX
8
L0D0_0
10
-8.847
20
-26.695
0
VERTEX
8
L0D0_0
10
-5.2
20
-25.686
0
VERTEX
8
L0D0_0
10
-5.134
20
-25.667
0
VERTEX
8
L0D0_0
10
-5.004
20
-25.622
0
VERTEX
8
L0D0_0
10
-4.876
20
-25.569
0
VERTEX
8
L0D0_0
10
-4.752
20
-25.508
0
VERTEX
8
L0D0_0
10
-4.633
20
-25.439
0
VERTEX
8
L0D0_0
10
-4.518
20
-25.363
0
VERTEX
8
L0D0_0
10
-4.408
20
-25.28
0
VERTEX
8
L0D0_0
10
-4.303
20
-25.19
0
VERTEX
8
L0D0_0
10
-4.204
20
-25.094
0
VERTEX
8
L0D0_0
10
-4.111
20
-24.992
0
VERTEX
8
L0D0_0
10
-4.068
20
-24.938
0
VERTEX
8
L0D0_0
10
-3.806
20
-24.609
0
VERTEX
8
L0D0_0
10
-3.666
20
-24.788
0
VERTEX
8
L0D0_0
10
-3.409
20
-25.162
0
VERTEX
8
L0D0_0
10
-3.174
20
-25.552
0
VERTEX
8
L0D0_0
10
-2.963
20
-25.955
0
VERTEX
8
L0D0_0
10
-2.777
20
-26.369
0
VERTEX
8
L0D0_0
10
-2.616
20
-26.795
0
VERTEX
8
L0D0_0
10
-2.481
20
-27.229
0
VERTEX
8
L0D0_0
10
-2.373
20
-27.67
0
VERTEX
8
L0D0_0
10
-2.291
20
-28.118
0
VERTEX
8
L0D0_0
10
-2.236
20
-28.569
0
VERTEX
8
L0D0_0
10
-2.209
20
-29.023
0
VERTEX
8
L0D0_0
10
-2.209
20
-29.477
0
VERTEX
8
L0D0_0
10
-2.236
20
-29.931
0
VERTEX
8
L0D0_0
10
-2.291
20
-30.382
0
VERTEX
8
L0D0_0
10
-2.373
20
-30.83
0
VERTEX
8
L0D0_0
10
-2.481
20
-31.271
0
VERTEX
8
L0D0_0
10
-2.616
20
-31.705
0
VERTEX
8
L0D0_0
10
-2.777
20
-32.131
0
VERTEX
8
L0D0_0
10
-2.963
20
-32.545
0
VERTEX
8
L0D0_0
10
-3.174
20
-32.948
0
VERTEX
8
L0D0_0
10
-3.409
20
-33.338
0
VERTEX
8
L0D0_0
10
-3.666
20
-33.712
0
SEQEND
0
POLYLINE
8
L0D0_0
70
1
40
0
41
0
66
1
0
VERTEX
8
L0D0_0
10
15.694
20
-33.891
0
VERTEX
8
L0D0_0
10
15.432
20
-33.562
0
VERTEX
8
L0D0_0
10
15.389
20
-33.508
0
VERTEX
8
L0D0_0
10
15.296
20
-33.406
0
VERTEX
8
L0D0_0
10
15.197
20
-33.31
0
VERTEX
8
L0D0_0
10
15.092
20
-33.22
0
VERTEX
8
L0D0_0
10
14.982
20
-33.137
0
VERTEX
8
L0D0_0
10
14.867
20
-33.061
0
VERTEX
8
L0D0_0
10
14.748
20
-32.992
0
VERTEX
8
L0D0_0
10
14.624
20
-32.931
0
VERTEX
8
L0D0_0
10
14.496
20
-32.878
0
VERTEX
8
L0D0_0
10
14.366
20
-32.833
0
VERTEX
8
L0D0_0
10
14.3
20
-32.814
0
VERTEX
8
L0D0_0
10
10.653
20
-31.805
0
VERTEX
8
L0D0_0
10
10.653
20
-26.695
0
VERTEX
8
L0D0_0
10
14.3
20
-25.686
0
VERTEX
8
L0D0_0
10
14.366
20
-25.667
0
VERTEX
8
L0D0_0
10
14.496
20
-25.622
0
VERTEX
8
L0D0_0
10
14.624
20
-25.569
0
VERTEX
8
L0D0_0
10
14.748
20
-25.508
0
VERTEX
8
L0D0_0
10
14.867
20
-25.439
0
VERTEX
8
L0D0_0
10
14.982
20
-25.363
0
VERTEX
8
L0D0_0
10
15.092
20
-25.28
0
VERTEX
8
L0D0_0
10
15.197
20
-25.19
0
VERTEX
8
L0D0_0
10
15.296
20
-25.094
0
VERTEX
8
L0D0_0
10
15.389
20
-24.992
0
VERTEX
8
L0D0_0
10
15.432
20
-24.938
0
VERTEX
8
L0D0_0
10
15.694
20
-24.609
0
VERTEX
8
L0D0_0
10
15.834
20
-24.788
0
VERTEX
8
L0D0_0
10
16.091
20
-25.162
0
VERTEX
8
L0D0_0
10
16.326
20
-25.552
0
VERTEX
8
L0D0_0
10
16.537
20
-25.955
0
VERTEX
8
L0D0_0
10
16.723
20
-26.369
0
VERTEX
8
L0D0_0
10
16.884
20
-26.795
0
VERTEX
8
L0D0_0
10
17.019
20
-27.229
0
VERTEX
8
L0D0_0
10
17.127
20
-27.67
0
VERTEX
8
L0D0_0
10
17.209
20
-28.118
0
VERTEX
8
L0D0_0
10
17.264
20
-28.569
0
VERTEX
8
L0D0_0
10
17.291
20
-29.023
0
VERTEX
8
L0D0_0
10
17.291
20
-29.477
0
VERTEX
8
L0D0_0
10
17.264
20
-29.931
0
VERTEX
8
L0D0_0
10
17.209
20
-30.382
0
VERTEX
8
L0D0_0
10
17.127
20
-30.83
0
VERTEX
8
L0D0_0
10
17.019
20
-31.271
0
VERTEX
8
L0D0_0
10
16.884
20
-31.705
0
VERTEX
8
L0D0_0
10
16.723
20
-32.131
0
VERTEX
8
L0D0_0
10
16.537
20
-32.545
0
VERTEX
8
L0D0_0
10
16.326
20
-32.948
0
VERTEX
8
L0D0_0
10
16.091
20
-33.338
0
VERTEX
8
L0D0_0
10
15.834
20
-33.712
0
SEQEND
0
POLYLINE
8
L0D0_0
70
1
40
0
41
0
66
1
0
VERTEX
8
L0D0_0
10
35.194
20
-33.891
0
VERTEX
8
L0D0_0
10
34.932
20
-33.562
0
VERTEX
8
L0D0_0
10
34.889
20
-33.508
0
VERTEX
8
L0D0_0
10
34.796
20
-33.406
0
VERTEX
8
L0D0_0
10
34.697
20
-33.31
0
VERTEX
8
L0D0_0
10
34.592
20
-33.22
0
VERTEX
8
L0D0_0
10
34.482
20
-33.137
0
VERTEX
8
L0D0_0
10
34.367
20
-33.061
0
VERTEX
8
L0D0_0
10
34.248
20
-32.992
0
VERTEX
8
L0D0_0
10
34.124
20
-32.931
0
VERTEX
8
L0D0_0
10
33.996
20
-32.878
0
VERTEX
8
L0D0_0
10
33.866
20
-32.833
0
VERTEX
8
L0D0_0
10
33.8
20
-32.814
0
VERTEX
8
L0D0_0
10
30.153
20
-31.805
0
VERTEX
8
L0D0_0
10
30.153
20
-26.695
0
VERTEX
8
L0D0_0
10
33.8
20
-25.686
0
VERTEX
8
L0D0_0
10
33.866
20
-25.667
0
VERTEX
8
L0D0_0
10
33.996
20
-25.622
0
VERTEX
8
L0D0_0
10
34.124
20
-25.569
0
VERTEX
8
L0D0_0
10
34.248
20
-25.508
0
VERTEX
8
L0D0_0
10
34.367
20
-25.439
0
VERTEX
8
L0D0_0
10
34.482
20
-25.363
0
VERTEX
8
L0D0_0
10
34.592
20
-25.28
0
VERTEX
8
L0D0_0
10
34.697
20
-25.19
0
VERTEX
8
L0D0_0
10
34.796
20
-25.094
0
VERTEX
8
L0D0_0
10
34.889
20
-24.992
0
VERTEX
8
L0D0_0
10
34.932
20
-24.938
0
VERTEX
8
L0D0_0
10
35.194
20
-24.609
0
VERTEX
8
L0D0_0
10
35.334
20
-24.788
0
VERTEX
8
L0D0_0
10
35.591
20
-25.162
0
VERTEX
8
L0D0_0
10
35.826
20
-25.552
0
VERTEX
8
L0D0_0
10
36.037
20
-25.955
0
VERTEX
8
L0D0_0
10
36.223
20
-26.369
0
VERTEX
8
L0D0_0
10
36.384
20
-26.795
0
VERTEX
8
L0D0_0
10
36.519
20
-27.229
0
VERTEX
8
L0D0_0
10
36.627
20
-27.67
0
VERTEX
8
L0D0_0
10
36.709
20
-28.118
0
VERTEX
8
L0D0_0
10
36.764
20
-28.569
0
VERTEX
8
L0D0_0
10
36.791
20
-29.023
0
VERTEX
8
L0D0_0
10
36.791
20
-29.477
0
VERTEX
8
L0D0_0
10
36.764
20
-29.931
0
VERTEX
8
L0D0_0
10
36.709
20
-30.382
0
VERTEX
8
L0D0_0
10
36.627
20
-30.83
0
VERTEX
8
L0D0_0
10
36.519
20
-31.271
0
VERTEX
8
L0D0_0
10
36.384
20
-31.705
0
VERTEX
8
L0D0_0
10
36.223
20
-32.131
0
VERTEX
8
L0D0_0
10
36.037
20
-32.545
0
VERTEX
8
L0D0_0
10
35.826
20
-32.948
0
VERTEX
8
L0D0_0
10
35.591
20
-33.338
0
VERTEX
8
L0D0_0
10
35.334
20
-33.712
0
SEQEND
0
POLYLINE
8
L0D0_0
70
1
40
0
41
0
66
1
0
VERTEX
8
L0D0_0
10
54.694
20
-33.891
0
VERTEX
8
L0D0_0
10
54.432
20
-33.562
0
VERTEX
8
L0D0_0
10
54.389
20
-33.508
0
VERTEX
8
L0D0_0
10
54.296
20
-33.406
0
VERTEX
8
L0D0_0
10
54.197
20
-33.31
0
VERTEX
8
L0D0_0
10
54.092
20
-33.22
0
VERTEX
8
L0D0_0
10
53.982
20
-33.137
0
VERTEX
8
L0D0_0
10
53.867
20
-33.061
0
VERTEX
8
L0D0_0
10
53.748
20
-32.992
0
VERTEX
8
L0D0_0
10
53.624
20
-32.931
0
VERTEX
8
L0D0_0
10
53.496
20
-32.878
0
VERTEX
8
L0D0_0
10
53.366
20
-32.833
0
VERTEX
8
L0D0_0
10
53.3
20
-32.814
0
VERTEX
8
L0D0_0
10
49.653
20
-31.805
0
VERTEX
8
L0D0_0
10
49.653
20
-26.695
0
VERTEX
8
L0D0_0
10
53.3
20
-25.686
0
VERTEX
8
L0D0_0
10
53.366
20
-25.667
0
VERTEX
8
L0D0_0
10
53.496
20
-25.622
0
VERTEX
8
L0D0_0
10
53.624
20
-25.569
0
VERTEX
8
L0D0_0
10
53.748
20
-25.508
0
VERTEX
8
L0D0_0
10
53.867
20
-25.439
0
VERTEX
8
L0D0_0
10
53.982
20
-25.363
0
VERTEX
8
L0D0_0
10
54.092
20
-25.28
0
VERTEX
8
L0D0_0
10
54.197
20
-25.19
0
VERTEX
8
L0D0_0
10
54.296
20
-25.094
0
VERTEX
8
L0D0_0
10
54.389
20
-24.992
0
VERTEX
8
L0D0_0
10
54.432
20
-24.938
0
VERTEX
8
L0D0_0
10
54.694
20
-24.609
0
VERTEX
8
L0D0_0
10
54.834
20
-24.788
0
VERTEX
8
L0D0_0
10
55.091
20
-25.162
0
VERTEX
8
L0D0_0
10
55.326
20
-25.552
0
VERTEX
8
L0D0_0
10
55.537
20
-25.955
0
VERTEX
8
L0D0_0
10
55.723
20
-26.369
0
VERTEX
8
L0D0_0
10
55.884
20
-26.795
0
VERTEX
8
L0D0_0
10
56.019
20
-27.229
0
VERTEX
8
L0D0_0
10
56.127
20
-27.67
0
VERTEX
8
L0D0_0
10
56.209
20
-28.118
0
VERTEX
8
L0D0_0
10
56.264
20
-28.569
0
VERTEX
8
L0D0_0
10
56.291
20
-29.023
0
VERTEX
8
L0D0_0
10
56.291
20
-29.477
0
VERTEX
8
L0D0_0
10
56.264
20
-29.931
0
VERTEX
8
L0D0_0
10
56.209
20
-30.382
0
VERTEX
8
L0D0_0
10
56.127
20
-30.83
0
VERTEX
8
L0D0_0
10
56.019
20
-31.271
0
VERTEX
8
L0D0_0
10
55.884
20
-31.705
0
VERTEX
8
L0D0_0
10
55.723
20
-32.131
0
VERTEX
8
L0D0_0
10
55.537
20
-32.545
0
VERTEX
8
L0D0_0
10
55.326
20
-32.948
0
VERTEX
8
L0D0_0
10
55.091
20
-33.338
0
VERTEX
8
L0D0_0
10
54.834
20
-33.712
0
SEQEND
0
POLYLINE
8
L0D0_0
70
1
40
0
41
0
66
1
0
VERTEX
8
L0D0_0
10
-42.806
20
-14.391
0
VERTEX
8
L0D0_0
10
-43.068
20
-14.062
0
VERTEX
8
L0D0_0
10
-43.111
20
-14.008
0
VERTEX
8
L0D0_0
10
-43.204
20
-13.906
0
VERTEX
8
L0D0_0
10
-43.303
20
-13.81
0
VERTEX
8
L0D0_0
10
-43.408
20
-13.72
0
VERTEX
8
L0D0_0
10
-43.518
20
-13.637
0
VERTEX
8
L0D0_0
10
-43.633
20
-13.561
0
VERTEX
8
L0D0_0
10
-43.752
20
-13.492
0
VERTEX
8
L0D0_0
10
-43.876
20
-13.431
0
VERTEX
8
L0D0_0
10
-44.004
20
-13.378
0
VERTEX
8
L0D0_0
10
-44.134
20
-13.333
0
VERTEX
8
L0D0_0
10
-44.2
20
-13.314
0
VERTEX
8
L0D0_0
10
-47.847
20
-12.305
0
VERTEX
8
L0D0_0
10
-47.847
20
-7.195
0
VERTEX
8
L0D0_0
10
-44.2
20
-6.186
0
VERTEX
8
L0D0_0
10
-44.134
20
-6.167
0
VERTEX
8
L0D0_0
10
-44.004
20
-6.122
0
VERTEX
8
L0D0_0
10
-43.876
20
-6.069
0
VERTEX
8
L0D0_0
10
-43.752
20
-6.008
0
VERTEX
8
L0D0_0
10
-43.633
20
-5.939
0
VERTEX
8
L0D0_0
10
-43.518
20
-5.863
0
VERTEX
8
L0D0_0
10
-43.408
20
-5.78
0
VERTEX
8
L0D0_0
10
-43.303
20
-5.69
0
VERTEX
8
L0D0_0
10
-43.204
20
-5.594
0
VERTEX
8
L0D0_0
10
-43.111
20
-5.492
0
VERTEX
8
L0D0_0
10
-43.068
20
-5.438
0
VERTEX
8
L0D0_0
10
-42.806
20
-5.109
0
VERTEX
8
L0D0_0
10
-42.666
20
-5.288
0
VERTEX
8
L0D0_0
10
-42.409
20
-5.662
0
VERTEX
8
L0D0_0
10
-42.174
20
-6.052
0
VERTEX
8
L0D0_0
10
-41.963
20
-6.455
0
VERTEX
8
L0D0_0
10
-41.777
20
-6.869
0
VERTEX
8
L0D0_0
10
-41.616
20
-7.295
0
VERTEX
8
L0D0_0
10
-41.481
20
-7.729
0
VERTEX
8
L0D0_0
10
-41.373
20
-8.17
0
VERTEX
8
L0D0_0
10
-41.291
20
-8.618
0
VERTEX
8
L0D0_0
10
-41.236
20
-9.069
0
VERTEX
8
L0D0_0
10
-41.209
20
-9.523
0
VERTEX
8
L0D0_0
10
-41.209
20
-9.977
0
VERTEX
8
L0D0_0
10
-41.236
20
-10.431
0
VERTEX
8
L0D0_0
10
-41.291
20
-10.882
0
VERTEX
8
L0D0_0
10
-41.373
20
-11.33
0
VERTEX
8
L0D0_0
10
-41.481
20
-11.771
0
VERTEX
8
L0D0_0
10
-41.616
20
-12.205
0
VERTEX
8
L0D0_0
10
-41.777
20
-12.631
0
VERTEX
8
L0D0_0
10
-41.963
20
-13.045
0
VERTEX
8
L0D0_0
10
-42.174
20
-13.448
0
VERTEX
8
L0D0_0
10
-42.409
20
-13.838
0
VERTEX
8
L0D0_0
10
-42.666
20
-14.212
0
SEQEND
0
POLYLINE
8
L0D0_0
70
1
40
0
41
0
66
1
0
VERTEX
8
L0D0_0
10
-23.306
20
-14.391
0
VERTEX
8
L0D0_0
10
-23.568
20
-14.062
0
VERTEX
8
L0D0_0
10
-23.611
20
-14.008
0
VERTEX
8
L0D0_0
10
-23.704
20
-13.906
0
VERTEX
8
L0D0_0
10
-23.803
20
-13.81
0
VERTEX
8
L0D0_0
10
-23.908
20
-13.72
0
VERTEX
8
L0D0_0
10
-24.018
20
-13.637
0
VERTEX
8
L0D0_0
10
-24.133
20
-13.561
0
VERTEX
8
L0D0_0
10
-24.252
20
-13.492
0
VERTEX
8
L0D0_0
10
-24.376
20
-13.431
0
VERTEX
8
L0D0_0
10
-24.504
20
-13.378
0
VERTEX
8
L0D0_0
10
-24.634
20
-13.333
0
VERTEX
8
L0D0_0
10
-24.7
20
-13.314
0
VERTEX
8
L0D0_0
10
-28.347
20
-12.305
0
VERTEX
8
L0D0_0
10
-28.347
20
-7.195
0
VERTEX
8
L0D0_0
10
-24.7
20
-6.186
0
VERTEX
8
L0D0_0
10
-24.634
20
-6.167
0
VERTEX
8
L0D0_0
10
-24.504
20
-6.122
0
VERTEX
8
L0D0_0
10
-24.376
20
-6.069
0
VERTEX
8
L0D0_0
10
-24.252
20
-6.008
0
VERTEX
8
L0D0_0
10
-24.133
20
-5.939
0
VERTEX
8
L0D0_0
10
-24.018
20
-5.863
0
VERTEX
8
L0D0_0
10
-23.908
20
-5.78
0
VERTEX
8
L0D0_0
10
-23.803
20
-5.69
0
VERTEX
8
L0D0_0
10
-23.704
20
-5.594
0
VERTEX
8
L0D0_0
10
-23.611
20
-5.492
0
VERTEX
8
L0D0_0
10
-23.568
20
-5.438
0
VERTEX
8
L0D0_0
10
-23.306
20
-5.109
0
VERTEX
8
L0D0_0
10
-23.166
20
-5.288
0
VERTEX
8
L0D0_0
10
-22.909
20
-5.662
0
VERTEX
8
L0D0_0
10
-22.674
20
-6.052
0
VERTEX
8
L0D0_0
10
-22.463
20
-6.455
0
VERTEX
8
L0D0_0
10
-22.277
20
-6.869
0
VERTEX
8
L0D0_0
10
-22.116
20
-7.295
0
VERTEX
8
L0D0_0
10
-21.981
20
-7.729
0
VERTEX
8
L0D0_0
10
-21.873
20
-8.17
0
VERTEX
8
L0D0_0
10
-21.791
20
-8.618
0
VERTEX
8
L0D0_0
10
-21.736
20
-9.069
0
VERTEX
8
L0D0_0
10
-21.709
20
-9.523
0
VERTEX
8
L0D0_0
10
-21.709
20
-9.977
0
VERTEX
8
L0D0_0
10
-21.736
20
-10.431
0
VERTEX
8
L0D0_0
10
-21.791
20
-10.882
0
VERTEX
8
L0D0_0
10
-21.873
20
-11.33
0
VERTEX
8
L0D0_0
10
-21.981
20
-11.771
0
VERTEX
8
L0D0_0
10
-22.116
20
-12.205
0
VERTEX
8
L0D0_0
10
-22.277
20
-12.631
0
VERTEX
8
L0D0_0
10
-22.463
20
-13.045
0
VERTEX
8
L0D0_0
10
-22.674
20
-13.448
0
VERTEX
8
L0D0_0
10
-22.909
20
-13.838
0
VERTEX
8
L0D0_0
10
-23.166
20
-14.212
0
SEQEND
0
POLYLINE
8
L0D0_0
70
1
40
0
41
0
66
1
0
VERTEX
8
L0D0_0
10
-3.806
20
-14.391
0
VERTEX
8
L0D0_0
10
-4.068
20
-14.062
0
VERTEX
8
L0D0_0
10
-4.111
20
-14.008
0
VERTEX
8
L0D0_0
10
-4.204
20
-13.906
0
VERTEX
8
L0D0_0
10
-4.303
20
-13.81
0
VERTEX
8
L0D0_0
10
-4.408
20
-13.72
0
VERTEX
8
L0D0_0
10
-4.518
20
-13.637
0
VERTEX
8
L0D0_0
10
-4.633
20
-13.561
0
VERTEX
8
L0D0_0
10
-4.752
20
-13.492
0
VERTEX
8
L0D0_0
10
-4.876
20
-13.431
0
VERTEX
8
L0D0_0
10
-5.004
20
-13.378
0
VERTEX
8
L0D0_0
10
-5.134
20
-13.333
0
VERTEX
8
L0D0_0
10
-5.2
20
-13.314
0
VERTEX
8
L0D0_0
10
-8.847
20
-12.305
0
VERTEX
8
L0D0_0
10
-8.847
20
-7.195
0
VERTEX
8
L0D0_0
10
-5.2
20
-6.186
0
VERTEX
8
L0D0_0
10
-5.134
20
-6.167
0
VERTEX
8
L0D0_0
10
-5.004
20
-6.122
0
VERTEX
8
L0D0_0
10
-4.876
20
-6.069
0
VERTEX
8
L0D0_0
10
-4.752
20
-6.008
0
VERTEX
8
L0D0_0
10
-4.633
20
-5.939
0
VERTEX
8
L0D0_0
10
-4.518
20
-5.863
0
VERTEX
8
L0D0_0
10
-4.408
20
-5.78
0
VERTEX
8
L0D0_0
10
-4.303
20
-5.69
0
VERTEX
8
L0D0_0
10
-4.204
20
-5.594
0
VERTEX
8
L0D0_0
10
-4.111
20
-5.492
0
VERTEX
8
L0D0_0
10
-4.068
20
-5.438
0
VERTEX
8
L0D0_0
10
-3.806
20
-5.109
0
VERTEX
8
L0D0_0
10
-3.666
20
-5.288
0
VERTEX
8
L0D0_0
10
-3.409
20
-5.662
0
VERTEX
8
L0D0_0
10
-3.174
20
-6.052
0
VERTEX
8
L0D0_0
10
-2.963
20
-6.455
0
VERTEX
8
L0D0_0
10
-2.777
20
-6.869
0
VERTEX
8
L0D0_0
10
-2.616
20
-7.295
0
VERTEX
8
L0D0_0
10
-2.481
20
-7.729
0
VERTEX
8
L0D0_0
10
-2.373
20
-8.17
0
VERTEX
8
L0D0_0
10
-2.291
20
-8.618
0
VERTEX
8
L0D0_0
10
-2.236
20
-9.069
0
VERTEX
8
L0D0_0
10
-2.209
20
-9.523
0
VERTEX
8
L0D0_0
10
-2.209
20
-9.977
0
VERTEX
8
L0D0_0
10
-2.236
20
-10.431
0
VERTEX
8
L0D0_0
10
-2.291
20
-10.882
0
VERTEX
8
L0D0_0
10
-2.373
20
-11.33
0
VERTEX
8
L0D0_0
10
-2.481
20
-11.771
0
VERTEX
8
L0D0_0
10
-2.616
20
-12.205
0
VERTEX
8
L0D0_0
10
-2.777
20
-12.631
0
VERTEX
8
L0D0_0
10
-2.963
20
-13.045
0
VERTEX
8
L0D0_0
10
-3.174
20
-13.448
0
VERTEX
8
L0D0_0
10
-3.409
20
-13.838
0
VERTEX
8
L0D0_0
10
-3.666
20
-14.212
0
SEQEND
0
POLYLINE
8
L0D0_0
70
1
40
0
41
0
66
1
0
VERTEX
8
L0D0_0
10
15.694
20
-14.391
0
VERTEX
8
L0D0_0
10
15.432
20
-14.062
0
VERTEX
8
L0D0_0
10
15.389
20
-14.008
0
VERTEX
8
L0D0_0
10
15.296
20
-13.906
0
VERTEX
8
L0D0_0
10
15.197
20
-13.81
0
VERTEX
8
L0D0_0
10
15.092
20
-13.72
0
VERTEX
8
L0D0_0
10
14.982
20
-13.637
0
VERTEX
8
L0D0_0
10
14.867
20
-13.561
0
VERTEX
8
L0D0_0
10
14.748
20
-13.492
0
VERTEX
8
L0D0_0
10
14.624
20
-13.431
0
VERTEX
8
L0D0_0
10
14.496
20
-13.378
0
VERTEX
8
L0D0_0
10
14.366
20
-13.333
0
VERTEX
8
L0D0_0
10
14.3
20
-13.314
0
VERTEX
8
L0D0_0
10
10.653
20
-12.305
0
VERTEX
8
L0D0_0
10
10.653
20
-7.195
0
VERTEX
8
L0D0_0
10
14.3
20
-6.186
0
VERTEX
8
L0D0_0
10
14.366
20
-6.167
0
VERTEX
8
L0D0_0
10
14.496
20
-6.122
0
VERTEX
8
L0D0_0
10
14.624
20
-6.069
0
VERTEX
8
L0D0_0
10
14.748
20
-6.008
0
VERTEX
8
L0D0_0
10
14.867
20
-5.939
0
VERTEX
8
L0D0_0
10
14.982
20
-5.863
0
VERTEX
8
L0D0_0
10
15.092
20
-5.78
0
VERTEX
8
L0D0_0
10
15.197
20
-5.69
0
VERTEX
8
L0D0_0
10
15.296
20
-5.594
0
VERTEX
8
L0D0_0
10
15.389
20
-5.492
0
VERTEX
8
L0D0_0
10
15.432
20
-5.438
0
VERTEX
8
L0D0_0
10
15.694
20
-5.109
0
VERTEX
8
L0D0_0
10
15.834
20
-5.288
0
VERTEX
8
L0D0_0
10
16.091
20
-5.662
0
VERTEX
8
L0D0_0
10
16.326
20
-6.052
0
VERTEX
8
L0D0_0
10
16.537
20
-6.455
0
VERTEX
8
L0D0_0
10
16.723
20
-6.869
0
VERTEX
8
L0D0_0
10
16.884
20
-7.295
0
VERTEX
8
L0D0_0
10
17.019
20
-7.729
0
VERTEX
8
L0D0_0
10
17.127
20
-8.17
0
VERTEX
8
L0D0_0
10
17.209
20
-8.618
0
VERTEX
8
L0D0_0
10
17.264
20
-9.069
0
VERTEX
8
L0D0_0
10
17.291
20
-9.523
0
VERTEX
8
L0D0_0
10
17.291
20
-9.977
0
VERTEX
8
L0D0_0
10
17.264
20
-10.431
0
VERTEX
8
L0D0_0
10
17.209
20
-10.882
0
VERTEX
8
L0D0_0
10
17.127
20
-11.33
0
VERTEX
8
L0D0_0
10
17.019
20
-11.771
0
VERTEX
8
L0D0_0
10
16.884
20
-12.205
0
VERTEX
8
L0D0_0
10
16.723
20
-12.631
0
VERTEX
8
L0D0_0
10
16.537
20
-13.045
0
VERTEX
8
L0D0_0
10
16.326
20
-13.448
0
VERTEX
8
L0D0_0
10
16.091
20
-13.838
0
VERTEX
8
L0D0_0
10
15.834
20
-14.212
0
SEQEND
0
POLYLINE
8
L0D0_0
70
1
40
0
41
0
66
1
0
VERTEX
8
L0D0_0
10
35.194
20
-14.391
0
VERTEX
8
L0D0_0
10
34.932
20
-14.062
0
VERTEX
8
L0D0_0
10
34.889
20
-14.008
0
VERTEX
8
L0D0_0
10
34.796
20
-13.906
0
VERTEX
8
L0D0_0
10
34.697
20
-13.81
0
VERTEX
8
L0D0_0
10
34.592
20
-13.72
0
VERTEX
8
L0D0_0
10
34.482
20
-13.637
0
VERTEX
8
L0D0_0
10
34.367
20
-13.561
0
VERTEX
8
L0D0_0
10
34.248
20
-13.492
0
VERTEX
8
L0D0_0
10
34.124
20
-13.431
0
VERTEX
8
L0D0_0
10
33.996
20
-13.378
0
VERTEX
8
L0D0_0
10
33.866
20
-13.333
0
VERTEX
8
L0D0_0
10
33.8
20
-13.314
0
VERTEX
8
L0D0_0
10
30.153
20
-12.305
0
VERTEX
8
L0D0_0
10
30.153
20
-7.195
0
VERTEX
8
L0D0_0
10
33.8
20
-6.186
0
VERTEX
8
L0D0_0
10
33.866
20
-6.167
0
VERTEX
8
L0D0_0
10
33.996
20
-6.122
0
VERTEX
8
L0D0_0
10
34.124
20
-6.069
0
VERTEX
8
L0D0_0
10
34.248
20
-6.008
0
VERTEX
8
L0D0_0
10
34.367
20
-5.939
0
VERTEX
8
L0D0_0
10
34.482
20
-5.863
0
VERTEX
8
L0D0_0
10
34.592
20
-5.78
0
VERTEX
8
L0D0_0
10
34.697
20
-5.69
0
VERTEX
8
L0D0_0
10
34.796
20
-5.594
0
VERTEX
8
L0D0_0
10
34.889
20
-5.492
0
VERTEX
8
L0D0_0
10
34.932
20
-5.438
0
VERTEX
8
L0D0_0
10
35.194
20
-5.109
0
VERTEX
8
L0D0_0
10
35.334
20
-5.288
0
VERTEX
8
L0D0_0
10
35.591
20
-5.662
0
VERTEX
8
L0D0_0
10
35.826
20
-6.052
0
VERTEX
8
L0D0_0
10
36.037
20
-6.455
0
VERTEX
8
L0D0_0
10
36.223
20
-6.869
0
VERTEX
8
L0D0_0
10
36.384
20
-7.295
0
VERTEX
8
L0D0_0
10
36.519
20
-7.729
0
VERTEX
8
L0D0_0
10
36.627
20
-8.17
0
VERTEX
8
L0D0_0
10
36.709
20
-8.618
0
VERTEX
8
L0D0_0
10
36.764
20
-9.069
0
VERTEX
8
L0D0_0
10
36.791
20
-9.523
0
VERTEX
8
L0D0_0
10
36.791
20
-9.977
0
VERTEX
8
L0D0_0
10
36.764
20
-10.431
0
VERTEX
8
L0D0_0
10
36.709
20
-10.882
0
VERTEX
8
L0D0_0
10
36.627
20
-11.33
0
VERTEX
8
L0D0_0
10
36.519
20
-11.771
0
VERTEX
8
L0D0_0
10
36.384
20
-12.205
0
VERTEX
8
L0D0_0
10
36.223
20
-12.631
0
VERTEX
8
L0D0_0
10
36.037
20
-13.045
0
VERTEX
8
L0D0_0
10
35.826
20
-13.448
0
VERTEX
8
L0D0_0
10
35.591
20
-13.838
0
VERTEX
8
L0D0_0
10
35.334
20
-14.212
0
SEQEND
0
POLYLINE
8
L0D0_0
70
1
40
0
41
0
66
1
0
VERTEX
8
L0D0_0
10
54.694
20
-14.391
0
VERTEX
8
L0D0_0
10
54.432
20
-14.062
0
VERTEX
8
L0D0_0
10
54.389
20
-14.008
0
VERTEX
8
L0D0_0
10
54.296
20
-13.906
0
VERTEX
8
L0D0_0
10
54.197
20
-13.81
0
VERTEX
8
L0D0_0
10
54.092
20
-13.72
0
VERTEX
8
L0D0_0
10
53.982
20
-13.637
0
VERTEX
8
L0D0_0
10
53.867
20
-13.561
0
VERTEX
8
L0D0_0
10
53.748
20
-13.492
0
VERTEX
8
L0D0_0
10
53.624
20
-13.431
0
VERTEX
8
L0D0_0
10
53.496
20
-13.378
0
VERTEX
8
L0D0_0
10
53.366
20
-13.333
0
VERTEX
8
L0D0_0
10
53.3
20
-13.314
0
VERTEX
8
L0D0_0
10
49.653
20
-12.305
0
VERTEX
8
L0D0_0
10
49.653
20
-7.195
0
VERTEX
8
L0D0_0
10
53.3
20
-6.186
0
VERTEX
8
L0D0_0
10
53.366
20
-6.167
0
VERTEX
8
L0D0_0
10
53.496
20
-6.122
0
VERTEX
8
L0D0_0
10
53.624
20
-6.069
0
VERTEX
8
L0D0_0
10
53.748
20
-6.008
0
VERTEX
8
L0D0_0
10
53.867
20
-5.939
0
VERTEX
8
L0D0_0
10
53.982
20
-5.863
0
VERTEX
8
L0D0_0
10
54.092
20
-5.78
0
VERTEX
8
L0D0_0
10
54.197
20
-5.69
0
VERTEX
8
L0D0_0
10
54.296
20
-5.594
0
VERTEX
8
L0D0_0
10
54.389
20
-5.492
0
VERTEX
8
L0D0_0
10
54.432
20
-5.438
0
VERTEX
8
L0D0_0
10
54.694
20
-5.109
0
VERTEX
8
L0D0_0
10
54.834
20
-5.288
0
VERTEX
8
L0D0_0
10
55.091
20
-5.662
0
VERTEX
8
L0D0_0
10
55.326
20
-6.052
0
VERTEX
8
L0D0_0
10
55.537
20
-6.455
0
VERTEX
8
L0D0_0
10
55.723
20
-6.869
0
VERTEX
8
L0D0_0
10
55.884
20
-7.295
0
VERTEX
8
L0D0_0
10
56.019
20
-7.729
0
VERTEX
8
L0D0_0
10
56.127
20
-8.17
0
VERTEX
8
L0D0_0
10
56.209
20
-8.618
0
VERTEX
8
L0D0_0
10
56.264
20
-9.069
0
VERTEX
8
L0D0_0
10
56.291
20
-9.523
0
VERTEX
8
L0D0_0
10
56.291
20
-9.977
0
VERTEX
8
L0D0_0
10
56.264
20
-10.431
0
VERTEX
8
L0D0_0
10
56.209
20
-10.882
0
VERTEX
8
L0D0_0
10
56.127
20
-11.33
0
VERTEX
8
L0D0_0
10
56.019
20
-11.771
0
VERTEX
8
L0D0_0
10
55.884
20
-12.205
0
VERTEX
8
L0D0_0
10
55.723
20
-12.631
0
VERTEX
8
L0D0_0
10
55.537
20
-13.045
0
VERTEX
8
L0D0_0
10
55.326
20
-13.448
0
VERTEX
8
L0D0_0
10
55.091
20
-13.838
0
VERTEX
8
L0D0_0
10
54.834
20
-14.212
0
SEQEND
0
POLYLINE
8
L0D0_0
70
1
40
0
41
0
66
1
0
VERTEX
8
L0D0_0
10
-42.806
20
5.109
0
VERTEX
8
L0D0_0
10
-43.068
20
5.438
0
VERTEX
8
L0D0_0
10
-43.111
20
5.492
0
VERTEX
8
L0D0_0
10
-43.204
20
5.594
0
VERTEX
8
L0D0_0
10
-43.303
20
5.69
0
VERTEX
8
L0D0_0
10
-43.408
20
5.78
0
VERTEX
8
L0D0_0
10
-43.518
20
5.863
0
VERTEX
8
L0D0_0
10
-43.633
20
5.939
0
VERTEX
8
L0D0_0
10
-43.752
20
6.008
0
VERTEX
8
L0D0_0
10
-43.876
20
6.069
0
VERTEX
8
L0D0_0
10
-44.004
20
6.122
0
VERTEX
8
L0D0_0
10
-44.134
20
6.167
0
VERTEX
8
L0D0_0
10
-44.2
20
6.186
0
VERTEX
8
L0D0_0
10
-47.847
20
7.195
0
VERTEX
8
L0D0_0
10
-47.847
20
12.305
0
VERTEX
8
L0D0_0
10
-44.2
20
13.314
0
VERTEX
8
L0D0_0
10
-44.134
20
13.333
0
VERTEX
8
L0D0_0
10
-44.004
20
13.378
0
VERTEX
8
L0D0_0
10
-43.876
20
13.431
0
VERTEX
8
L0D0_0
10
-43.752
20
13.492
0
VERTEX
8
L0D0_0
10
-43.633
20
13.561
0
VERTEX
8
L0D0_0
10
-43.518
20
13.637
0
VERTEX
8
L0D0_0
10
-43.408
20
13.72
0
VERTEX
8
L0D0_0
10
-43.303
20
13.81
0
VERTEX
8
L0D0_0
10
-43.204
20
13.906
0
VERTEX
8
L0D0_0
10
-43.111
20
14.008
0
VERTEX
8
L0D0_0
10
-43.068
20
14.062
0
VERTEX
8
L0D0_0
10
-42.806
20
14.391
0
VERTEX
8
L0D0_0
10
-42.666
20
14.212
0
VERTEX
8
L0D0_0
10
-42.409
20
13.838
0
VERTEX
8
L0D0_0
10
-42.174
20
13.448
0
VERTEX
8
L0D0_0
10
-41.963
20
13.045
0
VERTEX
8
L0D0_0
10
-41.777
20
12.631
0
VERTEX
8
L0D0_0
10
-41.616
20
12.205
0
VERTEX
8
L0D0_0
10
-41.481
20
11.771
0
VERTEX
8
L0D0_0
10
-41.373
20
11.33
0
VERTEX
8
L0D0_0
10
-41.291
20
10.882
0
VERTEX
8
L0D0_0
10
-41.236
20
10.431
0
VERTEX
8
L0D0_0
10
-41.209
20
9.977
0
VERTEX
8
L0D0_0
10
-41.209
20
9.523
0
VERTEX
8
L0D0_0
10
-41.236
20
9.069
0
VERTEX
8
L0D0_0
10
-41.291
20
8.618
0
VERTEX
8
L0D0_0
10
-41.373
20
8.17
0
VERTEX
8
L0D0_0
10
-41.481
20
7.729
0
VERTEX
8
L0D0_0
10
-41.616
20
7.295
0
VERTEX
8
L0D0_0
10
-41.777
20
6.869
0
VERTEX
8
L0D0_0
10
-41.963
20
6.455
0
VERTEX
8
L0D0_0
10
-42.174
20
6.052
0
VERTEX
8
L0D0_0
10
-42.409
20
5.662
0
VERTEX
8
L0D0_0
10
-42.666
20
5.288
0
SEQEND
0
POLYLINE
8
L0D0_0
70
1
40
0
41
0
66
1
0
VERTEX
8
L0D0_0
10
-23.306
20
5.109
0
VERTEX
8
L0D0_0
10
-23.568
20
5.438
0
VERTEX
8
L0D0_0
10
-23.611
20
5.492
0
VERTEX
8
L0D0_0
10
-23.704
20
5.594
0
VERTEX
8
L0D0_0
10
-23.803
20
5.69
0
VERTEX
8
L0D0_0
10
-23.908
20
5.78
0
VERTEX
8
L0D0_0
10
-24.018
20
5.863
0
VERTEX
8
L0D0_0
10
-24.133
20
5.939
0
VERTEX
8
L0D0_0
10
-24.252
20
6.008
0
VERTEX
8
L0D0_0
10
-24.376
20
6.069
0
VERTEX
8
L0D0_0
10
-24.504
20
6.122
0
VERTEX
8
L0D0_0
10
-24.634
20
6.167
0
VERTEX
8
L0D0_0
10
-24.7
20
6.186
0
VERTEX
8
L0D0_0
10
-28.347
20
7.195
0
VERTEX
8
L0D0_0
10
-28.347
20
12.305
0
VERTEX
8
L0D0_0
10
-24.7
20
13.314
0
VERTEX
8
L0D0_0
10
-24.634
20
13.333
0
VERTEX
8
L0D0_0
10
-24.504
20
13.378
0
VERTEX
8
L0D0_0
10
-24.376
20
13.431
0
VERTEX
8
L0D0_0
10
-24.252
20
13.492
0
VERTEX
8
L0D0_0
10
-24.133
20
13.561
0
VERTEX
8
L0D0_0
10
-24.018
20
13.637
0
VERTEX
8
L0D0_0
10
-23.908
20
13.72
0
VERTEX
8
L0D0_0
10
-23.803
20
13.81
0
VERTEX
8
L0D0_0
10
-23.704
20
13.906
0
VERTEX
8
L0D0_0
10
-23.611
20
14.008
0
VERTEX
8
L0D0_0
10
-23.568
20
14.062
0
VERTEX
8
L0D0_0
10
-23.306
20
14.391
0
VERTEX
8
L0D0_0
10
-23.166
20
14.212
0
VERTEX
8
L0D0_0
10
-22.909
20
13.838
0
VERTEX
8
L0D0_0
10
-22.674
20
13.448
0
VERTEX
8
L0D0_0
10
-22.463
20
13.045
0
VERTEX
8
L0D0_0
10
-22.277
20
12.631
0
VERTEX
8
L0D0_0
10
-22.116
20
12.205
0
VERTEX
8
L0D0_0
10
-21.981
20
11.771
0
VERTEX
8
L0D0_0
10
-21.873
20
11.33
0
VERTEX
8
L0D0_0
10
-21.791
20
10.882
0
VERTEX
8
L0D0_0
10
-21.736
20
10.431
0
VERTEX
8
L0D0_0
10
-21.709
20
9.977
0
VERTEX
8
L0D0_0
10
-21.709
20
9.523
0
VERTEX
8
L0D0_0
10
-21.736
20
9.069
0
VERTEX
8
L0D0_0
10
-21.791
20
8.618
0
VERTEX
8
L0D0_0
10
-21.873
20
8.17
0
VERTEX
8
L0D0_0
10
-21.981
20
7.729
0
VERTEX
8
L0D0_0
10
-22.116
20
7.295
0
VERTEX
8
L0D0_0
10
-22.277
20
6.869
0
VERTEX
8
L0D0_0
10
-22.463
20
6.455
0
VERTEX
8
L0D0_0
10
-22.674
20
6.052
0
VERTEX
8
L0D0_0
10
-22.909
20
5.662
0
VERTEX
8
L0D0_0
10
-23.166
20
5.288
0
SEQEND
0
POLYLINE
8
L0D0_0
70
1
40
0
41
0
66
1
0
VERTEX
8
L0D0_0
10
-3.806
20
5.109
0
VERTEX
8
L0D0_0
10
-4.068
20
5.438
0
VERTEX
8
L0D0_0
10
-4.111
20
5.492
0
VERTEX
8
L0D0_0
10
-4.204
20
5.594
0
VERTEX
8
L0D0_0
10
-4.303
20
5.69
0
VERTEX
8
L0D0_0
10
-4.408
20
5.78
0
VERTEX
8
L0D0_0
10
-4.518
20
5.863
0
VERTEX
8
L0D0_0
10
-4.633
20
5.939
0
VERTEX
8
L0D0_0
10
-4.752
20
6.008
0
VERTEX
8
L0D0_0
10
-4.876
20
6.069
0
VERTEX
8
L0D0_0
10
-5.004
20
6.122
0
VERTEX
8
L0D0_0
10
-5.134
20
6.167
0
VERTEX
8
L0D0_0
10
-5.2
20
6.186
0
VERTEX
8
L0D0_0
10
-8.847
20
7.195
0
VERTEX
8
L0D0_0
10
-8.847
20
12.305
0
VERTEX
8
L0D0_0
10
-5.2
20
13.314
0
VERTEX
8
L0D0_0
10
-5.134
20
13.333
0
VERTEX
8
L0D0_0
10
-5.004
20
13.378
0
VERTEX
8
L0D0_0
10
-4.876
20
13.431
0
VERTEX
8
L0D0_0
10
-4.752
20
13.492
0
VERTEX
8
L0D0_0
10
-4.633
20
13.561
0
VERTEX
8
L0D0_0
10
-4.518
20
13.637
0
VERTEX
8
L0D0_0
10
-4.408
20
13.72
0
VERTEX
8
L0D0_0
10
-4.303
20
13.81
0
VERTEX
8
L0D0_0
10
-4.204
20
13.906
0
VERTEX
8
L0D0_0
10
-4.111
20
14.008
0
VERTEX
8
L0D0_0
10
-4.068
20
14.062
0
VERTEX
8
L0D0_0
10
-3.806
20
14.391
0
VERTEX
8
L0D0_0
10
-3.666
20
14.212
0
VERTEX
8
L0D0_0
10
-3.409
20
13.838
0
VERTEX
8
L0D0_0
10
-3.174
20
13.448
0
VERTEX
8
L0D0_0
10
-2.963
20
13.045
0
VERTEX
8
L0D0_0
10
-2.777
20
12.631
0
VERTEX
8
L0D0_0
10
-2.616
20
12.205
0
VERTEX
8
L0D0_0
10
-2.481
20
11.771
0
VERTEX
8
L0D0_0
10
-2.373
20
11.33
0
VERTEX
8
L0D0_0
10
-2.291
20
10.882
0
VERTEX
8
L0D0_0
10
-2.236
20
10.431
0
VERTEX
8
L0D0_0
10
-2.209
20
9.977
0
VERTEX
8
L0D0_0
10
-2.209
20
9.523
0
VERTEX
8
L0D0_0
10
-2.236
20
9.069
0
VERTEX
8
L0D0_0
10
-2.291
20
8.618
0
VERTEX
8
L0D0_0
10
-2.373
20
8.17
0
VERTEX
8
L0D0_0
10
-2.481
20
7.729
0
VERTEX
8
L0D0_0
10
-2.616
20
7.295
0
VERTEX
8
L0D0_0
10
-2.777
20
6.869
0
VERTEX
8
L0D0_0
10
-2.963
20
6.455
0
VERTEX
8
L0D0_0
10
-3.174
20
6.052
0
VERTEX
8
L0D0_0
10
-3.409
20
5.662
0
VERTEX
8
L0D0_0
10
-3.666
20
5.288
0
SEQEND
0
POLYLINE
8
L0D0_0
70
1
40
0
41
0
66
1
0
VERTEX
8
L0D0_0
10
15.694
20
5.109
0
VERTEX
8
L0D0_0
10
15.432
20
5.438
0
VERTEX
8
L0D0_0
10
15.389
20
5.492
0
VERTEX
8
L0D0_0
10
15.296
20
5.594
0
VERTEX
8
L0D0_0
10
15.197
20
5.69
0
VERTEX
8
L0D0_0
10
15.092
20
5.78
0
VERTEX
8
L0D0_0
10
14.982
20
5.863
0
VERTEX
8
L0D0_0
10
14.867
20
5.939
0
VERTEX
8
L0D0_0
10
14.748
20
6.008
0
VERTEX
8
L0D0_0
10
14.624
20
6.069
0
VERTEX
8
L0D0_0
10
14.496
20
6.122
0
VERTEX
8
L0D0_0
10
14.366
20
6.167
0
VERTEX
8
L0D0_0
10
14.3
20
6.186
0
VERTEX
8
L0D0_0
10
10.653
20
7.195
0
VERTEX
8
L0D0_0
10
10.653
20
12.305
0
VERTEX
8
L0D0_0
10
14.3
20
13.314
0
VERTEX
8
L0D0_0
10
14.366
20
13.333
0
VERTEX
8
L0D0_0
10
14.496
20
13.378
0
VERTEX
8
L0D0_0
10
14.624
20
13.431
0
VERTEX
8
L0D0_0
10
14.748
20
13.492
0
VERTEX
8
L0D0_0
10
14.867
20
13.561
0
VERTEX
8
L0D0_0
10
14.982
20
13.637
0
VERTEX
8
L0D0_0
10
15.092
20
13.72
0
VERTEX
8
L0D0_0
10
15.197
20
13.81
0
VERTEX
8
L0D0_0
10
15.296
20
13.906
0
VERTEX
8
L0D0_0
10
15.389
20
14.008
0
VERTEX
8
L0D0_0
10
15.432
20
14.062
0
VERTEX
8
L0D0_0
10
15.694
20
14.391
0
VERTEX
8
L0D0_0
10
15.834
20
14.212
0
VERTEX
8
L0D0_0
10
16.091
20
13.838
0
VERTEX
8
L0D0_0
10
16.326
20
13.448
0
VERTEX
8
L0D0_0
10
16.537
20
13.045
0
VERTEX
8
L0D0_0
10
16.723
20
12.631
0
VERTEX
8
L0D0_0
10
16.884
20
12.205
0
VERTEX
8
L0D0_0
10
17.019
20
11.771
0
VERTEX
8
L0D0_0
10
17.127
20
11.33
0
VERTEX
8
L0D0_0
10
17.209
20
10.882
0
VERTEX
8
L0D0_0
10
17.264
20
10.431
0
VERTEX
8
L0D0_0
10
17.291
20
9.977
0
VERTEX
8
L0D0_0
10
17.291
20
9.523
0
VERTEX
8
L0D0_0
10
17.264
20
9.069
0
VERTEX
8
L0D0_0
10
17.209
20
8.618
0
VERTEX
8
L0D0_0
10
17.127
20
8.17
0
VERTEX
8
L0D0_0
10
17.019
20
7.729
0
VERTEX
8
L0D0_0
10
16.884
20
7.295
0
VERTEX
8
L0D0_0
10
16.723
20
6.869
0
VERTEX
8
L0D0_0
10
16.537
20
6.455
0
VERTEX
8
L0D0_0
10
16.326
20
6.052
0
VERTEX
8
L0D0_0
10
16.091
20
5.662
0
VERTEX
8
L0D0_0
10
15.834
20
5.288
0
SEQEND
0
POLYLINE
8
L0D0_0
70
1
40
0
41
0
66
1
0
VERTEX
8
L0D0_0
10
35.194
20
5.109
0
VERTEX
8
L0D0_0
10
34.932
20
5.438
0
VERTEX
8
L0D0_0
10
34.889
20
5.492
0
VERTEX
8
L0D0_0
10
34.796
20
5.594
0
VERTEX
8
L0D0_0
10
34.697
20
5.69
0
VERTEX
8
L0D0_0
10
34.592
20
5.78
0
VERTEX
8
L0D0_0
10
34.482
20
5.863
0
VERTEX
8
L0D0_0
10
34.367
20
5.939
0
VERTEX
8
L0D0_0
10
34.248
20
6.008
0
VERTEX
8
L0D0_0
10
34.124
20
6.069
0
VERTEX
8
L0D0_0
10
33.996
20
6.122
0
VERTEX
8
L0D0_0
10
33.866
20
6.167
0
VERTEX
8
L0D0_0
10
33.8
20
6.186
0
VERTEX
8
L0D0_0
10
30.153
20
7.195
0
VERTEX
8
L0D0_0
10
30.153
20
12.305
0
VERTEX
8
L0D0_0
10
33.8
20
13.314
0
VERTEX
8
L0D0_0
10
33.866
20
13.333
0
VERTEX
8
L0D0_0
10
33.996
20
13.378
0
VERTEX
8
L0D0_0
10
34.124
20
13.431
0
VERTEX
8
L0D0_0
10
34.248
20
13.492
0
VERTEX
8
L0D0_0
10
34.367
20
13.561
0
VERTEX
8
L0D0_0
10
34.482
20
13.637
0
VERTEX
8
L0D0_0
10
34.592
20
13.72
0
VERTEX
8
L0D0_0
10
34.697
20
13.81
0
VERTEX
8
L0D0_0
10
34.796
20
13.906
0
VERTEX
8
L0D0_0
10
34.889
20
14.008
0
VERTEX
8
L0D0_0
10
34.932
20
14.062
0
VERTEX
8
L0D0_0
10
35.194
20
14.391
0
VERTEX
8
L0D0_0
10
35.334
20
14.212
0
VERTEX
8
L0D0_0
10
35.591
20
13.838
0
VERTEX
8
L0D0_0
10
35.826
20
13.448
0
VERTEX
8
L0D0_0
10
36.037
20
13.045
0
VERTEX
8
L0D0_0
10
36.223
20
12.631
0
VERTEX
8
L0D0_0
10
36.384
20
12.205
0
VERTEX
8
L0D0_0
10
36.519
20
11.771
0
VERTEX
8
L0D0_0
10
36.627
20
11.33
0
VERTEX
8
L0D0_0
10
36.709
20
10.882
0
VERTEX
8
L0D0_0
10
36.764
20
10.431
0
VERTEX
8
L0D0_0
10
36.791
20
9.977
0
VERTEX
8
L0D0_0
10
36.791
20
9.523
0
VERTEX
8
L0D0_0
10
36.764
20
9.069
0
VERTEX
8
L0D0_0
10
36.709
20
8.618
0
VERTEX
8
L0D0_0
10
36.627
20
8.17
0
VERTEX
8
L0D0_0
10
36.519
20
7.729
0
VERTEX
8
L0D0_0
10
36.384
20
7.295
0
VERTEX
8
L0D0_0
10
36.223
20
6.869
0
VERTEX
8
L0D0_0
10
36.037
20
6.455
0
VERTEX
8
L0D0_0
10
35.826
20
6.052
0
VERTEX
8
L0D0_0
10
35.591
20
5.662
0
VERTEX
8
L0D0_0
10
35.334
20
5.288
0
SEQEND
0
POLYLINE
8
L0D0_0
70
1
40
0
41
0
66
1
0
VERTEX
8
L0D0_0
10
54.694
20
5.109
0
VERTEX
8
L0D0_0
10
54.432
20
5.438
0
VERTEX
8
L0D0_0
10
54.389
20
5.492
0
VERTEX
8
L0D0_0
10
54.296
20
5.594
0
VERTEX
8
L0D0_0
10
54.197
20
5.69
0
VERTEX
8
L0D0_0
10
54.092
20
5.78
0
VERTEX
8
L0D0_0
10
53.982
20
5.863
0
VERTEX
8
L0D0_0
10
53.867
20
5.939
0
VERTEX
8
L0D0_0
10
53.748
20
6.008
0
VERTEX
8
L0D0_0
10
53.624
20
6.069
0
VERTEX
8
L0D0_0
10
53.496
20
6.122
0
VERTEX
8
L0D0_0
10
53.366
20
6.167
0
VERTEX
8
L0D0_0
10
53.3
20
6.186
0
VERTEX
8
L0D0_0
10
49.653
20
7.195
0
VERTEX
8
L0D0_0
10
49.653
20
12.305
0
VERTEX
8
L0D0_0
10
53.3
20
13.314
0
VERTEX
8
L0D0_0
10
53.366
20
13.333
0
VERTEX
8
L0D0_0
10
53.496
20
13.378
0
VERTEX
8
L0D0_0
10
53.624
20
13.431
0
VERTEX
8
L0D0_0
10
53.748
20
13.492
0
VERTEX
8
L0D0_0
10
53.867
20
13.561
0
VERTEX
8
L0D0_0
10
53.982
20
13.637
0
VERTEX
8
L0D0_0
10
54.092
20
13.72
0
VERTEX
8
L0D0_0
10
54.197
20
13.81
0
VERTEX
8
L0D0_0
10
54.296
20
13.906
0
VERTEX
8
L0D0_0
10
54.389
20
14.008
0
VERTEX
8
L0D0_0
10
54.432
20
14.062
0
VERTEX
8
L0D0_0
10
54.694
20
14.391
0
VERTEX
8
L0D0_0
10
54.834
20
14.212
0
VERTEX
8
L0D0_0
10
55.091
20
13.838
0
VERTEX
8
L0D0_0
10
55.326
20
13.448
0
VERTEX
8
L0D0_0
10
55.537
20
13.045
0
VERTEX
8
L0D0_0
10
55.723
20
12.631
0
VERTEX
8
L0D0_0
10
55.884
20
12.205
0
VERTEX
8
L0D0_0
10
56.019
20
11.771
0
VERTEX
8
L0D0_0
10
56.127
20
11.33
0
VERTEX
8
L0D0_0
10
56.209
20
10.882
0
VERTEX
8
L0D0_0
10
56.264
20
10.431
0
VERTEX
8
L0D0_0
10
56.291
20
9.977
0
VERTEX
8
L0D0_0
10
56.291
20
9.523
0
VERTEX
8
L0D0_0
10
56.264
20
9.069
0
VERTEX
8
L0D0_0
10
56.209
20
8.618
0
VERTEX
8
L0D0_0
10
56.127
20
8.17
0
VERTEX
8
L0D0_0
10
56.019
20
7.729
0
VERTEX
8
L0D0_0
10
55.884
20
7.295
0
VERTEX
8
L0D0_0
10
55.723
20
6.869
0
VERTEX
8
L0D0_0
10
55.537
20
6.455
0
VERTEX
8
L0D0_0
10
55.326
20
6.052
0
VERTEX
8
L0D0_0
10
55.091
20
5.662
0
VERTEX
8
L0D0_0
10
54.834
20
5.288
0
SEQEND
0
POLYLINE
8
L0D0_0
70
1
40
0
41
0
66
1
0
VERTEX
8
L0D0_0
10
-42.806
20
24.609
0
VERTEX
8
L0D0_0
10
-43.068
20
24.938
0
VERTEX
8
L0D0_0
10
-43.111
20
24.992
0
VERTEX
8
L0D0_0
10
-43.204
20
25.094
0
VERTEX
8
L0D0_0
10
-43.303
20
25.19
0
VERTEX
8
L0D0_0
10
-43.408
20
25.28
0
VERTEX
8
L0D0_0
10
-43.518
20
25.363
0
VERTEX
8
L0D0_0
10
-43.633
20
25.439
0
VERTEX
8
L0D0_0
10
-43.752
20
25.508
0
VERTEX
8
L0D0_0
10
-43.876
20
25.569
0
VERTEX
8
L0D0_0
10
-44.004
20
25.622
0
VERTEX
8
L0D0_0
10
-44.134
20
25.667
0
VERTEX
8
L0D0_0
10
-44.2
20
25.686
0
VERTEX
8
L0D0_0
10
-47.847
20
26.695
0
VERTEX
8
L0D0_0
10
-47.847
20
31.805
0
VERTEX
8
L0D0_0
10
-44.2
20
32.814
0
VERTEX
8
L0D0_0
10
-44.134
20
32.833
0
VERTEX
8
L0D0_0
10
-44.004
20
32.878
0
VERTEX
8
L0D0_0
10
-43.876
20
32.931
0
VERTEX
8
L0D0_0
10
-43.752
20
32.992
0
VERTEX
8
L0D0_0
10
-43.633
20
33.061
0
VERTEX
8
L0D0_0
10
-43.518
20
33.137
0
VERTEX
8
L0D0_0
10
-43.408
20
33.22
0
VERTEX
8
L0D0_0
10
-43.303
20
33.31
0
VERTEX
8
L0D0_0
10
-43.204
20
33.406
0
VERTEX
8
L0D0_0
10
-43.111
20
33.508
0
VERTEX
8
L0D0_0
10
-43.068
20
33.562
0
VERTEX
8
L0D0_0
10
-42.806
20
33.891
0
VERTEX
8
L0D0_0
10
-42.666
20
33.712
0
VERTEX
8
L0D0_0
10
-42.409
20
33.338
0
VERTEX
8
L0D0_0
10
-42.174
20
32.948
0
VERTEX
8
L0D0_0
10
-41.963
20
32.545
0
VERTEX
8
L0D0_0
10
-41.777
20
32.131
0
VERTEX
8
L0D0_0
10
-41.616
20
31.705
0
VERTEX
8
L0D0_0
10
-41.481
20
31.271
0
VERTEX
8
L0D0_0
10
-41.373
20
30.83
0
VERTEX
8
L0D0_0
10
-41.291
20
30.382
0
VERTEX
8
L0D0_0
10
-41.236
20
29.931
0
VERTEX
8
L0D0_0
10
-41.209
20
29.477
0
VERTEX
8
L0D0_0
10
-41.209
20
29.023
0
VERTEX
8
L0D0_0
10
-41.236
20
28.569
0
VERTEX
8
L0D0_0
10
-41.291
20
28.118
0
VERTEX
8
L0D0_0
10
-41.373
20
27.67
0
VERTEX
8
L0D0_0
10
-41.481
20
27.229
0
VERTEX
8
L0D0_0
10
-41.616
20
26.795
0
VERTEX
8
L0D0_0
10
-41.777
20
26.369
0
VERTEX
8
L0D0_0
10
-41.963
20
25.955
0
VERTEX
8
L0D0_0
10
-42.174
20
25.552
0
VERTEX
8
L0D0_0
10
-42.409
20
25.162
0
VERTEX
8
L0D0_0
10
-42.666
20
24.788
0
SEQEND
0
POLYLINE
8
L0D0_0
70
1
40
0
41
0
66
1
0
VERTEX
8
L0D0_0
10
-23.306
20
24.609
0
VERTEX
8
L0D0_0
10
-23.568
20
24.938
0
VERTEX
8
L0D0_0
10
-23.611
20
24.992
0
VERTEX
8
L0D0_0
10
-23.704
20
25.094
0
VERTEX
8
L0D0_0
10
-23.803
20
25.19
0
VERTEX
8
L0D0_0
10
-23.908
20
25.28
0
VERTEX
8
L0D0_0
10
-24.018
20
25.363
0
VERTEX
8
L0D0_0
10
-24.133
20
25.439
0
VERTEX
8
L0D0_0
10
-24.252
20
25.508
0
VERTEX
8
L0D0_0
10
-24.376
20
25.569
0
VERTEX
8
L0D0_0
10
-24.504
20
25.622
0
VERTEX
8
L0D0_0
10
-24.634
20
25.667
0
VERTEX
8
L0D0_0
10
-24.7
20
25.686
0
VERTEX
8
L0D0_0
10
-28.347
20
26.695
0
VERTEX
8
L0D0_0
10
-28.347
20
31.805
0
VERTEX
8
L0D0_0
10
-24.7
20
32.814
0
VERTEX
8
L0D0_0
10
-24.634
20
32.833
0
VERTEX
8
L0D0_0
10
-24.504
20
32.878
0
VERTEX
8
L0D0_0
10
-24.376
20
32.931
0
VERTEX
8
L0D0_0
10
-24.252
20
32.992
0
VERTEX
8
L0D0_0
10
-24.133
20
33.061
0
VERTEX
8
L0D0_0
10
-24.018
20
33.137
0
VERTEX
8
L0D0_0
10
-23.908
20
33.22
0
VERTEX
8
L0D0_0
10
-23.803
20
33.31
0
VERTEX
8
L0D0_0
10
-23.704
20
33.406
0
VERTEX
8
L0D0_0
10
-23.611
20
33.508
0
VERTEX
8
L0D0_0
10
-23.568
20
33.562
0
VERTEX
8
L0D0_0
10
-23.306
20
33.891
0
VERTEX
8
L0D0_0
10
-23.166
20
33.712
0
VERTEX
8
L0D0_0
10
-22.909
20
33.338
0
VERTEX
8
L0D0_0
10
-22.674
20
32.948
0
VERTEX
8
L0D0_0
10
-22.463
20
32.545
0
VERTEX
8
L0D0_0
10
-22.277
20
32.131
0
VERTEX
8
L0D0_0
10
-22.116
20
31.705
0
VERTEX
8
L0D0_0
10
-21.981
20
31.271
0
VERTEX
8
L0D0_0
10
-21.873
20
30.83
0
VERTEX
8
L0D0_0
10
-21.791
20
30.382
0
VERTEX
8
L0D0_0
10
-21.736
20
29.931
0
VERTEX
8
L0D0_0
10
-21.709
20
29.477
0
VERTEX
8
L0D0_0
10
-21.709
20
29.023
0
VERTEX
8
L0D0_0
10
-21.736
20
28.569
0
VERTEX
8
L0D0_0
10
-21.791
20
28.118
0
VERTEX
8
L0D0_0
10
-21.873
20
27.67
0
VERTEX
8
L0D0_0
10
-21.981
20
27.229
0
VERTEX
8
L0D0_0
10
-22.116
20
26.795
0
VERTEX
8
L0D0_0
10
-22.277
20
26.369
0
VERTEX
8
L0D0_0
10
-22.463
20
25.955
0
VERTEX
8
L0D0_0
10
-22.674
20
25.552
0
VERTEX
8
L0D0_0
10
-22.909
20
25.162
0
VERTEX
8
L0D0_0
10
-23.166
20
24.788
0
SEQEND
0
POLYLINE
8
L0D0_0
70
1
40
0
41
0
66
1
0
VERTEX
8
L0D0_0
10
-3.806
20
24.609
0
VERTEX
8
L0D0_0
10
-4.068
20
24.938
0
VERTEX
8
L0D0_0
10
-4.111
20
24.992
0
VERTEX
8
L0D0_0
10
-4.204
20
25.094
0
VERTEX
8
L0D0_0
10
-4.303
20
25.19
0
VERTEX
8
L0D0_0
10
-4.408
20
25.28
0
VERTEX
8
L0D0_0
10
-4.518
20
25.363
0
VERTEX
8
L0D0_0
10
-4.633
20
25.439
0
VERTEX
8
L0D0_0
10
-4.752
20
25.508
0
VERTEX
8
L0D0_0
10
-4.876
20
25.569
0
VERTEX
8
L0D0_0
10
-5.004
20
25.622
0
VERTEX
8
L0D0_0
10
-5.134
20
25.667
0
VERTEX
8
L0D0_0
10
-5.2
20
25.686
0
VERTEX
8
L0D0_0
10
-8.847
20
26.695
0
VERTEX
8
L0D0_0
10
-8.847
20
31.805
0
VERTEX
8
L0D0_0
10
-5.2
20
32.814
0
VERTEX
8
L0D0_0
10
-5.134
20
32.833
0
VERTEX
8
L0D0_0
10
-5.004
20
32.878
0
VERTEX
8
L0D0_0
10
-4.876
20
32.931
0
VERTEX
8
L0D0_0
10
-4.752
20
32.992
0
VERTEX
8
L0D0_0
10
-4.633
20
33.061
0
VERTEX
8
L0D0_0
10
-4.518
20
33.137
0
VERTEX
8
L0D0_0
10
-4.408
20
33.22
0
VERTEX
8
L0D0_0
10
-4.303
20
33.31
0
VERTEX
8
L0D0_0
10
-4.204
20
33.406
0
VERTEX
8
L0D0_0
10
-4.111
20
33.508
0
VERTEX
8
L0D0_0
10
-4.068
20
33.562
0
VERTEX
8
L0D0_0
10
-3.806
20
33.891
0
VERTEX
8
L0D0_0
10
-3.666
20
33.712
0
VERTEX
8
L0D0_0
10
-3.409
20
33.338
0
VERTEX
8
L0D0_0
10
-3.174
20
32.948
0
VERTEX
8
L0D0_0
10
-2.963
20
32.545
0
VERTEX
8
L0D0_0
10
-2.777
20
32.131
0
VERTEX
8
L0D0_0
10
-2.616
20
31.705
0
VERTEX
8
L0D0_0
10
-2.481
20
31.271
0
VERTEX
8
L0D0_0
10
-2.373
20
30.83
0
VERTEX
8
L0D0_0
10
-2.291
20
30.382
0
VERTEX
8
L0D0_0
10
-2.236
20
29.931
0
VERTEX
8
L0D0_0
10
-2.209
20
29.477
0
VERTEX
8
L0D0_0
10
-2.209
20
29.023
0
VERTEX
8
L0D0_0
10
-2.236
20
28.569
0
VERTEX
8
L0D0_0
10
-2.291
20
28.118
0
VERTEX
8
L0D0_0
10
-2.373
20
27.67
0
VERTEX
8
L0D0_0
10
-2.481
20
27.229
0
VERTEX
8
L0D0_0
10
-2.616
20
26.795
0
VERTEX
8
L0D0_0
10
-2.777
20
26.369
0
VERTEX
8
L0D0_0
10
-2.963
20
25.955
0
VERTEX
8
L0D0_0
10
-3.174
20
25.552
0
VERTEX
8
L0D0_0
10
-3.409
20
25.162
0
VERTEX
8
L0D0_0
10
-3.666
20
24.788
0
SEQEND
0
POLYLINE
8
L0D0_0
70
1
40
0
41
0
66
1
0
VERTEX
8
L0D0_0
10
15.694
20
24.609
0
VERTEX
8
L0D0_0
10
15.432
20
24.938
0
VERTEX
8
L0D0_0
10
15.389
20
24.992
0
VERTEX
8
L0D0_0
10
15.296
20
25.094
0
VERTEX
8
L0D0_0
10
15.197
20
25.19
0
VERTEX
8
L0D0_0
10
15.092
20
25.28
0
VERTEX
8
L0D0_0
10
14.982
20
25.363
0
VERTEX
8
L0D0_0
10
14.867
20
25.439
0
VERTEX
8
L0D0_0
10
14.748
20
25.508
0
VERTEX
8
L0D0_0
10
14.624
20
25.569
0
VERTEX
8
L0D0_0
10
14.496
20
25.622
0
VERTEX
8
L0D0_0
10
14.366
20
25.667
0
VERTEX
8
L0D0_0
10
14.3
20
25.686
0
VERTEX
8
L0D0_0
10
10.653
20
26.695
0
VERTEX
8
L0D0_0
10
10.653
20
31.805
0
VERTEX
8
L0D0_0
10
14.3
20
32.814
0
VERTEX
8
L0D0_0
10
14.366
20
32.833
0
VERTEX
8
L0D0_0
10
14.496
20
32.878
0
VERTEX
8
L0D0_0
10
14.624
20
32.931
0
VERTEX
8
L0D0_0
10
14.748
20
32.992
0
VERTEX
8
L0D0_0
10
14.867
20
33.061
0
VERTEX
8
L0D0_0
10
14.982
20
33.137
0
VERTEX
8
L0D0_0
10
15.092
20
33.22
0
VERTEX
8
L0D0_0
10
15.197
20
33.31
0
VERTEX
8
L0D0_0
10
15.296
20
33.406
0
VERTEX
8
L0D0_0
10
15.389
20
33.508
0
VERTEX
8
L0D0_0
10
15.432
20
33.562
0
VERTEX
8
L0D0_0
10
15.694
20
33.891
0
VERTEX
8
L0D0_0
10
15.834
20
33.712
0
VERTEX
8
L0D0_0
10
16.091
20
33.338
0
VERTEX
8
L0D0_0
10
16.326
20
32.948
0
VERTEX
8
L0D0_0
10
16.537
20
32.545
0
VERTEX
8
L0D0_0
10
16.723
20
32.131
0
VERTEX
8
L0D0_0
10
16.884
20
31.705
0
VERTEX
8
L0D0_0
10
17.019
20
31.271
0
VERTEX
8
L0D0_0
10
17.127
20
30.83
0
VERTEX
8
L0D0_0
10
17.209
20
30.382
0
VERTEX
8
L0D0_0
10
17.264
20
29.931
0
VERTEX
8
L0D0_0
10
17.291
20
29.477
0
VERTEX
8
L0D0_0
10
17.291
20
29.023
0
VERTEX
8
L0D0_0
10
17.264
20
28.569
0
VERTEX
8
L0D0_0
10
17.209
20
28.118
0
VERTEX
8
L0D0_0
10
17.127
20
27.67
0
VERTEX
8
L0D0_0
10
17.019
20
27.229
0
VERTEX
8
L0D0_0
10
16.884
20
26.795
0
VERTEX
8
L0D0_0
10
16.723
20
26.369
0
VERTEX
8
L0D0_0
10
16.537
20
25.955
0
VERTEX
8
L0D0_0
10
16.326
20
25.552
0
VERTEX
8
L0D0_0
10
16.091
20
25.162
0
VERTEX
8
L0D0_0
10
15.834
20
24.788
0
SEQEND
0
POLYLINE
8
L0D0_0
70
1
40
0
41
0
66
1
0
VERTEX
8
L0D0_0
10
35.194
20
24.609
0
VERTEX
8
L0D0_0
10
34.932
20
24.938
0
VERTEX
8
L0D0_0
10
34.889
20
24.992
0
VERTEX
8
L0D0_0
10
34.796
20
25.094
0
VERTEX
8
L0D0_0
10
34.697
20
25.19
0
VERTEX
8
L0D0_0
10
34.592
20
25.28
0
VERTEX
8
L0D0_0
10
34.482
20
25.363
0
VERTEX
8
L0D0_0
10
34.367
20
25.439
0
VERTEX
8
L0D0_0
10
34.248
20
25.508
0
VERTEX
8
L0D0_0
10
34.124
20
25.569
0
VERTEX
8
L0D0_0
10
33.996
20
25.622
0
VERTEX
8
L0D0_0
10
33.866
20
25.667
0
VERTEX
8
L0D0_0
10
33.8
20
25.686
0
VERTEX
8
L0D0_0
10
30.153
20
26.695
0
VERTEX
8
L0D0_0
10
30.153
20
31.805
0
VERTEX
8
L0D0_0
10
33.8
20
32.814
0
VERTEX
8
L0D0_0
10
33.866
20
32.833
0
VERTEX
8
L0D0_0
10
33.996
20
32.878
0
VERTEX
8
L0D0_0
10
34.124
20
32.931
0
VERTEX
8
L0D0_0
10
34.248
20
32.992
0
VERTEX
8
L0D0_0
10
34.367
20
33.061
0
VERTEX
8
L0D0_0
10
34.482
20
33.137
0
VERTEX
8
L0D0_0
10
34.592
20
33.22
0
VERTEX
8
L0D0_0
10
34.697
20
33.31
0
VERTEX
8
L0D0_0
10
34.796
20
33.406
0
VERTEX
8
L0D0_0
10
34.889
20
33.508
0
VERTEX
8
L0D0_0
10
34.932
20
33.562
0
VERTEX
8
L0D0_0
10
35.194
20
33.891
0
VERTEX
8
L0D0_0
10
35.334
20
33.712
0
VERTEX
8
L0D0_0
10
35.591
20
33.338
0
VERTEX
8
L0D0_0
10
35.826
20
32.948
0
VERTEX
8
L0D0_0
10
36.037
20
32.545
0
VERTEX
8
L0D0_0
10
36.223
20
32.131
0
VERTEX
8
L0D0_0
10
36.384
20
31.705
0
VERTEX
8
L0D0_0
10
36.519
20
31.271
0
VERTEX
8
L0D0_0
10
36.627
20
30.83
0
VERTEX
8
L0D0_0
10
36.709
20
30.382
0
VERTEX
8
L0D0_0
10
36.764
20
29.931
0
VERTEX
8
L0D0_0
10
36.791
20
29.477
0
VERTEX
8
L0D0_0
10
36.791
20
29.023
0
VERTEX
8
L0D0_0
10
36.764
20
28.569
0
VERTEX
8
L0D0_0
10
36.709
20
28.118
0
VERTEX
8
L0D0_0
10
36.627
20
27.67
0
VERTEX
8
L0D0_0
10
36.519
20
27.229
0
VERTEX
8
L0D0_0
10
36.384
20
26.795
0
VERTEX
8
L0D0_0
10
36.223
20
26.369
0
VERTEX
8
L0D0_0
10
36.037
20
25.955
0
VERTEX
8
L0D0_0
10
35.826
20
25.552
0
VERTEX
8
L0D0_0
10
35.591
20
25.162
0
VERTEX
8
L0D0_0
10
35.334
20
24.788
0
SEQEND
0
POLYLINE
8
L0D0_0
70
1
40
0
41
0
66
1
0
VERTEX
8
L0D0_0
10
54.694
20
24.609
0
VERTEX
8
L0D0_0
10
54.432
20
24.938
0
VERTEX
8
L0D0_0
10
54.389
20
24.992
0
VERTEX
8
L0D0_0
10
54.296
20
25.094
0
VERTEX
8
L0D0_0
10
54.197
20
25.19
0
VERTEX
8
L0D0_0
10
54.092
20
25.28
0
VERTEX
8
L0D0_0
10
53.982
20
25.363
0
VERTEX
8
L0D0_0
10
53.867
20
25.439
0
VERTEX
8
L0D0_0
10
53.748
20
25.508
0
VERTEX
8
L0D0_0
10
53.624
20
25.569
0
VERTEX
8
L0D0_0
10
53.496
20
25.622
0
VERTEX
8
L0D0_0
10
53.366
20
25.667
0
VERTEX
8
L0D0_0
10
53.3
20
25.686
0
VERTEX
8
L0D0_0
10
49.653
20
26.695
0
VERTEX
8
L0D0_0
10
49.653
20
31.805
0
VERTEX
8
L0D0_0
10
53.3
20
32.814
0
VERTEX
8
L0D0_0
10
53.366
20
32.833
0
VERTEX
8
L0D0_0
10
53.496
20
32.878
0
VERTEX
8
L0D0_0
10
53.624
20
32.931
0
VERTEX
8
L0D0_0
10
53.748
20
32.992
0
VERTEX
8
L0D0_0
10
53.867
20
33.061
0
VERTEX
8
L0D0_0
10
53.982
20
33.137
0
VERTEX
8
L0D0_0
10
54.092
20
33.22
0
VERTEX
8
L0D0_0
10
54.197
20
33.31
0
VERTEX
8
L0D0_0
10
54.296
20
33.406
0
VERTEX
8
L0D0_0
10
54.389
20
33.508
0
VERTEX
8
L0D0_0
10
54.432
20
33.562
0
VERTEX
8
L0D0_0
10
54.694
20
33.891
0
VERTEX
8
L0D0_0
10
54.834
20
33.712
0
VERTEX
8
L0D0_0
10
55.091
20
33.338
0
VERTEX
8
L0D0_0
10
55.326
20
32.948
0
VERTEX
8
L0D0_0
10
55.537
20
32.545
0
VERTEX
8
L0D0_0
10
55.723
20
32.131
0
VERTEX
8
L0D0_0
10
55.884
20
31.705
0
VERTEX
8
L0D0_0
10
56.019
20
31.271
0
VERTEX
8
L0D0_0
10
56.127
20
30.83
0
VERTEX
8
L0D0_0
10
56.209
20
30.382
0
VERTEX
8
L0D0_0
10
56.264
20
29.931
0
VERTEX
8
L0D0_0
10
56.291
20
29.477
0
VERTEX
8
L0D0_0
10
56.291
20
29.023
0
VERTEX
8
L0D0_0
10
56.264
20
28.569
0
VERTEX
8
L0D0_0
10
56.209
20
28.118
0
VERTEX
8
L0D0_0
10
56.127
20
27.67
0
VERTEX
8
L0D0_0
10
56.019
20
27.229
0
VERTEX
8
L0D0_0
10
55.884
20
26.795
0
VERTEX
8
L0D0_0
10
55.723
20
26.369
0
VERTEX
8
L0D0_0
10
55.537
20
25.955
0
VERTEX
8
L0D0_0
10
55.326
20
25.552
0
VERTEX
8
L0D0_0
10
55.091
20
25.162
0
VERTEX
8
L0D0_0
10
54.834
20
24.788
0
SEQEND
0
POLYLINE
8
L0D0_0
70
1
40
0
41
0
66
1
0
VERTEX
8
L0D0_0
10
43.037
20
24.328
0
VERTEX
8
L0D0_0
10
42.884
20
24.505
0
VERTEX
8
L0D0_0
10
42.602
20
24.876
0
VERTEX
8
L0D0_0
10
42.344
20
25.264
0
VERTEX
8
L0D0_0
10
42.11
20
25.668
0
VERTEX
8
L0D0_0
10
41.901
20
26.085
0
VERTEX
8
L0D0_0
10
41.719
20
26.514
0
VERTEX
8
L0D0_0
10
41.563
20
26.954
0
VERTEX
8
L0D0_0
10
41.435
20
27.403
0
VERTEX
8
L0D0_0
10
41.335
20
27.858
0
VERTEX
8
L0D0_0
10
41.263
20
28.319
0
VERTEX
8
L0D0_0
10
41.22
20
28.784
0
VERTEX
8
L0D0_0
10
41.205
20
29.25
0
VERTEX
8
L0D0_0
10
41.22
20
29.716
0
VERTEX
8
L0D0_0
10
41.263
20
30.181
0
VERTEX
8
L0D0_0
10
41.335
20
30.642
0
VERTEX
8
L0D0_0
10
41.435
20
31.097
0
VERTEX
8
L0D0_0
10
41.563
20
31.546
0
VERTEX
8
L0D0_0
10
41.719
20
31.986
0
VERTEX
8
L0D0_0
10
41.901
20
32.415
0
VERTEX
8
L0D0_0
10
42.11
20
32.832
0
VERTEX
8
L0D0_0
10
42.344
20
33.236
0
VERTEX
8
L0D0_0
10
42.602
20
33.624
0
VERTEX
8
L0D0_0
10
42.884
20
33.995
0
VERTEX
8
L0D0_0
10
43.037
20
34.172
0
VERTEX
8
L0D0_0
10
43.949
20
32.756
0
VERTEX
8
L0D0_0
10
43.977
20
32.712
0
VERTEX
8
L0D0_0
10
44.038
20
32.629
0
VERTEX
8
L0D0_0
10
44.106
20
32.55
0
VERTEX
8
L0D0_0
10
44.178
20
32.476
0
VERTEX
8
L0D0_0
10
44.255
20
32.407
0
VERTEX
8
L0D0_0
10
44.336
20
32.343
0
VERTEX
8
L0D0_0
10
44.422
20
32.284
0
VERTEX
8
L0D0_0
10
44.511
20
32.232
0
VERTEX
8
L0D0_0
10
44.604
20
32.186
0
VERTEX
8
L0D0_0
10
44.699
20
32.145
0
VERTEX
8
L0D0_0
10
44.797
20
32.112
0
VERTEX
8
L0D0_0
10
44.897
20
32.085
0
VERTEX
8
L0D0_0
10
44.948
20
32.075
0
VERTEX
8
L0D0_0
10
46.514
20
31.761
0
VERTEX
8
L0D0_0
10
46.514
20
26.739
0
VERTEX
8
L0D0_0
10
44.948
20
26.425
0
VERTEX
8
L0D0_0
10
44.897
20
26.415
0
VERTEX
8
L0D0_0
10
44.797
20
26.388
0
VERTEX
8
L0D0_0
10
44.699
20
26.355
0
VERTEX
8
L0D0_0
10
44.604
20
26.314
0
VERTEX
8
L0D0_0
10
44.511
20
26.268
0
VERTEX
8
L0D0_0
10
44.422
20
26.216
0
VERTEX
8
L0D0_0
10
44.336
20
26.157
0
VERTEX
8
L0D0_0
10
44.255
20
26.093
0
VERTEX
8
L0D0_0
10
44.178
20
26.024
0
VERTEX
8
L0D0_0
10
44.106
20
25.95
0
VERTEX
8
L0D0_0
10
44.038
20
25.871
0
VERTEX
8
L0D0_0
10
43.977
20
25.788
0
VERTEX
8
L0D0_0
10
43.949
20
25.744
0
SEQEND
0
POLYLINE
8
L0D0_0
70
1
40
0
41
0
66
1
0
VERTEX
8
L0D0_0
10
-60.94
20
-41.56
0
VERTEX
8
L0D0_0
10
-61.058
20
-41.552
0
VERTEX
8
L0D0_0
10
-61.177
20
-41.536
0
VERTEX
8
L0D0_0
10
-61.293
20
-41.513
0
VERTEX
8
L0D0_0
10
-61.409
20
-41.482
0
VERTEX
8
L0D0_0
10
-61.521
20
-41.444
0
VERTEX
8
L0D0_0
10
-61.631
20
-41.399
0
VERTEX
8
L0D0_0
10
-61.738
20
-41.346
0
VERTEX
8
L0D0_0
10
-61.842
20
-41.286
0
VERTEX
8
L0D0_0
10
-61.941
20
-41.22
0
VERTEX
8
L0D0_0
10
-62.035
20
-41.148
0
VERTEX
8
L0D0_0
10
-62.125
20
-41.069
0
VERTEX
8
L0D0_0
10
-62.209
20
-40.985
0
VERTEX
8
L0D0_0
10
-62.288
20
-40.895
0
VERTEX
8
L0D0_0
10
-62.36
20
-40.801
0
VERTEX
8
L0D0_0
10
-62.426
20
-40.702
0
VERTEX
8
L0D0_0
10
-62.486
20
-40.598
0
VERTEX
8
L0D0_0
10
-62.539
20
-40.491
0
VERTEX
8
L0D0_0
10
-62.584
20
-40.381
0
VERTEX
8
L0D0_0
10
-62.622
20
-40.269
0
VERTEX
8
L0D0_0
10
-62.653
20
-40.153
0
VERTEX
8
L0D0_0
10
-62.676
20
-40.037
0
VERTEX
8
L0D0_0
10
-62.692
20
-39.918
0
VERTEX
8
L0D0_0
10
-62.7
20
-39.8
0
VERTEX
8
L0D0_0
10
-62.7
20
39.8
0
VERTEX
8
L0D0_0
10
-62.692
20
39.918
0
VERTEX
8
L0D0_0
10
-62.676
20
40.037
0
VERTEX
8
L0D0_0
10
-62.653
20
40.153
0
VERTEX
8
L0D0_0
10
-62.622
20
40.269
0
VERTEX
8
L0D0_0
10
-62.584
20
40.381
0
VERTEX
8
L0D0_0
10
-62.539
20
40.491
0
VERTEX
8
L0D0_0
10
-62.486
20
40.598
0
VERTEX
8
L0D0_0
10
-62.426
20
40.702
0
VERTEX
8
L0D0_0
10
-62.36
20
40.801
0
VERTEX
8
L0D0_0
10
-62.288
20
40.895
0
VERTEX
8
L0D0_0
10
-62.209
20
40.985
0
VERTEX
8
L0D0_0
10
-62.125
20
41.069
0
VERTEX
8
L0D0_0
10
-62.035
20
41.148
0
VERTEX
8
L0D0_0
10
-61.941
20
41.22
0
VERTEX
8
L0D0_0
10
-61.842
20
41.286
0
VERTEX
8
L0D0_0
10
-61.738
20
41.346
0
VERTEX
8
L0D0_0
10
-61.631
20
41.399
0
VERTEX
8
L0D0_0
10
-61.521
20
41.444
0
VERTEX
8
L0D0_0
10
-61.409
20
41.482
0
VERTEX
8
L0D0_0
10
-61.293
20
41.513
0
VERTEX
8
L0D0_0
10
-61.177
20
41.536
0
VERTEX
8
L0D0_0
10
-61.058
20
41.552
0
VERTEX
8
L0D0_0
10
-60.94
20
41.56
0
VERTEX
8
L0D0_0
10
56.891
20
41.56
0
VERTEX
8
L0D0_0
10
62.7
20
35.751
0
VERTEX
8
L0D0_0
10
62.7
20
-35.751
0
VERTEX
8
L0D0_0
10
56.891
20
-41.56
0
SEQEND
0
CIRCLE
8
L0D0_0
10
-49.38
20
-23.647
40
0.93
0
CIRCLE
8
L0D0_0
10
-29.88
20
-23.647
40
0.93
0
CIRCLE
8
L0D0_0
10
-10.38
20
-23.647
40
0.93
0
CIRCLE
8
L0D0_0
10
9.12
20
-23.647
40
0.93
0
CIRCLE
8
L0D0_0
10
28.62
20
-23.647
40
0.93
0
CIRCLE
8
L0D0_0
10
48.12
20
-23.647
40
0.93
0
CIRCLE
8
L0D0_0
10
-49.38
20
-4.147
40
0.93
0
CIRCLE
8
L0D0_0
10
-29.88
20
-4.147
40
0.93
0
CIRCLE
8
L0D0_0
10
-10.38
20
-4.147
40
0.93
0
CIRCLE
8
L0D0_0
10
9.12
20
-4.147
40
0.93
0
CIRCLE
8
L0D0_0
10
28.62
20
-4.147
40
0.93
0
CIRCLE
8
L0D0_0
10
48.12
20
-4.147
40
0.93
0
CIRCLE
8
L0D0_0
10
-49.38
20
15.353
40
0.93
0
CIRCLE
8
L0D0_0
10
-29.88
20
15.353
40
0.93
0
CIRCLE
8
L0D0_0
10
-10.38
20
15.353
40
0.93
0
CIRCLE
8
L0D0_0
10
9.12
20
15.353
40
0.93
0
CIRCLE
8
L0D0_0
10
28.62
20
15.353
40
0.93
0
CIRCLE
8
L0D0_0
10
48.12
20
15.353
40
0.93
0
CIRCLE
8
L0D0_0
10
-49.38
20
34.853
40
0.93
0
CIRCLE
8
L0D0_0
10
-29.88
20
34.853
40
0.93
0
CIRCLE
8
L0D0_0
10
-10.38
20
34.853
40
0.93
0
CIRCLE
8
L0D0_0
10
9.12
20
34.853
40
0.93
0
CIRCLE
8
L0D0_0
10
28.62
20
34.853
40
0.93
0
CIRCLE
8
L0D0_0
10
-49.38
20
-34.853
40
0.93
0
CIRCLE
8
L0D0_0
10
-29.88
20
-34.853
40
0.93
0
CIRCLE
8
L0D0_0
10
-10.38
20
-34.853
40
0.93
0
CIRCLE
8
L0D0_0
10
9.12
20
-34.853
40
0.93
0
CIRCLE
8
L0D0_0
10
28.62
20
-34.853
40
0.93
0
CIRCLE
8
L0D0_0
10
48.12
20
-34.853
40
0.93
0
CIRCLE
8
L0D0_0
10
-49.38
20
-15.353
40
0.93
0
CIRCLE
8
L0D0_0
10
-29.88
20
-15.353
40
0.93
0
CIRCLE
8
L0D0_0
10
-10.38
20
-15.353
40
0.93
0
CIRCLE
8
L0D0_0
10
9.12
20
-15.353
40
0.93
0
CIRCLE
8
L0D0_0
10
28.62
20
-15.353
40
0.93
0
CIRCLE
8
L0D0_0
10
48.12
20
-15.353
40
0.93
0
CIRCLE
8
L0D0_0
10
-49.38
20
4.147
40
0.93
0
CIRCLE
8
L0D0_0
10
-29.88
20
4.147
40
0.93
0
CIRCLE
8
L0D0_0
10
-10.38
20
4.147
40
0.93
0
CIRCLE
8
L0D0_0
10
9.12
20
4.147
40
0.93
0
CIRCLE
8
L0D0_0
10
28.62
20
4.147
40
0.93
0
CIRCLE
8
L0D0_0
10
48.12
20
4.147
40
0.93
0
CIRCLE
8
L0D0_0
10
-49.38
20
23.647
40
0.93
0
CIRCLE
8
L0D0_0
10
-29.88
20
23.647
40
0.93
0
CIRCLE
8
L0D0_0
10
-10.38
20
23.647
40
0.93
0
CIRCLE
8
L0D0_0
10
9.12
20
23.647
40
0.93
0
CIRCLE
8
L0D0_0
10
28.62
20
23.647
40
0.93
0
CIRCLE
8
L0D0_0
10
39
20
19.5
40
4.13
0
CIRCLE
8
L0D0_0
10
48.12
20
23.647
40
0.93
0
CIRCLE
8
L0D0_0
10
39.002
20
-19.497
40
4.13
0
CIRCLE
8
L0D0_0
10
-38.997
20
-19.506
40
4.13
0
CIRCLE
8
L0D0_0
10
48.12
20
34.853
40
0.93
0
CIRCLE
8
L0D0_0
10
-38.998
20
19.503
40
4.13
0
ENDSEC
0
EOF
