0
SECTION
2
HEADER
9
$ACADVER
1
AC1006
0
ENDSEC
0
SECTION
2
TABLES
0
TABLE
2
LAYER
70
1
0
LAYER
70
0
62
1
6
CONTINUOUS
2
L0D0_0
0
ENDTAB
0
ENDSEC
0
SECTION
2
BLOCKS
0
ENDSEC
0
SECTION
2
ENTITIES
0
POLYLINE
8
L0D0_0
70
1
40
0
41
0
66
1
0
VERTEX
8
L0D0_0
10
-56.889
20
-41.555
0
VERTEX
8
L0D0_0
10
-62.695
20
-35.749
0
VERTEX
8
L0D0_0
10
-62.695
20
35.749
0
VERTEX
8
L0D0_0
10
-56.889
20
41.555
0
VERTEX
8
L0D0_0
10
60.939
20
41.555
0
VERTEX
8
L0D0_0
10
61.058
20
41.547
0
VERTEX
8
L0D0_0
10
61.176
20
41.531
0
VERTEX
8
L0D0_0
10
61.292
20
41.508
0
VERTEX
8
L0D0_0
10
61.407
20
41.477
0
VERTEX
8
L0D0_0
10
61.52
20
41.439
0
VERTEX
8
L0D0_0
10
61.629
20
41.394
0
VERTEX
8
L0D0_0
10
61.736
20
41.341
0
VERTEX
8
L0D0_0
10
61.839
20
41.282
0
VERTEX
8
L0D0_0
10
61.938
20
41.216
0
VERTEX
8
L0D0_0
10
62.032
20
41.143
0
VERTEX
8
L0D0_0
10
62.121
20
41.065
0
VERTEX
8
L0D0_0
10
62.205
20
40.981
0
VERTEX
8
L0D0_0
10
62.283
20
40.892
0
VERTEX
8
L0D0_0
10
62.356
20
40.798
0
VERTEX
8
L0D0_0
10
62.422
20
40.699
0
VERTEX
8
L0D0_0
10
62.481
20
40.596
0
VERTEX
8
L0D0_0
10
62.534
20
40.489
0
VERTEX
8
L0D0_0
10
62.579
20
40.38
0
VERTEX
8
L0D0_0
10
62.617
20
40.267
0
VERTEX
8
L0D0_0
10
62.648
20
40.152
0
VERTEX
8
L0D0_0
10
62.671
20
40.036
0
VERTEX
8
L0D0_0
10
62.687
20
39.918
0
VERTEX
8
L0D0_0
10
62.695
20
39.799
0
VERTEX
8
L0D0_0
10
62.695
20
-39.799
0
VERTEX
8
L0D0_0
10
62.687
20
-39.918
0
VERTEX
8
L0D0_0
10
62.671
20
-40.036
0
VERTEX
8
L0D0_0
10
62.648
20
-40.152
0
VERTEX
8
L0D0_0
10
62.617
20
-40.267
0
VERTEX
8
L0D0_0
10
62.579
20
-40.38
0
VERTEX
8
L0D0_0
10
62.534
20
-40.489
0
VERTEX
8
L0D0_0
10
62.481
20
-40.596
0
VERTEX
8
L0D0_0
10
62.422
20
-40.699
0
VERTEX
8
L0D0_0
10
62.356
20
-40.798
0
VERTEX
8
L0D0_0
10
62.283
20
-40.892
0
VERTEX
8
L0D0_0
10
62.205
20
-40.981
0
VERTEX
8
L0D0_0
10
62.121
20
-41.065
0
VERTEX
8
L0D0_0
10
62.032
20
-41.143
0
VERTEX
8
L0D0_0
10
61.938
20
-41.216
0
VERTEX
8
L0D0_0
10
61.839
20
-41.282
0
VERTEX
8
L0D0_0
10
61.736
20
-41.341
0
VERTEX
8
L0D0_0
10
61.629
20
-41.394
0
VERTEX
8
L0D0_0
10
61.52
20
-41.439
0
VERTEX
8
L0D0_0
10
61.407
20
-41.477
0
VERTEX
8
L0D0_0
10
61.292
20
-41.508
0
VERTEX
8
L0D0_0
10
61.176
20
-41.531
0
VERTEX
8
L0D0_0
10
61.058
20
-41.547
0
VERTEX
8
L0D0_0
10
60.939
20
-41.555
0
SEQEND
0
POLYLINE
8
L0D0_0
70
1
40
0
41
0
66
1
0
VERTEX
8
L0D0_0
10
-48.12
20
-5.084
0
VERTEX
8
L0D0_0
10
-48.204
20
-5.08
0
VERTEX
8
L0D0_0
10
-48.287
20
-5.069
0
VERTEX
8
L0D0_0
10
-48.369
20
-5.05
0
VERTEX
8
L0D0_0
10
-48.449
20
-5.024
0
VERTEX
8
L0D0_0
10
-48.526
20
-4.991
0
VERTEX
8
L0D0_0
10
-48.6
20
-4.951
0
VERTEX
8
L0D0_0
10
-48.67
20
-4.905
0
VERTEX
8
L0D0_0
10
-48.736
20
-4.852
0
VERTEX
8
L0D0_0
10
-48.797
20
-4.794
0
VERTEX
8
L0D0_0
10
-48.852
20
-4.731
0
VERTEX
8
L0D0_0
10
-48.901
20
-4.663
0
VERTEX
8
L0D0_0
10
-48.944
20
-4.591
0
VERTEX
8
L0D0_0
10
-48.981
20
-4.515
0
VERTEX
8
L0D0_0
10
-49.01
20
-4.437
0
VERTEX
8
L0D0_0
10
-49.033
20
-4.356
0
VERTEX
8
L0D0_0
10
-49.048
20
-4.273
0
VERTEX
8
L0D0_0
10
-49.055
20
-4.189
0
VERTEX
8
L0D0_0
10
-49.055
20
4.189
0
VERTEX
8
L0D0_0
10
-49.048
20
4.273
0
VERTEX
8
L0D0_0
10
-49.033
20
4.356
0
VERTEX
8
L0D0_0
10
-49.01
20
4.437
0
VERTEX
8
L0D0_0
10
-48.981
20
4.515
0
VERTEX
8
L0D0_0
10
-48.944
20
4.591
0
VERTEX
8
L0D0_0
10
-48.901
20
4.663
0
VERTEX
8
L0D0_0
10
-48.852
20
4.731
0
VERTEX
8
L0D0_0
10
-48.797
20
4.794
0
VERTEX
8
L0D0_0
10
-48.736
20
4.852
0
VERTEX
8
L0D0_0
10
-48.67
20
4.905
0
VERTEX
8
L0D0_0
10
-48.6
20
4.951
0
VERTEX
8
L0D0_0
10
-48.526
20
4.991
0
VERTEX
8
L0D0_0
10
-48.449
20
5.024
0
VERTEX
8
L0D0_0
10
-48.369
20
5.05
0
VERTEX
8
L0D0_0
10
-48.287
20
5.069
0
VERTEX
8
L0D0_0
10
-48.204
20
5.08
0
VERTEX
8
L0D0_0
10
-48.12
20
5.084
0
VERTEX
8
L0D0_0
10
-48.036
20
5.08
0
VERTEX
8
L0D0_0
10
-47.953
20
5.069
0
VERTEX
8
L0D0_0
10
-47.871
20
5.05
0
VERTEX
8
L0D0_0
10
-47.791
20
5.024
0
VERTEX
8
L0D0_0
10
-47.714
20
4.991
0
VERTEX
8
L0D0_0
10
-47.64
20
4.951
0
VERTEX
8
L0D0_0
10
-47.569
20
4.905
0
VERTEX
8
L0D0_0
10
-47.504
20
4.852
0
VERTEX
8
L0D0_0
10
-47.443
20
4.794
0
VERTEX
8
L0D0_0
10
-47.388
20
4.731
0
VERTEX
8
L0D0_0
10
-47.338
20
4.663
0
VERTEX
8
L0D0_0
10
-47.295
20
4.591
0
VERTEX
8
L0D0_0
10
-47.259
20
4.515
0
VERTEX
8
L0D0_0
10
-47.229
20
4.437
0
VERTEX
8
L0D0_0
10
-47.207
20
4.356
0
VERTEX
8
L0D0_0
10
-47.192
20
4.273
0
VERTEX
8
L0D0_0
10
-47.184
20
4.189
0
VERTEX
8
L0D0_0
10
-47.184
20
-4.189
0
VERTEX
8
L0D0_0
10
-47.192
20
-4.273
0
VERTEX
8
L0D0_0
10
-47.207
20
-4.356
0
VERTEX
8
L0D0_0
10
-47.229
20
-4.437
0
VERTEX
8
L0D0_0
10
-47.259
20
-4.515
0
VERTEX
8
L0D0_0
10
-47.295
20
-4.591
0
VERTEX
8
L0D0_0
10
-47.338
20
-4.663
0
VERTEX
8
L0D0_0
10
-47.388
20
-4.731
0
VERTEX
8
L0D0_0
10
-47.443
20
-4.794
0
VERTEX
8
L0D0_0
10
-47.504
20
-4.852
0
VERTEX
8
L0D0_0
10
-47.569
20
-4.905
0
VERTEX
8
L0D0_0
10
-47.64
20
-4.951
0
VERTEX
8
L0D0_0
10
-47.714
20
-4.991
0
VERTEX
8
L0D0_0
10
-47.791
20
-5.024
0
VERTEX
8
L0D0_0
10
-47.871
20
-5.05
0
VERTEX
8
L0D0_0
10
-47.953
20
-5.069
0
VERTEX
8
L0D0_0
10
-48.036
20
-5.08
0
SEQEND
0
POLYLINE
8
L0D0_0
70
1
40
0
41
0
66
1
0
VERTEX
8
L0D0_0
10
-48.12
20
33.916
0
VERTEX
8
L0D0_0
10
-48.204
20
33.92
0
VERTEX
8
L0D0_0
10
-48.287
20
33.931
0
VERTEX
8
L0D0_0
10
-48.369
20
33.95
0
VERTEX
8
L0D0_0
10
-48.449
20
33.976
0
VERTEX
8
L0D0_0
10
-48.526
20
34.009
0
VERTEX
8
L0D0_0
10
-48.6
20
34.049
0
VERTEX
8
L0D0_0
10
-48.67
20
34.095
0
VERTEX
8
L0D0_0
10
-48.736
20
34.148
0
VERTEX
8
L0D0_0
10
-48.797
20
34.206
0
VERTEX
8
L0D0_0
10
-48.852
20
34.269
0
VERTEX
8
L0D0_0
10
-48.901
20
34.337
0
VERTEX
8
L0D0_0
10
-48.944
20
34.409
0
VERTEX
8
L0D0_0
10
-48.981
20
34.485
0
VERTEX
8
L0D0_0
10
-49.01
20
34.563
0
VERTEX
8
L0D0_0
10
-49.033
20
34.644
0
VERTEX
8
L0D0_0
10
-49.048
20
34.727
0
VERTEX
8
L0D0_0
10
-49.055
20
34.811
0
VERTEX
8
L0D0_0
10
-49.055
20
43.189
0
VERTEX
8
L0D0_0
10
-49.048
20
43.273
0
VERTEX
8
L0D0_0
10
-49.033
20
43.356
0
VERTEX
8
L0D0_0
10
-49.01
20
43.437
0
VERTEX
8
L0D0_0
10
-48.981
20
43.515
0
VERTEX
8
L0D0_0
10
-48.944
20
43.591
0
VERTEX
8
L0D0_0
10
-48.901
20
43.663
0
VERTEX
8
L0D0_0
10
-48.852
20
43.731
0
VERTEX
8
L0D0_0
10
-48.797
20
43.794
0
VERTEX
8
L0D0_0
10
-48.736
20
43.852
0
VERTEX
8
L0D0_0
10
-48.67
20
43.905
0
VERTEX
8
L0D0_0
10
-48.6
20
43.951
0
VERTEX
8
L0D0_0
10
-48.526
20
43.991
0
VERTEX
8
L0D0_0
10
-48.449
20
44.024
0
VERTEX
8
L0D0_0
10
-48.369
20
44.05
0
VERTEX
8
L0D0_0
10
-48.287
20
44.069
0
VERTEX
8
L0D0_0
10
-48.204
20
44.08
0
VERTEX
8
L0D0_0
10
-48.12
20
44.084
0
VERTEX
8
L0D0_0
10
-48.036
20
44.08
0
VERTEX
8
L0D0_0
10
-47.953
20
44.069
0
VERTEX
8
L0D0_0
10
-47.871
20
44.05
0
VERTEX
8
L0D0_0
10
-47.791
20
44.024
0
VERTEX
8
L0D0_0
10
-47.714
20
43.991
0
VERTEX
8
L0D0_0
10
-47.64
20
43.951
0
VERTEX
8
L0D0_0
10
-47.569
20
43.905
0
VERTEX
8
L0D0_0
10
-47.504
20
43.852
0
VERTEX
8
L0D0_0
10
-47.443
20
43.794
0
VERTEX
8
L0D0_0
10
-47.388
20
43.731
0
VERTEX
8
L0D0_0
10
-47.338
20
43.663
0
VERTEX
8
L0D0_0
10
-47.295
20
43.591
0
VERTEX
8
L0D0_0
10
-47.259
20
43.515
0
VERTEX
8
L0D0_0
10
-47.229
20
43.437
0
VERTEX
8
L0D0_0
10
-47.207
20
43.356
0
VERTEX
8
L0D0_0
10
-47.192
20
43.273
0
VERTEX
8
L0D0_0
10
-47.184
20
43.189
0
VERTEX
8
L0D0_0
10
-47.184
20
34.811
0
VERTEX
8
L0D0_0
10
-47.192
20
34.727
0
VERTEX
8
L0D0_0
10
-47.207
20
34.644
0
VERTEX
8
L0D0_0
10
-47.229
20
34.563
0
VERTEX
8
L0D0_0
10
-47.259
20
34.485
0
VERTEX
8
L0D0_0
10
-47.295
20
34.409
0
VERTEX
8
L0D0_0
10
-47.338
20
34.337
0
VERTEX
8
L0D0_0
10
-47.388
20
34.269
0
VERTEX
8
L0D0_0
10
-47.443
20
34.206
0
VERTEX
8
L0D0_0
10
-47.504
20
34.148
0
VERTEX
8
L0D0_0
10
-47.569
20
34.095
0
VERTEX
8
L0D0_0
10
-47.64
20
34.049
0
VERTEX
8
L0D0_0
10
-47.714
20
34.009
0
VERTEX
8
L0D0_0
10
-47.791
20
33.976
0
VERTEX
8
L0D0_0
10
-47.871
20
33.95
0
VERTEX
8
L0D0_0
10
-47.953
20
33.931
0
VERTEX
8
L0D0_0
10
-48.036
20
33.92
0
SEQEND
0
POLYLINE
8
L0D0_0
70
1
40
0
41
0
66
1
0
VERTEX
8
L0D0_0
10
-28.62
20
33.916
0
VERTEX
8
L0D0_0
10
-28.704
20
33.92
0
VERTEX
8
L0D0_0
10
-28.787
20
33.931
0
VERTEX
8
L0D0_0
10
-28.869
20
33.95
0
VERTEX
8
L0D0_0
10
-28.949
20
33.976
0
VERTEX
8
L0D0_0
10
-29.026
20
34.009
0
VERTEX
8
L0D0_0
10
-29.1
20
34.049
0
VERTEX
8
L0D0_0
10
-29.17
20
34.095
0
VERTEX
8
L0D0_0
10
-29.236
20
34.148
0
VERTEX
8
L0D0_0
10
-29.297
20
34.206
0
VERTEX
8
L0D0_0
10
-29.352
20
34.269
0
VERTEX
8
L0D0_0
10
-29.401
20
34.337
0
VERTEX
8
L0D0_0
10
-29.444
20
34.409
0
VERTEX
8
L0D0_0
10
-29.481
20
34.485
0
VERTEX
8
L0D0_0
10
-29.51
20
34.563
0
VERTEX
8
L0D0_0
10
-29.533
20
34.644
0
VERTEX
8
L0D0_0
10
-29.548
20
34.727
0
VERTEX
8
L0D0_0
10
-29.555
20
34.811
0
VERTEX
8
L0D0_0
10
-29.555
20
43.189
0
VERTEX
8
L0D0_0
10
-29.548
20
43.273
0
VERTEX
8
L0D0_0
10
-29.533
20
43.356
0
VERTEX
8
L0D0_0
10
-29.51
20
43.437
0
VERTEX
8
L0D0_0
10
-29.481
20
43.515
0
VERTEX
8
L0D0_0
10
-29.444
20
43.591
0
VERTEX
8
L0D0_0
10
-29.401
20
43.663
0
VERTEX
8
L0D0_0
10
-29.352
20
43.731
0
VERTEX
8
L0D0_0
10
-29.297
20
43.794
0
VERTEX
8
L0D0_0
10
-29.236
20
43.852
0
VERTEX
8
L0D0_0
10
-29.17
20
43.905
0
VERTEX
8
L0D0_0
10
-29.1
20
43.951
0
VERTEX
8
L0D0_0
10
-29.026
20
43.991
0
VERTEX
8
L0D0_0
10
-28.949
20
44.024
0
VERTEX
8
L0D0_0
10
-28.869
20
44.05
0
VERTEX
8
L0D0_0
10
-28.787
20
44.069
0
VERTEX
8
L0D0_0
10
-28.704
20
44.08
0
VERTEX
8
L0D0_0
10
-28.62
20
44.084
0
VERTEX
8
L0D0_0
10
-28.536
20
44.08
0
VERTEX
8
L0D0_0
10
-28.453
20
44.069
0
VERTEX
8
L0D0_0
10
-28.371
20
44.05
0
VERTEX
8
L0D0_0
10
-28.291
20
44.024
0
VERTEX
8
L0D0_0
10
-28.214
20
43.991
0
VERTEX
8
L0D0_0
10
-28.14
20
43.951
0
VERTEX
8
L0D0_0
10
-28.069
20
43.905
0
VERTEX
8
L0D0_0
10
-28.004
20
43.852
0
VERTEX
8
L0D0_0
10
-27.943
20
43.794
0
VERTEX
8
L0D0_0
10
-27.888
20
43.731
0
VERTEX
8
L0D0_0
10
-27.838
20
43.663
0
VERTEX
8
L0D0_0
10
-27.795
20
43.591
0
VERTEX
8
L0D0_0
10
-27.759
20
43.515
0
VERTEX
8
L0D0_0
10
-27.729
20
43.437
0
VERTEX
8
L0D0_0
10
-27.707
20
43.356
0
VERTEX
8
L0D0_0
10
-27.692
20
43.273
0
VERTEX
8
L0D0_0
10
-27.684
20
43.189
0
VERTEX
8
L0D0_0
10
-27.684
20
34.811
0
VERTEX
8
L0D0_0
10
-27.692
20
34.727
0
VERTEX
8
L0D0_0
10
-27.707
20
34.644
0
VERTEX
8
L0D0_0
10
-27.729
20
34.563
0
VERTEX
8
L0D0_0
10
-27.759
20
34.485
0
VERTEX
8
L0D0_0
10
-27.795
20
34.409
0
VERTEX
8
L0D0_0
10
-27.838
20
34.337
0
VERTEX
8
L0D0_0
10
-27.888
20
34.269
0
VERTEX
8
L0D0_0
10
-27.943
20
34.206
0
VERTEX
8
L0D0_0
10
-28.004
20
34.148
0
VERTEX
8
L0D0_0
10
-28.069
20
34.095
0
VERTEX
8
L0D0_0
10
-28.14
20
34.049
0
VERTEX
8
L0D0_0
10
-28.214
20
34.009
0
VERTEX
8
L0D0_0
10
-28.291
20
33.976
0
VERTEX
8
L0D0_0
10
-28.371
20
33.95
0
VERTEX
8
L0D0_0
10
-28.453
20
33.931
0
VERTEX
8
L0D0_0
10
-28.536
20
33.92
0
SEQEND
0
POLYLINE
8
L0D0_0
70
1
40
0
41
0
66
1
0
VERTEX
8
L0D0_0
10
-9.12
20
33.916
0
VERTEX
8
L0D0_0
10
-9.204
20
33.92
0
VERTEX
8
L0D0_0
10
-9.287
20
33.931
0
VERTEX
8
L0D0_0
10
-9.369
20
33.95
0
VERTEX
8
L0D0_0
10
-9.449
20
33.976
0
VERTEX
8
L0D0_0
10
-9.526
20
34.009
0
VERTEX
8
L0D0_0
10
-9.6
20
34.049
0
VERTEX
8
L0D0_0
10
-9.67
20
34.095
0
VERTEX
8
L0D0_0
10
-9.736
20
34.148
0
VERTEX
8
L0D0_0
10
-9.797
20
34.206
0
VERTEX
8
L0D0_0
10
-9.852
20
34.269
0
VERTEX
8
L0D0_0
10
-9.901
20
34.337
0
VERTEX
8
L0D0_0
10
-9.944
20
34.409
0
VERTEX
8
L0D0_0
10
-9.981
20
34.485
0
VERTEX
8
L0D0_0
10
-10.01
20
34.563
0
VERTEX
8
L0D0_0
10
-10.033
20
34.644
0
VERTEX
8
L0D0_0
10
-10.048
20
34.727
0
VERTEX
8
L0D0_0
10
-10.055
20
34.811
0
VERTEX
8
L0D0_0
10
-10.055
20
43.189
0
VERTEX
8
L0D0_0
10
-10.048
20
43.273
0
VERTEX
8
L0D0_0
10
-10.033
20
43.356
0
VERTEX
8
L0D0_0
10
-10.01
20
43.437
0
VERTEX
8
L0D0_0
10
-9.981
20
43.515
0
VERTEX
8
L0D0_0
10
-9.944
20
43.591
0
VERTEX
8
L0D0_0
10
-9.901
20
43.663
0
VERTEX
8
L0D0_0
10
-9.852
20
43.731
0
VERTEX
8
L0D0_0
10
-9.797
20
43.794
0
VERTEX
8
L0D0_0
10
-9.736
20
43.852
0
VERTEX
8
L0D0_0
10
-9.67
20
43.905
0
VERTEX
8
L0D0_0
10
-9.6
20
43.951
0
VERTEX
8
L0D0_0
10
-9.526
20
43.991
0
VERTEX
8
L0D0_0
10
-9.449
20
44.024
0
VERTEX
8
L0D0_0
10
-9.369
20
44.05
0
VERTEX
8
L0D0_0
10
-9.287
20
44.069
0
VERTEX
8
L0D0_0
10
-9.204
20
44.08
0
VERTEX
8
L0D0_0
10
-9.12
20
44.084
0
VERTEX
8
L0D0_0
10
-9.036
20
44.08
0
VERTEX
8
L0D0_0
10
-8.953
20
44.069
0
VERTEX
8
L0D0_0
10
-8.871
20
44.05
0
VERTEX
8
L0D0_0
10
-8.791
20
44.024
0
VERTEX
8
L0D0_0
10
-8.714
20
43.991
0
VERTEX
8
L0D0_0
10
-8.64
20
43.951
0
VERTEX
8
L0D0_0
10
-8.569
20
43.905
0
VERTEX
8
L0D0_0
10
-8.504
20
43.852
0
VERTEX
8
L0D0_0
10
-8.443
20
43.794
0
VERTEX
8
L0D0_0
10
-8.388
20
43.731
0
VERTEX
8
L0D0_0
10
-8.338
20
43.663
0
VERTEX
8
L0D0_0
10
-8.295
20
43.591
0
VERTEX
8
L0D0_0
10
-8.259
20
43.515
0
VERTEX
8
L0D0_0
10
-8.229
20
43.437
0
VERTEX
8
L0D0_0
10
-8.207
20
43.356
0
VERTEX
8
L0D0_0
10
-8.192
20
43.273
0
VERTEX
8
L0D0_0
10
-8.184
20
43.189
0
VERTEX
8
L0D0_0
10
-8.184
20
34.811
0
VERTEX
8
L0D0_0
10
-8.192
20
34.727
0
VERTEX
8
L0D0_0
10
-8.207
20
34.644
0
VERTEX
8
L0D0_0
10
-8.229
20
34.563
0
VERTEX
8
L0D0_0
10
-8.259
20
34.485
0
VERTEX
8
L0D0_0
10
-8.295
20
34.409
0
VERTEX
8
L0D0_0
10
-8.338
20
34.337
0
VERTEX
8
L0D0_0
10
-8.388
20
34.269
0
VERTEX
8
L0D0_0
10
-8.443
20
34.206
0
VERTEX
8
L0D0_0
10
-8.504
20
34.148
0
VERTEX
8
L0D0_0
10
-8.569
20
34.095
0
VERTEX
8
L0D0_0
10
-8.64
20
34.049
0
VERTEX
8
L0D0_0
10
-8.714
20
34.009
0
VERTEX
8
L0D0_0
10
-8.791
20
33.976
0
VERTEX
8
L0D0_0
10
-8.871
20
33.95
0
VERTEX
8
L0D0_0
10
-8.953
20
33.931
0
VERTEX
8
L0D0_0
10
-9.036
20
33.92
0
SEQEND
0
POLYLINE
8
L0D0_0
70
1
40
0
41
0
66
1
0
VERTEX
8
L0D0_0
10
10.38
20
33.916
0
VERTEX
8
L0D0_0
10
10.296
20
33.92
0
VERTEX
8
L0D0_0
10
10.213
20
33.931
0
VERTEX
8
L0D0_0
10
10.131
20
33.95
0
VERTEX
8
L0D0_0
10
10.051
20
33.976
0
VERTEX
8
L0D0_0
10
9.974
20
34.009
0
VERTEX
8
L0D0_0
10
9.9
20
34.049
0
VERTEX
8
L0D0_0
10
9.83
20
34.095
0
VERTEX
8
L0D0_0
10
9.764
20
34.148
0
VERTEX
8
L0D0_0
10
9.703
20
34.206
0
VERTEX
8
L0D0_0
10
9.648
20
34.269
0
VERTEX
8
L0D0_0
10
9.599
20
34.337
0
VERTEX
8
L0D0_0
10
9.556
20
34.409
0
VERTEX
8
L0D0_0
10
9.519
20
34.485
0
VERTEX
8
L0D0_0
10
9.49
20
34.563
0
VERTEX
8
L0D0_0
10
9.467
20
34.644
0
VERTEX
8
L0D0_0
10
9.452
20
34.727
0
VERTEX
8
L0D0_0
10
9.445
20
34.811
0
VERTEX
8
L0D0_0
10
9.445
20
43.189
0
VERTEX
8
L0D0_0
10
9.452
20
43.273
0
VERTEX
8
L0D0_0
10
9.467
20
43.356
0
VERTEX
8
L0D0_0
10
9.49
20
43.437
0
VERTEX
8
L0D0_0
10
9.519
20
43.515
0
VERTEX
8
L0D0_0
10
9.556
20
43.591
0
VERTEX
8
L0D0_0
10
9.599
20
43.663
0
VERTEX
8
L0D0_0
10
9.648
20
43.731
0
VERTEX
8
L0D0_0
10
9.703
20
43.794
0
VERTEX
8
L0D0_0
10
9.764
20
43.852
0
VERTEX
8
L0D0_0
10
9.83
20
43.905
0
VERTEX
8
L0D0_0
10
9.9
20
43.951
0
VERTEX
8
L0D0_0
10
9.974
20
43.991
0
VERTEX
8
L0D0_0
10
10.051
20
44.024
0
VERTEX
8
L0D0_0
10
10.131
20
44.05
0
VERTEX
8
L0D0_0
10
10.213
20
44.069
0
VERTEX
8
L0D0_0
10
10.296
20
44.08
0
VERTEX
8
L0D0_0
10
10.38
20
44.084
0
VERTEX
8
L0D0_0
10
10.464
20
44.08
0
VERTEX
8
L0D0_0
10
10.547
20
44.069
0
VERTEX
8
L0D0_0
10
10.629
20
44.05
0
VERTEX
8
L0D0_0
10
10.709
20
44.024
0
VERTEX
8
L0D0_0
10
10.786
20
43.991
0
VERTEX
8
L0D0_0
10
10.86
20
43.951
0
VERTEX
8
L0D0_0
10
10.931
20
43.905
0
VERTEX
8
L0D0_0
10
10.996
20
43.852
0
VERTEX
8
L0D0_0
10
11.057
20
43.794
0
VERTEX
8
L0D0_0
10
11.112
20
43.731
0
VERTEX
8
L0D0_0
10
11.162
20
43.663
0
VERTEX
8
L0D0_0
10
11.205
20
43.591
0
VERTEX
8
L0D0_0
10
11.241
20
43.515
0
VERTEX
8
L0D0_0
10
11.271
20
43.437
0
VERTEX
8
L0D0_0
10
11.293
20
43.356
0
VERTEX
8
L0D0_0
10
11.308
20
43.273
0
VERTEX
8
L0D0_0
10
11.316
20
43.189
0
VERTEX
8
L0D0_0
10
11.316
20
34.811
0
VERTEX
8
L0D0_0
10
11.308
20
34.727
0
VERTEX
8
L0D0_0
10
11.293
20
34.644
0
VERTEX
8
L0D0_0
10
11.271
20
34.563
0
VERTEX
8
L0D0_0
10
11.241
20
34.485
0
VERTEX
8
L0D0_0
10
11.205
20
34.409
0
VERTEX
8
L0D0_0
10
11.162
20
34.337
0
VERTEX
8
L0D0_0
10
11.112
20
34.269
0
VERTEX
8
L0D0_0
10
11.057
20
34.206
0
VERTEX
8
L0D0_0
10
10.996
20
34.148
0
VERTEX
8
L0D0_0
10
10.931
20
34.095
0
VERTEX
8
L0D0_0
10
10.86
20
34.049
0
VERTEX
8
L0D0_0
10
10.786
20
34.009
0
VERTEX
8
L0D0_0
10
10.709
20
33.976
0
VERTEX
8
L0D0_0
10
10.629
20
33.95
0
VERTEX
8
L0D0_0
10
10.547
20
33.931
0
VERTEX
8
L0D0_0
10
10.464
20
33.92
0
SEQEND
0
POLYLINE
8
L0D0_0
70
1
40
0
41
0
66
1
0
VERTEX
8
L0D0_0
10
29.88
20
33.916
0
VERTEX
8
L0D0_0
10
29.796
20
33.92
0
VERTEX
8
L0D0_0
10
29.713
20
33.931
0
VERTEX
8
L0D0_0
10
29.631
20
33.95
0
VERTEX
8
L0D0_0
10
29.551
20
33.976
0
VERTEX
8
L0D0_0
10
29.474
20
34.009
0
VERTEX
8
L0D0_0
10
29.4
20
34.049
0
VERTEX
8
L0D0_0
10
29.33
20
34.095
0
VERTEX
8
L0D0_0
10
29.264
20
34.148
0
VERTEX
8
L0D0_0
10
29.203
20
34.206
0
VERTEX
8
L0D0_0
10
29.148
20
34.269
0
VERTEX
8
L0D0_0
10
29.099
20
34.337
0
VERTEX
8
L0D0_0
10
29.056
20
34.409
0
VERTEX
8
L0D0_0
10
29.019
20
34.485
0
VERTEX
8
L0D0_0
10
28.99
20
34.563
0
VERTEX
8
L0D0_0
10
28.967
20
34.644
0
VERTEX
8
L0D0_0
10
28.952
20
34.727
0
VERTEX
8
L0D0_0
10
28.945
20
34.811
0
VERTEX
8
L0D0_0
10
28.945
20
43.189
0
VERTEX
8
L0D0_0
10
28.952
20
43.273
0
VERTEX
8
L0D0_0
10
28.967
20
43.356
0
VERTEX
8
L0D0_0
10
28.99
20
43.437
0
VERTEX
8
L0D0_0
10
29.019
20
43.515
0
VERTEX
8
L0D0_0
10
29.056
20
43.591
0
VERTEX
8
L0D0_0
10
29.099
20
43.663
0
VERTEX
8
L0D0_0
10
29.148
20
43.731
0
VERTEX
8
L0D0_0
10
29.203
20
43.794
0
VERTEX
8
L0D0_0
10
29.264
20
43.852
0
VERTEX
8
L0D0_0
10
29.33
20
43.905
0
VERTEX
8
L0D0_0
10
29.4
20
43.951
0
VERTEX
8
L0D0_0
10
29.474
20
43.991
0
VERTEX
8
L0D0_0
10
29.551
20
44.024
0
VERTEX
8
L0D0_0
10
29.631
20
44.05
0
VERTEX
8
L0D0_0
10
29.713
20
44.069
0
VERTEX
8
L0D0_0
10
29.796
20
44.08
0
VERTEX
8
L0D0_0
10
29.88
20
44.084
0
VERTEX
8
L0D0_0
10
29.964
20
44.08
0
VERTEX
8
L0D0_0
10
30.047
20
44.069
0
VERTEX
8
L0D0_0
10
30.129
20
44.05
0
VERTEX
8
L0D0_0
10
30.209
20
44.024
0
VERTEX
8
L0D0_0
10
30.286
20
43.991
0
VERTEX
8
L0D0_0
10
30.36
20
43.951
0
VERTEX
8
L0D0_0
10
30.431
20
43.905
0
VERTEX
8
L0D0_0
10
30.496
20
43.852
0
VERTEX
8
L0D0_0
10
30.557
20
43.794
0
VERTEX
8
L0D0_0
10
30.612
20
43.731
0
VERTEX
8
L0D0_0
10
30.662
20
43.663
0
VERTEX
8
L0D0_0
10
30.705
20
43.591
0
VERTEX
8
L0D0_0
10
30.741
20
43.515
0
VERTEX
8
L0D0_0
10
30.771
20
43.437
0
VERTEX
8
L0D0_0
10
30.793
20
43.356
0
VERTEX
8
L0D0_0
10
30.808
20
43.273
0
VERTEX
8
L0D0_0
10
30.816
20
43.189
0
VERTEX
8
L0D0_0
10
30.816
20
34.811
0
VERTEX
8
L0D0_0
10
30.808
20
34.727
0
VERTEX
8
L0D0_0
10
30.793
20
34.644
0
VERTEX
8
L0D0_0
10
30.771
20
34.563
0
VERTEX
8
L0D0_0
10
30.741
20
34.485
0
VERTEX
8
L0D0_0
10
30.705
20
34.409
0
VERTEX
8
L0D0_0
10
30.662
20
34.337
0
VERTEX
8
L0D0_0
10
30.612
20
34.269
0
VERTEX
8
L0D0_0
10
30.557
20
34.206
0
VERTEX
8
L0D0_0
10
30.496
20
34.148
0
VERTEX
8
L0D0_0
10
30.431
20
34.095
0
VERTEX
8
L0D0_0
10
30.36
20
34.049
0
VERTEX
8
L0D0_0
10
30.286
20
34.009
0
VERTEX
8
L0D0_0
10
30.209
20
33.976
0
VERTEX
8
L0D0_0
10
30.129
20
33.95
0
VERTEX
8
L0D0_0
10
30.047
20
33.931
0
VERTEX
8
L0D0_0
10
29.964
20
33.92
0
SEQEND
0
POLYLINE
8
L0D0_0
70
1
40
0
41
0
66
1
0
VERTEX
8
L0D0_0
10
49.38
20
33.916
0
VERTEX
8
L0D0_0
10
49.296
20
33.92
0
VERTEX
8
L0D0_0
10
49.213
20
33.931
0
VERTEX
8
L0D0_0
10
49.131
20
33.95
0
VERTEX
8
L0D0_0
10
49.051
20
33.976
0
VERTEX
8
L0D0_0
10
48.974
20
34.009
0
VERTEX
8
L0D0_0
10
48.9
20
34.049
0
VERTEX
8
L0D0_0
10
48.83
20
34.095
0
VERTEX
8
L0D0_0
10
48.764
20
34.148
0
VERTEX
8
L0D0_0
10
48.703
20
34.206
0
VERTEX
8
L0D0_0
10
48.648
20
34.269
0
VERTEX
8
L0D0_0
10
48.599
20
34.337
0
VERTEX
8
L0D0_0
10
48.556
20
34.409
0
VERTEX
8
L0D0_0
10
48.519
20
34.485
0
VERTEX
8
L0D0_0
10
48.49
20
34.563
0
VERTEX
8
L0D0_0
10
48.467
20
34.644
0
VERTEX
8
L0D0_0
10
48.452
20
34.727
0
VERTEX
8
L0D0_0
10
48.445
20
34.811
0
VERTEX
8
L0D0_0
10
48.445
20
43.189
0
VERTEX
8
L0D0_0
10
48.452
20
43.273
0
VERTEX
8
L0D0_0
10
48.467
20
43.356
0
VERTEX
8
L0D0_0
10
48.49
20
43.437
0
VERTEX
8
L0D0_0
10
48.519
20
43.515
0
VERTEX
8
L0D0_0
10
48.556
20
43.591
0
VERTEX
8
L0D0_0
10
48.599
20
43.663
0
VERTEX
8
L0D0_0
10
48.648
20
43.731
0
VERTEX
8
L0D0_0
10
48.703
20
43.794
0
VERTEX
8
L0D0_0
10
48.764
20
43.852
0
VERTEX
8
L0D0_0
10
48.83
20
43.905
0
VERTEX
8
L0D0_0
10
48.9
20
43.951
0
VERTEX
8
L0D0_0
10
48.974
20
43.991
0
VERTEX
8
L0D0_0
10
49.051
20
44.024
0
VERTEX
8
L0D0_0
10
49.131
20
44.05
0
VERTEX
8
L0D0_0
10
49.213
20
44.069
0
VERTEX
8
L0D0_0
10
49.296
20
44.08
0
VERTEX
8
L0D0_0
10
49.38
20
44.084
0
VERTEX
8
L0D0_0
10
49.464
20
44.08
0
VERTEX
8
L0D0_0
10
49.547
20
44.069
0
VERTEX
8
L0D0_0
10
49.629
20
44.05
0
VERTEX
8
L0D0_0
10
49.709
20
44.024
0
VERTEX
8
L0D0_0
10
49.786
20
43.991
0
VERTEX
8
L0D0_0
10
49.86
20
43.951
0
VERTEX
8
L0D0_0
10
49.931
20
43.905
0
VERTEX
8
L0D0_0
10
49.996
20
43.852
0
VERTEX
8
L0D0_0
10
50.057
20
43.794
0
VERTEX
8
L0D0_0
10
50.112
20
43.731
0
VERTEX
8
L0D0_0
10
50.162
20
43.663
0
VERTEX
8
L0D0_0
10
50.205
20
43.591
0
VERTEX
8
L0D0_0
10
50.241
20
43.515
0
VERTEX
8
L0D0_0
10
50.271
20
43.437
0
VERTEX
8
L0D0_0
10
50.293
20
43.356
0
VERTEX
8
L0D0_0
10
50.308
20
43.273
0
VERTEX
8
L0D0_0
10
50.316
20
43.189
0
VERTEX
8
L0D0_0
10
50.316
20
34.811
0
VERTEX
8
L0D0_0
10
50.308
20
34.727
0
VERTEX
8
L0D0_0
10
50.293
20
34.644
0
VERTEX
8
L0D0_0
10
50.271
20
34.563
0
VERTEX
8
L0D0_0
10
50.241
20
34.485
0
VERTEX
8
L0D0_0
10
50.205
20
34.409
0
VERTEX
8
L0D0_0
10
50.162
20
34.337
0
VERTEX
8
L0D0_0
10
50.112
20
34.269
0
VERTEX
8
L0D0_0
10
50.057
20
34.206
0
VERTEX
8
L0D0_0
10
49.996
20
34.148
0
VERTEX
8
L0D0_0
10
49.931
20
34.095
0
VERTEX
8
L0D0_0
10
49.86
20
34.049
0
VERTEX
8
L0D0_0
10
49.786
20
34.009
0
VERTEX
8
L0D0_0
10
49.709
20
33.976
0
VERTEX
8
L0D0_0
10
49.629
20
33.95
0
VERTEX
8
L0D0_0
10
49.547
20
33.931
0
VERTEX
8
L0D0_0
10
49.464
20
33.92
0
SEQEND
0
POLYLINE
8
L0D0_0
70
1
40
0
41
0
66
1
0
VERTEX
8
L0D0_0
10
-48.12
20
14.416
0
VERTEX
8
L0D0_0
10
-48.204
20
14.42
0
VERTEX
8
L0D0_0
10
-48.287
20
14.431
0
VERTEX
8
L0D0_0
10
-48.369
20
14.45
0
VERTEX
8
L0D0_0
10
-48.449
20
14.476
0
VERTEX
8
L0D0_0
10
-48.526
20
14.509
0
VERTEX
8
L0D0_0
10
-48.6
20
14.549
0
VERTEX
8
L0D0_0
10
-48.67
20
14.595
0
VERTEX
8
L0D0_0
10
-48.736
20
14.648
0
VERTEX
8
L0D0_0
10
-48.797
20
14.706
0
VERTEX
8
L0D0_0
10
-48.852
20
14.769
0
VERTEX
8
L0D0_0
10
-48.901
20
14.837
0
VERTEX
8
L0D0_0
10
-48.944
20
14.909
0
VERTEX
8
L0D0_0
10
-48.981
20
14.985
0
VERTEX
8
L0D0_0
10
-49.01
20
15.063
0
VERTEX
8
L0D0_0
10
-49.033
20
15.144
0
VERTEX
8
L0D0_0
10
-49.048
20
15.227
0
VERTEX
8
L0D0_0
10
-49.055
20
15.311
0
VERTEX
8
L0D0_0
10
-49.055
20
23.689
0
VERTEX
8
L0D0_0
10
-49.048
20
23.773
0
VERTEX
8
L0D0_0
10
-49.033
20
23.856
0
VERTEX
8
L0D0_0
10
-49.01
20
23.937
0
VERTEX
8
L0D0_0
10
-48.981
20
24.015
0
VERTEX
8
L0D0_0
10
-48.944
20
24.091
0
VERTEX
8
L0D0_0
10
-48.901
20
24.163
0
VERTEX
8
L0D0_0
10
-48.852
20
24.231
0
VERTEX
8
L0D0_0
10
-48.797
20
24.294
0
VERTEX
8
L0D0_0
10
-48.736
20
24.352
0
VERTEX
8
L0D0_0
10
-48.67
20
24.405
0
VERTEX
8
L0D0_0
10
-48.6
20
24.451
0
VERTEX
8
L0D0_0
10
-48.526
20
24.491
0
VERTEX
8
L0D0_0
10
-48.449
20
24.524
0
VERTEX
8
L0D0_0
10
-48.369
20
24.55
0
VERTEX
8
L0D0_0
10
-48.287
20
24.569
0
VERTEX
8
L0D0_0
10
-48.204
20
24.58
0
VERTEX
8
L0D0_0
10
-48.12
20
24.584
0
VERTEX
8
L0D0_0
10
-48.036
20
24.58
0
VERTEX
8
L0D0_0
10
-47.953
20
24.569
0
VERTEX
8
L0D0_0
10
-47.871
20
24.55
0
VERTEX
8
L0D0_0
10
-47.791
20
24.524
0
VERTEX
8
L0D0_0
10
-47.714
20
24.491
0
VERTEX
8
L0D0_0
10
-47.64
20
24.451
0
VERTEX
8
L0D0_0
10
-47.569
20
24.405
0
VERTEX
8
L0D0_0
10
-47.504
20
24.352
0
VERTEX
8
L0D0_0
10
-47.443
20
24.294
0
VERTEX
8
L0D0_0
10
-47.388
20
24.231
0
VERTEX
8
L0D0_0
10
-47.338
20
24.163
0
VERTEX
8
L0D0_0
10
-47.295
20
24.091
0
VERTEX
8
L0D0_0
10
-47.259
20
24.015
0
VERTEX
8
L0D0_0
10
-47.229
20
23.937
0
VERTEX
8
L0D0_0
10
-47.207
20
23.856
0
VERTEX
8
L0D0_0
10
-47.192
20
23.773
0
VERTEX
8
L0D0_0
10
-47.184
20
23.689
0
VERTEX
8
L0D0_0
10
-47.184
20
15.311
0
VERTEX
8
L0D0_0
10
-47.192
20
15.227
0
VERTEX
8
L0D0_0
10
-47.207
20
15.144
0
VERTEX
8
L0D0_0
10
-47.229
20
15.063
0
VERTEX
8
L0D0_0
10
-47.259
20
14.985
0
VERTEX
8
L0D0_0
10
-47.295
20
14.909
0
VERTEX
8
L0D0_0
10
-47.338
20
14.837
0
VERTEX
8
L0D0_0
10
-47.388
20
14.769
0
VERTEX
8
L0D0_0
10
-47.443
20
14.706
0
VERTEX
8
L0D0_0
10
-47.504
20
14.648
0
VERTEX
8
L0D0_0
10
-47.569
20
14.595
0
VERTEX
8
L0D0_0
10
-47.64
20
14.549
0
VERTEX
8
L0D0_0
10
-47.714
20
14.509
0
VERTEX
8
L0D0_0
10
-47.791
20
14.476
0
VERTEX
8
L0D0_0
10
-47.871
20
14.45
0
VERTEX
8
L0D0_0
10
-47.953
20
14.431
0
VERTEX
8
L0D0_0
10
-48.036
20
14.42
0
SEQEND
0
POLYLINE
8
L0D0_0
70
1
40
0
41
0
66
1
0
VERTEX
8
L0D0_0
10
-28.62
20
14.416
0
VERTEX
8
L0D0_0
10
-28.704
20
14.42
0
VERTEX
8
L0D0_0
10
-28.787
20
14.431
0
VERTEX
8
L0D0_0
10
-28.869
20
14.45
0
VERTEX
8
L0D0_0
10
-28.949
20
14.476
0
VERTEX
8
L0D0_0
10
-29.026
20
14.509
0
VERTEX
8
L0D0_0
10
-29.1
20
14.549
0
VERTEX
8
L0D0_0
10
-29.17
20
14.595
0
VERTEX
8
L0D0_0
10
-29.236
20
14.648
0
VERTEX
8
L0D0_0
10
-29.297
20
14.706
0
VERTEX
8
L0D0_0
10
-29.352
20
14.769
0
VERTEX
8
L0D0_0
10
-29.401
20
14.837
0
VERTEX
8
L0D0_0
10
-29.444
20
14.909
0
VERTEX
8
L0D0_0
10
-29.481
20
14.985
0
VERTEX
8
L0D0_0
10
-29.51
20
15.063
0
VERTEX
8
L0D0_0
10
-29.533
20
15.144
0
VERTEX
8
L0D0_0
10
-29.548
20
15.227
0
VERTEX
8
L0D0_0
10
-29.555
20
15.311
0
VERTEX
8
L0D0_0
10
-29.555
20
23.689
0
VERTEX
8
L0D0_0
10
-29.548
20
23.773
0
VERTEX
8
L0D0_0
10
-29.533
20
23.856
0
VERTEX
8
L0D0_0
10
-29.51
20
23.937
0
VERTEX
8
L0D0_0
10
-29.481
20
24.015
0
VERTEX
8
L0D0_0
10
-29.444
20
24.091
0
VERTEX
8
L0D0_0
10
-29.401
20
24.163
0
VERTEX
8
L0D0_0
10
-29.352
20
24.231
0
VERTEX
8
L0D0_0
10
-29.297
20
24.294
0
VERTEX
8
L0D0_0
10
-29.236
20
24.352
0
VERTEX
8
L0D0_0
10
-29.17
20
24.405
0
VERTEX
8
L0D0_0
10
-29.1
20
24.451
0
VERTEX
8
L0D0_0
10
-29.026
20
24.491
0
VERTEX
8
L0D0_0
10
-28.949
20
24.524
0
VERTEX
8
L0D0_0
10
-28.869
20
24.55
0
VERTEX
8
L0D0_0
10
-28.787
20
24.569
0
VERTEX
8
L0D0_0
10
-28.704
20
24.58
0
VERTEX
8
L0D0_0
10
-28.62
20
24.584
0
VERTEX
8
L0D0_0
10
-28.536
20
24.58
0
VERTEX
8
L0D0_0
10
-28.453
20
24.569
0
VERTEX
8
L0D0_0
10
-28.371
20
24.55
0
VERTEX
8
L0D0_0
10
-28.291
20
24.524
0
VERTEX
8
L0D0_0
10
-28.214
20
24.491
0
VERTEX
8
L0D0_0
10
-28.14
20
24.451
0
VERTEX
8
L0D0_0
10
-28.069
20
24.405
0
VERTEX
8
L0D0_0
10
-28.004
20
24.352
0
VERTEX
8
L0D0_0
10
-27.943
20
24.294
0
VERTEX
8
L0D0_0
10
-27.888
20
24.231
0
VERTEX
8
L0D0_0
10
-27.838
20
24.163
0
VERTEX
8
L0D0_0
10
-27.795
20
24.091
0
VERTEX
8
L0D0_0
10
-27.759
20
24.015
0
VERTEX
8
L0D0_0
10
-27.729
20
23.937
0
VERTEX
8
L0D0_0
10
-27.707
20
23.856
0
VERTEX
8
L0D0_0
10
-27.692
20
23.773
0
VERTEX
8
L0D0_0
10
-27.684
20
23.689
0
VERTEX
8
L0D0_0
10
-27.684
20
15.311
0
VERTEX
8
L0D0_0
10
-27.692
20
15.227
0
VERTEX
8
L0D0_0
10
-27.707
20
15.144
0
VERTEX
8
L0D0_0
10
-27.729
20
15.063
0
VERTEX
8
L0D0_0
10
-27.759
20
14.985
0
VERTEX
8
L0D0_0
10
-27.795
20
14.909
0
VERTEX
8
L0D0_0
10
-27.838
20
14.837
0
VERTEX
8
L0D0_0
10
-27.888
20
14.769
0
VERTEX
8
L0D0_0
10
-27.943
20
14.706
0
VERTEX
8
L0D0_0
10
-28.004
20
14.648
0
VERTEX
8
L0D0_0
10
-28.069
20
14.595
0
VERTEX
8
L0D0_0
10
-28.14
20
14.549
0
VERTEX
8
L0D0_0
10
-28.214
20
14.509
0
VERTEX
8
L0D0_0
10
-28.291
20
14.476
0
VERTEX
8
L0D0_0
10
-28.371
20
14.45
0
VERTEX
8
L0D0_0
10
-28.453
20
14.431
0
VERTEX
8
L0D0_0
10
-28.536
20
14.42
0
SEQEND
0
POLYLINE
8
L0D0_0
70
1
40
0
41
0
66
1
0
VERTEX
8
L0D0_0
10
-9.12
20
14.416
0
VERTEX
8
L0D0_0
10
-9.204
20
14.42
0
VERTEX
8
L0D0_0
10
-9.287
20
14.431
0
VERTEX
8
L0D0_0
10
-9.369
20
14.45
0
VERTEX
8
L0D0_0
10
-9.449
20
14.476
0
VERTEX
8
L0D0_0
10
-9.526
20
14.509
0
VERTEX
8
L0D0_0
10
-9.6
20
14.549
0
VERTEX
8
L0D0_0
10
-9.67
20
14.595
0
VERTEX
8
L0D0_0
10
-9.736
20
14.648
0
VERTEX
8
L0D0_0
10
-9.797
20
14.706
0
VERTEX
8
L0D0_0
10
-9.852
20
14.769
0
VERTEX
8
L0D0_0
10
-9.901
20
14.837
0
VERTEX
8
L0D0_0
10
-9.944
20
14.909
0
VERTEX
8
L0D0_0
10
-9.981
20
14.985
0
VERTEX
8
L0D0_0
10
-10.01
20
15.063
0
VERTEX
8
L0D0_0
10
-10.033
20
15.144
0
VERTEX
8
L0D0_0
10
-10.048
20
15.227
0
VERTEX
8
L0D0_0
10
-10.055
20
15.311
0
VERTEX
8
L0D0_0
10
-10.055
20
23.689
0
VERTEX
8
L0D0_0
10
-10.048
20
23.773
0
VERTEX
8
L0D0_0
10
-10.033
20
23.856
0
VERTEX
8
L0D0_0
10
-10.01
20
23.937
0
VERTEX
8
L0D0_0
10
-9.981
20
24.015
0
VERTEX
8
L0D0_0
10
-9.944
20
24.091
0
VERTEX
8
L0D0_0
10
-9.901
20
24.163
0
VERTEX
8
L0D0_0
10
-9.852
20
24.231
0
VERTEX
8
L0D0_0
10
-9.797
20
24.294
0
VERTEX
8
L0D0_0
10
-9.736
20
24.352
0
VERTEX
8
L0D0_0
10
-9.67
20
24.405
0
VERTEX
8
L0D0_0
10
-9.6
20
24.451
0
VERTEX
8
L0D0_0
10
-9.526
20
24.491
0
VERTEX
8
L0D0_0
10
-9.449
20
24.524
0
VERTEX
8
L0D0_0
10
-9.369
20
24.55
0
VERTEX
8
L0D0_0
10
-9.287
20
24.569
0
VERTEX
8
L0D0_0
10
-9.204
20
24.58
0
VERTEX
8
L0D0_0
10
-9.12
20
24.584
0
VERTEX
8
L0D0_0
10
-9.036
20
24.58
0
VERTEX
8
L0D0_0
10
-8.953
20
24.569
0
VERTEX
8
L0D0_0
10
-8.871
20
24.55
0
VERTEX
8
L0D0_0
10
-8.791
20
24.524
0
VERTEX
8
L0D0_0
10
-8.714
20
24.491
0
VERTEX
8
L0D0_0
10
-8.64
20
24.451
0
VERTEX
8
L0D0_0
10
-8.569
20
24.405
0
VERTEX
8
L0D0_0
10
-8.504
20
24.352
0
VERTEX
8
L0D0_0
10
-8.443
20
24.294
0
VERTEX
8
L0D0_0
10
-8.388
20
24.231
0
VERTEX
8
L0D0_0
10
-8.338
20
24.163
0
VERTEX
8
L0D0_0
10
-8.295
20
24.091
0
VERTEX
8
L0D0_0
10
-8.259
20
24.015
0
VERTEX
8
L0D0_0
10
-8.229
20
23.937
0
VERTEX
8
L0D0_0
10
-8.207
20
23.856
0
VERTEX
8
L0D0_0
10
-8.192
20
23.773
0
VERTEX
8
L0D0_0
10
-8.184
20
23.689
0
VERTEX
8
L0D0_0
10
-8.184
20
15.311
0
VERTEX
8
L0D0_0
10
-8.192
20
15.227
0
VERTEX
8
L0D0_0
10
-8.207
20
15.144
0
VERTEX
8
L0D0_0
10
-8.229
20
15.063
0
VERTEX
8
L0D0_0
10
-8.259
20
14.985
0
VERTEX
8
L0D0_0
10
-8.295
20
14.909
0
VERTEX
8
L0D0_0
10
-8.338
20
14.837
0
VERTEX
8
L0D0_0
10
-8.388
20
14.769
0
VERTEX
8
L0D0_0
10
-8.443
20
14.706
0
VERTEX
8
L0D0_0
10
-8.504
20
14.648
0
VERTEX
8
L0D0_0
10
-8.569
20
14.595
0
VERTEX
8
L0D0_0
10
-8.64
20
14.549
0
VERTEX
8
L0D0_0
10
-8.714
20
14.509
0
VERTEX
8
L0D0_0
10
-8.791
20
14.476
0
VERTEX
8
L0D0_0
10
-8.871
20
14.45
0
VERTEX
8
L0D0_0
10
-8.953
20
14.431
0
VERTEX
8
L0D0_0
10
-9.036
20
14.42
0
SEQEND
0
POLYLINE
8
L0D0_0
70
1
40
0
41
0
66
1
0
VERTEX
8
L0D0_0
10
10.38
20
14.416
0
VERTEX
8
L0D0_0
10
10.296
20
14.42
0
VERTEX
8
L0D0_0
10
10.213
20
14.431
0
VERTEX
8
L0D0_0
10
10.131
20
14.45
0
VERTEX
8
L0D0_0
10
10.051
20
14.476
0
VERTEX
8
L0D0_0
10
9.974
20
14.509
0
VERTEX
8
L0D0_0
10
9.9
20
14.549
0
VERTEX
8
L0D0_0
10
9.83
20
14.595
0
VERTEX
8
L0D0_0
10
9.764
20
14.648
0
VERTEX
8
L0D0_0
10
9.703
20
14.706
0
VERTEX
8
L0D0_0
10
9.648
20
14.769
0
VERTEX
8
L0D0_0
10
9.599
20
14.837
0
VERTEX
8
L0D0_0
10
9.556
20
14.909
0
VERTEX
8
L0D0_0
10
9.519
20
14.985
0
VERTEX
8
L0D0_0
10
9.49
20
15.063
0
VERTEX
8
L0D0_0
10
9.467
20
15.144
0
VERTEX
8
L0D0_0
10
9.452
20
15.227
0
VERTEX
8
L0D0_0
10
9.445
20
15.311
0
VERTEX
8
L0D0_0
10
9.445
20
23.689
0
VERTEX
8
L0D0_0
10
9.452
20
23.773
0
VERTEX
8
L0D0_0
10
9.467
20
23.856
0
VERTEX
8
L0D0_0
10
9.49
20
23.937
0
VERTEX
8
L0D0_0
10
9.519
20
24.015
0
VERTEX
8
L0D0_0
10
9.556
20
24.091
0
VERTEX
8
L0D0_0
10
9.599
20
24.163
0
VERTEX
8
L0D0_0
10
9.648
20
24.231
0
VERTEX
8
L0D0_0
10
9.703
20
24.294
0
VERTEX
8
L0D0_0
10
9.764
20
24.352
0
VERTEX
8
L0D0_0
10
9.83
20
24.405
0
VERTEX
8
L0D0_0
10
9.9
20
24.451
0
VERTEX
8
L0D0_0
10
9.974
20
24.491
0
VERTEX
8
L0D0_0
10
10.051
20
24.524
0
VERTEX
8
L0D0_0
10
10.131
20
24.55
0
VERTEX
8
L0D0_0
10
10.213
20
24.569
0
VERTEX
8
L0D0_0
10
10.296
20
24.58
0
VERTEX
8
L0D0_0
10
10.38
20
24.584
0
VERTEX
8
L0D0_0
10
10.464
20
24.58
0
VERTEX
8
L0D0_0
10
10.547
20
24.569
0
VERTEX
8
L0D0_0
10
10.629
20
24.55
0
VERTEX
8
L0D0_0
10
10.709
20
24.524
0
VERTEX
8
L0D0_0
10
10.786
20
24.491
0
VERTEX
8
L0D0_0
10
10.86
20
24.451
0
VERTEX
8
L0D0_0
10
10.931
20
24.405
0
VERTEX
8
L0D0_0
10
10.996
20
24.352
0
VERTEX
8
L0D0_0
10
11.057
20
24.294
0
VERTEX
8
L0D0_0
10
11.112
20
24.231
0
VERTEX
8
L0D0_0
10
11.162
20
24.163
0
VERTEX
8
L0D0_0
10
11.205
20
24.091
0
VERTEX
8
L0D0_0
10
11.241
20
24.015
0
VERTEX
8
L0D0_0
10
11.271
20
23.937
0
VERTEX
8
L0D0_0
10
11.293
20
23.856
0
VERTEX
8
L0D0_0
10
11.308
20
23.773
0
VERTEX
8
L0D0_0
10
11.316
20
23.689
0
VERTEX
8
L0D0_0
10
11.316
20
15.311
0
VERTEX
8
L0D0_0
10
11.308
20
15.227
0
VERTEX
8
L0D0_0
10
11.293
20
15.144
0
VERTEX
8
L0D0_0
10
11.271
20
15.063
0
VERTEX
8
L0D0_0
10
11.241
20
14.985
0
VERTEX
8
L0D0_0
10
11.205
20
14.909
0
VERTEX
8
L0D0_0
10
11.162
20
14.837
0
VERTEX
8
L0D0_0
10
11.112
20
14.769
0
VERTEX
8
L0D0_0
10
11.057
20
14.706
0
VERTEX
8
L0D0_0
10
10.996
20
14.648
0
VERTEX
8
L0D0_0
10
10.931
20
14.595
0
VERTEX
8
L0D0_0
10
10.86
20
14.549
0
VERTEX
8
L0D0_0
10
10.786
20
14.509
0
VERTEX
8
L0D0_0
10
10.709
20
14.476
0
VERTEX
8
L0D0_0
10
10.629
20
14.45
0
VERTEX
8
L0D0_0
10
10.547
20
14.431
0
VERTEX
8
L0D0_0
10
10.464
20
14.42
0
SEQEND
0
POLYLINE
8
L0D0_0
70
1
40
0
41
0
66
1
0
VERTEX
8
L0D0_0
10
29.88
20
14.416
0
VERTEX
8
L0D0_0
10
29.796
20
14.42
0
VERTEX
8
L0D0_0
10
29.713
20
14.431
0
VERTEX
8
L0D0_0
10
29.631
20
14.45
0
VERTEX
8
L0D0_0
10
29.551
20
14.476
0
VERTEX
8
L0D0_0
10
29.474
20
14.509
0
VERTEX
8
L0D0_0
10
29.4
20
14.549
0
VERTEX
8
L0D0_0
10
29.33
20
14.595
0
VERTEX
8
L0D0_0
10
29.264
20
14.648
0
VERTEX
8
L0D0_0
10
29.203
20
14.706
0
VERTEX
8
L0D0_0
10
29.148
20
14.769
0
VERTEX
8
L0D0_0
10
29.099
20
14.837
0
VERTEX
8
L0D0_0
10
29.056
20
14.909
0
VERTEX
8
L0D0_0
10
29.019
20
14.985
0
VERTEX
8
L0D0_0
10
28.99
20
15.063
0
VERTEX
8
L0D0_0
10
28.967
20
15.144
0
VERTEX
8
L0D0_0
10
28.952
20
15.227
0
VERTEX
8
L0D0_0
10
28.945
20
15.311
0
VERTEX
8
L0D0_0
10
28.945
20
23.689
0
VERTEX
8
L0D0_0
10
28.952
20
23.773
0
VERTEX
8
L0D0_0
10
28.967
20
23.856
0
VERTEX
8
L0D0_0
10
28.99
20
23.937
0
VERTEX
8
L0D0_0
10
29.019
20
24.015
0
VERTEX
8
L0D0_0
10
29.056
20
24.091
0
VERTEX
8
L0D0_0
10
29.099
20
24.163
0
VERTEX
8
L0D0_0
10
29.148
20
24.231
0
VERTEX
8
L0D0_0
10
29.203
20
24.294
0
VERTEX
8
L0D0_0
10
29.264
20
24.352
0
VERTEX
8
L0D0_0
10
29.33
20
24.405
0
VERTEX
8
L0D0_0
10
29.4
20
24.451
0
VERTEX
8
L0D0_0
10
29.474
20
24.491
0
VERTEX
8
L0D0_0
10
29.551
20
24.524
0
VERTEX
8
L0D0_0
10
29.631
20
24.55
0
VERTEX
8
L0D0_0
10
29.713
20
24.569
0
VERTEX
8
L0D0_0
10
29.796
20
24.58
0
VERTEX
8
L0D0_0
10
29.88
20
24.584
0
VERTEX
8
L0D0_0
10
29.964
20
24.58
0
VERTEX
8
L0D0_0
10
30.047
20
24.569
0
VERTEX
8
L0D0_0
10
30.129
20
24.55
0
VERTEX
8
L0D0_0
10
30.209
20
24.524
0
VERTEX
8
L0D0_0
10
30.286
20
24.491
0
VERTEX
8
L0D0_0
10
30.36
20
24.451
0
VERTEX
8
L0D0_0
10
30.431
20
24.405
0
VERTEX
8
L0D0_0
10
30.496
20
24.352
0
VERTEX
8
L0D0_0
10
30.557
20
24.294
0
VERTEX
8
L0D0_0
10
30.612
20
24.231
0
VERTEX
8
L0D0_0
10
30.662
20
24.163
0
VERTEX
8
L0D0_0
10
30.705
20
24.091
0
VERTEX
8
L0D0_0
10
30.741
20
24.015
0
VERTEX
8
L0D0_0
10
30.771
20
23.937
0
VERTEX
8
L0D0_0
10
30.793
20
23.856
0
VERTEX
8
L0D0_0
10
30.808
20
23.773
0
VERTEX
8
L0D0_0
10
30.816
20
23.689
0
VERTEX
8
L0D0_0
10
30.816
20
15.311
0
VERTEX
8
L0D0_0
10
30.808
20
15.227
0
VERTEX
8
L0D0_0
10
30.793
20
15.144
0
VERTEX
8
L0D0_0
10
30.771
20
15.063
0
VERTEX
8
L0D0_0
10
30.741
20
14.985
0
VERTEX
8
L0D0_0
10
30.705
20
14.909
0
VERTEX
8
L0D0_0
10
30.662
20
14.837
0
VERTEX
8
L0D0_0
10
30.612
20
14.769
0
VERTEX
8
L0D0_0
10
30.557
20
14.706
0
VERTEX
8
L0D0_0
10
30.496
20
14.648
0
VERTEX
8
L0D0_0
10
30.431
20
14.595
0
VERTEX
8
L0D0_0
10
30.36
20
14.549
0
VERTEX
8
L0D0_0
10
30.286
20
14.509
0
VERTEX
8
L0D0_0
10
30.209
20
14.476
0
VERTEX
8
L0D0_0
10
30.129
20
14.45
0
VERTEX
8
L0D0_0
10
30.047
20
14.431
0
VERTEX
8
L0D0_0
10
29.964
20
14.42
0
SEQEND
0
POLYLINE
8
L0D0_0
70
1
40
0
41
0
66
1
0
VERTEX
8
L0D0_0
10
49.38
20
14.416
0
VERTEX
8
L0D0_0
10
49.296
20
14.42
0
VERTEX
8
L0D0_0
10
49.213
20
14.431
0
VERTEX
8
L0D0_0
10
49.131
20
14.45
0
VERTEX
8
L0D0_0
10
49.051
20
14.476
0
VERTEX
8
L0D0_0
10
48.974
20
14.509
0
VERTEX
8
L0D0_0
10
48.9
20
14.549
0
VERTEX
8
L0D0_0
10
48.83
20
14.595
0
VERTEX
8
L0D0_0
10
48.764
20
14.648
0
VERTEX
8
L0D0_0
10
48.703
20
14.706
0
VERTEX
8
L0D0_0
10
48.648
20
14.769
0
VERTEX
8
L0D0_0
10
48.599
20
14.837
0
VERTEX
8
L0D0_0
10
48.556
20
14.909
0
VERTEX
8
L0D0_0
10
48.519
20
14.985
0
VERTEX
8
L0D0_0
10
48.49
20
15.063
0
VERTEX
8
L0D0_0
10
48.467
20
15.144
0
VERTEX
8
L0D0_0
10
48.452
20
15.227
0
VERTEX
8
L0D0_0
10
48.445
20
15.311
0
VERTEX
8
L0D0_0
10
48.445
20
23.689
0
VERTEX
8
L0D0_0
10
48.452
20
23.773
0
VERTEX
8
L0D0_0
10
48.467
20
23.856
0
VERTEX
8
L0D0_0
10
48.49
20
23.937
0
VERTEX
8
L0D0_0
10
48.519
20
24.015
0
VERTEX
8
L0D0_0
10
48.556
20
24.091
0
VERTEX
8
L0D0_0
10
48.599
20
24.163
0
VERTEX
8
L0D0_0
10
48.648
20
24.231
0
VERTEX
8
L0D0_0
10
48.703
20
24.294
0
VERTEX
8
L0D0_0
10
48.764
20
24.352
0
VERTEX
8
L0D0_0
10
48.83
20
24.405
0
VERTEX
8
L0D0_0
10
48.9
20
24.451
0
VERTEX
8
L0D0_0
10
48.974
20
24.491
0
VERTEX
8
L0D0_0
10
49.051
20
24.524
0
VERTEX
8
L0D0_0
10
49.131
20
24.55
0
VERTEX
8
L0D0_0
10
49.213
20
24.569
0
VERTEX
8
L0D0_0
10
49.296
20
24.58
0
VERTEX
8
L0D0_0
10
49.38
20
24.584
0
VERTEX
8
L0D0_0
10
49.464
20
24.58
0
VERTEX
8
L0D0_0
10
49.547
20
24.569
0
VERTEX
8
L0D0_0
10
49.629
20
24.55
0
VERTEX
8
L0D0_0
10
49.709
20
24.524
0
VERTEX
8
L0D0_0
10
49.786
20
24.491
0
VERTEX
8
L0D0_0
10
49.86
20
24.451
0
VERTEX
8
L0D0_0
10
49.931
20
24.405
0
VERTEX
8
L0D0_0
10
49.996
20
24.352
0
VERTEX
8
L0D0_0
10
50.057
20
24.294
0
VERTEX
8
L0D0_0
10
50.112
20
24.231
0
VERTEX
8
L0D0_0
10
50.162
20
24.163
0
VERTEX
8
L0D0_0
10
50.205
20
24.091
0
VERTEX
8
L0D0_0
10
50.241
20
24.015
0
VERTEX
8
L0D0_0
10
50.271
20
23.937
0
VERTEX
8
L0D0_0
10
50.293
20
23.856
0
VERTEX
8
L0D0_0
10
50.308
20
23.773
0
VERTEX
8
L0D0_0
10
50.316
20
23.689
0
VERTEX
8
L0D0_0
10
50.316
20
15.311
0
VERTEX
8
L0D0_0
10
50.308
20
15.227
0
VERTEX
8
L0D0_0
10
50.293
20
15.144
0
VERTEX
8
L0D0_0
10
50.271
20
15.063
0
VERTEX
8
L0D0_0
10
50.241
20
14.985
0
VERTEX
8
L0D0_0
10
50.205
20
14.909
0
VERTEX
8
L0D0_0
10
50.162
20
14.837
0
VERTEX
8
L0D0_0
10
50.112
20
14.769
0
VERTEX
8
L0D0_0
10
50.057
20
14.706
0
VERTEX
8
L0D0_0
10
49.996
20
14.648
0
VERTEX
8
L0D0_0
10
49.931
20
14.595
0
VERTEX
8
L0D0_0
10
49.86
20
14.549
0
VERTEX
8
L0D0_0
10
49.786
20
14.509
0
VERTEX
8
L0D0_0
10
49.709
20
14.476
0
VERTEX
8
L0D0_0
10
49.629
20
14.45
0
VERTEX
8
L0D0_0
10
49.547
20
14.431
0
VERTEX
8
L0D0_0
10
49.464
20
14.42
0
SEQEND
0
POLYLINE
8
L0D0_0
70
1
40
0
41
0
66
1
0
VERTEX
8
L0D0_0
10
-28.62
20
-5.084
0
VERTEX
8
L0D0_0
10
-28.704
20
-5.08
0
VERTEX
8
L0D0_0
10
-28.787
20
-5.069
0
VERTEX
8
L0D0_0
10
-28.869
20
-5.05
0
VERTEX
8
L0D0_0
10
-28.949
20
-5.024
0
VERTEX
8
L0D0_0
10
-29.026
20
-4.991
0
VERTEX
8
L0D0_0
10
-29.1
20
-4.951
0
VERTEX
8
L0D0_0
10
-29.17
20
-4.905
0
VERTEX
8
L0D0_0
10
-29.236
20
-4.852
0
VERTEX
8
L0D0_0
10
-29.297
20
-4.794
0
VERTEX
8
L0D0_0
10
-29.352
20
-4.731
0
VERTEX
8
L0D0_0
10
-29.401
20
-4.663
0
VERTEX
8
L0D0_0
10
-29.444
20
-4.591
0
VERTEX
8
L0D0_0
10
-29.481
20
-4.515
0
VERTEX
8
L0D0_0
10
-29.51
20
-4.437
0
VERTEX
8
L0D0_0
10
-29.533
20
-4.356
0
VERTEX
8
L0D0_0
10
-29.548
20
-4.273
0
VERTEX
8
L0D0_0
10
-29.555
20
-4.189
0
VERTEX
8
L0D0_0
10
-29.555
20
4.189
0
VERTEX
8
L0D0_0
10
-29.548
20
4.273
0
VERTEX
8
L0D0_0
10
-29.533
20
4.356
0
VERTEX
8
L0D0_0
10
-29.51
20
4.437
0
VERTEX
8
L0D0_0
10
-29.481
20
4.515
0
VERTEX
8
L0D0_0
10
-29.444
20
4.591
0
VERTEX
8
L0D0_0
10
-29.401
20
4.663
0
VERTEX
8
L0D0_0
10
-29.352
20
4.731
0
VERTEX
8
L0D0_0
10
-29.297
20
4.794
0
VERTEX
8
L0D0_0
10
-29.236
20
4.852
0
VERTEX
8
L0D0_0
10
-29.17
20
4.905
0
VERTEX
8
L0D0_0
10
-29.1
20
4.951
0
VERTEX
8
L0D0_0
10
-29.026
20
4.991
0
VERTEX
8
L0D0_0
10
-28.949
20
5.024
0
VERTEX
8
L0D0_0
10
-28.869
20
5.05
0
VERTEX
8
L0D0_0
10
-28.787
20
5.069
0
VERTEX
8
L0D0_0
10
-28.704
20
5.08
0
VERTEX
8
L0D0_0
10
-28.62
20
5.084
0
VERTEX
8
L0D0_0
10
-28.536
20
5.08
0
VERTEX
8
L0D0_0
10
-28.453
20
5.069
0
VERTEX
8
L0D0_0
10
-28.371
20
5.05
0
VERTEX
8
L0D0_0
10
-28.291
20
5.024
0
VERTEX
8
L0D0_0
10
-28.214
20
4.991
0
VERTEX
8
L0D0_0
10
-28.14
20
4.951
0
VERTEX
8
L0D0_0
10
-28.069
20
4.905
0
VERTEX
8
L0D0_0
10
-28.004
20
4.852
0
VERTEX
8
L0D0_0
10
-27.943
20
4.794
0
VERTEX
8
L0D0_0
10
-27.888
20
4.731
0
VERTEX
8
L0D0_0
10
-27.838
20
4.663
0
VERTEX
8
L0D0_0
10
-27.795
20
4.591
0
VERTEX
8
L0D0_0
10
-27.759
20
4.515
0
VERTEX
8
L0D0_0
10
-27.729
20
4.437
0
VERTEX
8
L0D0_0
10
-27.707
20
4.356
0
VERTEX
8
L0D0_0
10
-27.692
20
4.273
0
VERTEX
8
L0D0_0
10
-27.684
20
4.189
0
VERTEX
8
L0D0_0
10
-27.684
20
-4.189
0
VERTEX
8
L0D0_0
10
-27.692
20
-4.273
0
VERTEX
8
L0D0_0
10
-27.707
20
-4.356
0
VERTEX
8
L0D0_0
10
-27.729
20
-4.437
0
VERTEX
8
L0D0_0
10
-27.759
20
-4.515
0
VERTEX
8
L0D0_0
10
-27.795
20
-4.591
0
VERTEX
8
L0D0_0
10
-27.838
20
-4.663
0
VERTEX
8
L0D0_0
10
-27.888
20
-4.731
0
VERTEX
8
L0D0_0
10
-27.943
20
-4.794
0
VERTEX
8
L0D0_0
10
-28.004
20
-4.852
0
VERTEX
8
L0D0_0
10
-28.069
20
-4.905
0
VERTEX
8
L0D0_0
10
-28.14
20
-4.951
0
VERTEX
8
L0D0_0
10
-28.214
20
-4.991
0
VERTEX
8
L0D0_0
10
-28.291
20
-5.024
0
VERTEX
8
L0D0_0
10
-28.371
20
-5.05
0
VERTEX
8
L0D0_0
10
-28.453
20
-5.069
0
VERTEX
8
L0D0_0
10
-28.536
20
-5.08
0
SEQEND
0
POLYLINE
8
L0D0_0
70
1
40
0
41
0
66
1
0
VERTEX
8
L0D0_0
10
-9.12
20
-5.084
0
VERTEX
8
L0D0_0
10
-9.204
20
-5.08
0
VERTEX
8
L0D0_0
10
-9.287
20
-5.069
0
VERTEX
8
L0D0_0
10
-9.369
20
-5.05
0
VERTEX
8
L0D0_0
10
-9.449
20
-5.024
0
VERTEX
8
L0D0_0
10
-9.526
20
-4.991
0
VERTEX
8
L0D0_0
10
-9.6
20
-4.951
0
VERTEX
8
L0D0_0
10
-9.67
20
-4.905
0
VERTEX
8
L0D0_0
10
-9.736
20
-4.852
0
VERTEX
8
L0D0_0
10
-9.797
20
-4.794
0
VERTEX
8
L0D0_0
10
-9.852
20
-4.731
0
VERTEX
8
L0D0_0
10
-9.901
20
-4.663
0
VERTEX
8
L0D0_0
10
-9.944
20
-4.591
0
VERTEX
8
L0D0_0
10
-9.981
20
-4.515
0
VERTEX
8
L0D0_0
10
-10.01
20
-4.437
0
VERTEX
8
L0D0_0
10
-10.033
20
-4.356
0
VERTEX
8
L0D0_0
10
-10.048
20
-4.273
0
VERTEX
8
L0D0_0
10
-10.055
20
-4.189
0
VERTEX
8
L0D0_0
10
-10.055
20
4.189
0
VERTEX
8
L0D0_0
10
-10.048
20
4.273
0
VERTEX
8
L0D0_0
10
-10.033
20
4.356
0
VERTEX
8
L0D0_0
10
-10.01
20
4.437
0
VERTEX
8
L0D0_0
10
-9.981
20
4.515
0
VERTEX
8
L0D0_0
10
-9.944
20
4.591
0
VERTEX
8
L0D0_0
10
-9.901
20
4.663
0
VERTEX
8
L0D0_0
10
-9.852
20
4.731
0
VERTEX
8
L0D0_0
10
-9.797
20
4.794
0
VERTEX
8
L0D0_0
10
-9.736
20
4.852
0
VERTEX
8
L0D0_0
10
-9.67
20
4.905
0
VERTEX
8
L0D0_0
10
-9.6
20
4.951
0
VERTEX
8
L0D0_0
10
-9.526
20
4.991
0
VERTEX
8
L0D0_0
10
-9.449
20
5.024
0
VERTEX
8
L0D0_0
10
-9.369
20
5.05
0
VERTEX
8
L0D0_0
10
-9.287
20
5.069
0
VERTEX
8
L0D0_0
10
-9.204
20
5.08
0
VERTEX
8
L0D0_0
10
-9.12
20
5.084
0
VERTEX
8
L0D0_0
10
-9.036
20
5.08
0
VERTEX
8
L0D0_0
10
-8.953
20
5.069
0
VERTEX
8
L0D0_0
10
-8.871
20
5.05
0
VERTEX
8
L0D0_0
10
-8.791
20
5.024
0
VERTEX
8
L0D0_0
10
-8.714
20
4.991
0
VERTEX
8
L0D0_0
10
-8.64
20
4.951
0
VERTEX
8
L0D0_0
10
-8.569
20
4.905
0
VERTEX
8
L0D0_0
10
-8.504
20
4.852
0
VERTEX
8
L0D0_0
10
-8.443
20
4.794
0
VERTEX
8
L0D0_0
10
-8.388
20
4.731
0
VERTEX
8
L0D0_0
10
-8.338
20
4.663
0
VERTEX
8
L0D0_0
10
-8.295
20
4.591
0
VERTEX
8
L0D0_0
10
-8.259
20
4.515
0
VERTEX
8
L0D0_0
10
-8.229
20
4.437
0
VERTEX
8
L0D0_0
10
-8.207
20
4.356
0
VERTEX
8
L0D0_0
10
-8.192
20
4.273
0
VERTEX
8
L0D0_0
10
-8.184
20
4.189
0
VERTEX
8
L0D0_0
10
-8.184
20
-4.189
0
VERTEX
8
L0D0_0
10
-8.192
20
-4.273
0
VERTEX
8
L0D0_0
10
-8.207
20
-4.356
0
VERTEX
8
L0D0_0
10
-8.229
20
-4.437
0
VERTEX
8
L0D0_0
10
-8.259
20
-4.515
0
VERTEX
8
L0D0_0
10
-8.295
20
-4.591
0
VERTEX
8
L0D0_0
10
-8.338
20
-4.663
0
VERTEX
8
L0D0_0
10
-8.388
20
-4.731
0
VERTEX
8
L0D0_0
10
-8.443
20
-4.794
0
VERTEX
8
L0D0_0
10
-8.504
20
-4.852
0
VERTEX
8
L0D0_0
10
-8.569
20
-4.905
0
VERTEX
8
L0D0_0
10
-8.64
20
-4.951
0
VERTEX
8
L0D0_0
10
-8.714
20
-4.991
0
VERTEX
8
L0D0_0
10
-8.791
20
-5.024
0
VERTEX
8
L0D0_0
10
-8.871
20
-5.05
0
VERTEX
8
L0D0_0
10
-8.953
20
-5.069
0
VERTEX
8
L0D0_0
10
-9.036
20
-5.08
0
SEQEND
0
POLYLINE
8
L0D0_0
70
1
40
0
41
0
66
1
0
VERTEX
8
L0D0_0
10
10.38
20
-5.084
0
VERTEX
8
L0D0_0
10
10.296
20
-5.08
0
VERTEX
8
L0D0_0
10
10.213
20
-5.069
0
VERTEX
8
L0D0_0
10
10.131
20
-5.05
0
VERTEX
8
L0D0_0
10
10.051
20
-5.024
0
VERTEX
8
L0D0_0
10
9.974
20
-4.991
0
VERTEX
8
L0D0_0
10
9.9
20
-4.951
0
VERTEX
8
L0D0_0
10
9.83
20
-4.905
0
VERTEX
8
L0D0_0
10
9.764
20
-4.852
0
VERTEX
8
L0D0_0
10
9.703
20
-4.794
0
VERTEX
8
L0D0_0
10
9.648
20
-4.731
0
VERTEX
8
L0D0_0
10
9.599
20
-4.663
0
VERTEX
8
L0D0_0
10
9.556
20
-4.591
0
VERTEX
8
L0D0_0
10
9.519
20
-4.515
0
VERTEX
8
L0D0_0
10
9.49
20
-4.437
0
VERTEX
8
L0D0_0
10
9.467
20
-4.356
0
VERTEX
8
L0D0_0
10
9.452
20
-4.273
0
VERTEX
8
L0D0_0
10
9.445
20
-4.189
0
VERTEX
8
L0D0_0
10
9.445
20
4.189
0
VERTEX
8
L0D0_0
10
9.452
20
4.273
0
VERTEX
8
L0D0_0
10
9.467
20
4.356
0
VERTEX
8
L0D0_0
10
9.49
20
4.437
0
VERTEX
8
L0D0_0
10
9.519
20
4.515
0
VERTEX
8
L0D0_0
10
9.556
20
4.591
0
VERTEX
8
L0D0_0
10
9.599
20
4.663
0
VERTEX
8
L0D0_0
10
9.648
20
4.731
0
VERTEX
8
L0D0_0
10
9.703
20
4.794
0
VERTEX
8
L0D0_0
10
9.764
20
4.852
0
VERTEX
8
L0D0_0
10
9.83
20
4.905
0
VERTEX
8
L0D0_0
10
9.9
20
4.951
0
VERTEX
8
L0D0_0
10
9.974
20
4.991
0
VERTEX
8
L0D0_0
10
10.051
20
5.024
0
VERTEX
8
L0D0_0
10
10.131
20
5.05
0
VERTEX
8
L0D0_0
10
10.213
20
5.069
0
VERTEX
8
L0D0_0
10
10.296
20
5.08
0
VERTEX
8
L0D0_0
10
10.38
20
5.084
0
VERTEX
8
L0D0_0
10
10.464
20
5.08
0
VERTEX
8
L0D0_0
10
10.547
20
5.069
0
VERTEX
8
L0D0_0
10
10.629
20
5.05
0
VERTEX
8
L0D0_0
10
10.709
20
5.024
0
VERTEX
8
L0D0_0
10
10.786
20
4.991
0
VERTEX
8
L0D0_0
10
10.86
20
4.951
0
VERTEX
8
L0D0_0
10
10.931
20
4.905
0
VERTEX
8
L0D0_0
10
10.996
20
4.852
0
VERTEX
8
L0D0_0
10
11.057
20
4.794
0
VERTEX
8
L0D0_0
10
11.112
20
4.731
0
VERTEX
8
L0D0_0
10
11.162
20
4.663
0
VERTEX
8
L0D0_0
10
11.205
20
4.591
0
VERTEX
8
L0D0_0
10
11.241
20
4.515
0
VERTEX
8
L0D0_0
10
11.271
20
4.437
0
VERTEX
8
L0D0_0
10
11.293
20
4.356
0
VERTEX
8
L0D0_0
10
11.308
20
4.273
0
VERTEX
8
L0D0_0
10
11.316
20
4.189
0
VERTEX
8
L0D0_0
10
11.316
20
-4.189
0
VERTEX
8
L0D0_0
10
11.308
20
-4.273
0
VERTEX
8
L0D0_0
10
11.293
20
-4.356
0
VERTEX
8
L0D0_0
10
11.271
20
-4.437
0
VERTEX
8
L0D0_0
10
11.241
20
-4.515
0
VERTEX
8
L0D0_0
10
11.205
20
-4.591
0
VERTEX
8
L0D0_0
10
11.162
20
-4.663
0
VERTEX
8
L0D0_0
10
11.112
20
-4.731
0
VERTEX
8
L0D0_0
10
11.057
20
-4.794
0
VERTEX
8
L0D0_0
10
10.996
20
-4.852
0
VERTEX
8
L0D0_0
10
10.931
20
-4.905
0
VERTEX
8
L0D0_0
10
10.86
20
-4.951
0
VERTEX
8
L0D0_0
10
10.786
20
-4.991
0
VERTEX
8
L0D0_0
10
10.709
20
-5.024
0
VERTEX
8
L0D0_0
10
10.629
20
-5.05
0
VERTEX
8
L0D0_0
10
10.547
20
-5.069
0
VERTEX
8
L0D0_0
10
10.464
20
-5.08
0
SEQEND
0
POLYLINE
8
L0D0_0
70
1
40
0
41
0
66
1
0
VERTEX
8
L0D0_0
10
29.88
20
-5.084
0
VERTEX
8
L0D0_0
10
29.796
20
-5.08
0
VERTEX
8
L0D0_0
10
29.713
20
-5.069
0
VERTEX
8
L0D0_0
10
29.631
20
-5.05
0
VERTEX
8
L0D0_0
10
29.551
20
-5.024
0
VERTEX
8
L0D0_0
10
29.474
20
-4.991
0
VERTEX
8
L0D0_0
10
29.4
20
-4.951
0
VERTEX
8
L0D0_0
10
29.33
20
-4.905
0
VERTEX
8
L0D0_0
10
29.264
20
-4.852
0
VERTEX
8
L0D0_0
10
29.203
20
-4.794
0
VERTEX
8
L0D0_0
10
29.148
20
-4.731
0
VERTEX
8
L0D0_0
10
29.099
20
-4.663
0
VERTEX
8
L0D0_0
10
29.056
20
-4.591
0
VERTEX
8
L0D0_0
10
29.019
20
-4.515
0
VERTEX
8
L0D0_0
10
28.99
20
-4.437
0
VERTEX
8
L0D0_0
10
28.967
20
-4.356
0
VERTEX
8
L0D0_0
10
28.952
20
-4.273
0
VERTEX
8
L0D0_0
10
28.945
20
-4.189
0
VERTEX
8
L0D0_0
10
28.945
20
4.189
0
VERTEX
8
L0D0_0
10
28.952
20
4.273
0
VERTEX
8
L0D0_0
10
28.967
20
4.356
0
VERTEX
8
L0D0_0
10
28.99
20
4.437
0
VERTEX
8
L0D0_0
10
29.019
20
4.515
0
VERTEX
8
L0D0_0
10
29.056
20
4.591
0
VERTEX
8
L0D0_0
10
29.099
20
4.663
0
VERTEX
8
L0D0_0
10
29.148
20
4.731
0
VERTEX
8
L0D0_0
10
29.203
20
4.794
0
VERTEX
8
L0D0_0
10
29.264
20
4.852
0
VERTEX
8
L0D0_0
10
29.33
20
4.905
0
VERTEX
8
L0D0_0
10
29.4
20
4.951
0
VERTEX
8
L0D0_0
10
29.474
20
4.991
0
VERTEX
8
L0D0_0
10
29.551
20
5.024
0
VERTEX
8
L0D0_0
10
29.631
20
5.05
0
VERTEX
8
L0D0_0
10
29.713
20
5.069
0
VERTEX
8
L0D0_0
10
29.796
20
5.08
0
VERTEX
8
L0D0_0
10
29.88
20
5.084
0
VERTEX
8
L0D0_0
10
29.964
20
5.08
0
VERTEX
8
L0D0_0
10
30.047
20
5.069
0
VERTEX
8
L0D0_0
10
30.129
20
5.05
0
VERTEX
8
L0D0_0
10
30.209
20
5.024
0
VERTEX
8
L0D0_0
10
30.286
20
4.991
0
VERTEX
8
L0D0_0
10
30.36
20
4.951
0
VERTEX
8
L0D0_0
10
30.431
20
4.905
0
VERTEX
8
L0D0_0
10
30.496
20
4.852
0
VERTEX
8
L0D0_0
10
30.557
20
4.794
0
VERTEX
8
L0D0_0
10
30.612
20
4.731
0
VERTEX
8
L0D0_0
10
30.662
20
4.663
0
VERTEX
8
L0D0_0
10
30.705
20
4.591
0
VERTEX
8
L0D0_0
10
30.741
20
4.515
0
VERTEX
8
L0D0_0
10
30.771
20
4.437
0
VERTEX
8
L0D0_0
10
30.793
20
4.356
0
VERTEX
8
L0D0_0
10
30.808
20
4.273
0
VERTEX
8
L0D0_0
10
30.816
20
4.189
0
VERTEX
8
L0D0_0
10
30.816
20
-4.189
0
VERTEX
8
L0D0_0
10
30.808
20
-4.273
0
VERTEX
8
L0D0_0
10
30.793
20
-4.356
0
VERTEX
8
L0D0_0
10
30.771
20
-4.437
0
VERTEX
8
L0D0_0
10
30.741
20
-4.515
0
VERTEX
8
L0D0_0
10
30.705
20
-4.591
0
VERTEX
8
L0D0_0
10
30.662
20
-4.663
0
VERTEX
8
L0D0_0
10
30.612
20
-4.731
0
VERTEX
8
L0D0_0
10
30.557
20
-4.794
0
VERTEX
8
L0D0_0
10
30.496
20
-4.852
0
VERTEX
8
L0D0_0
10
30.431
20
-4.905
0
VERTEX
8
L0D0_0
10
30.36
20
-4.951
0
VERTEX
8
L0D0_0
10
30.286
20
-4.991
0
VERTEX
8
L0D0_0
10
30.209
20
-5.024
0
VERTEX
8
L0D0_0
10
30.129
20
-5.05
0
VERTEX
8
L0D0_0
10
30.047
20
-5.069
0
VERTEX
8
L0D0_0
10
29.964
20
-5.08
0
SEQEND
0
POLYLINE
8
L0D0_0
70
1
40
0
41
0
66
1
0
VERTEX
8
L0D0_0
10
49.38
20
-5.084
0
VERTEX
8
L0D0_0
10
49.296
20
-5.08
0
VERTEX
8
L0D0_0
10
49.213
20
-5.069
0
VERTEX
8
L0D0_0
10
49.131
20
-5.05
0
VERTEX
8
L0D0_0
10
49.051
20
-5.024
0
VERTEX
8
L0D0_0
10
48.974
20
-4.991
0
VERTEX
8
L0D0_0
10
48.9
20
-4.951
0
VERTEX
8
L0D0_0
10
48.83
20
-4.905
0
VERTEX
8
L0D0_0
10
48.764
20
-4.852
0
VERTEX
8
L0D0_0
10
48.703
20
-4.794
0
VERTEX
8
L0D0_0
10
48.648
20
-4.731
0
VERTEX
8
L0D0_0
10
48.599
20
-4.663
0
VERTEX
8
L0D0_0
10
48.556
20
-4.591
0
VERTEX
8
L0D0_0
10
48.519
20
-4.515
0
VERTEX
8
L0D0_0
10
48.49
20
-4.437
0
VERTEX
8
L0D0_0
10
48.467
20
-4.356
0
VERTEX
8
L0D0_0
10
48.452
20
-4.273
0
VERTEX
8
L0D0_0
10
48.445
20
-4.189
0
VERTEX
8
L0D0_0
10
48.445
20
4.189
0
VERTEX
8
L0D0_0
10
48.452
20
4.273
0
VERTEX
8
L0D0_0
10
48.467
20
4.356
0
VERTEX
8
L0D0_0
10
48.49
20
4.437
0
VERTEX
8
L0D0_0
10
48.519
20
4.515
0
VERTEX
8
L0D0_0
10
48.556
20
4.591
0
VERTEX
8
L0D0_0
10
48.599
20
4.663
0
VERTEX
8
L0D0_0
10
48.648
20
4.731
0
VERTEX
8
L0D0_0
10
48.703
20
4.794
0
VERTEX
8
L0D0_0
10
48.764
20
4.852
0
VERTEX
8
L0D0_0
10
48.83
20
4.905
0
VERTEX
8
L0D0_0
10
48.9
20
4.951
0
VERTEX
8
L0D0_0
10
48.974
20
4.991
0
VERTEX
8
L0D0_0
10
49.051
20
5.024
0
VERTEX
8
L0D0_0
10
49.131
20
5.05
0
VERTEX
8
L0D0_0
10
49.213
20
5.069
0
VERTEX
8
L0D0_0
10
49.296
20
5.08
0
VERTEX
8
L0D0_0
10
49.38
20
5.084
0
VERTEX
8
L0D0_0
10
49.464
20
5.08
0
VERTEX
8
L0D0_0
10
49.547
20
5.069
0
VERTEX
8
L0D0_0
10
49.629
20
5.05
0
VERTEX
8
L0D0_0
10
49.709
20
5.024
0
VERTEX
8
L0D0_0
10
49.786
20
4.991
0
VERTEX
8
L0D0_0
10
49.86
20
4.951
0
VERTEX
8
L0D0_0
10
49.931
20
4.905
0
VERTEX
8
L0D0_0
10
49.996
20
4.852
0
VERTEX
8
L0D0_0
10
50.057
20
4.794
0
VERTEX
8
L0D0_0
10
50.112
20
4.731
0
VERTEX
8
L0D0_0
10
50.162
20
4.663
0
VERTEX
8
L0D0_0
10
50.205
20
4.591
0
VERTEX
8
L0D0_0
10
50.241
20
4.515
0
VERTEX
8
L0D0_0
10
50.271
20
4.437
0
VERTEX
8
L0D0_0
10
50.293
20
4.356
0
VERTEX
8
L0D0_0
10
50.308
20
4.273
0
VERTEX
8
L0D0_0
10
50.316
20
4.189
0
VERTEX
8
L0D0_0
10
50.316
20
-4.189
0
VERTEX
8
L0D0_0
10
50.308
20
-4.273
0
VERTEX
8
L0D0_0
10
50.293
20
-4.356
0
VERTEX
8
L0D0_0
10
50.271
20
-4.437
0
VERTEX
8
L0D0_0
10
50.241
20
-4.515
0
VERTEX
8
L0D0_0
10
50.205
20
-4.591
0
VERTEX
8
L0D0_0
10
50.162
20
-4.663
0
VERTEX
8
L0D0_0
10
50.112
20
-4.731
0
VERTEX
8
L0D0_0
10
50.057
20
-4.794
0
VERTEX
8
L0D0_0
10
49.996
20
-4.852
0
VERTEX
8
L0D0_0
10
49.931
20
-4.905
0
VERTEX
8
L0D0_0
10
49.86
20
-4.951
0
VERTEX
8
L0D0_0
10
49.786
20
-4.991
0
VERTEX
8
L0D0_0
10
49.709
20
-5.024
0
VERTEX
8
L0D0_0
10
49.629
20
-5.05
0
VERTEX
8
L0D0_0
10
49.547
20
-5.069
0
VERTEX
8
L0D0_0
10
49.464
20
-5.08
0
SEQEND
0
POLYLINE
8
L0D0_0
70
1
40
0
41
0
66
1
0
VERTEX
8
L0D0_0
10
-48.12
20
-24.584
0
VERTEX
8
L0D0_0
10
-48.204
20
-24.58
0
VERTEX
8
L0D0_0
10
-48.287
20
-24.569
0
VERTEX
8
L0D0_0
10
-48.369
20
-24.55
0
VERTEX
8
L0D0_0
10
-48.449
20
-24.524
0
VERTEX
8
L0D0_0
10
-48.526
20
-24.491
0
VERTEX
8
L0D0_0
10
-48.6
20
-24.451
0
VERTEX
8
L0D0_0
10
-48.67
20
-24.405
0
VERTEX
8
L0D0_0
10
-48.736
20
-24.352
0
VERTEX
8
L0D0_0
10
-48.797
20
-24.294
0
VERTEX
8
L0D0_0
10
-48.852
20
-24.231
0
VERTEX
8
L0D0_0
10
-48.901
20
-24.163
0
VERTEX
8
L0D0_0
10
-48.944
20
-24.091
0
VERTEX
8
L0D0_0
10
-48.981
20
-24.015
0
VERTEX
8
L0D0_0
10
-49.01
20
-23.937
0
VERTEX
8
L0D0_0
10
-49.033
20
-23.856
0
VERTEX
8
L0D0_0
10
-49.048
20
-23.773
0
VERTEX
8
L0D0_0
10
-49.055
20
-23.689
0
VERTEX
8
L0D0_0
10
-49.055
20
-15.311
0
VERTEX
8
L0D0_0
10
-49.048
20
-15.227
0
VERTEX
8
L0D0_0
10
-49.033
20
-15.144
0
VERTEX
8
L0D0_0
10
-49.01
20
-15.063
0
VERTEX
8
L0D0_0
10
-48.981
20
-14.985
0
VERTEX
8
L0D0_0
10
-48.944
20
-14.909
0
VERTEX
8
L0D0_0
10
-48.901
20
-14.837
0
VERTEX
8
L0D0_0
10
-48.852
20
-14.769
0
VERTEX
8
L0D0_0
10
-48.797
20
-14.706
0
VERTEX
8
L0D0_0
10
-48.736
20
-14.648
0
VERTEX
8
L0D0_0
10
-48.67
20
-14.595
0
VERTEX
8
L0D0_0
10
-48.6
20
-14.549
0
VERTEX
8
L0D0_0
10
-48.526
20
-14.509
0
VERTEX
8
L0D0_0
10
-48.449
20
-14.476
0
VERTEX
8
L0D0_0
10
-48.369
20
-14.45
0
VERTEX
8
L0D0_0
10
-48.287
20
-14.431
0
VERTEX
8
L0D0_0
10
-48.204
20
-14.42
0
VERTEX
8
L0D0_0
10
-48.12
20
-14.416
0
VERTEX
8
L0D0_0
10
-48.036
20
-14.42
0
VERTEX
8
L0D0_0
10
-47.953
20
-14.431
0
VERTEX
8
L0D0_0
10
-47.871
20
-14.45
0
VERTEX
8
L0D0_0
10
-47.791
20
-14.476
0
VERTEX
8
L0D0_0
10
-47.714
20
-14.509
0
VERTEX
8
L0D0_0
10
-47.64
20
-14.549
0
VERTEX
8
L0D0_0
10
-47.569
20
-14.595
0
VERTEX
8
L0D0_0
10
-47.504
20
-14.648
0
VERTEX
8
L0D0_0
10
-47.443
20
-14.706
0
VERTEX
8
L0D0_0
10
-47.388
20
-14.769
0
VERTEX
8
L0D0_0
10
-47.338
20
-14.837
0
VERTEX
8
L0D0_0
10
-47.295
20
-14.909
0
VERTEX
8
L0D0_0
10
-47.259
20
-14.985
0
VERTEX
8
L0D0_0
10
-47.229
20
-15.063
0
VERTEX
8
L0D0_0
10
-47.207
20
-15.144
0
VERTEX
8
L0D0_0
10
-47.192
20
-15.227
0
VERTEX
8
L0D0_0
10
-47.184
20
-15.311
0
VERTEX
8
L0D0_0
10
-47.184
20
-23.689
0
VERTEX
8
L0D0_0
10
-47.192
20
-23.773
0
VERTEX
8
L0D0_0
10
-47.207
20
-23.856
0
VERTEX
8
L0D0_0
10
-47.229
20
-23.937
0
VERTEX
8
L0D0_0
10
-47.259
20
-24.015
0
VERTEX
8
L0D0_0
10
-47.295
20
-24.091
0
VERTEX
8
L0D0_0
10
-47.338
20
-24.163
0
VERTEX
8
L0D0_0
10
-47.388
20
-24.231
0
VERTEX
8
L0D0_0
10
-47.443
20
-24.294
0
VERTEX
8
L0D0_0
10
-47.504
20
-24.352
0
VERTEX
8
L0D0_0
10
-47.569
20
-24.405
0
VERTEX
8
L0D0_0
10
-47.64
20
-24.451
0
VERTEX
8
L0D0_0
10
-47.714
20
-24.491
0
VERTEX
8
L0D0_0
10
-47.791
20
-24.524
0
VERTEX
8
L0D0_0
10
-47.871
20
-24.55
0
VERTEX
8
L0D0_0
10
-47.953
20
-24.569
0
VERTEX
8
L0D0_0
10
-48.036
20
-24.58
0
SEQEND
0
POLYLINE
8
L0D0_0
70
1
40
0
41
0
66
1
0
VERTEX
8
L0D0_0
10
-28.62
20
-24.584
0
VERTEX
8
L0D0_0
10
-28.704
20
-24.58
0
VERTEX
8
L0D0_0
10
-28.787
20
-24.569
0
VERTEX
8
L0D0_0
10
-28.869
20
-24.55
0
VERTEX
8
L0D0_0
10
-28.949
20
-24.524
0
VERTEX
8
L0D0_0
10
-29.026
20
-24.491
0
VERTEX
8
L0D0_0
10
-29.1
20
-24.451
0
VERTEX
8
L0D0_0
10
-29.17
20
-24.405
0
VERTEX
8
L0D0_0
10
-29.236
20
-24.352
0
VERTEX
8
L0D0_0
10
-29.297
20
-24.294
0
VERTEX
8
L0D0_0
10
-29.352
20
-24.231
0
VERTEX
8
L0D0_0
10
-29.401
20
-24.163
0
VERTEX
8
L0D0_0
10
-29.444
20
-24.091
0
VERTEX
8
L0D0_0
10
-29.481
20
-24.015
0
VERTEX
8
L0D0_0
10
-29.51
20
-23.937
0
VERTEX
8
L0D0_0
10
-29.533
20
-23.856
0
VERTEX
8
L0D0_0
10
-29.548
20
-23.773
0
VERTEX
8
L0D0_0
10
-29.555
20
-23.689
0
VERTEX
8
L0D0_0
10
-29.555
20
-15.311
0
VERTEX
8
L0D0_0
10
-29.548
20
-15.227
0
VERTEX
8
L0D0_0
10
-29.533
20
-15.144
0
VERTEX
8
L0D0_0
10
-29.51
20
-15.063
0
VERTEX
8
L0D0_0
10
-29.481
20
-14.985
0
VERTEX
8
L0D0_0
10
-29.444
20
-14.909
0
VERTEX
8
L0D0_0
10
-29.401
20
-14.837
0
VERTEX
8
L0D0_0
10
-29.352
20
-14.769
0
VERTEX
8
L0D0_0
10
-29.297
20
-14.706
0
VERTEX
8
L0D0_0
10
-29.236
20
-14.648
0
VERTEX
8
L0D0_0
10
-29.17
20
-14.595
0
VERTEX
8
L0D0_0
10
-29.1
20
-14.549
0
VERTEX
8
L0D0_0
10
-29.026
20
-14.509
0
VERTEX
8
L0D0_0
10
-28.949
20
-14.476
0
VERTEX
8
L0D0_0
10
-28.869
20
-14.45
0
VERTEX
8
L0D0_0
10
-28.787
20
-14.431
0
VERTEX
8
L0D0_0
10
-28.704
20
-14.42
0
VERTEX
8
L0D0_0
10
-28.62
20
-14.416
0
VERTEX
8
L0D0_0
10
-28.536
20
-14.42
0
VERTEX
8
L0D0_0
10
-28.453
20
-14.431
0
VERTEX
8
L0D0_0
10
-28.371
20
-14.45
0
VERTEX
8
L0D0_0
10
-28.291
20
-14.476
0
VERTEX
8
L0D0_0
10
-28.214
20
-14.509
0
VERTEX
8
L0D0_0
10
-28.14
20
-14.549
0
VERTEX
8
L0D0_0
10
-28.069
20
-14.595
0
VERTEX
8
L0D0_0
10
-28.004
20
-14.648
0
VERTEX
8
L0D0_0
10
-27.943
20
-14.706
0
VERTEX
8
L0D0_0
10
-27.888
20
-14.769
0
VERTEX
8
L0D0_0
10
-27.838
20
-14.837
0
VERTEX
8
L0D0_0
10
-27.795
20
-14.909
0
VERTEX
8
L0D0_0
10
-27.759
20
-14.985
0
VERTEX
8
L0D0_0
10
-27.729
20
-15.063
0
VERTEX
8
L0D0_0
10
-27.707
20
-15.144
0
VERTEX
8
L0D0_0
10
-27.692
20
-15.227
0
VERTEX
8
L0D0_0
10
-27.684
20
-15.311
0
VERTEX
8
L0D0_0
10
-27.684
20
-23.689
0
VERTEX
8
L0D0_0
10
-27.692
20
-23.773
0
VERTEX
8
L0D0_0
10
-27.707
20
-23.856
0
VERTEX
8
L0D0_0
10
-27.729
20
-23.937
0
VERTEX
8
L0D0_0
10
-27.759
20
-24.015
0
VERTEX
8
L0D0_0
10
-27.795
20
-24.091
0
VERTEX
8
L0D0_0
10
-27.838
20
-24.163
0
VERTEX
8
L0D0_0
10
-27.888
20
-24.231
0
VERTEX
8
L0D0_0
10
-27.943
20
-24.294
0
VERTEX
8
L0D0_0
10
-28.004
20
-24.352
0
VERTEX
8
L0D0_0
10
-28.069
20
-24.405
0
VERTEX
8
L0D0_0
10
-28.14
20
-24.451
0
VERTEX
8
L0D0_0
10
-28.214
20
-24.491
0
VERTEX
8
L0D0_0
10
-28.291
20
-24.524
0
VERTEX
8
L0D0_0
10
-28.371
20
-24.55
0
VERTEX
8
L0D0_0
10
-28.453
20
-24.569
0
VERTEX
8
L0D0_0
10
-28.536
20
-24.58
0
SEQEND
0
POLYLINE
8
L0D0_0
70
1
40
0
41
0
66
1
0
VERTEX
8
L0D0_0
10
-9.12
20
-24.584
0
VERTEX
8
L0D0_0
10
-9.204
20
-24.58
0
VERTEX
8
L0D0_0
10
-9.287
20
-24.569
0
VERTEX
8
L0D0_0
10
-9.369
20
-24.55
0
VERTEX
8
L0D0_0
10
-9.449
20
-24.524
0
VERTEX
8
L0D0_0
10
-9.526
20
-24.491
0
VERTEX
8
L0D0_0
10
-9.6
20
-24.451
0
VERTEX
8
L0D0_0
10
-9.67
20
-24.405
0
VERTEX
8
L0D0_0
10
-9.736
20
-24.352
0
VERTEX
8
L0D0_0
10
-9.797
20
-24.294
0
VERTEX
8
L0D0_0
10
-9.852
20
-24.231
0
VERTEX
8
L0D0_0
10
-9.901
20
-24.163
0
VERTEX
8
L0D0_0
10
-9.944
20
-24.091
0
VERTEX
8
L0D0_0
10
-9.981
20
-24.015
0
VERTEX
8
L0D0_0
10
-10.01
20
-23.937
0
VERTEX
8
L0D0_0
10
-10.033
20
-23.856
0
VERTEX
8
L0D0_0
10
-10.048
20
-23.773
0
VERTEX
8
L0D0_0
10
-10.055
20
-23.689
0
VERTEX
8
L0D0_0
10
-10.055
20
-15.311
0
VERTEX
8
L0D0_0
10
-10.048
20
-15.227
0
VERTEX
8
L0D0_0
10
-10.033
20
-15.144
0
VERTEX
8
L0D0_0
10
-10.01
20
-15.063
0
VERTEX
8
L0D0_0
10
-9.981
20
-14.985
0
VERTEX
8
L0D0_0
10
-9.944
20
-14.909
0
VERTEX
8
L0D0_0
10
-9.901
20
-14.837
0
VERTEX
8
L0D0_0
10
-9.852
20
-14.769
0
VERTEX
8
L0D0_0
10
-9.797
20
-14.706
0
VERTEX
8
L0D0_0
10
-9.736
20
-14.648
0
VERTEX
8
L0D0_0
10
-9.67
20
-14.595
0
VERTEX
8
L0D0_0
10
-9.6
20
-14.549
0
VERTEX
8
L0D0_0
10
-9.526
20
-14.509
0
VERTEX
8
L0D0_0
10
-9.449
20
-14.476
0
VERTEX
8
L0D0_0
10
-9.369
20
-14.45
0
VERTEX
8
L0D0_0
10
-9.287
20
-14.431
0
VERTEX
8
L0D0_0
10
-9.204
20
-14.42
0
VERTEX
8
L0D0_0
10
-9.12
20
-14.416
0
VERTEX
8
L0D0_0
10
-9.036
20
-14.42
0
VERTEX
8
L0D0_0
10
-8.953
20
-14.431
0
VERTEX
8
L0D0_0
10
-8.871
20
-14.45
0
VERTEX
8
L0D0_0
10
-8.791
20
-14.476
0
VERTEX
8
L0D0_0
10
-8.714
20
-14.509
0
VERTEX
8
L0D0_0
10
-8.64
20
-14.549
0
VERTEX
8
L0D0_0
10
-8.569
20
-14.595
0
VERTEX
8
L0D0_0
10
-8.504
20
-14.648
0
VERTEX
8
L0D0_0
10
-8.443
20
-14.706
0
VERTEX
8
L0D0_0
10
-8.388
20
-14.769
0
VERTEX
8
L0D0_0
10
-8.338
20
-14.837
0
VERTEX
8
L0D0_0
10
-8.295
20
-14.909
0
VERTEX
8
L0D0_0
10
-8.259
20
-14.985
0
VERTEX
8
L0D0_0
10
-8.229
20
-15.063
0
VERTEX
8
L0D0_0
10
-8.207
20
-15.144
0
VERTEX
8
L0D0_0
10
-8.192
20
-15.227
0
VERTEX
8
L0D0_0
10
-8.184
20
-15.311
0
VERTEX
8
L0D0_0
10
-8.184
20
-23.689
0
VERTEX
8
L0D0_0
10
-8.192
20
-23.773
0
VERTEX
8
L0D0_0
10
-8.207
20
-23.856
0
VERTEX
8
L0D0_0
10
-8.229
20
-23.937
0
VERTEX
8
L0D0_0
10
-8.259
20
-24.015
0
VERTEX
8
L0D0_0
10
-8.295
20
-24.091
0
VERTEX
8
L0D0_0
10
-8.338
20
-24.163
0
VERTEX
8
L0D0_0
10
-8.388
20
-24.231
0
VERTEX
8
L0D0_0
10
-8.443
20
-24.294
0
VERTEX
8
L0D0_0
10
-8.504
20
-24.352
0
VERTEX
8
L0D0_0
10
-8.569
20
-24.405
0
VERTEX
8
L0D0_0
10
-8.64
20
-24.451
0
VERTEX
8
L0D0_0
10
-8.714
20
-24.491
0
VERTEX
8
L0D0_0
10
-8.791
20
-24.524
0
VERTEX
8
L0D0_0
10
-8.871
20
-24.55
0
VERTEX
8
L0D0_0
10
-8.953
20
-24.569
0
VERTEX
8
L0D0_0
10
-9.036
20
-24.58
0
SEQEND
0
POLYLINE
8
L0D0_0
70
1
40
0
41
0
66
1
0
VERTEX
8
L0D0_0
10
10.38
20
-24.584
0
VERTEX
8
L0D0_0
10
10.296
20
-24.58
0
VERTEX
8
L0D0_0
10
10.213
20
-24.569
0
VERTEX
8
L0D0_0
10
10.131
20
-24.55
0
VERTEX
8
L0D0_0
10
10.051
20
-24.524
0
VERTEX
8
L0D0_0
10
9.974
20
-24.491
0
VERTEX
8
L0D0_0
10
9.9
20
-24.451
0
VERTEX
8
L0D0_0
10
9.83
20
-24.405
0
VERTEX
8
L0D0_0
10
9.764
20
-24.352
0
VERTEX
8
L0D0_0
10
9.703
20
-24.294
0
VERTEX
8
L0D0_0
10
9.648
20
-24.231
0
VERTEX
8
L0D0_0
10
9.599
20
-24.163
0
VERTEX
8
L0D0_0
10
9.556
20
-24.091
0
VERTEX
8
L0D0_0
10
9.519
20
-24.015
0
VERTEX
8
L0D0_0
10
9.49
20
-23.937
0
VERTEX
8
L0D0_0
10
9.467
20
-23.856
0
VERTEX
8
L0D0_0
10
9.452
20
-23.773
0
VERTEX
8
L0D0_0
10
9.445
20
-23.689
0
VERTEX
8
L0D0_0
10
9.445
20
-15.311
0
VERTEX
8
L0D0_0
10
9.452
20
-15.227
0
VERTEX
8
L0D0_0
10
9.467
20
-15.144
0
VERTEX
8
L0D0_0
10
9.49
20
-15.063
0
VERTEX
8
L0D0_0
10
9.519
20
-14.985
0
VERTEX
8
L0D0_0
10
9.556
20
-14.909
0
VERTEX
8
L0D0_0
10
9.599
20
-14.837
0
VERTEX
8
L0D0_0
10
9.648
20
-14.769
0
VERTEX
8
L0D0_0
10
9.703
20
-14.706
0
VERTEX
8
L0D0_0
10
9.764
20
-14.648
0
VERTEX
8
L0D0_0
10
9.83
20
-14.595
0
VERTEX
8
L0D0_0
10
9.9
20
-14.549
0
VERTEX
8
L0D0_0
10
9.974
20
-14.509
0
VERTEX
8
L0D0_0
10
10.051
20
-14.476
0
VERTEX
8
L0D0_0
10
10.131
20
-14.45
0
VERTEX
8
L0D0_0
10
10.213
20
-14.431
0
VERTEX
8
L0D0_0
10
10.296
20
-14.42
0
VERTEX
8
L0D0_0
10
10.38
20
-14.416
0
VERTEX
8
L0D0_0
10
10.464
20
-14.42
0
VERTEX
8
L0D0_0
10
10.547
20
-14.431
0
VERTEX
8
L0D0_0
10
10.629
20
-14.45
0
VERTEX
8
L0D0_0
10
10.709
20
-14.476
0
VERTEX
8
L0D0_0
10
10.786
20
-14.509
0
VERTEX
8
L0D0_0
10
10.86
20
-14.549
0
VERTEX
8
L0D0_0
10
10.931
20
-14.595
0
VERTEX
8
L0D0_0
10
10.996
20
-14.648
0
VERTEX
8
L0D0_0
10
11.057
20
-14.706
0
VERTEX
8
L0D0_0
10
11.112
20
-14.769
0
VERTEX
8
L0D0_0
10
11.162
20
-14.837
0
VERTEX
8
L0D0_0
10
11.205
20
-14.909
0
VERTEX
8
L0D0_0
10
11.241
20
-14.985
0
VERTEX
8
L0D0_0
10
11.271
20
-15.063
0
VERTEX
8
L0D0_0
10
11.293
20
-15.144
0
VERTEX
8
L0D0_0
10
11.308
20
-15.227
0
VERTEX
8
L0D0_0
10
11.316
20
-15.311
0
VERTEX
8
L0D0_0
10
11.316
20
-23.689
0
VERTEX
8
L0D0_0
10
11.308
20
-23.773
0
VERTEX
8
L0D0_0
10
11.293
20
-23.856
0
VERTEX
8
L0D0_0
10
11.271
20
-23.937
0
VERTEX
8
L0D0_0
10
11.241
20
-24.015
0
VERTEX
8
L0D0_0
10
11.205
20
-24.091
0
VERTEX
8
L0D0_0
10
11.162
20
-24.163
0
VERTEX
8
L0D0_0
10
11.112
20
-24.231
0
VERTEX
8
L0D0_0
10
11.057
20
-24.294
0
VERTEX
8
L0D0_0
10
10.996
20
-24.352
0
VERTEX
8
L0D0_0
10
10.931
20
-24.405
0
VERTEX
8
L0D0_0
10
10.86
20
-24.451
0
VERTEX
8
L0D0_0
10
10.786
20
-24.491
0
VERTEX
8
L0D0_0
10
10.709
20
-24.524
0
VERTEX
8
L0D0_0
10
10.629
20
-24.55
0
VERTEX
8
L0D0_0
10
10.547
20
-24.569
0
VERTEX
8
L0D0_0
10
10.464
20
-24.58
0
SEQEND
0
POLYLINE
8
L0D0_0
70
1
40
0
41
0
66
1
0
VERTEX
8
L0D0_0
10
29.88
20
-24.584
0
VERTEX
8
L0D0_0
10
29.796
20
-24.58
0
VERTEX
8
L0D0_0
10
29.713
20
-24.569
0
VERTEX
8
L0D0_0
10
29.631
20
-24.55
0
VERTEX
8
L0D0_0
10
29.551
20
-24.524
0
VERTEX
8
L0D0_0
10
29.474
20
-24.491
0
VERTEX
8
L0D0_0
10
29.4
20
-24.451
0
VERTEX
8
L0D0_0
10
29.33
20
-24.405
0
VERTEX
8
L0D0_0
10
29.264
20
-24.352
0
VERTEX
8
L0D0_0
10
29.203
20
-24.294
0
VERTEX
8
L0D0_0
10
29.148
20
-24.231
0
VERTEX
8
L0D0_0
10
29.099
20
-24.163
0
VERTEX
8
L0D0_0
10
29.056
20
-24.091
0
VERTEX
8
L0D0_0
10
29.019
20
-24.015
0
VERTEX
8
L0D0_0
10
28.99
20
-23.937
0
VERTEX
8
L0D0_0
10
28.967
20
-23.856
0
VERTEX
8
L0D0_0
10
28.952
20
-23.773
0
VERTEX
8
L0D0_0
10
28.945
20
-23.689
0
VERTEX
8
L0D0_0
10
28.945
20
-15.311
0
VERTEX
8
L0D0_0
10
28.952
20
-15.227
0
VERTEX
8
L0D0_0
10
28.967
20
-15.144
0
VERTEX
8
L0D0_0
10
28.99
20
-15.063
0
VERTEX
8
L0D0_0
10
29.019
20
-14.985
0
VERTEX
8
L0D0_0
10
29.056
20
-14.909
0
VERTEX
8
L0D0_0
10
29.099
20
-14.837
0
VERTEX
8
L0D0_0
10
29.148
20
-14.769
0
VERTEX
8
L0D0_0
10
29.203
20
-14.706
0
VERTEX
8
L0D0_0
10
29.264
20
-14.648
0
VERTEX
8
L0D0_0
10
29.33
20
-14.595
0
VERTEX
8
L0D0_0
10
29.4
20
-14.549
0
VERTEX
8
L0D0_0
10
29.474
20
-14.509
0
VERTEX
8
L0D0_0
10
29.551
20
-14.476
0
VERTEX
8
L0D0_0
10
29.631
20
-14.45
0
VERTEX
8
L0D0_0
10
29.713
20
-14.431
0
VERTEX
8
L0D0_0
10
29.796
20
-14.42
0
VERTEX
8
L0D0_0
10
29.88
20
-14.416
0
VERTEX
8
L0D0_0
10
29.964
20
-14.42
0
VERTEX
8
L0D0_0
10
30.047
20
-14.431
0
VERTEX
8
L0D0_0
10
30.129
20
-14.45
0
VERTEX
8
L0D0_0
10
30.209
20
-14.476
0
VERTEX
8
L0D0_0
10
30.286
20
-14.509
0
VERTEX
8
L0D0_0
10
30.36
20
-14.549
0
VERTEX
8
L0D0_0
10
30.431
20
-14.595
0
VERTEX
8
L0D0_0
10
30.496
20
-14.648
0
VERTEX
8
L0D0_0
10
30.557
20
-14.706
0
VERTEX
8
L0D0_0
10
30.612
20
-14.769
0
VERTEX
8
L0D0_0
10
30.662
20
-14.837
0
VERTEX
8
L0D0_0
10
30.705
20
-14.909
0
VERTEX
8
L0D0_0
10
30.741
20
-14.985
0
VERTEX
8
L0D0_0
10
30.771
20
-15.063
0
VERTEX
8
L0D0_0
10
30.793
20
-15.144
0
VERTEX
8
L0D0_0
10
30.808
20
-15.227
0
VERTEX
8
L0D0_0
10
30.816
20
-15.311
0
VERTEX
8
L0D0_0
10
30.816
20
-23.689
0
VERTEX
8
L0D0_0
10
30.808
20
-23.773
0
VERTEX
8
L0D0_0
10
30.793
20
-23.856
0
VERTEX
8
L0D0_0
10
30.771
20
-23.937
0
VERTEX
8
L0D0_0
10
30.741
20
-24.015
0
VERTEX
8
L0D0_0
10
30.705
20
-24.091
0
VERTEX
8
L0D0_0
10
30.662
20
-24.163
0
VERTEX
8
L0D0_0
10
30.612
20
-24.231
0
VERTEX
8
L0D0_0
10
30.557
20
-24.294
0
VERTEX
8
L0D0_0
10
30.496
20
-24.352
0
VERTEX
8
L0D0_0
10
30.431
20
-24.405
0
VERTEX
8
L0D0_0
10
30.36
20
-24.451
0
VERTEX
8
L0D0_0
10
30.286
20
-24.491
0
VERTEX
8
L0D0_0
10
30.209
20
-24.524
0
VERTEX
8
L0D0_0
10
30.129
20
-24.55
0
VERTEX
8
L0D0_0
10
30.047
20
-24.569
0
VERTEX
8
L0D0_0
10
29.964
20
-24.58
0
SEQEND
0
POLYLINE
8
L0D0_0
70
1
40
0
41
0
66
1
0
VERTEX
8
L0D0_0
10
49.38
20
-24.584
0
VERTEX
8
L0D0_0
10
49.296
20
-24.58
0
VERTEX
8
L0D0_0
10
49.213
20
-24.569
0
VERTEX
8
L0D0_0
10
49.131
20
-24.55
0
VERTEX
8
L0D0_0
10
49.051
20
-24.524
0
VERTEX
8
L0D0_0
10
48.974
20
-24.491
0
VERTEX
8
L0D0_0
10
48.9
20
-24.451
0
VERTEX
8
L0D0_0
10
48.83
20
-24.405
0
VERTEX
8
L0D0_0
10
48.764
20
-24.352
0
VERTEX
8
L0D0_0
10
48.703
20
-24.294
0
VERTEX
8
L0D0_0
10
48.648
20
-24.231
0
VERTEX
8
L0D0_0
10
48.599
20
-24.163
0
VERTEX
8
L0D0_0
10
48.556
20
-24.091
0
VERTEX
8
L0D0_0
10
48.519
20
-24.015
0
VERTEX
8
L0D0_0
10
48.49
20
-23.937
0
VERTEX
8
L0D0_0
10
48.467
20
-23.856
0
VERTEX
8
L0D0_0
10
48.452
20
-23.773
0
VERTEX
8
L0D0_0
10
48.445
20
-23.689
0
VERTEX
8
L0D0_0
10
48.445
20
-15.311
0
VERTEX
8
L0D0_0
10
48.452
20
-15.227
0
VERTEX
8
L0D0_0
10
48.467
20
-15.144
0
VERTEX
8
L0D0_0
10
48.49
20
-15.063
0
VERTEX
8
L0D0_0
10
48.519
20
-14.985
0
VERTEX
8
L0D0_0
10
48.556
20
-14.909
0
VERTEX
8
L0D0_0
10
48.599
20
-14.837
0
VERTEX
8
L0D0_0
10
48.648
20
-14.769
0
VERTEX
8
L0D0_0
10
48.703
20
-14.706
0
VERTEX
8
L0D0_0
10
48.764
20
-14.648
0
VERTEX
8
L0D0_0
10
48.83
20
-14.595
0
VERTEX
8
L0D0_0
10
48.9
20
-14.549
0
VERTEX
8
L0D0_0
10
48.974
20
-14.509
0
VERTEX
8
L0D0_0
10
49.051
20
-14.476
0
VERTEX
8
L0D0_0
10
49.131
20
-14.45
0
VERTEX
8
L0D0_0
10
49.213
20
-14.431
0
VERTEX
8
L0D0_0
10
49.296
20
-14.42
0
VERTEX
8
L0D0_0
10
49.38
20
-14.416
0
VERTEX
8
L0D0_0
10
49.464
20
-14.42
0
VERTEX
8
L0D0_0
10
49.547
20
-14.431
0
VERTEX
8
L0D0_0
10
49.629
20
-14.45
0
VERTEX
8
L0D0_0
10
49.709
20
-14.476
0
VERTEX
8
L0D0_0
10
49.786
20
-14.509
0
VERTEX
8
L0D0_0
10
49.86
20
-14.549
0
VERTEX
8
L0D0_0
10
49.931
20
-14.595
0
VERTEX
8
L0D0_0
10
49.996
20
-14.648
0
VERTEX
8
L0D0_0
10
50.057
20
-14.706
0
VERTEX
8
L0D0_0
10
50.112
20
-14.769
0
VERTEX
8
L0D0_0
10
50.162
20
-14.837
0
VERTEX
8
L0D0_0
10
50.205
20
-14.909
0
VERTEX
8
L0D0_0
10
50.241
20
-14.985
0
VERTEX
8
L0D0_0
10
50.271
20
-15.063
0
VERTEX
8
L0D0_0
10
50.293
20
-15.144
0
VERTEX
8
L0D0_0
10
50.308
20
-15.227
0
VERTEX
8
L0D0_0
10
50.316
20
-15.311
0
VERTEX
8
L0D0_0
10
50.316
20
-23.689
0
VERTEX
8
L0D0_0
10
50.308
20
-23.773
0
VERTEX
8
L0D0_0
10
50.293
20
-23.856
0
VERTEX
8
L0D0_0
10
50.271
20
-23.937
0
VERTEX
8
L0D0_0
10
50.241
20
-24.015
0
VERTEX
8
L0D0_0
10
50.205
20
-24.091
0
VERTEX
8
L0D0_0
10
50.162
20
-24.163
0
VERTEX
8
L0D0_0
10
50.112
20
-24.231
0
VERTEX
8
L0D0_0
10
50.057
20
-24.294
0
VERTEX
8
L0D0_0
10
49.996
20
-24.352
0
VERTEX
8
L0D0_0
10
49.931
20
-24.405
0
VERTEX
8
L0D0_0
10
49.86
20
-24.451
0
VERTEX
8
L0D0_0
10
49.786
20
-24.491
0
VERTEX
8
L0D0_0
10
49.709
20
-24.524
0
VERTEX
8
L0D0_0
10
49.629
20
-24.55
0
VERTEX
8
L0D0_0
10
49.547
20
-24.569
0
VERTEX
8
L0D0_0
10
49.464
20
-24.58
0
SEQEND
0
POLYLINE
8
L0D0_0
70
1
40
0
41
0
66
1
0
VERTEX
8
L0D0_0
10
-48.12
20
-44.084
0
VERTEX
8
L0D0_0
10
-48.204
20
-44.08
0
VERTEX
8
L0D0_0
10
-48.287
20
-44.069
0
VERTEX
8
L0D0_0
10
-48.369
20
-44.05
0
VERTEX
8
L0D0_0
10
-48.449
20
-44.024
0
VERTEX
8
L0D0_0
10
-48.526
20
-43.991
0
VERTEX
8
L0D0_0
10
-48.6
20
-43.951
0
VERTEX
8
L0D0_0
10
-48.67
20
-43.905
0
VERTEX
8
L0D0_0
10
-48.736
20
-43.852
0
VERTEX
8
L0D0_0
10
-48.797
20
-43.794
0
VERTEX
8
L0D0_0
10
-48.852
20
-43.731
0
VERTEX
8
L0D0_0
10
-48.901
20
-43.663
0
VERTEX
8
L0D0_0
10
-48.944
20
-43.591
0
VERTEX
8
L0D0_0
10
-48.981
20
-43.515
0
VERTEX
8
L0D0_0
10
-49.01
20
-43.437
0
VERTEX
8
L0D0_0
10
-49.033
20
-43.356
0
VERTEX
8
L0D0_0
10
-49.048
20
-43.273
0
VERTEX
8
L0D0_0
10
-49.055
20
-43.189
0
VERTEX
8
L0D0_0
10
-49.055
20
-34.811
0
VERTEX
8
L0D0_0
10
-49.048
20
-34.727
0
VERTEX
8
L0D0_0
10
-49.033
20
-34.644
0
VERTEX
8
L0D0_0
10
-49.01
20
-34.563
0
VERTEX
8
L0D0_0
10
-48.981
20
-34.485
0
VERTEX
8
L0D0_0
10
-48.944
20
-34.409
0
VERTEX
8
L0D0_0
10
-48.901
20
-34.337
0
VERTEX
8
L0D0_0
10
-48.852
20
-34.269
0
VERTEX
8
L0D0_0
10
-48.797
20
-34.206
0
VERTEX
8
L0D0_0
10
-48.736
20
-34.148
0
VERTEX
8
L0D0_0
10
-48.67
20
-34.095
0
VERTEX
8
L0D0_0
10
-48.6
20
-34.049
0
VERTEX
8
L0D0_0
10
-48.526
20
-34.009
0
VERTEX
8
L0D0_0
10
-48.449
20
-33.976
0
VERTEX
8
L0D0_0
10
-48.369
20
-33.95
0
VERTEX
8
L0D0_0
10
-48.287
20
-33.931
0
VERTEX
8
L0D0_0
10
-48.204
20
-33.92
0
VERTEX
8
L0D0_0
10
-48.12
20
-33.916
0
VERTEX
8
L0D0_0
10
-48.036
20
-33.92
0
VERTEX
8
L0D0_0
10
-47.953
20
-33.931
0
VERTEX
8
L0D0_0
10
-47.871
20
-33.95
0
VERTEX
8
L0D0_0
10
-47.791
20
-33.976
0
VERTEX
8
L0D0_0
10
-47.714
20
-34.009
0
VERTEX
8
L0D0_0
10
-47.64
20
-34.049
0
VERTEX
8
L0D0_0
10
-47.569
20
-34.095
0
VERTEX
8
L0D0_0
10
-47.504
20
-34.148
0
VERTEX
8
L0D0_0
10
-47.443
20
-34.206
0
VERTEX
8
L0D0_0
10
-47.388
20
-34.269
0
VERTEX
8
L0D0_0
10
-47.338
20
-34.337
0
VERTEX
8
L0D0_0
10
-47.295
20
-34.409
0
VERTEX
8
L0D0_0
10
-47.259
20
-34.485
0
VERTEX
8
L0D0_0
10
-47.229
20
-34.563
0
VERTEX
8
L0D0_0
10
-47.207
20
-34.644
0
VERTEX
8
L0D0_0
10
-47.192
20
-34.727
0
VERTEX
8
L0D0_0
10
-47.184
20
-34.811
0
VERTEX
8
L0D0_0
10
-47.184
20
-43.189
0
VERTEX
8
L0D0_0
10
-47.192
20
-43.273
0
VERTEX
8
L0D0_0
10
-47.207
20
-43.356
0
VERTEX
8
L0D0_0
10
-47.229
20
-43.437
0
VERTEX
8
L0D0_0
10
-47.259
20
-43.515
0
VERTEX
8
L0D0_0
10
-47.295
20
-43.591
0
VERTEX
8
L0D0_0
10
-47.338
20
-43.663
0
VERTEX
8
L0D0_0
10
-47.388
20
-43.731
0
VERTEX
8
L0D0_0
10
-47.443
20
-43.794
0
VERTEX
8
L0D0_0
10
-47.504
20
-43.852
0
VERTEX
8
L0D0_0
10
-47.569
20
-43.905
0
VERTEX
8
L0D0_0
10
-47.64
20
-43.951
0
VERTEX
8
L0D0_0
10
-47.714
20
-43.991
0
VERTEX
8
L0D0_0
10
-47.791
20
-44.024
0
VERTEX
8
L0D0_0
10
-47.871
20
-44.05
0
VERTEX
8
L0D0_0
10
-47.953
20
-44.069
0
VERTEX
8
L0D0_0
10
-48.036
20
-44.08
0
SEQEND
0
POLYLINE
8
L0D0_0
70
1
40
0
41
0
66
1
0
VERTEX
8
L0D0_0
10
-28.62
20
-44.084
0
VERTEX
8
L0D0_0
10
-28.704
20
-44.08
0
VERTEX
8
L0D0_0
10
-28.787
20
-44.069
0
VERTEX
8
L0D0_0
10
-28.869
20
-44.05
0
VERTEX
8
L0D0_0
10
-28.949
20
-44.024
0
VERTEX
8
L0D0_0
10
-29.026
20
-43.991
0
VERTEX
8
L0D0_0
10
-29.1
20
-43.951
0
VERTEX
8
L0D0_0
10
-29.17
20
-43.905
0
VERTEX
8
L0D0_0
10
-29.236
20
-43.852
0
VERTEX
8
L0D0_0
10
-29.297
20
-43.794
0
VERTEX
8
L0D0_0
10
-29.352
20
-43.731
0
VERTEX
8
L0D0_0
10
-29.401
20
-43.663
0
VERTEX
8
L0D0_0
10
-29.444
20
-43.591
0
VERTEX
8
L0D0_0
10
-29.481
20
-43.515
0
VERTEX
8
L0D0_0
10
-29.51
20
-43.437
0
VERTEX
8
L0D0_0
10
-29.533
20
-43.356
0
VERTEX
8
L0D0_0
10
-29.548
20
-43.273
0
VERTEX
8
L0D0_0
10
-29.555
20
-43.189
0
VERTEX
8
L0D0_0
10
-29.555
20
-34.811
0
VERTEX
8
L0D0_0
10
-29.548
20
-34.727
0
VERTEX
8
L0D0_0
10
-29.533
20
-34.644
0
VERTEX
8
L0D0_0
10
-29.51
20
-34.563
0
VERTEX
8
L0D0_0
10
-29.481
20
-34.485
0
VERTEX
8
L0D0_0
10
-29.444
20
-34.409
0
VERTEX
8
L0D0_0
10
-29.401
20
-34.337
0
VERTEX
8
L0D0_0
10
-29.352
20
-34.269
0
VERTEX
8
L0D0_0
10
-29.297
20
-34.206
0
VERTEX
8
L0D0_0
10
-29.236
20
-34.148
0
VERTEX
8
L0D0_0
10
-29.17
20
-34.095
0
VERTEX
8
L0D0_0
10
-29.1
20
-34.049
0
VERTEX
8
L0D0_0
10
-29.026
20
-34.009
0
VERTEX
8
L0D0_0
10
-28.949
20
-33.976
0
VERTEX
8
L0D0_0
10
-28.869
20
-33.95
0
VERTEX
8
L0D0_0
10
-28.787
20
-33.931
0
VERTEX
8
L0D0_0
10
-28.704
20
-33.92
0
VERTEX
8
L0D0_0
10
-28.62
20
-33.916
0
VERTEX
8
L0D0_0
10
-28.536
20
-33.92
0
VERTEX
8
L0D0_0
10
-28.453
20
-33.931
0
VERTEX
8
L0D0_0
10
-28.371
20
-33.95
0
VERTEX
8
L0D0_0
10
-28.291
20
-33.976
0
VERTEX
8
L0D0_0
10
-28.214
20
-34.009
0
VERTEX
8
L0D0_0
10
-28.14
20
-34.049
0
VERTEX
8
L0D0_0
10
-28.069
20
-34.095
0
VERTEX
8
L0D0_0
10
-28.004
20
-34.148
0
VERTEX
8
L0D0_0
10
-27.943
20
-34.206
0
VERTEX
8
L0D0_0
10
-27.888
20
-34.269
0
VERTEX
8
L0D0_0
10
-27.838
20
-34.337
0
VERTEX
8
L0D0_0
10
-27.795
20
-34.409
0
VERTEX
8
L0D0_0
10
-27.759
20
-34.485
0
VERTEX
8
L0D0_0
10
-27.729
20
-34.563
0
VERTEX
8
L0D0_0
10
-27.707
20
-34.644
0
VERTEX
8
L0D0_0
10
-27.692
20
-34.727
0
VERTEX
8
L0D0_0
10
-27.684
20
-34.811
0
VERTEX
8
L0D0_0
10
-27.684
20
-43.189
0
VERTEX
8
L0D0_0
10
-27.692
20
-43.273
0
VERTEX
8
L0D0_0
10
-27.707
20
-43.356
0
VERTEX
8
L0D0_0
10
-27.729
20
-43.437
0
VERTEX
8
L0D0_0
10
-27.759
20
-43.515
0
VERTEX
8
L0D0_0
10
-27.795
20
-43.591
0
VERTEX
8
L0D0_0
10
-27.838
20
-43.663
0
VERTEX
8
L0D0_0
10
-27.888
20
-43.731
0
VERTEX
8
L0D0_0
10
-27.943
20
-43.794
0
VERTEX
8
L0D0_0
10
-28.004
20
-43.852
0
VERTEX
8
L0D0_0
10
-28.069
20
-43.905
0
VERTEX
8
L0D0_0
10
-28.14
20
-43.951
0
VERTEX
8
L0D0_0
10
-28.214
20
-43.991
0
VERTEX
8
L0D0_0
10
-28.291
20
-44.024
0
VERTEX
8
L0D0_0
10
-28.371
20
-44.05
0
VERTEX
8
L0D0_0
10
-28.453
20
-44.069
0
VERTEX
8
L0D0_0
10
-28.536
20
-44.08
0
SEQEND
0
POLYLINE
8
L0D0_0
70
1
40
0
41
0
66
1
0
VERTEX
8
L0D0_0
10
-9.12
20
-44.084
0
VERTEX
8
L0D0_0
10
-9.204
20
-44.08
0
VERTEX
8
L0D0_0
10
-9.287
20
-44.069
0
VERTEX
8
L0D0_0
10
-9.369
20
-44.05
0
VERTEX
8
L0D0_0
10
-9.449
20
-44.024
0
VERTEX
8
L0D0_0
10
-9.526
20
-43.991
0
VERTEX
8
L0D0_0
10
-9.6
20
-43.951
0
VERTEX
8
L0D0_0
10
-9.67
20
-43.905
0
VERTEX
8
L0D0_0
10
-9.736
20
-43.852
0
VERTEX
8
L0D0_0
10
-9.797
20
-43.794
0
VERTEX
8
L0D0_0
10
-9.852
20
-43.731
0
VERTEX
8
L0D0_0
10
-9.901
20
-43.663
0
VERTEX
8
L0D0_0
10
-9.944
20
-43.591
0
VERTEX
8
L0D0_0
10
-9.981
20
-43.515
0
VERTEX
8
L0D0_0
10
-10.01
20
-43.437
0
VERTEX
8
L0D0_0
10
-10.033
20
-43.356
0
VERTEX
8
L0D0_0
10
-10.048
20
-43.273
0
VERTEX
8
L0D0_0
10
-10.055
20
-43.189
0
VERTEX
8
L0D0_0
10
-10.055
20
-34.811
0
VERTEX
8
L0D0_0
10
-10.048
20
-34.727
0
VERTEX
8
L0D0_0
10
-10.033
20
-34.644
0
VERTEX
8
L0D0_0
10
-10.01
20
-34.563
0
VERTEX
8
L0D0_0
10
-9.981
20
-34.485
0
VERTEX
8
L0D0_0
10
-9.944
20
-34.409
0
VERTEX
8
L0D0_0
10
-9.901
20
-34.337
0
VERTEX
8
L0D0_0
10
-9.852
20
-34.269
0
VERTEX
8
L0D0_0
10
-9.797
20
-34.206
0
VERTEX
8
L0D0_0
10
-9.736
20
-34.148
0
VERTEX
8
L0D0_0
10
-9.67
20
-34.095
0
VERTEX
8
L0D0_0
10
-9.6
20
-34.049
0
VERTEX
8
L0D0_0
10
-9.526
20
-34.009
0
VERTEX
8
L0D0_0
10
-9.449
20
-33.976
0
VERTEX
8
L0D0_0
10
-9.369
20
-33.95
0
VERTEX
8
L0D0_0
10
-9.287
20
-33.931
0
VERTEX
8
L0D0_0
10
-9.204
20
-33.92
0
VERTEX
8
L0D0_0
10
-9.12
20
-33.916
0
VERTEX
8
L0D0_0
10
-9.036
20
-33.92
0
VERTEX
8
L0D0_0
10
-8.953
20
-33.931
0
VERTEX
8
L0D0_0
10
-8.871
20
-33.95
0
VERTEX
8
L0D0_0
10
-8.791
20
-33.976
0
VERTEX
8
L0D0_0
10
-8.714
20
-34.009
0
VERTEX
8
L0D0_0
10
-8.64
20
-34.049
0
VERTEX
8
L0D0_0
10
-8.569
20
-34.095
0
VERTEX
8
L0D0_0
10
-8.504
20
-34.148
0
VERTEX
8
L0D0_0
10
-8.443
20
-34.206
0
VERTEX
8
L0D0_0
10
-8.388
20
-34.269
0
VERTEX
8
L0D0_0
10
-8.338
20
-34.337
0
VERTEX
8
L0D0_0
10
-8.295
20
-34.409
0
VERTEX
8
L0D0_0
10
-8.259
20
-34.485
0
VERTEX
8
L0D0_0
10
-8.229
20
-34.563
0
VERTEX
8
L0D0_0
10
-8.207
20
-34.644
0
VERTEX
8
L0D0_0
10
-8.192
20
-34.727
0
VERTEX
8
L0D0_0
10
-8.184
20
-34.811
0
VERTEX
8
L0D0_0
10
-8.184
20
-43.189
0
VERTEX
8
L0D0_0
10
-8.192
20
-43.273
0
VERTEX
8
L0D0_0
10
-8.207
20
-43.356
0
VERTEX
8
L0D0_0
10
-8.229
20
-43.437
0
VERTEX
8
L0D0_0
10
-8.259
20
-43.515
0
VERTEX
8
L0D0_0
10
-8.295
20
-43.591
0
VERTEX
8
L0D0_0
10
-8.338
20
-43.663
0
VERTEX
8
L0D0_0
10
-8.388
20
-43.731
0
VERTEX
8
L0D0_0
10
-8.443
20
-43.794
0
VERTEX
8
L0D0_0
10
-8.504
20
-43.852
0
VERTEX
8
L0D0_0
10
-8.569
20
-43.905
0
VERTEX
8
L0D0_0
10
-8.64
20
-43.951
0
VERTEX
8
L0D0_0
10
-8.714
20
-43.991
0
VERTEX
8
L0D0_0
10
-8.791
20
-44.024
0
VERTEX
8
L0D0_0
10
-8.871
20
-44.05
0
VERTEX
8
L0D0_0
10
-8.953
20
-44.069
0
VERTEX
8
L0D0_0
10
-9.036
20
-44.08
0
SEQEND
0
POLYLINE
8
L0D0_0
70
1
40
0
41
0
66
1
0
VERTEX
8
L0D0_0
10
10.38
20
-44.084
0
VERTEX
8
L0D0_0
10
10.296
20
-44.08
0
VERTEX
8
L0D0_0
10
10.213
20
-44.069
0
VERTEX
8
L0D0_0
10
10.131
20
-44.05
0
VERTEX
8
L0D0_0
10
10.051
20
-44.024
0
VERTEX
8
L0D0_0
10
9.974
20
-43.991
0
VERTEX
8
L0D0_0
10
9.9
20
-43.951
0
VERTEX
8
L0D0_0
10
9.83
20
-43.905
0
VERTEX
8
L0D0_0
10
9.764
20
-43.852
0
VERTEX
8
L0D0_0
10
9.703
20
-43.794
0
VERTEX
8
L0D0_0
10
9.648
20
-43.731
0
VERTEX
8
L0D0_0
10
9.599
20
-43.663
0
VERTEX
8
L0D0_0
10
9.556
20
-43.591
0
VERTEX
8
L0D0_0
10
9.519
20
-43.515
0
VERTEX
8
L0D0_0
10
9.49
20
-43.437
0
VERTEX
8
L0D0_0
10
9.467
20
-43.356
0
VERTEX
8
L0D0_0
10
9.452
20
-43.273
0
VERTEX
8
L0D0_0
10
9.445
20
-43.189
0
VERTEX
8
L0D0_0
10
9.445
20
-34.811
0
VERTEX
8
L0D0_0
10
9.452
20
-34.727
0
VERTEX
8
L0D0_0
10
9.467
20
-34.644
0
VERTEX
8
L0D0_0
10
9.49
20
-34.563
0
VERTEX
8
L0D0_0
10
9.519
20
-34.485
0
VERTEX
8
L0D0_0
10
9.556
20
-34.409
0
VERTEX
8
L0D0_0
10
9.599
20
-34.337
0
VERTEX
8
L0D0_0
10
9.648
20
-34.269
0
VERTEX
8
L0D0_0
10
9.703
20
-34.206
0
VERTEX
8
L0D0_0
10
9.764
20
-34.148
0
VERTEX
8
L0D0_0
10
9.83
20
-34.095
0
VERTEX
8
L0D0_0
10
9.9
20
-34.049
0
VERTEX
8
L0D0_0
10
9.974
20
-34.009
0
VERTEX
8
L0D0_0
10
10.051
20
-33.976
0
VERTEX
8
L0D0_0
10
10.131
20
-33.95
0
VERTEX
8
L0D0_0
10
10.213
20
-33.931
0
VERTEX
8
L0D0_0
10
10.296
20
-33.92
0
VERTEX
8
L0D0_0
10
10.38
20
-33.916
0
VERTEX
8
L0D0_0
10
10.464
20
-33.92
0
VERTEX
8
L0D0_0
10
10.547
20
-33.931
0
VERTEX
8
L0D0_0
10
10.629
20
-33.95
0
VERTEX
8
L0D0_0
10
10.709
20
-33.976
0
VERTEX
8
L0D0_0
10
10.786
20
-34.009
0
VERTEX
8
L0D0_0
10
10.86
20
-34.049
0
VERTEX
8
L0D0_0
10
10.931
20
-34.095
0
VERTEX
8
L0D0_0
10
10.996
20
-34.148
0
VERTEX
8
L0D0_0
10
11.057
20
-34.206
0
VERTEX
8
L0D0_0
10
11.112
20
-34.269
0
VERTEX
8
L0D0_0
10
11.162
20
-34.337
0
VERTEX
8
L0D0_0
10
11.205
20
-34.409
0
VERTEX
8
L0D0_0
10
11.241
20
-34.485
0
VERTEX
8
L0D0_0
10
11.271
20
-34.563
0
VERTEX
8
L0D0_0
10
11.293
20
-34.644
0
VERTEX
8
L0D0_0
10
11.308
20
-34.727
0
VERTEX
8
L0D0_0
10
11.316
20
-34.811
0
VERTEX
8
L0D0_0
10
11.316
20
-43.189
0
VERTEX
8
L0D0_0
10
11.308
20
-43.273
0
VERTEX
8
L0D0_0
10
11.293
20
-43.356
0
VERTEX
8
L0D0_0
10
11.271
20
-43.437
0
VERTEX
8
L0D0_0
10
11.241
20
-43.515
0
VERTEX
8
L0D0_0
10
11.205
20
-43.591
0
VERTEX
8
L0D0_0
10
11.162
20
-43.663
0
VERTEX
8
L0D0_0
10
11.112
20
-43.731
0
VERTEX
8
L0D0_0
10
11.057
20
-43.794
0
VERTEX
8
L0D0_0
10
10.996
20
-43.852
0
VERTEX
8
L0D0_0
10
10.931
20
-43.905
0
VERTEX
8
L0D0_0
10
10.86
20
-43.951
0
VERTEX
8
L0D0_0
10
10.786
20
-43.991
0
VERTEX
8
L0D0_0
10
10.709
20
-44.024
0
VERTEX
8
L0D0_0
10
10.629
20
-44.05
0
VERTEX
8
L0D0_0
10
10.547
20
-44.069
0
VERTEX
8
L0D0_0
10
10.464
20
-44.08
0
SEQEND
0
POLYLINE
8
L0D0_0
70
1
40
0
41
0
66
1
0
VERTEX
8
L0D0_0
10
29.88
20
-44.084
0
VERTEX
8
L0D0_0
10
29.796
20
-44.08
0
VERTEX
8
L0D0_0
10
29.713
20
-44.069
0
VERTEX
8
L0D0_0
10
29.631
20
-44.05
0
VERTEX
8
L0D0_0
10
29.551
20
-44.024
0
VERTEX
8
L0D0_0
10
29.474
20
-43.991
0
VERTEX
8
L0D0_0
10
29.4
20
-43.951
0
VERTEX
8
L0D0_0
10
29.33
20
-43.905
0
VERTEX
8
L0D0_0
10
29.264
20
-43.852
0
VERTEX
8
L0D0_0
10
29.203
20
-43.794
0
VERTEX
8
L0D0_0
10
29.148
20
-43.731
0
VERTEX
8
L0D0_0
10
29.099
20
-43.663
0
VERTEX
8
L0D0_0
10
29.056
20
-43.591
0
VERTEX
8
L0D0_0
10
29.019
20
-43.515
0
VERTEX
8
L0D0_0
10
28.99
20
-43.437
0
VERTEX
8
L0D0_0
10
28.967
20
-43.356
0
VERTEX
8
L0D0_0
10
28.952
20
-43.273
0
VERTEX
8
L0D0_0
10
28.945
20
-43.189
0
VERTEX
8
L0D0_0
10
28.945
20
-34.811
0
VERTEX
8
L0D0_0
10
28.952
20
-34.727
0
VERTEX
8
L0D0_0
10
28.967
20
-34.644
0
VERTEX
8
L0D0_0
10
28.99
20
-34.563
0
VERTEX
8
L0D0_0
10
29.019
20
-34.485
0
VERTEX
8
L0D0_0
10
29.056
20
-34.409
0
VERTEX
8
L0D0_0
10
29.099
20
-34.337
0
VERTEX
8
L0D0_0
10
29.148
20
-34.269
0
VERTEX
8
L0D0_0
10
29.203
20
-34.206
0
VERTEX
8
L0D0_0
10
29.264
20
-34.148
0
VERTEX
8
L0D0_0
10
29.33
20
-34.095
0
VERTEX
8
L0D0_0
10
29.4
20
-34.049
0
VERTEX
8
L0D0_0
10
29.474
20
-34.009
0
VERTEX
8
L0D0_0
10
29.551
20
-33.976
0
VERTEX
8
L0D0_0
10
29.631
20
-33.95
0
VERTEX
8
L0D0_0
10
29.713
20
-33.931
0
VERTEX
8
L0D0_0
10
29.796
20
-33.92
0
VERTEX
8
L0D0_0
10
29.88
20
-33.916
0
VERTEX
8
L0D0_0
10
29.964
20
-33.92
0
VERTEX
8
L0D0_0
10
30.047
20
-33.931
0
VERTEX
8
L0D0_0
10
30.129
20
-33.95
0
VERTEX
8
L0D0_0
10
30.209
20
-33.976
0
VERTEX
8
L0D0_0
10
30.286
20
-34.009
0
VERTEX
8
L0D0_0
10
30.36
20
-34.049
0
VERTEX
8
L0D0_0
10
30.431
20
-34.095
0
VERTEX
8
L0D0_0
10
30.496
20
-34.148
0
VERTEX
8
L0D0_0
10
30.557
20
-34.206
0
VERTEX
8
L0D0_0
10
30.612
20
-34.269
0
VERTEX
8
L0D0_0
10
30.662
20
-34.337
0
VERTEX
8
L0D0_0
10
30.705
20
-34.409
0
VERTEX
8
L0D0_0
10
30.741
20
-34.485
0
VERTEX
8
L0D0_0
10
30.771
20
-34.563
0
VERTEX
8
L0D0_0
10
30.793
20
-34.644
0
VERTEX
8
L0D0_0
10
30.808
20
-34.727
0
VERTEX
8
L0D0_0
10
30.816
20
-34.811
0
VERTEX
8
L0D0_0
10
30.816
20
-43.189
0
VERTEX
8
L0D0_0
10
30.808
20
-43.273
0
VERTEX
8
L0D0_0
10
30.793
20
-43.356
0
VERTEX
8
L0D0_0
10
30.771
20
-43.437
0
VERTEX
8
L0D0_0
10
30.741
20
-43.515
0
VERTEX
8
L0D0_0
10
30.705
20
-43.591
0
VERTEX
8
L0D0_0
10
30.662
20
-43.663
0
VERTEX
8
L0D0_0
10
30.612
20
-43.731
0
VERTEX
8
L0D0_0
10
30.557
20
-43.794
0
VERTEX
8
L0D0_0
10
30.496
20
-43.852
0
VERTEX
8
L0D0_0
10
30.431
20
-43.905
0
VERTEX
8
L0D0_0
10
30.36
20
-43.951
0
VERTEX
8
L0D0_0
10
30.286
20
-43.991
0
VERTEX
8
L0D0_0
10
30.209
20
-44.024
0
VERTEX
8
L0D0_0
10
30.129
20
-44.05
0
VERTEX
8
L0D0_0
10
30.047
20
-44.069
0
VERTEX
8
L0D0_0
10
29.964
20
-44.08
0
SEQEND
0
POLYLINE
8
L0D0_0
70
1
40
0
41
0
66
1
0
VERTEX
8
L0D0_0
10
49.38
20
-44.084
0
VERTEX
8
L0D0_0
10
49.296
20
-44.08
0
VERTEX
8
L0D0_0
10
49.213
20
-44.069
0
VERTEX
8
L0D0_0
10
49.131
20
-44.05
0
VERTEX
8
L0D0_0
10
49.051
20
-44.024
0
VERTEX
8
L0D0_0
10
48.974
20
-43.991
0
VERTEX
8
L0D0_0
10
48.9
20
-43.951
0
VERTEX
8
L0D0_0
10
48.83
20
-43.905
0
VERTEX
8
L0D0_0
10
48.764
20
-43.852
0
VERTEX
8
L0D0_0
10
48.703
20
-43.794
0
VERTEX
8
L0D0_0
10
48.648
20
-43.731
0
VERTEX
8
L0D0_0
10
48.599
20
-43.663
0
VERTEX
8
L0D0_0
10
48.556
20
-43.591
0
VERTEX
8
L0D0_0
10
48.519
20
-43.515
0
VERTEX
8
L0D0_0
10
48.49
20
-43.437
0
VERTEX
8
L0D0_0
10
48.467
20
-43.356
0
VERTEX
8
L0D0_0
10
48.452
20
-43.273
0
VERTEX
8
L0D0_0
10
48.445
20
-43.189
0
VERTEX
8
L0D0_0
10
48.445
20
-34.811
0
VERTEX
8
L0D0_0
10
48.452
20
-34.727
0
VERTEX
8
L0D0_0
10
48.467
20
-34.644
0
VERTEX
8
L0D0_0
10
48.49
20
-34.563
0
VERTEX
8
L0D0_0
10
48.519
20
-34.485
0
VERTEX
8
L0D0_0
10
48.556
20
-34.409
0
VERTEX
8
L0D0_0
10
48.599
20
-34.337
0
VERTEX
8
L0D0_0
10
48.648
20
-34.269
0
VERTEX
8
L0D0_0
10
48.703
20
-34.206
0
VERTEX
8
L0D0_0
10
48.764
20
-34.148
0
VERTEX
8
L0D0_0
10
48.83
20
-34.095
0
VERTEX
8
L0D0_0
10
48.9
20
-34.049
0
VERTEX
8
L0D0_0
10
48.974
20
-34.009
0
VERTEX
8
L0D0_0
10
49.051
20
-33.976
0
VERTEX
8
L0D0_0
10
49.131
20
-33.95
0
VERTEX
8
L0D0_0
10
49.213
20
-33.931
0
VERTEX
8
L0D0_0
10
49.296
20
-33.92
0
VERTEX
8
L0D0_0
10
49.38
20
-33.916
0
VERTEX
8
L0D0_0
10
49.464
20
-33.92
0
VERTEX
8
L0D0_0
10
49.547
20
-33.931
0
VERTEX
8
L0D0_0
10
49.629
20
-33.95
0
VERTEX
8
L0D0_0
10
49.709
20
-33.976
0
VERTEX
8
L0D0_0
10
49.786
20
-34.009
0
VERTEX
8
L0D0_0
10
49.86
20
-34.049
0
VERTEX
8
L0D0_0
10
49.931
20
-34.095
0
VERTEX
8
L0D0_0
10
49.996
20
-34.148
0
VERTEX
8
L0D0_0
10
50.057
20
-34.206
0
VERTEX
8
L0D0_0
10
50.112
20
-34.269
0
VERTEX
8
L0D0_0
10
50.162
20
-34.337
0
VERTEX
8
L0D0_0
10
50.205
20
-34.409
0
VERTEX
8
L0D0_0
10
50.241
20
-34.485
0
VERTEX
8
L0D0_0
10
50.271
20
-34.563
0
VERTEX
8
L0D0_0
10
50.293
20
-34.644
0
VERTEX
8
L0D0_0
10
50.308
20
-34.727
0
VERTEX
8
L0D0_0
10
50.316
20
-34.811
0
VERTEX
8
L0D0_0
10
50.316
20
-43.189
0
VERTEX
8
L0D0_0
10
50.308
20
-43.273
0
VERTEX
8
L0D0_0
10
50.293
20
-43.356
0
VERTEX
8
L0D0_0
10
50.271
20
-43.437
0
VERTEX
8
L0D0_0
10
50.241
20
-43.515
0
VERTEX
8
L0D0_0
10
50.205
20
-43.591
0
VERTEX
8
L0D0_0
10
50.162
20
-43.663
0
VERTEX
8
L0D0_0
10
50.112
20
-43.731
0
VERTEX
8
L0D0_0
10
50.057
20
-43.794
0
VERTEX
8
L0D0_0
10
49.996
20
-43.852
0
VERTEX
8
L0D0_0
10
49.931
20
-43.905
0
VERTEX
8
L0D0_0
10
49.86
20
-43.951
0
VERTEX
8
L0D0_0
10
49.786
20
-43.991
0
VERTEX
8
L0D0_0
10
49.709
20
-44.024
0
VERTEX
8
L0D0_0
10
49.629
20
-44.05
0
VERTEX
8
L0D0_0
10
49.547
20
-44.069
0
VERTEX
8
L0D0_0
10
49.464
20
-44.08
0
SEQEND
0
ENDSEC
0
EOF
