<?xml version="1.0" standalone="no"?>
<svg viewBox="0 0 800 600" version="1.1" xmlns="http://www.w3.org/2000/svg" xmlns:xlink="http://www.w3.org/1999/xlink" stroke-linecap="round" stroke-linejoin="round" fill-rule="evenodd" xml:space="preserve" >
<defs >
<clipPath id="clipId0" >
<path d="M0,600 800,600 800,0 0,0 z" />
</clipPath>
</defs>
<g clip-path="url(#clipId0)" fill="none" stroke="rgb(0,0,0)" stroke-width="0.1" />
<g clip-path="url(#clipId0)" fill="none" stroke="rgb(0,0,0)" stroke-width="0.25" >
<circle cx="156.405" cy="421.798" r="27.3939" />
<circle cx="156.405" cy="178.202" r="27.3939" />
<circle cx="643.595" cy="178.202" r="27.3939" />
<circle cx="643.595" cy="421.798" r="27.3939" />
<polyline points="110.362,222.326 106.347,220.984 103.108,217.833 101.641,213.731 101.572,212.71 101.57,210.087 101.57,204.252 101.57,192.583 101.57,186.749 102.247,186.453 103.663,186.663 106.513,187.23 112.245,188.97 123.458,194.892 133.602,203.808 141.927,215.011 145.256,221.165 145.807,222.338 145.807,222.382 145.807,222.471 146.363,225.118 146.981,225.435 147.324,225.483 149.119,225.484 157.558,225.533 160.533,226.125 161.247,226.374 161.233,227.259 160.927,228.816 160.133,235.148 160.677,247.912 161.253,251.038 161.226,251.836 160.871,251.965 159.412,252.382 156.402,252.718 154.389,252.718 150.362,252.718 148.349,252.718 147.193,252.728 146.537,252.958 145.818,254.096 145.807,255.512 145.807,255.867 138.993,267.688 129.9,278.123 119.247,285.954 107.857,290.637 102.162,291.76 101.57,289.221 101.57,277.552 101.57,265.883 102.445,261.595 105.203,258.018 109.118,256.089 110.128,255.904 112.851,255.876 119.357,255.876 132.368,255.876 138.874,255.876 139.561,255.558 139.561,254.847 139.589,253.613 140.642,250.316 143.087,247.751 144.605,246.978 144.933,246.438 144.189,245.119 143.159,242.26 142.89,240.772 141.863,240.663 137.483,240.663 133.103,240.663 133.935,245.663 134.804,248.12 133.031,248.485 114.813,248.485 114.519,232.029 114.519,229.938 116.556,229.717 121.11,229.717 130.219,229.717 134.774,229.717 133.457,234.481 133.086,237.06 133.941,237.54 136.131,237.54 140.511,237.54 142.7,237.54 143.477,234.823 144.746,232.065 144.788,231.291 144.014,230.973 141.272,228.8 139.748,225.624 139.561,223.961 139.561,223.575 139.561,222.864 139.561,222.508 139.561,222.33 136.385,222.326 110.362,222.326 " />
<polyline points="143.3,262.065 143.357,262.071 " />
<polyline points="94.2338,287.037 94.2338,274.698 94.2338,268.528 94.4072,263.213 95.7767,258.535 98.5803,254.232 102.57,250.928 107.183,249.01 111.395,248.013 111.395,242.599 111.395,231.772 111.395,230.419 110.856,229.709 108.555,229.481 103.884,227.986 99.6446,225.063 96.4515,220.994 94.6601,216.357 94.2338,211.478 94.2338,199.138 94.2338,192.969 94.2338,191.426 91.6143,191.306 85.1551,192.278 78.628,194.216 72.2462,197.167 66.2414,201.113 60.8401,205.968 56.2368,211.579 52.572,217.742 49.9177,224.227 48.2761,230.802 47.7639,243.598 50.8958,256.693 53.9739,263.072 58.0414,269.033 62.9966,274.353 68.6746,278.845 74.8644,282.384 81.3341,284.912 94.2338,287.037 " />
<polyline points="110.362,344.124 106.347,342.782 103.108,339.631 101.641,335.528 101.572,334.507 101.57,331.884 101.57,326.05 101.57,314.381 101.57,308.546 102.247,308.251 103.663,308.46 106.513,309.027 112.245,310.768 123.458,316.69 133.602,325.606 141.927,336.808 145.256,342.962 145.807,344.135 145.807,344.18 145.807,344.269 146.363,346.915 146.981,347.233 147.324,347.281 149.119,347.282 157.558,347.33 160.533,347.922 161.247,348.172 161.233,349.056 160.927,350.614 160.133,356.945 160.677,369.71 161.253,372.836 161.226,373.634 160.871,373.763 159.412,374.18 156.402,374.516 154.389,374.516 150.362,374.516 148.349,374.516 147.193,374.526 146.537,374.756 145.818,375.894 145.807,377.309 145.807,377.665 138.993,389.486 129.9,399.92 119.247,407.752 107.857,412.435 102.162,413.558 101.57,411.019 101.57,399.35 101.57,387.681 102.445,383.393 105.203,379.816 109.118,377.887 110.128,377.702 112.851,377.674 119.357,377.674 132.368,377.674 138.874,377.674 139.561,377.356 139.561,376.644 139.589,375.41 140.642,372.114 143.087,369.549 144.605,368.775 144.933,368.236 144.189,366.917 143.159,364.057 142.89,362.57 141.863,362.46 137.483,362.46 133.103,362.46 133.935,367.461 134.804,369.917 133.031,370.283 114.813,370.283 114.519,353.826 114.519,351.736 116.556,351.515 121.11,351.515 130.219,351.515 134.774,351.515 133.457,356.279 133.086,358.858 133.941,359.337 136.131,359.337 140.511,359.337 142.7,359.337 143.477,356.621 144.746,353.863 144.788,353.089 144.014,352.77 141.272,350.598 139.748,347.421 139.561,345.759 139.561,345.373 139.561,344.661 139.561,344.306 139.561,344.128 136.385,344.124 110.362,344.124 " />
<polyline points="143.3,383.862 143.357,383.869 " />
<polyline points="94.2338,408.835 94.2338,396.495 94.2338,390.325 94.4072,385.011 95.7767,380.333 98.5803,376.03 102.57,372.726 107.183,370.808 111.395,369.81 111.395,364.397 111.395,353.57 111.395,352.217 110.856,351.506 108.555,351.278 103.884,349.784 99.6446,346.861 96.4515,342.791 94.6601,338.155 94.2338,333.276 94.2338,320.936 94.2338,314.766 94.2338,313.224 91.6143,313.104 85.1551,314.076 78.628,316.014 72.2462,318.964 66.2414,322.911 60.8401,327.766 56.2368,333.377 52.572,339.54 49.9177,346.025 48.2761,352.6 47.7639,365.395 50.8958,378.49 53.9739,384.87 58.0414,390.831 62.9966,396.15 68.6746,400.643 74.8644,404.182 81.3341,406.71 94.2338,408.835 " />
<polyline points="110.362,465.921 106.347,464.58 103.108,461.428 101.641,457.326 101.572,456.305 101.57,453.682 101.57,447.848 101.57,436.179 101.57,430.344 102.247,430.049 103.663,430.258 106.513,430.825 112.245,432.566 123.458,438.488 133.602,447.404 141.927,458.606 145.256,464.76 145.807,465.933 145.807,465.978 145.807,466.066 146.363,468.713 146.981,469.031 147.324,469.079 149.119,469.079 157.558,469.128 160.533,469.72 161.247,469.969 161.233,470.854 160.927,472.412 160.133,478.743 160.677,491.508 161.253,494.633 161.226,495.432 160.871,495.561 159.412,495.978 156.402,496.314 154.389,496.314 150.362,496.314 148.349,496.314 147.193,496.324 146.537,496.554 145.818,497.692 145.807,499.107 145.807,499.463 138.993,511.284 129.9,521.718 119.247,529.549 107.857,534.233 102.162,535.356 101.57,532.817 101.57,521.148 101.57,509.479 102.445,505.191 105.203,501.614 109.118,499.685 110.128,499.499 112.851,499.472 119.357,499.472 132.368,499.472 138.874,499.472 139.561,499.153 139.561,498.442 139.589,497.208 140.642,493.912 143.087,491.346 144.605,490.573 144.933,490.033 144.189,488.714 143.159,485.855 142.89,484.368 141.863,484.258 137.483,484.258 133.103,484.258 133.935,489.258 134.804,491.715 133.031,492.08 114.813,492.08 114.519,475.624 114.519,473.533 116.556,473.313 121.11,473.313 130.219,473.313 134.774,473.313 133.457,478.076 133.086,480.656 133.941,481.135 136.131,481.135 140.511,481.135 142.7,481.135 143.477,478.418 144.746,475.661 144.788,474.887 144.014,474.568 141.272,472.396 139.748,469.219 139.561,467.556 139.561,467.17 139.561,466.459 139.561,466.104 139.561,465.926 136.385,465.921 110.362,465.921 " />
<polyline points="143.3,505.66 143.357,505.666 " />
<polyline points="94.2338,530.633 94.2338,518.293 94.2338,512.123 94.4072,506.809 95.7767,502.13 98.5803,497.827 102.57,494.524 107.183,492.605 111.395,491.608 111.395,486.195 111.395,475.368 111.395,474.014 110.856,473.304 108.555,473.076 103.884,471.581 99.6446,468.659 96.4515,464.589 94.6601,459.953 94.2338,455.074 94.2338,442.734 94.2338,436.564 94.2338,435.021 91.6143,434.902 85.1551,435.874 78.628,437.812 72.2462,440.762 66.2414,444.708 60.8401,449.564 56.2368,455.175 52.572,461.338 49.9177,467.822 48.2761,474.398 47.7639,487.193 50.8958,500.288 53.9739,506.668 58.0414,512.629 62.9966,517.948 68.6746,522.441 74.8644,525.98 81.3341,528.508 94.2338,530.633 " />
<polyline points="232.159,100.528 228.144,99.1865 224.906,96.0352 223.439,91.9329 223.369,90.9118 223.368,88.2889 223.368,82.4544 223.368,70.7855 223.368,64.9511 224.045,64.6554 225.46,64.8649 228.31,65.4319 234.043,67.1726 245.256,73.0945 255.399,82.0105 263.725,93.213 267.054,99.3669 267.604,100.54 267.604,100.584 267.604,100.673 268.161,103.32 268.779,103.637 269.122,103.685 270.917,103.686 279.356,103.735 282.331,104.327 283.045,104.576 283.031,105.461 282.724,107.019 281.93,113.35 282.475,126.114 283.051,129.24 283.024,130.039 282.668,130.168 281.21,130.585 278.2,130.921 276.187,130.921 272.16,130.921 270.147,130.921 268.991,130.931 268.334,131.161 267.615,132.299 267.604,133.714 267.604,134.07 260.79,145.89 251.698,156.325 241.045,164.156 229.655,168.84 223.959,169.963 223.368,167.424 223.368,155.755 223.368,144.086 224.242,139.798 227.001,136.221 230.916,134.292 231.925,134.106 234.649,134.079 241.154,134.079 254.166,134.079 260.672,134.079 261.358,133.76 261.358,133.049 261.387,131.815 262.439,128.519 264.885,125.953 266.403,125.18 266.73,124.64 265.987,123.321 264.956,120.462 264.688,118.975 263.66,118.865 259.281,118.865 254.901,118.865 255.733,123.865 256.602,126.322 254.829,126.687 236.611,126.687 236.316,110.231 236.316,108.14 238.353,107.92 242.908,107.92 252.017,107.92 256.572,107.92 255.255,112.683 254.884,115.263 255.739,115.742 257.929,115.742 262.308,115.742 264.498,115.742 265.274,113.025 266.543,110.268 266.586,109.493 265.812,109.175 263.07,107.003 261.546,103.826 261.358,102.163 261.358,101.777 261.358,101.066 261.358,100.71 261.358,100.533 258.183,100.528 232.159,100.528 " />
<polyline points="265.097,140.267 265.155,140.273 " />
<polyline points="216.031,165.24 216.031,152.9 216.031,146.73 216.205,141.415 217.574,136.737 220.378,132.434 224.368,129.131 228.981,127.212 233.193,126.215 233.193,120.801 233.193,109.975 233.193,108.621 232.653,107.911 230.353,107.683 225.681,106.188 221.442,103.266 218.249,99.196 216.458,94.5596 216.031,89.6807 216.031,77.3408 216.031,71.1708 216.031,69.6283 213.412,69.5084 206.953,70.4807 200.426,72.4186 194.044,75.369 188.039,79.3152 182.638,84.1704 178.035,89.7814 174.37,95.9446 171.715,102.429 170.074,109.005 169.562,121.8 172.693,134.895 175.772,141.275 179.839,147.235 184.794,152.555 190.472,157.048 196.662,160.587 203.132,163.115 216.031,165.24 " />
<polyline points="232.159,222.326 228.144,220.984 224.906,217.833 223.439,213.731 223.369,212.71 223.368,210.087 223.368,204.252 223.368,192.583 223.368,186.749 224.045,186.453 225.46,186.663 228.31,187.23 234.043,188.97 245.256,194.892 255.399,203.808 263.725,215.011 267.054,221.165 267.604,222.338 267.604,222.382 267.604,222.471 268.161,225.118 268.779,225.435 269.122,225.483 270.917,225.484 279.356,225.533 282.331,226.125 283.045,226.374 283.031,227.259 282.724,228.816 281.93,235.148 282.475,247.912 283.051,251.038 283.024,251.836 282.668,251.965 281.21,252.382 278.2,252.718 276.187,252.718 272.16,252.718 270.147,252.718 268.991,252.728 268.334,252.958 267.615,254.096 267.604,255.512 267.604,255.867 260.79,267.688 251.698,278.123 241.045,285.954 229.655,290.637 223.959,291.76 223.368,289.221 223.368,277.552 223.368,265.883 224.242,261.595 227.001,258.018 230.916,256.089 231.925,255.904 234.649,255.876 241.154,255.876 254.166,255.876 260.672,255.876 261.358,255.558 261.358,254.847 261.387,253.613 262.439,250.316 264.885,247.751 266.403,246.978 266.73,246.438 265.987,245.119 264.956,242.26 264.688,240.772 263.66,240.663 259.281,240.663 254.901,240.663 255.733,245.663 256.602,248.12 254.829,248.485 236.611,248.485 236.316,232.029 236.316,229.938 238.353,229.717 242.908,229.717 252.017,229.717 256.572,229.717 255.255,234.481 254.884,237.06 255.739,237.54 257.929,237.54 262.308,237.54 264.498,237.54 265.274,234.823 266.543,232.065 266.586,231.291 265.812,230.973 263.07,228.8 261.546,225.624 261.358,223.961 261.358,223.575 261.358,222.864 261.358,222.508 261.358,222.33 258.183,222.326 232.159,222.326 " />
<polyline points="265.097,262.065 265.155,262.071 " />
<polyline points="216.031,287.037 216.031,274.698 216.031,268.528 216.205,263.213 217.574,258.535 220.378,254.232 224.368,250.928 228.981,249.01 233.193,248.013 233.193,242.599 233.193,231.772 233.193,230.419 232.653,229.709 230.353,229.481 225.681,227.986 221.442,225.063 218.249,220.994 216.458,216.357 216.031,211.478 216.031,199.138 216.031,192.969 216.031,191.426 213.412,191.306 206.953,192.278 200.426,194.216 194.044,197.167 188.039,201.113 182.638,205.968 178.035,211.579 174.37,217.742 171.715,224.227 170.074,230.802 169.562,243.598 172.693,256.693 175.772,263.072 179.839,269.033 184.794,274.353 190.472,278.845 196.662,282.384 203.132,284.912 216.031,287.037 " />
<polyline points="232.159,344.124 228.144,342.782 224.906,339.631 223.439,335.528 223.369,334.507 223.368,331.884 223.368,326.05 223.368,314.381 223.368,308.546 224.045,308.251 225.46,308.46 228.31,309.027 234.043,310.768 245.256,316.69 255.399,325.606 263.725,336.808 267.054,342.962 267.604,344.135 267.604,344.18 267.604,344.269 268.161,346.915 268.779,347.233 269.122,347.281 270.917,347.282 279.356,347.33 282.331,347.922 283.045,348.172 283.031,349.056 282.724,350.614 281.93,356.945 282.475,369.71 283.051,372.836 283.024,373.634 282.668,373.763 281.21,374.18 278.2,374.516 276.187,374.516 272.16,374.516 270.147,374.516 268.991,374.526 268.334,374.756 267.615,375.894 267.604,377.309 267.604,377.665 260.79,389.486 251.698,399.92 241.045,407.752 229.655,412.435 223.959,413.558 223.368,411.019 223.368,399.35 223.368,387.681 224.242,383.393 227.001,379.816 230.916,377.887 231.925,377.702 234.649,377.674 241.154,377.674 254.166,377.674 260.672,377.674 261.358,377.356 261.358,376.644 261.387,375.41 262.439,372.114 264.885,369.549 266.403,368.775 266.73,368.236 265.987,366.917 264.956,364.057 264.688,362.57 263.66,362.46 259.281,362.46 254.901,362.46 255.733,367.461 256.602,369.917 254.829,370.283 236.611,370.283 236.316,353.826 236.316,351.736 238.353,351.515 242.908,351.515 252.017,351.515 256.572,351.515 255.255,356.279 254.884,358.858 255.739,359.337 257.929,359.337 262.308,359.337 264.498,359.337 265.274,356.621 266.543,353.863 266.586,353.089 265.812,352.77 263.07,350.598 261.546,347.421 261.358,345.759 261.358,345.373 261.358,344.661 261.358,344.306 261.358,344.128 258.183,344.124 232.159,344.124 " />
<polyline points="265.097,383.862 265.155,383.869 " />
<polyline points="216.031,408.835 216.031,396.495 216.031,390.325 216.205,385.011 217.574,380.333 220.378,376.03 224.368,372.726 228.981,370.808 233.193,369.81 233.193,364.397 233.193,353.57 233.193,352.217 232.653,351.506 230.353,351.278 225.681,349.784 221.442,346.861 218.249,342.791 216.458,338.155 216.031,333.276 216.031,320.936 216.031,314.766 216.031,313.224 213.412,313.104 206.953,314.076 200.426,316.014 194.044,318.964 188.039,322.911 182.638,327.766 178.035,333.377 174.37,339.54 171.715,346.025 170.074,352.6 169.562,365.395 172.693,378.49 175.772,384.87 179.839,390.831 184.794,396.15 190.472,400.643 196.662,404.182 203.132,406.71 216.031,408.835 " />
<polyline points="232.159,465.921 228.144,464.58 224.906,461.428 223.439,457.326 223.369,456.305 223.368,453.682 223.368,447.848 223.368,436.179 223.368,430.344 224.045,430.049 225.46,430.258 228.31,430.825 234.043,432.566 245.256,438.488 255.399,447.404 263.725,458.606 267.054,464.76 267.604,465.933 267.604,465.978 267.604,466.066 268.161,468.713 268.779,469.031 269.122,469.079 270.917,469.079 279.356,469.128 282.331,469.72 283.045,469.969 283.031,470.854 282.724,472.412 281.93,478.743 282.475,491.508 283.051,494.633 283.024,495.432 282.668,495.561 281.21,495.978 278.2,496.314 276.187,496.314 272.16,496.314 270.147,496.314 268.991,496.324 268.334,496.554 267.615,497.692 267.604,499.107 267.604,499.463 260.79,511.284 251.698,521.718 241.045,529.549 229.655,534.233 223.959,535.356 223.368,532.817 223.368,521.148 223.368,509.479 224.242,505.191 227.001,501.614 230.916,499.685 231.925,499.499 234.649,499.472 241.154,499.472 254.166,499.472 260.672,499.472 261.358,499.153 261.358,498.442 261.387,497.208 262.439,493.912 264.885,491.346 266.403,490.573 266.73,490.033 265.987,488.714 264.956,485.855 264.688,484.368 263.66,484.258 259.281,484.258 254.901,484.258 255.733,489.258 256.602,491.715 254.829,492.08 236.611,492.08 236.316,475.624 236.316,473.533 238.353,473.313 242.908,473.313 252.017,473.313 256.572,473.313 255.255,478.076 254.884,480.656 255.739,481.135 257.929,481.135 262.308,481.135 264.498,481.135 265.274,478.418 266.543,475.661 266.586,474.887 265.812,474.568 263.07,472.396 261.546,469.219 261.358,467.556 261.358,467.17 261.358,466.459 261.358,466.104 261.358,465.926 258.183,465.921 232.159,465.921 " />
<polyline points="265.097,505.66 265.155,505.666 " />
<polyline points="216.031,530.633 216.031,518.293 216.031,512.123 216.205,506.809 217.574,502.13 220.378,497.827 224.368,494.524 228.981,492.605 233.193,491.608 233.193,486.195 233.193,475.368 233.193,474.014 232.653,473.304 230.353,473.076 225.681,471.581 221.442,468.659 218.249,464.589 216.458,459.953 216.031,455.074 216.031,442.734 216.031,436.564 216.031,435.021 213.412,434.902 206.953,435.874 200.426,437.812 194.044,440.762 188.039,444.708 182.638,449.564 178.035,455.175 174.37,461.338 171.715,467.822 170.074,474.398 169.562,487.193 172.693,500.288 175.772,506.668 179.839,512.629 184.794,517.948 190.472,522.441 196.662,525.98 203.132,528.508 216.031,530.633 " />
<polyline points="353.957,100.528 349.942,99.1865 346.703,96.0352 345.236,91.9329 345.167,90.9118 345.166,88.2889 345.166,82.4544 345.166,70.7855 345.166,64.9511 345.843,64.6554 347.258,64.8649 350.108,65.4319 355.84,67.1726 367.054,73.0945 377.197,82.0105 385.523,93.213 388.852,99.3669 389.402,100.54 389.402,100.584 389.402,100.673 389.959,103.32 390.577,103.637 390.919,103.685 392.715,103.686 401.153,103.735 404.129,104.327 404.843,104.576 404.828,105.461 404.522,107.019 403.728,113.35 404.273,126.114 404.848,129.24 404.821,130.039 404.466,130.168 403.007,130.585 399.998,130.921 397.984,130.921 393.958,130.921 391.944,130.921 390.788,130.931 390.132,131.161 389.413,132.299 389.402,133.714 389.402,134.07 382.588,145.89 373.496,156.325 362.843,164.156 351.452,168.84 345.757,169.963 345.166,167.424 345.166,155.755 345.166,144.086 346.04,139.798 348.799,136.221 352.714,134.292 353.723,134.106 356.446,134.079 362.952,134.079 375.964,134.079 382.47,134.079 383.156,133.76 383.156,133.049 383.185,131.815 384.237,128.519 386.682,125.953 388.201,125.18 388.528,124.64 387.784,123.321 386.754,120.462 386.486,118.975 385.458,118.865 381.078,118.865 376.699,118.865 377.531,123.865 378.399,126.322 376.627,126.687 358.408,126.687 358.114,110.231 358.114,108.14 360.151,107.92 364.706,107.92 373.815,107.92 378.369,107.92 377.053,112.683 376.681,115.263 377.537,115.742 379.726,115.742 384.106,115.742 386.296,115.742 387.072,113.025 388.341,110.268 388.383,109.493 387.61,109.175 384.867,107.003 383.344,103.826 383.156,102.163 383.156,101.777 383.156,101.066 383.156,100.71 383.156,100.533 379.98,100.528 353.957,100.528 " />
<polyline points="386.895,140.267 386.953,140.273 " />
<polyline points="337.829,165.24 337.829,152.9 337.829,146.73 338.003,141.415 339.372,136.737 342.176,132.434 346.165,129.131 350.779,127.212 354.991,126.215 354.991,120.801 354.991,109.975 354.991,108.621 354.451,107.911 352.15,107.683 347.479,106.188 343.24,103.266 340.047,99.196 338.256,94.5596 337.829,89.6807 337.829,77.3408 337.829,71.1708 337.829,69.6283 335.21,69.5084 328.75,70.4807 322.223,72.4186 315.842,75.369 309.837,79.3152 304.435,84.1704 299.832,89.7814 296.167,95.9446 293.513,102.429 291.872,109.005 291.359,121.8 294.491,134.895 297.569,141.275 301.637,147.235 306.592,152.555 312.27,157.048 318.46,160.587 324.93,163.115 337.829,165.24 " />
<polyline points="353.957,222.326 349.942,220.984 346.703,217.833 345.236,213.731 345.167,212.71 345.166,210.087 345.166,204.252 345.166,192.583 345.166,186.749 345.843,186.453 347.258,186.663 350.108,187.23 355.84,188.97 367.054,194.892 377.197,203.808 385.523,215.011 388.852,221.165 389.402,222.338 389.402,222.382 389.402,222.471 389.959,225.118 390.577,225.435 390.919,225.483 392.715,225.484 401.153,225.533 404.129,226.125 404.843,226.374 404.828,227.259 404.522,228.816 403.728,235.148 404.273,247.912 404.848,251.038 404.821,251.836 404.466,251.965 403.007,252.382 399.998,252.718 397.984,252.718 393.958,252.718 391.944,252.718 390.788,252.728 390.132,252.958 389.413,254.096 389.402,255.512 389.402,255.867 382.588,267.688 373.496,278.123 362.843,285.954 351.452,290.637 345.757,291.76 345.166,289.221 345.166,277.552 345.166,265.883 346.04,261.595 348.799,258.018 352.714,256.089 353.723,255.904 356.446,255.876 362.952,255.876 375.964,255.876 382.47,255.876 383.156,255.558 383.156,254.847 383.185,253.613 384.237,250.316 386.682,247.751 388.201,246.978 388.528,246.438 387.784,245.119 386.754,242.26 386.486,240.772 385.458,240.663 381.078,240.663 376.699,240.663 377.531,245.663 378.399,248.12 376.627,248.485 358.408,248.485 358.114,232.029 358.114,229.938 360.151,229.717 364.706,229.717 373.815,229.717 378.369,229.717 377.053,234.481 376.681,237.06 377.537,237.54 379.726,237.54 384.106,237.54 386.296,237.54 387.072,234.823 388.341,232.065 388.383,231.291 387.61,230.973 384.867,228.8 383.344,225.624 383.156,223.961 383.156,223.575 383.156,222.864 383.156,222.508 383.156,222.33 379.98,222.326 353.957,222.326 " />
<polyline points="386.895,262.065 386.953,262.071 " />
<polyline points="337.829,287.037 337.829,274.698 337.829,268.528 338.003,263.213 339.372,258.535 342.176,254.232 346.165,250.928 350.779,249.01 354.991,248.013 354.991,242.599 354.991,231.772 354.991,230.419 354.451,229.709 352.15,229.481 347.479,227.986 343.24,225.063 340.047,220.994 338.256,216.357 337.829,211.478 337.829,199.138 337.829,192.969 337.829,191.426 335.21,191.306 328.75,192.278 322.223,194.216 315.842,197.167 309.837,201.113 304.435,205.968 299.832,211.579 296.167,217.742 293.513,224.227 291.872,230.802 291.359,243.598 294.491,256.693 297.569,263.072 301.637,269.033 306.592,274.353 312.27,278.845 318.46,282.384 324.93,284.912 337.829,287.037 " />
<polyline points="353.957,344.124 349.942,342.782 346.703,339.631 345.236,335.528 345.167,334.507 345.166,331.884 345.166,326.05 345.166,314.381 345.166,308.546 345.843,308.251 347.258,308.46 350.108,309.027 355.84,310.768 367.054,316.69 377.197,325.606 385.523,336.808 388.852,342.962 389.402,344.135 389.402,344.18 389.402,344.269 389.959,346.915 390.577,347.233 390.919,347.281 392.715,347.282 401.153,347.33 404.129,347.922 404.843,348.172 404.828,349.056 404.522,350.614 403.728,356.945 404.273,369.71 404.848,372.836 404.821,373.634 404.466,373.763 403.007,374.18 399.998,374.516 397.984,374.516 393.958,374.516 391.944,374.516 390.788,374.526 390.132,374.756 389.413,375.894 389.402,377.309 389.402,377.665 382.588,389.486 373.496,399.92 362.843,407.752 351.452,412.435 345.757,413.558 345.166,411.019 345.166,399.35 345.166,387.681 346.04,383.393 348.799,379.816 352.714,377.887 353.723,377.702 356.446,377.674 362.952,377.674 375.964,377.674 382.47,377.674 383.156,377.356 383.156,376.644 383.185,375.41 384.237,372.114 386.682,369.549 388.201,368.775 388.528,368.236 387.784,366.917 386.754,364.057 386.486,362.57 385.458,362.46 381.078,362.46 376.699,362.46 377.531,367.461 378.399,369.917 376.627,370.283 358.408,370.283 358.114,353.826 358.114,351.736 360.151,351.515 364.706,351.515 373.815,351.515 378.369,351.515 377.053,356.279 376.681,358.858 377.537,359.337 379.726,359.337 384.106,359.337 386.296,359.337 387.072,356.621 388.341,353.863 388.383,353.089 387.61,352.77 384.867,350.598 383.344,347.421 383.156,345.759 383.156,345.373 383.156,344.661 383.156,344.306 383.156,344.128 379.98,344.124 353.957,344.124 " />
<polyline points="386.895,383.862 386.953,383.869 " />
<polyline points="337.829,408.835 337.829,396.495 337.829,390.325 338.003,385.011 339.372,380.333 342.176,376.03 346.165,372.726 350.779,370.808 354.991,369.81 354.991,364.397 354.991,353.57 354.991,352.217 354.451,351.506 352.15,351.278 347.479,349.784 343.24,346.861 340.047,342.791 338.256,338.155 337.829,333.276 337.829,320.936 337.829,314.766 337.829,313.224 335.21,313.104 328.75,314.076 322.223,316.014 315.842,318.964 309.837,322.911 304.435,327.766 299.832,333.377 296.167,339.54 293.513,346.025 291.872,352.6 291.359,365.395 294.491,378.49 297.569,384.87 301.637,390.831 306.592,396.15 312.27,400.643 318.46,404.182 324.93,406.71 337.829,408.835 " />
<polyline points="353.957,465.921 349.942,464.58 346.703,461.428 345.236,457.326 345.167,456.305 345.166,453.682 345.166,447.848 345.166,436.179 345.166,430.344 345.843,430.049 347.258,430.258 350.108,430.825 355.84,432.566 367.054,438.488 377.197,447.404 385.523,458.606 388.852,464.76 389.402,465.933 389.402,465.978 389.402,466.066 389.959,468.713 390.577,469.031 390.919,469.079 392.715,469.079 401.153,469.128 404.129,469.72 404.843,469.969 404.828,470.854 404.522,472.412 403.728,478.743 404.273,491.508 404.848,494.633 404.821,495.432 404.466,495.561 403.007,495.978 399.998,496.314 397.984,496.314 393.958,496.314 391.944,496.314 390.788,496.324 390.132,496.554 389.413,497.692 389.402,499.107 389.402,499.463 382.588,511.284 373.496,521.718 362.843,529.549 351.452,534.233 345.757,535.356 345.166,532.817 345.166,521.148 345.166,509.479 346.04,505.191 348.799,501.614 352.714,499.685 353.723,499.499 356.446,499.472 362.952,499.472 375.964,499.472 382.47,499.472 383.156,499.153 383.156,498.442 383.185,497.208 384.237,493.912 386.682,491.346 388.201,490.573 388.528,490.033 387.784,488.714 386.754,485.855 386.486,484.368 385.458,484.258 381.078,484.258 376.699,484.258 377.531,489.258 378.399,491.715 376.627,492.08 358.408,492.08 358.114,475.624 358.114,473.533 360.151,473.313 364.706,473.313 373.815,473.313 378.369,473.313 377.053,478.076 376.681,480.656 377.537,481.135 379.726,481.135 384.106,481.135 386.296,481.135 387.072,478.418 388.341,475.661 388.383,474.887 387.61,474.568 384.867,472.396 383.344,469.219 383.156,467.556 383.156,467.17 383.156,466.459 383.156,466.104 383.156,465.926 379.98,465.921 353.957,465.921 " />
<polyline points="386.895,505.66 386.953,505.666 " />
<polyline points="337.829,530.633 337.829,518.293 337.829,512.123 338.003,506.809 339.372,502.13 342.176,497.827 346.165,494.524 350.779,492.605 354.991,491.608 354.991,486.195 354.991,475.368 354.991,474.014 354.451,473.304 352.15,473.076 347.479,471.581 343.24,468.659 340.047,464.589 338.256,459.953 337.829,455.074 337.829,442.734 337.829,436.564 337.829,435.021 335.21,434.902 328.75,435.874 322.223,437.812 315.842,440.762 309.837,444.708 304.435,449.564 299.832,455.175 296.167,461.338 293.513,467.822 291.872,474.398 291.359,487.193 294.491,500.288 297.569,506.668 301.637,512.629 306.592,517.948 312.27,522.441 318.46,525.98 324.93,528.508 337.829,530.633 " />
<polyline points="475.755,100.528 471.74,99.1865 468.501,96.0352 467.034,91.9329 466.965,90.9118 466.963,88.2889 466.963,82.4544 466.963,70.7855 466.963,64.9511 467.64,64.6554 469.056,64.8649 471.906,65.4319 477.638,67.1726 488.852,73.0945 498.995,82.0105 507.32,93.213 510.649,99.3669 511.2,100.54 511.2,100.584 511.2,100.673 511.756,103.32 512.375,103.637 512.717,103.685 514.512,103.686 522.951,103.735 525.926,104.327 526.64,104.576 526.626,105.461 526.32,107.019 525.526,113.35 526.071,126.114 526.646,129.24 526.619,130.039 526.264,130.168 524.805,130.585 521.796,130.921 519.782,130.921 515.755,130.921 513.742,130.921 512.586,130.931 511.93,131.161 511.211,132.299 511.2,133.714 511.2,134.07 504.386,145.89 495.293,156.325 484.64,164.156 473.25,168.84 467.555,169.963 466.963,167.424 466.963,155.755 466.963,144.086 467.838,139.798 470.597,136.221 474.511,134.292 475.521,134.106 478.244,134.079 484.75,134.079 497.761,134.079 504.267,134.079 504.954,133.76 504.954,133.049 504.982,131.815 506.035,128.519 508.48,125.953 509.998,125.18 510.326,124.64 509.582,123.321 508.552,120.462 508.283,118.975 507.256,118.865 502.876,118.865 498.497,118.865 499.328,123.865 500.197,126.322 498.424,126.687 480.206,126.687 479.912,110.231 479.912,108.14 481.949,107.92 486.503,107.92 495.612,107.92 500.167,107.92 498.85,112.683 498.479,115.263 499.334,115.742 501.524,115.742 505.904,115.742 508.094,115.742 508.87,113.025 510.139,110.268 510.181,109.493 509.407,109.175 506.665,107.003 505.141,103.826 504.954,102.163 504.954,101.777 504.954,101.066 504.954,100.71 504.954,100.533 501.778,100.528 475.755,100.528 " />
<polyline points="508.693,140.267 508.75,140.273 " />
<polyline points="459.627,165.24 459.627,152.9 459.627,146.73 459.8,141.415 461.17,136.737 463.973,132.434 467.963,129.131 472.576,127.212 476.789,126.215 476.789,120.801 476.789,109.975 476.789,108.621 476.249,107.911 473.948,107.683 469.277,106.188 465.038,103.266 461.845,99.196 460.053,94.5596 459.627,89.6807 459.627,77.3408 459.627,71.1708 459.627,69.6283 457.007,69.5084 450.548,70.4807 444.021,72.4186 437.639,75.369 431.635,79.3152 426.233,84.1704 421.63,89.7814 417.965,95.9446 415.311,102.429 413.669,109.005 413.157,121.8 416.289,134.895 419.367,141.275 423.434,147.235 428.39,152.555 434.068,157.048 440.258,160.587 446.727,163.115 459.627,165.24 " />
<polyline points="475.755,222.326 471.74,220.984 468.501,217.833 467.034,213.731 466.965,212.71 466.963,210.087 466.963,204.252 466.963,192.583 466.963,186.749 467.64,186.453 469.056,186.663 471.906,187.23 477.638,188.97 488.852,194.892 498.995,203.808 507.32,215.011 510.649,221.165 511.2,222.338 511.2,222.382 511.2,222.471 511.756,225.118 512.375,225.435 512.717,225.483 514.512,225.484 522.951,225.533 525.926,226.125 526.64,226.374 526.626,227.259 526.32,228.816 525.526,235.148 526.071,247.912 526.646,251.038 526.619,251.836 526.264,251.965 524.805,252.382 521.796,252.718 519.782,252.718 515.755,252.718 513.742,252.718 512.586,252.728 511.93,252.958 511.211,254.096 511.2,255.512 511.2,255.867 504.386,267.688 495.293,278.123 484.64,285.954 473.25,290.637 467.555,291.76 466.963,289.221 466.963,277.552 466.963,265.883 467.838,261.595 470.597,258.018 474.511,256.089 475.521,255.904 478.244,255.876 484.75,255.876 497.761,255.876 504.267,255.876 504.954,255.558 504.954,254.847 504.982,253.613 506.035,250.316 508.48,247.751 509.998,246.978 510.326,246.438 509.582,245.119 508.552,242.26 508.283,240.772 507.256,240.663 502.876,240.663 498.497,240.663 499.328,245.663 500.197,248.12 498.424,248.485 480.206,248.485 479.912,232.029 479.912,229.938 481.949,229.717 486.503,229.717 495.612,229.717 500.167,229.717 498.85,234.481 498.479,237.06 499.334,237.54 501.524,237.54 505.904,237.54 508.094,237.54 508.87,234.823 510.139,232.065 510.181,231.291 509.407,230.973 506.665,228.8 505.141,225.624 504.954,223.961 504.954,223.575 504.954,222.864 504.954,222.508 504.954,222.33 501.778,222.326 475.755,222.326 " />
<polyline points="508.693,262.065 508.75,262.071 " />
<polyline points="459.627,287.037 459.627,274.698 459.627,268.528 459.8,263.213 461.17,258.535 463.973,254.232 467.963,250.928 472.576,249.01 476.789,248.013 476.789,242.599 476.789,231.772 476.789,230.419 476.249,229.709 473.948,229.481 469.277,227.986 465.038,225.063 461.845,220.994 460.053,216.357 459.627,211.478 459.627,199.138 459.627,192.969 459.627,191.426 457.007,191.306 450.548,192.278 444.021,194.216 437.639,197.167 431.635,201.113 426.233,205.968 421.63,211.579 417.965,217.742 415.311,224.227 413.669,230.802 413.157,243.598 416.289,256.693 419.367,263.072 423.434,269.033 428.39,274.353 434.068,278.845 440.258,282.384 446.727,284.912 459.627,287.037 " />
<polyline points="475.755,344.124 471.74,342.782 468.501,339.631 467.034,335.528 466.965,334.507 466.963,331.884 466.963,326.05 466.963,314.381 466.963,308.546 467.64,308.251 469.056,308.46 471.906,309.027 477.638,310.768 488.852,316.69 498.995,325.606 507.32,336.808 510.649,342.962 511.2,344.135 511.2,344.18 511.2,344.269 511.756,346.915 512.375,347.233 512.717,347.281 514.512,347.282 522.951,347.33 525.926,347.922 526.64,348.172 526.626,349.056 526.32,350.614 525.526,356.945 526.071,369.71 526.646,372.836 526.619,373.634 526.264,373.763 524.805,374.18 521.796,374.516 519.782,374.516 515.755,374.516 513.742,374.516 512.586,374.526 511.93,374.756 511.211,375.894 511.2,377.309 511.2,377.665 504.386,389.486 495.293,399.92 484.64,407.752 473.25,412.435 467.555,413.558 466.963,411.019 466.963,399.35 466.963,387.681 467.838,383.393 470.597,379.816 474.511,377.887 475.521,377.702 478.244,377.674 484.75,377.674 497.761,377.674 504.267,377.674 504.954,377.356 504.954,376.644 504.982,375.41 506.035,372.114 508.48,369.549 509.998,368.775 510.326,368.236 509.582,366.917 508.552,364.057 508.283,362.57 507.256,362.46 502.876,362.46 498.497,362.46 499.328,367.461 500.197,369.917 498.424,370.283 480.206,370.283 479.912,353.826 479.912,351.736 481.949,351.515 486.503,351.515 495.612,351.515 500.167,351.515 498.85,356.279 498.479,358.858 499.334,359.337 501.524,359.337 505.904,359.337 508.094,359.337 508.87,356.621 510.139,353.863 510.181,353.089 509.407,352.77 506.665,350.598 505.141,347.421 504.954,345.759 504.954,345.373 504.954,344.661 504.954,344.306 504.954,344.128 501.778,344.124 475.755,344.124 " />
<polyline points="508.693,383.862 508.75,383.869 " />
<polyline points="459.627,408.835 459.627,396.495 459.627,390.325 459.8,385.011 461.17,380.333 463.973,376.03 467.963,372.726 472.576,370.808 476.789,369.81 476.789,364.397 476.789,353.57 476.789,352.217 476.249,351.506 473.948,351.278 469.277,349.784 465.038,346.861 461.845,342.791 460.053,338.155 459.627,333.276 459.627,320.936 459.627,314.766 459.627,313.224 457.007,313.104 450.548,314.076 444.021,316.014 437.639,318.964 431.635,322.911 426.233,327.766 421.63,333.377 417.965,339.54 415.311,346.025 413.669,352.6 413.157,365.395 416.289,378.49 419.367,384.87 423.434,390.831 428.39,396.15 434.068,400.643 440.258,404.182 446.727,406.71 459.627,408.835 " />
<polyline points="475.755,465.921 471.74,464.58 468.501,461.428 467.034,457.326 466.965,456.305 466.963,453.682 466.963,447.848 466.963,436.179 466.963,430.344 467.64,430.049 469.056,430.258 471.906,430.825 477.638,432.566 488.852,438.488 498.995,447.404 507.32,458.606 510.649,464.76 511.2,465.933 511.2,465.978 511.2,466.066 511.756,468.713 512.375,469.031 512.717,469.079 514.512,469.079 522.951,469.128 525.926,469.72 526.64,469.969 526.626,470.854 526.32,472.412 525.526,478.743 526.071,491.508 526.646,494.633 526.619,495.432 526.264,495.561 524.805,495.978 521.796,496.314 519.782,496.314 515.755,496.314 513.742,496.314 512.586,496.324 511.93,496.554 511.211,497.692 511.2,499.107 511.2,499.463 504.386,511.284 495.293,521.718 484.64,529.549 473.25,534.233 467.555,535.356 466.963,532.817 466.963,521.148 466.963,509.479 467.838,505.191 470.597,501.614 474.511,499.685 475.521,499.499 478.244,499.472 484.75,499.472 497.761,499.472 504.267,499.472 504.954,499.153 504.954,498.442 504.982,497.208 506.035,493.912 508.48,491.346 509.998,490.573 510.326,490.033 509.582,488.714 508.552,485.855 508.283,484.368 507.256,484.258 502.876,484.258 498.497,484.258 499.328,489.258 500.197,491.715 498.424,492.08 480.206,492.08 479.912,475.624 479.912,473.533 481.949,473.313 486.503,473.313 495.612,473.313 500.167,473.313 498.85,478.076 498.479,480.656 499.334,481.135 501.524,481.135 505.904,481.135 508.094,481.135 508.87,478.418 510.139,475.661 510.181,474.887 509.407,474.568 506.665,472.396 505.141,469.219 504.954,467.556 504.954,467.17 504.954,466.459 504.954,466.104 504.954,465.926 501.778,465.921 475.755,465.921 " />
<polyline points="508.693,505.66 508.75,505.666 " />
<polyline points="459.627,530.633 459.627,518.293 459.627,512.123 459.8,506.809 461.17,502.13 463.973,497.827 467.963,494.524 472.576,492.605 476.789,491.608 476.789,486.195 476.789,475.368 476.789,474.014 476.249,473.304 473.948,473.076 469.277,471.581 465.038,468.659 461.845,464.589 460.053,459.953 459.627,455.074 459.627,442.734 459.627,436.564 459.627,435.021 457.007,434.902 450.548,435.874 444.021,437.812 437.639,440.762 431.635,444.708 426.233,449.564 421.63,455.175 417.965,461.338 415.311,467.822 413.669,474.398 413.157,487.193 416.289,500.288 419.367,506.668 423.434,512.629 428.39,517.948 434.068,522.441 440.258,525.98 446.727,528.508 459.627,530.633 " />
<polyline points="597.553,100.528 593.537,99.1865 590.299,96.0352 588.832,91.9329 588.762,90.9118 588.761,88.2889 588.761,82.4544 588.761,70.7855 588.761,64.9511 589.438,64.6554 590.854,64.8649 593.703,65.4319 599.436,67.1726 610.649,73.0945 620.792,82.0105 629.118,93.213 632.447,99.3669 632.997,100.54 632.997,100.584 632.997,100.673 633.554,103.32 634.172,103.637 634.515,103.685 636.31,103.686 644.749,103.735 647.724,104.327 648.438,104.576 648.424,105.461 648.117,107.019 647.323,113.35 647.868,126.114 648.444,129.24 648.417,130.039 648.061,130.168 646.603,130.585 643.593,130.921 641.58,130.921 637.553,130.921 635.54,130.921 634.384,130.931 633.727,131.161 633.008,132.299 632.997,133.714 632.997,134.07 626.183,145.89 617.091,156.325 606.438,164.156 595.048,168.84 589.352,169.963 588.761,167.424 588.761,155.755 588.761,144.086 589.635,139.798 592.394,136.221 596.309,134.292 597.319,134.106 600.042,134.079 606.548,134.079 619.559,134.079 626.065,134.079 626.751,133.76 626.751,133.049 626.78,131.815 627.832,128.519 630.278,125.953 631.796,125.18 632.123,124.64 631.38,123.321 630.349,120.462 630.081,118.975 629.053,118.865 624.674,118.865 620.294,118.865 621.126,123.865 621.995,126.322 620.222,126.687 602.004,126.687 601.709,110.231 601.709,108.14 603.746,107.92 608.301,107.92 617.41,107.92 621.965,107.92 620.648,112.683 620.277,115.263 621.132,115.742 623.322,115.742 627.701,115.742 629.891,115.742 630.668,113.025 631.936,110.268 631.979,109.493 631.205,109.175 628.463,107.003 626.939,103.826 626.752,102.163 626.751,101.777 626.751,101.066 626.751,100.71 626.751,100.533 623.576,100.528 597.553,100.528 " />
<polyline points="630.49,140.267 630.548,140.273 " />
<polyline points="581.425,165.24 581.425,152.9 581.425,146.73 581.598,141.415 582.967,136.737 585.771,132.434 589.761,129.131 594.374,127.212 598.586,126.215 598.586,120.801 598.586,109.975 598.586,108.621 598.046,107.911 595.746,107.683 591.074,106.188 586.835,103.266 583.642,99.196 581.851,94.5596 581.425,89.6807 581.425,77.3408 581.425,71.1708 581.425,69.6283 578.805,69.5084 572.346,70.4807 565.819,72.4186 559.437,75.369 553.432,79.3152 548.031,84.1704 543.428,89.7814 539.763,95.9446 537.109,102.429 535.467,109.005 534.955,121.8 538.087,134.895 541.165,141.275 545.232,147.235 550.187,152.555 555.865,157.048 562.055,160.587 568.525,163.115 581.425,165.24 " />
<polyline points="597.553,222.326 593.537,220.984 590.299,217.833 588.832,213.731 588.762,212.71 588.761,210.087 588.761,204.252 588.761,192.583 588.761,186.749 589.438,186.453 590.854,186.663 593.703,187.23 599.436,188.97 610.649,194.892 620.792,203.808 629.118,215.011 632.447,221.165 632.997,222.338 632.997,222.382 632.997,222.471 633.554,225.118 634.172,225.435 634.515,225.483 636.31,225.484 644.749,225.533 647.724,226.125 648.438,226.374 648.424,227.259 648.117,228.816 647.323,235.148 647.868,247.912 648.444,251.038 648.417,251.836 648.061,251.965 646.603,252.382 643.593,252.718 641.58,252.718 637.553,252.718 635.54,252.718 634.384,252.728 633.727,252.958 633.008,254.096 632.997,255.512 632.997,255.867 626.183,267.688 617.091,278.123 606.438,285.954 595.048,290.637 589.352,291.76 588.761,289.221 588.761,277.552 588.761,265.883 589.635,261.595 592.394,258.018 596.309,256.089 597.319,255.904 600.042,255.876 606.548,255.876 619.559,255.876 626.065,255.876 626.751,255.558 626.751,254.847 626.78,253.613 627.832,250.316 630.278,247.751 631.796,246.978 632.123,246.438 631.38,245.119 630.349,242.26 630.081,240.772 629.053,240.663 624.674,240.663 620.294,240.663 621.126,245.663 621.995,248.12 620.222,248.485 602.004,248.485 601.709,232.029 601.709,229.938 603.746,229.717 608.301,229.717 617.41,229.717 621.965,229.717 620.648,234.481 620.277,237.06 621.132,237.54 623.322,237.54 627.701,237.54 629.891,237.54 630.668,234.823 631.936,232.065 631.979,231.291 631.205,230.973 628.463,228.8 626.939,225.624 626.752,223.961 626.751,223.575 626.751,222.864 626.751,222.508 626.751,222.33 623.576,222.326 597.553,222.326 " />
<polyline points="630.49,262.065 630.548,262.071 " />
<polyline points="581.425,287.037 581.425,274.698 581.425,268.528 581.598,263.213 582.967,258.535 585.771,254.232 589.761,250.928 594.374,249.01 598.586,248.013 598.586,242.599 598.586,231.772 598.586,230.419 598.046,229.709 595.746,229.481 591.074,227.986 586.835,225.063 583.642,220.994 581.851,216.357 581.425,211.478 581.425,199.138 581.425,192.969 581.425,191.426 578.805,191.306 572.346,192.278 565.819,194.216 559.437,197.167 553.432,201.113 548.031,205.968 543.428,211.579 539.763,217.742 537.109,224.227 535.467,230.802 534.955,243.598 538.087,256.693 541.165,263.072 545.232,269.033 550.187,274.353 555.865,278.845 562.055,282.384 568.525,284.912 581.425,287.037 " />
<polyline points="597.553,344.124 593.537,342.782 590.299,339.631 588.832,335.528 588.762,334.507 588.761,331.884 588.761,326.05 588.761,314.381 588.761,308.546 589.438,308.251 590.854,308.46 593.703,309.027 599.436,310.768 610.649,316.69 620.792,325.606 629.118,336.808 632.447,342.962 632.997,344.135 632.997,344.18 632.997,344.269 633.554,346.915 634.172,347.233 634.515,347.281 636.31,347.282 644.749,347.33 647.724,347.922 648.438,348.172 648.424,349.056 648.117,350.614 647.323,356.945 647.868,369.71 648.444,372.836 648.417,373.634 648.061,373.763 646.603,374.18 643.593,374.516 641.58,374.516 637.553,374.516 635.54,374.516 634.384,374.526 633.727,374.756 633.008,375.894 632.997,377.309 632.997,377.665 626.183,389.486 617.091,399.92 606.438,407.752 595.048,412.435 589.352,413.558 588.761,411.019 588.761,399.35 588.761,387.681 589.635,383.393 592.394,379.816 596.309,377.887 597.319,377.702 600.042,377.674 606.548,377.674 619.559,377.674 626.065,377.674 626.751,377.356 626.751,376.644 626.78,375.41 627.832,372.114 630.278,369.549 631.796,368.775 632.123,368.236 631.38,366.917 630.349,364.057 630.081,362.57 629.053,362.46 624.674,362.46 620.294,362.46 621.126,367.461 621.995,369.917 620.222,370.283 602.004,370.283 601.709,353.826 601.709,351.736 603.746,351.515 608.301,351.515 617.41,351.515 621.965,351.515 620.648,356.279 620.277,358.858 621.132,359.337 623.322,359.337 627.701,359.337 629.891,359.337 630.668,356.621 631.936,353.863 631.979,353.089 631.205,352.77 628.463,350.598 626.939,347.421 626.752,345.759 626.751,345.373 626.751,344.661 626.751,344.306 626.751,344.128 623.576,344.124 597.553,344.124 " />
<polyline points="630.49,383.862 630.548,383.869 " />
<polyline points="581.425,408.835 581.425,396.495 581.425,390.325 581.598,385.011 582.967,380.333 585.771,376.03 589.761,372.726 594.374,370.808 598.586,369.81 598.586,364.397 598.586,353.57 598.586,352.217 598.046,351.506 595.746,351.278 591.074,349.784 586.835,346.861 583.642,342.791 581.851,338.155 581.425,333.276 581.425,320.936 581.425,314.766 581.425,313.224 578.805,313.104 572.346,314.076 565.819,316.014 559.437,318.964 553.432,322.911 548.031,327.766 543.428,333.377 539.763,339.54 537.109,346.025 535.467,352.6 534.955,365.395 538.087,378.49 541.165,384.87 545.232,390.831 550.187,396.15 555.865,400.643 562.055,404.182 568.525,406.71 581.425,408.835 " />
<polyline points="597.553,465.921 593.537,464.58 590.299,461.428 588.832,457.326 588.762,456.305 588.761,453.682 588.761,447.848 588.761,436.179 588.761,430.344 589.438,430.049 590.854,430.258 593.703,430.825 599.436,432.566 610.649,438.488 620.792,447.404 629.118,458.606 632.447,464.76 632.997,465.933 632.997,465.978 632.997,466.066 633.554,468.713 634.172,469.031 634.515,469.079 636.31,469.079 644.749,469.128 647.724,469.72 648.438,469.969 648.424,470.854 648.117,472.412 647.323,478.743 647.868,491.508 648.444,494.633 648.417,495.432 648.061,495.561 646.603,495.978 643.593,496.314 641.58,496.314 637.553,496.314 635.54,496.314 634.384,496.324 633.727,496.554 633.008,497.692 632.997,499.107 632.997,499.463 626.183,511.284 617.091,521.718 606.438,529.549 595.048,534.233 589.352,535.356 588.761,532.817 588.761,521.148 588.761,509.479 589.635,505.191 592.394,501.614 596.309,499.685 597.319,499.499 600.042,499.472 606.548,499.472 619.559,499.472 626.065,499.472 626.751,499.153 626.751,498.442 626.78,497.208 627.832,493.912 630.278,491.346 631.796,490.573 632.123,490.033 631.38,488.714 630.349,485.855 630.081,484.368 629.053,484.258 624.674,484.258 620.294,484.258 621.126,489.258 621.995,491.715 620.222,492.08 602.004,492.08 601.709,475.624 601.709,473.533 603.746,473.313 608.301,473.313 617.41,473.313 621.965,473.313 620.648,478.076 620.277,480.656 621.132,481.135 623.322,481.135 627.701,481.135 629.891,481.135 630.668,478.418 631.936,475.661 631.979,474.887 631.205,474.568 628.463,472.396 626.939,469.219 626.752,467.556 626.751,467.17 626.751,466.459 626.751,466.104 626.751,465.926 623.576,465.921 597.553,465.921 " />
<polyline points="630.49,505.66 630.548,505.666 " />
<polyline points="581.425,530.633 581.425,518.293 581.425,512.123 581.598,506.809 582.967,502.13 585.771,497.827 589.761,494.524 594.374,492.605 598.586,491.608 598.586,486.195 598.586,475.368 598.586,474.014 598.046,473.304 595.746,473.076 591.074,471.581 586.835,468.659 583.642,464.589 581.851,459.953 581.425,455.074 581.425,442.734 581.425,436.564 581.425,435.021 578.805,434.902 572.346,435.874 565.819,437.812 559.437,440.762 553.432,444.708 548.031,449.564 543.428,455.175 539.763,461.338 537.109,467.822 535.467,474.398 534.955,487.193 538.087,500.288 541.165,506.668 545.232,512.629 550.187,517.948 555.865,522.441 562.055,525.98 568.525,528.508 581.425,530.633 " />
<polyline points="719.35,100.528 715.335,99.1865 712.097,96.0352 710.629,91.9329 710.56,90.9118 710.559,88.2889 710.559,82.4544 710.559,70.7855 710.559,64.9511 711.236,64.6554 712.651,64.8649 715.501,65.4319 721.234,67.1726 732.447,73.0945 742.59,82.0105 750.916,93.213 754.245,99.3669 754.795,100.54 754.795,100.584 754.795,100.673 755.352,103.32 755.97,103.637 756.312,103.685 758.108,103.686 766.546,103.735 769.522,104.327 770.236,104.576 770.222,105.461 769.915,107.019 769.121,113.35 769.666,126.114 770.242,129.24 770.214,130.039 769.859,130.168 768.4,130.585 765.391,130.921 763.378,130.921 759.351,130.921 757.337,130.921 756.181,130.931 755.525,131.161 754.806,132.299 754.795,133.714 754.795,134.07 747.981,145.89 738.889,156.325 728.236,164.156 716.845,168.84 711.15,169.963 710.559,167.424 710.559,155.755 710.559,144.086 711.433,139.798 714.192,136.221 718.107,134.292 719.116,134.106 721.839,134.079 728.345,134.079 741.357,134.079 747.863,134.079 748.549,133.76 748.549,133.049 748.578,131.815 749.63,128.519 752.075,125.953 753.594,125.18 753.921,124.64 753.178,123.321 752.147,120.462 751.879,118.975 750.851,118.865 746.472,118.865 742.092,118.865 742.924,123.865 743.792,126.322 742.02,126.687 723.801,126.687 723.507,110.231 723.507,108.14 725.544,107.92 730.099,107.92 739.208,107.92 743.762,107.92 742.446,112.683 742.074,115.263 742.93,115.742 745.12,115.742 749.499,115.742 751.689,115.742 752.465,113.025 753.734,110.268 753.776,109.493 753.003,109.175 750.261,107.003 748.737,103.826 748.549,102.163 748.549,101.777 748.549,101.066 748.549,100.71 748.549,100.533 745.374,100.528 719.35,100.528 " />
<polyline points="752.288,140.267 752.346,140.273 " />
<polyline points="703.222,165.24 703.222,152.9 703.222,146.73 703.396,141.415 704.765,136.737 707.569,132.434 711.558,129.131 716.172,127.212 720.384,126.215 720.384,120.801 720.384,109.975 720.384,108.621 719.844,107.911 717.543,107.683 712.872,106.188 708.633,103.266 705.44,99.196 703.649,94.5596 703.222,89.6807 703.222,77.3408 703.222,71.1708 703.222,69.6283 700.603,69.5084 694.144,70.4807 687.617,72.4186 681.235,75.369 675.23,79.3152 669.829,84.1704 665.225,89.7814 661.561,95.9446 658.906,102.429 657.265,109.005 656.752,121.8 659.884,134.895 662.962,141.275 667.03,147.235 671.985,152.555 677.663,157.048 683.853,160.587 690.323,163.115 703.222,165.24 " />
<polyline points="719.35,222.326 715.335,220.984 712.097,217.833 710.629,213.731 710.56,212.71 710.559,210.087 710.559,204.252 710.559,192.583 710.559,186.749 711.236,186.453 712.651,186.663 715.501,187.23 721.234,188.97 732.447,194.892 742.59,203.808 750.916,215.011 754.245,221.165 754.795,222.338 754.795,222.382 754.795,222.471 755.352,225.118 755.97,225.435 756.312,225.483 758.108,225.484 766.546,225.533 769.522,226.125 770.236,226.374 770.222,227.259 769.915,228.816 769.121,235.148 769.666,247.912 770.242,251.038 770.214,251.836 769.859,251.965 768.4,252.382 765.391,252.718 763.378,252.718 759.351,252.718 757.337,252.718 756.181,252.728 755.525,252.958 754.806,254.096 754.795,255.512 754.795,255.867 747.981,267.688 738.889,278.123 728.236,285.954 716.845,290.637 711.15,291.76 710.559,289.221 710.559,277.552 710.559,265.883 711.433,261.595 714.192,258.018 718.107,256.089 719.116,255.904 721.839,255.876 728.345,255.876 741.357,255.876 747.863,255.876 748.549,255.558 748.549,254.847 748.578,253.613 749.63,250.316 752.075,247.751 753.594,246.978 753.921,246.438 753.178,245.119 752.147,242.26 751.879,240.772 750.851,240.663 746.472,240.663 742.092,240.663 742.924,245.663 743.792,248.12 742.02,248.485 723.801,248.485 723.507,232.029 723.507,229.938 725.544,229.717 730.099,229.717 739.208,229.717 743.762,229.717 742.446,234.481 742.074,237.06 742.93,237.54 745.12,237.54 749.499,237.54 751.689,237.54 752.465,234.823 753.734,232.065 753.776,231.291 753.003,230.973 750.261,228.8 748.737,225.624 748.549,223.961 748.549,223.575 748.549,222.864 748.549,222.508 748.549,222.33 745.374,222.326 719.35,222.326 " />
<polyline points="752.288,262.065 752.346,262.071 " />
<polyline points="703.222,287.037 703.222,274.698 703.222,268.528 703.396,263.213 704.765,258.535 707.569,254.232 711.558,250.928 716.172,249.01 720.384,248.013 720.384,242.599 720.384,231.772 720.384,230.419 719.844,229.709 717.543,229.481 712.872,227.986 708.633,225.063 705.44,220.994 703.649,216.357 703.222,211.478 703.222,199.138 703.222,192.969 703.222,191.426 700.603,191.306 694.144,192.278 687.617,194.216 681.235,197.167 675.23,201.113 669.829,205.968 665.225,211.579 661.561,217.742 658.906,224.227 657.265,230.802 656.752,243.598 659.884,256.693 662.962,263.072 667.03,269.033 671.985,274.353 677.663,278.845 683.853,282.384 690.323,284.912 703.222,287.037 " />
<polyline points="719.35,344.124 715.335,342.782 712.097,339.631 710.629,335.528 710.56,334.507 710.559,331.884 710.559,326.05 710.559,314.381 710.559,308.546 711.236,308.251 712.651,308.46 715.501,309.027 721.234,310.768 732.447,316.69 742.59,325.606 750.916,336.808 754.245,342.962 754.795,344.135 754.795,344.18 754.795,344.269 755.352,346.915 755.97,347.233 756.312,347.281 758.108,347.282 766.546,347.33 769.522,347.922 770.236,348.172 770.222,349.056 769.915,350.614 769.121,356.945 769.666,369.71 770.242,372.836 770.214,373.634 769.859,373.763 768.4,374.18 765.391,374.516 763.378,374.516 759.351,374.516 757.337,374.516 756.181,374.526 755.525,374.756 754.806,375.894 754.795,377.309 754.795,377.665 747.981,389.486 738.889,399.92 728.236,407.752 716.845,412.435 711.15,413.558 710.559,411.019 710.559,399.35 710.559,387.681 711.433,383.393 714.192,379.816 718.107,377.887 719.116,377.702 721.839,377.674 728.345,377.674 741.357,377.674 747.863,377.674 748.549,377.356 748.549,376.644 748.578,375.41 749.63,372.114 752.075,369.549 753.594,368.775 753.921,368.236 753.178,366.917 752.147,364.057 751.879,362.57 750.851,362.46 746.472,362.46 742.092,362.46 742.924,367.461 743.792,369.917 742.02,370.283 723.801,370.283 723.507,353.826 723.507,351.736 725.544,351.515 730.099,351.515 739.208,351.515 743.762,351.515 742.446,356.279 742.074,358.858 742.93,359.337 745.12,359.337 749.499,359.337 751.689,359.337 752.465,356.621 753.734,353.863 753.776,353.089 753.003,352.77 750.261,350.598 748.737,347.421 748.549,345.759 748.549,345.373 748.549,344.661 748.549,344.306 748.549,344.128 745.374,344.124 719.35,344.124 " />
<polyline points="752.288,383.862 752.346,383.869 " />
<polyline points="703.222,408.835 703.222,396.495 703.222,390.325 703.396,385.011 704.765,380.333 707.569,376.03 711.558,372.726 716.172,370.808 720.384,369.81 720.384,364.397 720.384,353.57 720.384,352.217 719.844,351.506 717.543,351.278 712.872,349.784 708.633,346.861 705.44,342.791 703.649,338.155 703.222,333.276 703.222,320.936 703.222,314.766 703.222,313.224 700.603,313.104 694.144,314.076 687.617,316.014 681.235,318.964 675.23,322.911 669.829,327.766 665.225,333.377 661.561,339.54 658.906,346.025 657.265,352.6 656.752,365.395 659.884,378.49 662.962,384.87 667.03,390.831 671.985,396.15 677.663,400.643 683.853,404.182 690.323,406.71 703.222,408.835 " />
<polyline points="719.35,465.921 715.335,464.58 712.097,461.428 710.629,457.326 710.56,456.305 710.559,453.682 710.559,447.848 710.559,436.179 710.559,430.344 711.236,430.049 712.651,430.258 715.501,430.825 721.234,432.566 732.447,438.488 742.59,447.404 750.916,458.606 754.245,464.76 754.795,465.933 754.795,465.978 754.795,466.066 755.352,468.713 755.97,469.031 756.312,469.079 758.108,469.079 766.546,469.128 769.522,469.72 770.236,469.969 770.222,470.854 769.915,472.412 769.121,478.743 769.666,491.508 770.242,494.633 770.214,495.432 769.859,495.561 768.4,495.978 765.391,496.314 763.378,496.314 759.351,496.314 757.337,496.314 756.181,496.324 755.525,496.554 754.806,497.692 754.795,499.107 754.795,499.463 747.981,511.284 738.889,521.718 728.236,529.549 716.845,534.233 711.15,535.356 710.559,532.817 710.559,521.148 710.559,509.479 711.433,505.191 714.192,501.614 718.107,499.685 719.116,499.499 721.839,499.472 728.345,499.472 741.357,499.472 747.863,499.472 748.549,499.153 748.549,498.442 748.578,497.208 749.63,493.912 752.075,491.346 753.594,490.573 753.921,490.033 753.178,488.714 752.147,485.855 751.879,484.368 750.851,484.258 746.472,484.258 742.092,484.258 742.924,489.258 743.792,491.715 742.02,492.08 723.801,492.08 723.507,475.624 723.507,473.533 725.544,473.313 730.099,473.313 739.208,473.313 743.762,473.313 742.446,478.076 742.074,480.656 742.93,481.135 745.12,481.135 749.499,481.135 751.689,481.135 752.465,478.418 753.734,475.661 753.776,474.887 753.003,474.568 750.261,472.396 748.737,469.219 748.549,467.556 748.549,467.17 748.549,466.459 748.549,466.104 748.549,465.926 745.374,465.921 719.35,465.921 " />
<polyline points="752.288,505.66 752.346,505.666 " />
<polyline points="703.222,530.633 703.222,518.293 703.222,512.123 703.396,506.809 704.765,502.13 707.569,497.827 711.558,494.524 716.172,492.605 720.384,491.608 720.384,486.195 720.384,475.368 720.384,474.014 719.844,473.304 717.543,473.076 712.872,471.581 708.633,468.659 705.44,464.589 703.649,459.953 703.222,455.074 703.222,442.734 703.222,436.564 703.222,435.021 700.603,434.902 694.144,435.874 687.617,437.812 681.235,440.762 675.23,444.708 669.829,449.564 665.225,455.175 661.561,461.338 658.906,467.822 657.265,474.398 656.752,487.193 659.884,500.288 662.962,506.668 667.03,512.629 671.985,517.948 677.663,522.441 683.853,525.98 690.323,528.508 703.222,530.633 " />
<polyline points="110.362,100.528 106.347,99.1865 103.108,96.0352 101.641,91.9329 101.572,90.9118 101.57,88.2889 101.57,82.4544 101.57,70.7855 101.57,64.9511 102.247,64.6554 103.663,64.8649 106.513,65.4319 112.245,67.1726 123.458,73.0945 133.602,82.0105 141.927,93.213 145.256,99.3669 145.807,100.54 145.807,100.584 145.807,100.673 146.363,103.32 146.981,103.637 147.324,103.685 149.119,103.686 157.558,103.735 160.533,104.327 161.247,104.576 161.233,105.461 160.927,107.019 160.133,113.35 160.677,126.114 161.253,129.24 161.226,130.039 160.871,130.168 159.412,130.585 156.402,130.921 154.389,130.921 150.362,130.921 148.349,130.921 147.193,130.931 146.537,131.161 145.818,132.299 145.807,133.714 145.807,134.07 138.993,145.89 129.9,156.325 119.247,164.156 107.857,168.84 102.162,169.963 101.57,167.424 101.57,155.755 101.57,144.086 102.445,139.798 105.203,136.221 109.118,134.292 110.128,134.106 112.851,134.079 119.357,134.079 132.368,134.079 138.874,134.079 139.561,133.76 139.561,133.049 139.589,131.815 140.642,128.519 143.087,125.953 144.605,125.18 144.933,124.64 144.189,123.321 143.159,120.462 142.89,118.975 141.863,118.865 137.483,118.865 133.103,118.865 133.935,123.865 134.804,126.322 133.031,126.687 114.813,126.687 114.519,110.231 114.519,108.14 116.556,107.92 121.11,107.92 130.219,107.92 134.774,107.92 133.457,112.683 133.086,115.263 133.941,115.742 136.131,115.742 140.511,115.742 142.7,115.742 143.477,113.025 144.746,110.268 144.788,109.493 144.014,109.175 141.272,107.003 139.748,103.826 139.561,102.163 139.561,101.777 139.561,101.066 139.561,100.71 139.561,100.533 136.385,100.528 110.362,100.528 " />
<polyline points="143.3,140.267 143.357,140.273 " />
<polyline points="94.2338,165.24 94.2338,152.9 94.2338,146.73 94.4072,141.415 95.7767,136.737 98.5803,132.434 102.57,129.131 107.183,127.212 111.395,126.215 111.395,120.801 111.395,109.975 111.395,108.621 110.856,107.911 108.555,107.683 103.884,106.188 99.6446,103.266 96.4515,99.196 94.6601,94.5596 94.2338,89.6807 94.2338,77.3408 94.2338,71.1708 94.2338,69.6283 91.6143,69.5084 85.1551,70.4807 78.628,72.4186 72.2462,75.369 66.2414,79.3152 60.8401,84.1704 56.2368,89.7814 52.572,95.9446 49.9177,102.429 48.2761,109.005 47.7639,121.8 50.8958,134.895 53.9739,141.275 58.0414,147.235 62.9966,152.555 68.6746,157.048 74.8644,160.587 81.3341,163.115 94.2338,165.24 " />
<polyline points="779.676,560.928 783.432,560.35 787.085,558.492 789.994,555.466 791.705,551.772 792.074,549.874 792.147,548.945 792.157,548.489 792.157,547.812 792.157,545.319 792.157,540.331 792.157,530.356 792.157,370.755 792.157,51.5797 791.579,47.797 789.72,44.1452 786.697,41.2325 783,39.5229 781.103,39.154 780.174,39.0823 779.718,39.0724 779.69,39.0724 778.706,39.0723 774.895,39.0723 767.273,39.0723 752.03,39.0723 508.128,39.0723 20.3275,39.0723 16.5678,39.6502 12.9152,41.5077 10.0031,44.5326 8.29508,48.2286 7.92479,50.1265 7.85306,51.055 7.84321,51.5109 7.84314,52.1876 7.84314,54.6814 7.84314,59.6689 7.84314,69.644 7.84314,229.245 7.84314,548.446 8.4212,552.203 10.2805,555.855 13.3032,558.767 17,560.477 18.8973,560.846 19.8258,560.918 20.2816,560.928 20.3099,560.928 21.2793,560.928 25.1046,560.928 32.7265,560.928 47.9704,560.928 291.872,560.928 779.676,560.928 " />
</g>
</svg>
